<svg width="464" height="446" viewBox="0 0 464 446" fill="none" xmlns="http://www.w3.org/2000/svg">
<path d="M352.787 445.98C341.967 445.98 331.809 441.295 324.908 433.118L324.46 432.528C324.063 432.008 323.676 431.479 323.29 430.949L322.811 430.277L322.608 430.063C322.608 430.063 322.537 429.982 322.506 429.941C319.157 425.44 315.442 421.153 311.442 417.202C307.381 413.169 302.943 409.401 298.251 405.99C278.82 391.866 255.949 384.401 232.09 384.401C226.665 384.401 221.179 384.798 215.774 385.583C186.572 389.809 160.576 404.982 142.57 428.312C142.54 428.352 142.489 428.393 142.448 428.444L142.173 428.709L141.471 429.717C141.176 430.145 140.881 430.562 140.575 430.98C140.514 431.061 140.443 431.132 140.372 431.204L140.036 431.489L139.771 431.835C132.829 440.786 122.315 445.919 110.936 445.919C103.21 445.919 95.8205 443.515 89.5709 438.974C74.2318 427.813 70.0179 406.448 79.9827 390.328C80.0031 390.287 80.0336 390.257 80.0641 390.216C81.1329 388.811 82.1406 387.426 83.1279 386L83.1889 385.908C89.3876 376.917 94.253 367.059 97.6424 356.621C106.223 330.185 104.778 301.621 93.5812 276.204C93.4387 275.868 93.3064 275.572 93.1639 275.267L93.0824 275.084C92.8687 274.605 92.6448 274.136 92.431 273.668L92.1053 272.976L91.7083 272.161C91.3012 271.316 90.8432 270.409 90.263 269.31C88.0339 265.043 85.4995 260.868 82.7309 256.917C82.4255 256.468 82.11 256.031 81.7945 255.603C81.1532 254.717 80.512 253.851 79.8809 253.026C79.2702 252.222 78.6188 251.397 77.8758 250.491C77.7231 250.308 77.6111 250.165 77.489 250.022L75.5143 247.69L75.3311 247.487C74.8833 246.978 74.4558 246.499 74.0283 246.031L73.9672 245.959C73.7738 245.745 73.611 245.552 73.4277 245.379C72.9901 244.9 72.5727 244.452 72.1554 244.014C71.7992 243.627 71.4429 243.261 71.0867 242.904C64.2467 235.857 56.5111 229.758 48.0731 224.737L48.0324 224.707L47.6558 224.493C47.2893 224.269 46.9331 224.055 46.5565 223.851C45.9458 223.495 45.3554 223.169 44.7651 222.843L44.134 222.497C43.7269 222.273 43.3299 222.069 42.9329 221.855C42.3528 221.55 41.7929 221.255 41.223 220.969L41.1008 220.908C36.4187 218.536 31.5839 216.499 26.7084 214.829C25.5481 214.462 24.4793 214.116 23.4207 213.76C23.2986 213.719 23.1866 213.668 23.0849 213.587L22.7082 213.312L22.2807 213.128C8.74334 207.436 0 194.259 0 179.544C0 175.735 0.600532 171.937 1.79142 168.271C6.60585 153.444 20.8863 143.088 36.5205 143.088C39.4112 143.088 42.3019 143.434 45.1111 144.126L45.9865 144.391C46.5667 144.564 47.1265 144.737 47.6965 144.931C48.0018 145.033 48.2868 145.124 48.582 145.226L48.8772 145.328L49.1825 145.379C49.2334 145.379 49.2843 145.399 49.3352 145.409C60.0735 148.719 71.2699 150.399 82.6291 150.399C112.788 150.399 141.125 138.648 162.439 117.324C183.732 96.0204 195.478 67.7006 195.499 37.5784V37.5479C195.499 37.4155 195.499 37.3747 195.509 37.334L195.56 37.0489L195.641 36.7434V36.2953C195.946 27.0183 199.733 18.2709 206.308 11.6823C213.189 4.79837 222.339 1 232.08 1C251.063 1 267.023 15.8269 268.417 34.7576L268.438 35.664C268.438 36.2648 268.458 36.8656 268.458 37.4664C268.458 37.7617 268.458 38.057 268.458 38.3523V38.943L268.478 39.1976C268.478 39.2383 268.478 39.279 268.478 39.3198C268.957 69.0957 280.906 97.0081 302.139 117.925C323.381 138.862 351.515 150.399 381.338 150.399C392.229 150.399 403.008 148.841 413.369 145.776L413.543 145.725C414.418 145.47 415.364 145.165 416.525 144.788C416.637 144.758 416.749 144.737 416.861 144.727L417.339 144.707L417.797 144.574C420.963 143.688 424.22 143.24 427.497 143.24C443.376 143.24 457.33 153.363 462.226 168.434C468.11 186.55 458.908 206.336 441.269 213.475C441.238 213.485 441.198 213.505 441.167 213.515C439.549 214.004 437.951 214.523 436.414 215.063L436.129 215.155C431.06 216.947 426.082 219.116 421.319 221.611C416.464 224.157 411.741 227.09 407.283 230.328C392.626 240.98 380.635 255.124 372.615 271.244C364.849 286.845 360.747 304.32 360.747 321.784C360.747 345.715 368.197 368.637 382.295 388.057C382.366 388.159 382.417 388.23 382.437 388.281C382.457 388.322 382.651 388.8 382.651 388.8L382.895 389.167C386.997 395.206 389.155 402.263 389.155 409.554C389.155 421.204 383.536 432.242 374.121 439.086C367.902 443.607 360.523 446 352.777 446L352.787 445.98ZM290.393 329.34C291.828 364.544 303.36 398.454 323.768 427.395L324.43 428.332C324.705 428.729 324.99 429.126 325.275 429.513C325.631 430.012 326.007 430.511 326.374 431L326.801 431.57L326.883 431.662C333.326 439.208 342.761 443.546 352.777 443.546C360.004 443.546 366.894 441.316 372.706 437.09C381.49 430.705 386.732 420.409 386.732 409.534C386.732 402.324 384.483 395.42 380.228 389.574C380.177 389.513 380.137 389.442 380.106 389.35L379.923 388.953L378.63 387.202L377.938 386.285C377.541 385.766 377.134 385.246 376.737 384.727L375.811 383.536C375.393 383.016 374.976 382.497 374.559 381.978C374.559 381.978 373.867 381.112 373.622 380.827C373.225 380.338 372.818 379.859 372.411 379.371L371.383 378.149C370.966 377.65 370.538 377.171 370.111 376.682C370.111 376.682 369.297 375.745 369.083 375.511C368.676 375.053 368.258 374.595 367.841 374.136L366.742 372.925C366.223 372.365 365.693 371.804 365.174 371.255L364.36 370.389C363.546 369.544 362.742 368.709 361.917 367.884C355.067 361.02 347.596 354.635 339.718 348.912C326.191 339.075 311.442 331.153 295.899 325.358L290.159 323.22L290.403 329.34H290.393ZM85.0618 387.446C84.105 388.831 83.1177 390.185 82.1304 391.489L81.9981 391.662L81.8861 391.845C72.7967 406.835 76.7968 426.662 90.9857 436.978C96.8281 441.224 103.719 443.464 110.936 443.464C121.816 443.464 132.107 438.23 138.479 429.452C138.54 429.371 138.601 429.31 138.672 429.238L139.028 428.923L139.303 428.536C146.713 418.189 153.044 407.11 158.113 395.603C158.439 394.87 158.754 394.136 159.06 393.413L159.131 393.24C159.365 392.69 159.589 392.161 159.803 391.631L159.843 391.519C160.077 390.949 160.291 390.42 160.505 389.89L161.095 388.393C161.401 387.599 161.696 386.835 161.981 386.061C162.286 385.246 162.591 384.422 162.887 383.597C163.07 383.088 163.243 382.609 163.416 382.11C163.589 381.631 163.752 381.143 163.915 380.654L164.536 378.79L164.576 378.678V378.658L164.831 377.853C165.197 376.723 165.543 375.593 165.889 374.462L166.215 373.342C166.49 372.395 166.754 371.448 167.019 370.491L167.233 369.707C167.345 369.31 167.436 368.984 167.518 368.658C167.742 367.823 167.945 366.988 168.159 366.153C168.352 365.379 168.546 364.605 168.729 363.821C168.8 363.515 168.872 363.21 168.943 362.914L169.075 362.354C169.33 361.244 169.584 360.114 169.818 358.984L169.849 358.821C171.834 349.167 173.055 339.248 173.452 329.32L173.696 323.21L167.966 325.338C167.487 325.511 167.009 325.695 166.531 325.878L164.922 326.489C164.393 326.692 163.874 326.906 163.345 327.12L161.859 327.721C161.339 327.935 160.82 328.159 160.311 328.373L158.836 328.994C158.306 329.228 157.777 329.462 157.258 329.697L155.833 330.328C155.314 330.562 154.795 330.807 154.276 331.051L152.861 331.713C152.179 332.039 151.507 332.365 150.835 332.701L149.919 333.149C149.166 333.525 148.413 333.912 147.67 334.299L146.998 334.646C146.184 335.073 145.369 335.501 144.555 335.939L144.107 336.173C125.867 346.092 109.551 358.994 95.6067 374.523L95.5151 374.635C94.7924 375.45 94.1105 376.224 93.4285 376.998L93.2962 377.161C92.5837 377.986 91.9425 378.75 91.291 379.513L90.9857 379.89C90.375 380.623 89.7846 381.336 89.1943 382.069L88.7871 382.589C88.2273 383.281 87.6777 383.974 87.1382 384.676L86.67 385.297C86.1611 385.959 85.642 386.631 85.1432 387.303L85.0414 387.436L85.0618 387.446ZM232.1 381.947C255.735 381.947 278.525 389.157 297.996 402.802L310.109 411.285L303.981 397.65C303.431 396.428 302.902 395.206 302.383 393.974L301.823 392.629C301.467 391.764 301.111 390.888 300.765 390.012C300.765 390.012 300.378 389.035 300.215 388.597C299.828 387.609 299.462 386.621 299.095 385.633L298.729 384.656C298.271 383.383 297.823 382.1 297.396 380.817L296.978 379.534C296.673 378.617 296.388 377.701 296.103 376.784C295.95 376.295 295.808 375.817 295.655 375.338C295.36 374.381 295.085 373.424 294.81 372.456L294.474 371.285C294.108 369.971 293.762 368.658 293.426 367.334L293.151 366.204C292.907 365.216 292.673 364.228 292.449 363.23C292.337 362.752 292.235 362.273 292.123 361.784C291.909 360.817 291.706 359.859 291.512 358.892L291.258 357.629C290.993 356.285 290.739 354.931 290.505 353.566L290.372 352.752C290.179 351.631 290.006 350.511 289.833 349.391C289.762 348.933 289.701 348.464 289.629 348.006C289.487 347.018 289.355 346.031 289.232 345.033L289.07 343.729C288.907 342.344 288.754 340.949 288.622 339.554V339.381C288.479 338.006 288.367 336.672 288.276 335.328L288.194 334.024C288.123 333.006 288.072 331.978 288.021 330.959C288.001 330.511 287.98 330.073 287.96 329.625C287.909 328.383 287.869 327.141 287.838 325.898V325.45L287.767 322.487L284.927 321.631C267.797 316.458 250.004 313.831 232.029 313.831H231.673C213.8 313.872 196.069 316.489 178.979 321.631L176.139 322.487L176.078 325.45C175.844 336.794 174.551 348.169 172.251 359.248L172.21 359.442L172.037 360.206C171.844 361.102 171.65 361.998 171.447 362.884L171.325 363.403C171.253 363.729 171.172 364.055 171.101 364.371C170.917 365.155 170.724 365.939 170.531 366.723C170.317 367.568 170.103 368.403 169.879 369.248C169.788 369.585 169.462 370.796 169.462 370.796C169.167 371.886 168.861 372.945 168.546 374.024L168.21 375.155C167.864 376.275 167.518 377.416 167.151 378.556L166.989 379.106C166.968 379.177 166.846 379.513 166.846 379.513L166.775 379.727C166.642 380.155 166.469 380.654 166.296 381.143L166.246 381.285C166.073 381.815 165.879 382.354 165.696 382.894C165.523 383.393 165.35 383.892 165.167 384.391C164.871 385.226 164.556 386.061 164.251 386.886C163.955 387.67 163.66 388.454 163.355 389.228L162.734 390.796C162.541 391.265 162.133 392.273 162.133 392.273L162.083 392.375L162.032 392.528C161.828 393.006 161.37 394.116 161.37 394.116C161.024 394.941 160.688 395.735 160.332 396.519L159.864 397.589L153.868 411L165.91 402.599C180.699 392.273 197.341 385.715 215.387 383.108C220.914 382.303 226.533 381.906 232.07 381.906L232.1 381.947ZM322.964 216.988C312.694 231.784 304.663 248.026 299.116 265.257C293.64 282.263 290.657 299.941 290.271 317.792L290.21 320.756L293.009 321.733C294.088 322.11 295.167 322.497 296.235 322.894L296.754 323.088C297.681 323.434 298.607 323.79 299.533 324.147L300.663 324.605C301.386 324.89 302.088 325.175 302.79 325.46L304.276 326.092C304.867 326.336 305.447 326.591 306.027 326.845C306.363 326.988 307.391 327.456 307.391 327.456L307.594 327.548C308.144 327.792 308.694 328.037 309.243 328.291C309.589 328.454 310.638 328.943 310.638 328.943C311.238 329.228 311.839 329.503 312.429 329.798C312.897 330.022 313.366 330.257 313.834 330.481C314.424 330.766 315.004 331.061 315.585 331.356C316.063 331.601 316.531 331.835 316.999 332.079C317.58 332.375 318.15 332.68 318.73 332.986C319.198 333.23 319.666 333.485 320.124 333.729C320.694 334.035 321.264 334.35 321.834 334.666C322.302 334.921 322.76 335.185 323.218 335.44C323.788 335.756 324.358 336.092 324.918 336.418C325.376 336.682 325.824 336.947 326.272 337.212C326.842 337.548 327.412 337.894 327.982 338.24C327.982 338.24 328.959 338.831 329.305 339.045C329.804 339.35 330.303 339.666 330.801 339.982C330.801 339.982 332.003 340.745 332.308 340.929C332.908 341.316 333.499 341.703 334.089 342.1L335.28 342.884C335.921 343.322 336.573 343.77 337.224 344.218L338.201 344.89C339.178 345.572 340.145 346.255 341.102 346.957C342.313 347.833 343.504 348.729 344.695 349.635L345.754 350.45C346.639 351.132 347.515 351.825 348.38 352.517C348.38 352.517 349.123 353.118 349.387 353.332C350.548 354.279 351.688 355.226 352.828 356.193L353.153 356.479C354.182 357.365 355.199 358.261 356.207 359.167L356.614 359.523L367.556 369.462L363.251 355.318C359.953 344.503 358.283 333.22 358.283 321.774C358.283 303.933 362.477 286.081 370.406 270.145C378.274 254.34 389.928 240.328 404.117 229.605L415.843 220.745L401.227 222.303C400.524 222.375 399.832 222.446 399.13 222.517L398.835 222.548C397.796 222.65 396.758 222.731 395.72 222.813L394.875 222.874C394.051 222.935 393.216 222.986 392.381 223.037L391.649 223.077C390.6 223.139 389.562 223.179 388.524 223.22L387.872 223.24C387.028 223.271 386.173 223.291 385.318 223.312L384.452 223.332C383.404 223.352 382.356 223.363 381.317 223.363C380.127 223.363 378.946 223.352 377.755 223.332L376.462 223.301C375.709 223.281 374.956 223.261 374.203 223.24L372.584 223.169C371.943 223.138 371.302 223.108 370.66 223.077L369.042 222.976C368.401 222.935 367.77 222.894 367.129 222.843C366.691 222.813 365.581 222.711 365.581 222.711C364.92 222.66 364.258 222.599 363.597 222.538C363.067 222.487 362.548 222.436 362.029 222.385C361.378 222.314 360.726 222.253 360.075 222.171C359.546 222.11 359.016 222.049 358.487 221.978C357.846 221.896 357.194 221.815 356.553 221.733C356.024 221.662 355.505 221.591 354.975 221.519C354.334 221.428 353.683 221.336 353.041 221.234C352.522 221.153 351.993 221.071 351.474 220.99C350.833 220.888 350.181 220.776 349.54 220.664C349.011 220.572 348.502 220.481 347.993 220.389C347.342 220.267 346.69 220.145 346.039 220.022C346.039 220.022 344.95 219.809 344.522 219.727C343.86 219.595 343.199 219.452 342.537 219.31L341.061 218.994C340.43 218.851 339.799 218.709 339.158 218.556L337.621 218.2C336.878 218.016 336.145 217.833 335.402 217.64L334.191 217.334C333.254 217.09 332.318 216.835 331.371 216.57L330.771 216.407C329.672 216.092 328.562 215.776 327.463 215.44L324.633 214.585L322.944 217.018L322.964 216.988ZM59.7275 229.585C64.3485 233.077 68.7456 236.947 72.7763 241.092C73.2038 241.519 73.5601 241.886 73.9061 242.263C74.3642 242.741 74.7611 243.169 75.1479 243.597C75.4227 243.892 75.6365 244.116 75.8401 244.35C76.2777 244.839 76.7154 245.328 77.1531 245.817L77.3566 246.051C77.774 246.54 78.1404 246.967 78.5068 247.405C78.8122 247.762 79.0768 248.077 79.3415 248.393C79.484 248.576 79.5857 248.709 79.6977 248.831C80.5018 249.819 81.1736 250.674 81.8148 251.509C82.4663 252.354 83.1177 253.24 83.7691 254.136C84.0948 254.585 84.4205 255.033 84.7259 255.491C87.5657 259.544 90.1409 263.79 92.4107 268.149C92.9908 269.259 93.4692 270.196 93.8967 271.092L94.2835 271.876L94.5889 272.528C94.823 273.037 95.0571 273.536 95.2912 274.045L95.3624 274.187C95.5049 274.513 95.6576 274.839 95.8001 275.165C106.915 300.409 108.625 328.811 100.635 355.165L96.4617 368.923L107.373 359.259C108.35 358.373 109.368 357.477 110.396 356.591L111.363 355.766C112.137 355.104 112.91 354.452 113.704 353.8C113.704 353.8 114.396 353.23 114.702 352.976C115.648 352.202 116.605 351.448 117.562 350.695L117.989 350.358C119.089 349.503 120.208 348.658 121.328 347.833L122.264 347.151C123.099 346.54 123.933 345.939 124.788 345.338C125.145 345.084 125.511 344.829 125.867 344.574C126.783 343.943 127.7 343.312 128.616 342.701L129.369 342.191C130.529 341.428 131.7 340.674 132.88 339.931L133.735 339.401C134.651 338.831 135.568 338.271 136.494 337.721L137.654 337.039C138.55 336.509 139.466 335.99 140.372 335.47L141.349 334.921C142.57 334.238 143.802 333.576 145.034 332.925L145.685 332.589C146.723 332.049 147.751 331.519 148.789 331L150.001 330.409C150.907 329.961 151.823 329.523 152.749 329.096L153.899 328.556C155.171 327.976 156.444 327.395 157.736 326.835L157.96 326.743C159.171 326.224 160.403 325.705 161.635 325.206L162.866 324.717C163.793 324.35 164.739 323.974 165.686 323.617L166.958 323.139C168.088 322.721 169.228 322.303 170.368 321.906L170.877 321.723L173.666 320.745L173.605 317.792C173.126 295.735 168.76 274.157 160.607 253.668C160.332 252.986 160.057 252.293 159.772 251.611C159.772 251.611 159.395 250.674 159.324 250.511L158.886 249.513C158.561 248.75 158.215 247.955 157.869 247.181C153.187 236.662 147.487 226.519 140.911 217.029L139.222 214.595L136.382 215.45C135.283 215.786 134.183 216.102 133.084 216.418L132.483 216.58C131.557 216.835 130.621 217.09 129.684 217.344L128.463 217.65C127.7 217.843 126.987 218.026 126.264 218.2L124.87 218.525C124.147 218.688 123.496 218.851 122.834 218.994C122.488 219.075 121.348 219.31 121.348 219.31C120.697 219.452 120.035 219.585 119.384 219.717L117.847 220.012C117.205 220.134 116.564 220.257 115.913 220.379C115.404 220.47 114.895 220.562 114.376 220.644C113.714 220.756 113.073 220.868 112.432 220.969C111.902 221.051 111.383 221.132 110.854 221.214C110.213 221.316 109.572 221.407 108.93 221.499C108.401 221.57 107.872 221.652 107.353 221.713C106.711 221.794 106.07 221.876 105.429 221.957C104.9 222.018 104.37 222.09 103.841 222.151C103.2 222.222 102.548 222.293 101.897 222.365C101.897 222.365 100.798 222.477 100.319 222.528C99.6679 222.589 99.0063 222.65 98.3549 222.701C98.3549 222.701 97.2353 222.792 96.7976 222.833C96.1665 222.884 95.5456 222.925 94.9146 222.965L93.2758 223.067C92.6041 223.108 91.9323 223.138 91.2503 223.169L89.7439 223.24C88.9805 223.271 88.2171 223.291 87.4537 223.312L86.1916 223.342C85.0109 223.363 83.82 223.373 82.6393 223.373C81.5807 223.373 80.5222 223.363 79.4534 223.342L78.6086 223.322C77.7027 223.301 76.8274 223.281 75.9622 223.251L75.3413 223.23C74.2929 223.189 73.2547 223.139 72.2063 223.077L71.4429 223.026C70.5981 222.976 69.7635 222.925 68.9288 222.864L68.0942 222.802C67.056 222.721 66.0178 222.629 64.9796 222.538L64.5012 222.487C63.8701 222.426 63.2492 222.365 62.6283 222.303L47.9917 220.735L59.7478 229.605L59.7275 229.585ZM228.782 152.253C218.227 165.684 205.881 177.599 192.068 187.68C178.073 197.904 162.764 206.092 146.57 212.029L141.705 213.811L144.586 218.118C150.53 227.008 155.741 236.448 160.077 246.183C160.423 246.978 160.77 247.772 161.116 248.566L161.553 249.564C161.625 249.737 161.909 250.45 161.991 250.623C162.286 251.346 162.581 252.059 162.856 252.762C170.744 272.578 175.142 293.434 175.935 314.727L176.129 319.91L181.116 318.495C197.555 313.831 214.573 311.448 231.683 311.418H232.05C249.241 311.418 266.29 313.79 282.749 318.475L287.736 319.89L287.93 314.707C288.571 297.65 291.563 280.756 296.795 264.493C302.108 248.006 309.661 232.395 319.259 218.077L322.15 213.77L317.284 211.988C301.121 206.051 285.833 197.864 271.858 187.65C258.066 177.578 245.729 165.664 235.185 152.242L231.989 148.169L228.792 152.242L228.782 152.253ZM427.507 145.664C424.047 145.664 420.606 146.193 417.288 147.253C417.197 147.283 417.095 147.303 416.993 147.303L416.494 147.334L416.016 147.487C415.426 147.68 414.876 147.843 414.357 147.996L414.204 148.047C413.838 148.169 413.471 148.301 413.115 148.434C413.115 148.434 411.385 149.045 411.008 149.177C410.642 149.31 409.42 149.768 409.42 149.768C409.42 149.768 408.178 150.226 407.812 150.369C407.456 150.511 405.797 151.163 405.797 151.163C405.41 151.316 405.023 151.468 404.636 151.621C404.29 151.764 402.631 152.456 402.631 152.456C402.244 152.619 401.868 152.772 401.491 152.935C401.135 153.088 399.964 153.607 399.964 153.607C399.964 153.607 398.743 154.147 398.377 154.31C398.031 154.462 396.85 155.012 396.85 155.012L396.361 155.236C395.995 155.399 395.639 155.572 395.272 155.745C394.926 155.908 393.786 156.468 393.786 156.468C393.786 156.468 392.565 157.059 392.198 157.242C391.842 157.415 390.702 158.006 390.702 158.006L390.254 158.23C389.888 158.413 389.511 158.607 389.145 158.79C388.778 158.984 387.618 159.605 387.618 159.605C387.618 159.605 386.478 160.206 386.122 160.399C385.755 160.603 385.389 160.807 385.022 161.01C385.022 161.01 383.455 161.886 383.139 162.059C382.773 162.263 382.417 162.477 382.05 162.69C382.05 162.69 380.493 163.597 380.177 163.78C379.842 163.984 378.702 164.676 378.702 164.676L378.233 164.951C377.908 165.145 377.572 165.348 377.246 165.552C376.869 165.786 376.493 166.031 376.116 166.265C376.116 166.265 374.62 167.212 374.345 167.385C373.928 167.65 373.531 167.914 373.124 168.189C373.124 168.189 371.739 169.096 371.475 169.279C370.986 169.605 370.508 169.941 370.029 170.267L368.635 171.224C367.688 171.886 366.752 172.548 365.826 173.22C357.958 178.933 350.497 185.318 343.657 192.181C338.792 197.059 334.15 202.283 329.855 207.701L326.048 212.507L331.952 214.157C347.983 218.627 364.594 220.898 381.338 220.898C390.59 220.898 399.893 220.206 408.983 218.831C417.868 217.477 426.734 215.46 435.335 212.813L435.671 212.701C437.136 212.181 438.663 211.682 440.22 211.214L440.414 211.153L440.597 211.081C456.872 204.34 465.351 185.929 459.906 169.157C455.346 155.104 442.327 145.654 427.518 145.654L427.507 145.664ZM36.5001 145.481C21.6904 145.481 8.68227 154.921 4.1223 168.974C3.01284 172.405 2.45302 175.939 2.45302 179.493C2.45302 194.269 11.8987 207.273 25.9552 211.845C26.4743 212.018 26.9832 212.161 27.4921 212.303C27.5939 212.334 27.6855 212.375 27.7873 212.426L28.2046 212.67L29.9452 213.2C30.4236 213.342 30.9019 213.485 31.3803 213.627C31.9707 213.8 32.561 213.963 33.1616 214.126C33.6705 214.269 34.1896 214.411 34.7087 214.554C35.2991 214.717 35.8996 214.87 36.4899 215.022C36.4899 215.022 37.6096 215.318 38.0574 215.43C38.6376 215.572 39.2178 215.715 39.798 215.857C39.798 215.857 40.9685 216.132 41.4163 216.244C41.9354 216.367 42.4545 216.479 42.9737 216.591C42.9737 216.591 44.3681 216.896 44.7956 216.988C45.3045 217.1 45.8236 217.202 46.3326 217.303C46.3326 217.303 47.7779 217.589 48.185 217.67C48.6634 217.762 49.9663 217.996 49.9663 217.996C49.9663 217.996 51.1572 218.21 51.5847 218.281C52.0631 218.363 53.3761 218.576 53.3761 218.576C53.3761 218.576 54.5975 218.77 54.9945 218.831C55.4932 218.902 56.0021 218.974 56.5111 219.045C56.5111 219.045 58.0175 219.259 58.4144 219.31C58.8928 219.371 59.3712 219.432 59.8496 219.493C59.8496 219.493 61.4884 219.697 61.8548 219.737C62.3433 219.788 62.8421 219.839 63.3307 219.89C63.3307 219.89 64.9185 220.053 65.2951 220.094C65.7939 220.145 66.2926 220.185 66.7914 220.226C66.7914 220.226 68.3792 220.358 68.7456 220.389C69.2444 220.43 69.7431 220.46 70.2419 220.491C70.2419 220.491 71.8806 220.603 72.2063 220.613C72.756 220.644 73.3158 220.664 73.8654 220.695C73.8654 220.695 75.3718 220.766 75.6772 220.776C76.3184 220.796 76.9699 220.817 77.6111 220.837L79.1481 220.878C80.3084 220.898 81.4688 220.908 82.6291 220.908C99.3422 220.908 115.923 218.648 131.924 214.187L137.827 212.538L134.02 207.731C132.585 205.919 131.109 204.126 129.633 202.405C129.633 202.405 129.206 201.896 129.084 201.754C128.819 201.438 127.516 199.961 127.516 199.961C126.997 199.371 126.478 198.8 125.969 198.22C125.969 198.22 125.582 197.802 125.481 197.69C113.663 184.778 100.116 173.668 85.1839 164.666C83.0464 163.373 80.8682 162.12 78.7002 160.929L77.6213 160.348C77.0004 160.012 76.3592 159.676 75.7281 159.34L75.2293 159.075C74.5067 158.699 73.8349 158.342 73.1529 157.996L72.4404 157.65C71.6262 157.232 70.7508 156.804 69.8653 156.387L69.621 156.265C63.1373 153.159 56.3482 150.399 49.4166 148.037L48.582 147.752C48.0222 147.558 47.4929 147.375 46.9534 147.202C46.4242 147.029 45.8847 146.866 45.3554 146.703L44.5004 146.438L44.3783 146.407C41.8031 145.786 39.1465 145.47 36.5103 145.47L36.5001 145.481ZM191.621 75.3075C185.91 91.7943 176.668 106.499 164.169 119.004C142.916 140.267 114.691 152.263 84.6648 152.782L69.8958 153.037L82.9141 160.511C83.1889 160.664 84.2577 161.295 84.2577 161.295C84.8786 161.662 85.4995 162.018 86.1203 162.395L87.4028 163.179C88.0746 163.597 88.6752 163.953 89.2655 164.33C89.5912 164.534 90.5887 165.175 90.5887 165.175C91.1791 165.552 91.7796 165.939 92.3598 166.316C92.7567 166.58 93.7033 167.212 93.7033 167.212C94.2733 167.599 94.8535 167.986 95.4235 168.373C95.8714 168.678 96.3192 168.994 96.7671 169.31C97.3269 169.697 97.8867 170.094 98.4363 170.491C98.8842 170.807 99.332 171.132 99.7697 171.458C100.319 171.855 100.869 172.263 101.408 172.67C101.846 172.996 102.294 173.332 102.732 173.668C103.271 174.075 103.811 174.493 104.34 174.91C104.778 175.246 105.215 175.593 105.653 175.939C106.182 176.356 106.711 176.784 107.231 177.212C107.658 177.558 108.086 177.914 108.513 178.261C109.032 178.688 109.561 179.126 110.081 179.574C110.549 179.971 110.946 180.297 111.333 180.633C111.852 181.081 112.371 181.54 112.89 181.988C112.89 181.988 113.786 182.772 114.111 183.067C114.61 183.515 115.099 183.963 115.597 184.422C115.597 184.422 116.554 185.297 116.839 185.562C117.338 186.031 117.837 186.499 118.325 186.967C118.325 186.967 119.272 187.864 119.516 188.098C119.984 188.546 120.432 189.004 120.89 189.452L122.142 190.695C122.692 191.255 123.241 191.825 123.791 192.395L124.717 193.352C125.572 194.248 126.417 195.155 127.252 196.061C127.374 196.204 127.486 196.316 127.588 196.418L129.328 198.373L130.03 199.167C130.326 199.503 130.621 199.829 130.906 200.165C131.028 200.308 131.466 200.817 131.466 200.817L131.537 200.898C132.229 201.703 132.911 202.528 133.603 203.352L134.193 204.075C134.733 204.727 135.262 205.389 135.781 206.051L136.341 206.764C137.013 207.619 137.685 208.485 138.356 209.36L140.148 211.723L142.947 210.745C159.965 204.819 176.017 196.397 190.643 185.715C205.077 175.175 217.881 162.619 228.691 148.393L230.492 146.031L228.65 143.393C227.887 142.303 227.144 141.193 226.401 140.073L225.698 139.004C225.128 138.139 224.568 137.273 224.019 136.397C223.774 136 223.53 135.633 223.306 135.257C222.706 134.289 222.126 133.322 221.545 132.354L221.087 131.58C220.365 130.348 219.652 129.116 218.96 127.874L218.522 127.069C217.983 126.092 217.443 125.104 216.924 124.116L216.303 122.925C215.835 122.018 215.367 121.112 214.919 120.196L214.359 119.065C213.769 117.864 213.189 116.662 212.629 115.45L212.558 115.287C211.947 113.953 211.367 112.66 210.797 111.367L210.329 110.267C209.922 109.32 209.525 108.373 209.138 107.415C208.965 106.998 208.802 106.57 208.629 106.153C208.232 105.165 207.855 104.187 207.479 103.2L207.092 102.181C206.603 100.857 206.125 99.5336 205.657 98.1996L205.463 97.609C205.077 96.4684 204.7 95.3279 204.334 94.1874L203.947 92.945C203.641 91.9776 203.356 91.0102 203.061 90.0428L202.695 88.7902C202.369 87.6497 202.054 86.5092 201.748 85.3585L201.575 84.6965C201.219 83.332 200.873 81.9572 200.547 80.5723L200.323 79.5947C200.079 78.5356 199.845 77.4664 199.611 76.3972L199.478 75.7963L196.476 61.3564L191.651 75.2974L191.621 75.3075ZM264.478 75.8982C264.203 77.2118 263.908 78.5255 263.603 79.8391L263.318 81.0204C263.074 82.0285 262.819 83.0468 262.565 84.055L262.259 85.2464C261.934 86.4888 261.588 87.721 261.242 88.9532L261.15 89.2892C260.753 90.6538 260.346 91.998 259.918 93.3422L259.572 94.4318C259.257 95.4196 258.921 96.4175 258.585 97.4053L258.168 98.6273C257.791 99.6965 257.414 100.766 257.017 101.825L256.732 102.599C256.244 103.912 255.735 105.226 255.216 106.519L254.839 107.446C254.432 108.444 254.015 109.442 253.597 110.44L253.078 111.652C252.651 112.619 252.223 113.597 251.776 114.554L251.328 115.532C250.737 116.804 250.137 118.067 249.516 119.33L249.19 119.982C248.671 121.02 248.142 122.059 247.602 123.098L247.022 124.208C246.513 125.175 246.025 126.081 245.526 126.978L244.925 128.057C244.233 129.289 243.541 130.511 242.829 131.723L242.696 131.947C242.025 133.077 241.332 134.208 240.63 135.338L239.928 136.448C239.388 137.303 238.839 138.159 238.289 139.004L237.536 140.145C236.874 141.143 236.202 142.141 235.51 143.128L235.195 143.597L233.505 146.031L235.297 148.383C246.096 162.599 258.88 175.145 273.303 185.674C287.909 196.346 303.94 204.768 320.938 210.695L323.727 211.672L325.519 209.32C326.17 208.454 326.842 207.599 327.514 206.743L328.114 205.99C328.613 205.358 329.122 204.727 329.631 204.096L330.455 203.098C330.903 202.568 331.351 202.018 331.809 201.489C332.104 201.132 332.41 200.786 332.705 200.44C333.153 199.921 333.601 199.401 334.048 198.892C334.354 198.546 334.649 198.21 334.964 197.864C335.433 197.344 335.901 196.825 336.369 196.306L337.255 195.338C337.774 194.778 338.303 194.218 338.832 193.658L339.575 192.874C340.359 192.059 341.153 191.244 341.947 190.45C346.263 186.122 350.873 181.937 355.637 178.026C358.497 175.684 361.449 173.393 364.421 171.234C365.622 170.358 366.844 169.503 368.065 168.658L369.062 167.976C370.101 167.263 371.149 166.57 372.197 165.878L372.818 165.47C374.06 164.666 375.312 163.882 376.564 163.118L377.49 162.558C378.518 161.937 379.546 161.326 380.585 160.725L381.185 160.369L393.929 153.026L379.221 152.762C349.571 152.222 321.6 140.45 300.449 119.605C287.624 106.967 278.179 92.0387 272.367 75.2363L267.542 61.275L264.539 75.7251L264.509 75.888L264.478 75.8982ZM232.1 3.41344C223.011 3.41344 214.471 6.94705 208.059 13.3727C201.636 19.8086 198.104 28.3523 198.104 37.4257C198.104 37.5071 198.094 37.5988 198.074 37.7006L197.972 38.1487V39.8391C197.992 40.3483 198.002 40.8676 198.013 41.387C198.023 41.998 198.043 42.609 198.064 43.22C198.084 43.7393 198.094 44.2587 198.114 44.778C198.135 45.389 198.165 45.9898 198.196 46.6008C198.196 46.6008 198.247 47.6802 198.277 48.1487C198.308 48.7495 198.349 49.3605 198.389 49.9613C198.42 50.4807 198.461 51 198.501 51.5194C198.542 52.0794 198.593 52.6497 198.644 53.2098C198.644 53.2098 198.756 54.4623 198.786 54.8798C198.837 55.4297 198.898 55.9695 198.949 56.5194C198.949 56.5194 199.081 57.7821 199.132 58.2301C199.193 58.78 199.265 59.3299 199.326 59.8697L199.356 60.1242C199.417 60.6029 199.468 61.0815 199.529 61.5499C199.601 62.0794 199.672 62.609 199.743 63.1283C199.743 63.1283 199.926 64.4216 199.987 64.8595C200.059 65.3585 200.14 65.8676 200.221 66.3768C200.221 66.3768 200.435 67.7312 200.506 68.169C200.598 68.7088 200.69 69.2383 200.781 69.7678C200.781 69.7678 201.005 71.0407 201.087 71.4684C201.178 71.9674 201.422 73.169 201.422 73.169C201.422 73.169 201.646 74.3401 201.738 74.7373C201.83 75.2057 202.186 76.8248 202.186 76.8248C202.267 77.2118 202.359 77.609 202.44 77.9959C202.542 78.4542 202.827 79.666 202.827 79.666C202.827 79.666 203.102 80.8371 203.204 81.2342C203.326 81.723 203.448 82.2118 203.57 82.7006C203.57 82.7006 203.916 84.055 204.018 84.4623C204.13 84.9002 204.252 85.3381 204.374 85.776C204.374 85.776 204.792 87.2831 204.893 87.6701C205.015 88.0978 205.372 89.3096 205.372 89.3096C205.372 89.3096 205.708 90.4501 205.83 90.8574C205.962 91.2851 206.339 92.4969 206.339 92.4969C206.339 92.4969 206.705 93.6477 206.817 94.0244C206.96 94.4623 207.112 94.9002 207.255 95.3483C207.255 95.3483 207.743 96.7943 207.865 97.1813C208.018 97.6192 208.171 98.0468 208.323 98.4745C208.323 98.4745 208.843 99.9409 208.975 100.308C209.138 100.745 209.301 101.183 209.463 101.621C209.463 101.621 209.993 103.037 210.145 103.424C210.308 103.851 210.481 104.279 210.654 104.707C210.654 104.707 211.235 106.183 211.377 106.519C211.55 106.937 211.723 107.365 211.906 107.782C211.906 107.782 212.517 109.259 212.66 109.585C212.843 110.022 213.036 110.45 213.23 110.888C213.23 110.888 213.861 112.324 214.003 112.629C214.207 113.088 214.42 113.536 214.624 113.984L215.398 115.644C215.611 116.102 215.835 116.56 216.059 117.018C216.059 117.018 216.711 118.373 216.853 118.648C217.097 119.136 217.342 119.615 217.586 120.104L218.349 121.621C218.634 122.181 218.929 122.721 219.225 123.271L219.917 124.574C220.293 125.267 220.67 125.949 221.057 126.631L221.535 127.507C221.973 128.271 222.411 129.035 222.848 129.788L223.204 130.399C223.744 131.316 224.283 132.212 224.833 133.108L224.945 133.291C226.116 135.185 227.337 137.11 228.589 138.984L231.978 144.065L235.368 138.984C238.279 134.615 241.047 130.043 243.592 125.389C257.822 99.4114 265.567 69.89 265.985 40.0224V39.1874C266.005 38.5967 266.015 38.0061 266.015 37.4257C266.015 36.8452 266.015 36.2444 265.995 35.664V34.8595L265.975 34.7373C264.59 17.1711 249.709 3.40326 232.09 3.40326L232.1 3.41344Z" fill="url(#paint0_linear_816_27718)"/>
<circle cx="232" cy="40" r="40" fill="#09B1FB"/>
<path d="M225.295 52V49.552H230.875V30.508H225.331V28.06H230.443C232.927 28.06 233.827 29.14 233.827 31.048V49.552H238.939V52H225.295Z" fill="white"/>
<circle cx="424" cy="180" r="40" fill="#0EDDE4"/>
<path d="M414.468 192V189.552L426.348 179.58C428.688 177.6 429.444 176.268 429.444 174.18C429.444 171.732 427.896 169.896 424.332 169.896C419.58 169.896 417.6 172.668 417.528 177.564H414.432C414.54 172.092 417.096 167.412 424.296 167.412C430.344 167.412 432.576 170.652 432.576 174.144C432.576 177.276 430.812 179.508 426.852 182.784L418.752 189.552H433.044V192H414.468Z" fill="white"/>
<circle cx="351" cy="406" r="40" fill="#FEC549"/>
<path d="M343.949 410.224C344.057 413.464 346.253 416.128 350.429 416.128C354.641 416.128 356.873 414.148 356.873 410.368C356.873 407.308 355.145 405.256 351.761 405.256C349.925 405.256 348.701 405.724 347.333 406.624L345.893 404.716L355.325 396.508H341.717V394.06H358.853V396.508L350.609 403.924C351.149 403.78 351.941 403.6 353.057 403.6C356.585 403.6 360.005 405.832 360.005 410.44C360.005 414.436 357.485 418.612 350.357 418.612C344.057 418.612 340.925 414.94 340.817 410.224H343.949Z" fill="white"/>
<circle cx="113" cy="406" r="40" fill="#FD8D84"/>
<path d="M115.632 418V411.916H102.528V409.504L113.94 394.06H118.62V409.504H122.652V411.916H118.62V418H115.632ZM105.552 409.504H115.632V395.932L105.552 409.504Z" fill="white"/>
<circle cx="40" cy="180" r="40" fill="#C856C7"/>
<path d="M48.1061 168.06V170.508H34.3181L33.7781 178.824C35.2181 177.24 37.3781 176.052 40.7621 176.052C45.8381 176.052 49.1141 179.04 49.1141 184.152C49.1141 188.868 46.4501 192.612 39.5021 192.612C33.1301 192.612 30.2141 189.588 29.9981 185.232H33.0581C33.2741 188.076 35.0381 190.128 39.5021 190.128C44.0021 190.128 45.9821 187.788 45.9821 184.188C45.9821 180.336 43.8581 178.212 40.1861 178.212C37.4141 178.212 35.3621 179.292 33.7061 181.344H30.9341L31.6901 168.06H48.1061Z" fill="white"/>
<defs>
<linearGradient id="paint0_linear_816_27718" x1="232" y1="28.9542" x2="37.0647" y2="180.103" gradientUnits="userSpaceOnUse">
<stop stop-color="#0AA5FE"/>
<stop offset="0.255208" stop-color="#02DDEB"/>
<stop offset="0.46875" stop-color="#FDD13B"/>
<stop offset="0.729167" stop-color="#FF8F81"/>
<stop offset="1" stop-color="#C14ECF"/>
</linearGradient>
</defs>
</svg>
