<svg width="215" height="43" viewBox="0 0 215 43" fill="none" xmlns="http://www.w3.org/2000/svg">
<g clip-path="url(#clip0_3_4)">
<path d="M3.35938 20.4383H3.41027C3.94472 19.3533 5.29356 18.3187 7.38045 18.3187C11.0198 18.3187 12.2923 20.7663 12.2923 23.3904V31.5405H8.93288V25.0053C8.93288 23.5671 8.80563 21.2205 6.46425 21.2205C4.25012 21.2205 3.35938 22.7849 3.35938 24.5007V31.5405H0V11.2284H3.38482V20.4383H3.35938Z" fill="white"/>
<path d="M28.4529 31.5658H25.2462V29.4967H25.1953C24.5845 30.7835 23.312 31.8938 21.047 31.8938C17.4077 31.8938 16.1352 29.4462 16.1352 26.7968V18.6468H19.52V25.182C19.52 26.6202 19.6218 28.9668 21.9886 28.9668C24.2028 28.9668 25.0935 27.4024 25.0935 25.6866V18.6468H28.4783L28.4529 31.5658Z" fill="white"/>
<path d="M32.1431 18.6467H35.3498V20.6653H35.4007C35.986 19.4542 37.284 18.3187 39.549 18.3187C41.6359 18.3187 43.0611 19.1009 43.7737 20.7158C44.7662 19.0757 46.1914 18.3187 48.2274 18.3187C51.8413 18.3187 53.0883 20.7663 53.0883 23.8699V31.5657H49.7035V24.2483C49.7035 22.6335 49.1945 21.2457 47.1839 21.2457C45.0716 21.2457 44.2827 22.911 44.2827 24.5764V31.5657H40.8978V23.8699C40.8978 22.2802 40.2107 21.2457 38.5819 21.2457C36.3678 21.2457 35.477 22.8101 35.477 24.5259V31.5657H32.0922V18.6467H32.1431Z" fill="white"/>
<path d="M65.0243 25.7623H64.3117C62.4538 25.7623 59.2472 25.8884 59.2472 27.7556C59.2472 28.9416 60.5197 29.4462 61.614 29.4462C63.9299 29.4462 65.0243 28.2855 65.0243 26.494V25.7623ZM65.2024 29.7742H65.1261C64.159 31.2377 62.6065 31.8685 60.7996 31.8685C58.3055 31.8685 55.8878 30.5564 55.8878 27.9827C55.8878 23.7942 61.0032 23.4914 64.388 23.4914H65.2279V23.1381C65.2279 21.5485 63.9299 20.7158 62.123 20.7158C60.7233 20.7158 59.4253 21.2457 58.5346 22.0531L56.7531 20.3625C58.2546 18.9243 60.367 18.2935 62.4793 18.2935C68.2564 18.2935 68.2564 22.2802 68.2564 24.0969V31.5153H65.2279L65.2024 29.7742Z" fill="white"/>
<path d="M71.8703 18.6467H75.0769V20.7158H75.1278C75.7386 19.429 77.0111 18.3187 79.2507 18.3187C82.8646 18.3187 84.1625 20.7663 84.1625 23.3904V31.5405H80.7777V25.0053C80.7777 23.5671 80.6759 21.2205 78.3091 21.2205C76.0949 21.2205 75.2042 22.7849 75.2042 24.5007V31.5405H71.8194V18.6467H71.8703Z" fill="white"/>
<path d="M95.3859 20.741H91.4921V27.0239C91.4921 28.6388 91.5175 29.9256 93.4517 29.9256C94.0879 29.9256 94.8005 29.7995 95.3859 29.4967L95.4622 31.4143C94.6987 31.7424 93.7062 31.8685 92.8918 31.8685C89.7615 31.8685 89.2525 30.2536 89.2525 27.6547V20.741H86.3766V18.9748H89.2525V15.3918H91.4412V18.9748H95.335V20.741H95.3859Z" fill="white"/>
<path d="M107.984 24.1474C107.882 22.0279 106.431 20.5897 104.013 20.5897C101.596 20.5897 99.9923 22.0027 99.7123 24.1474H107.984ZM109.867 29.2696C108.314 31.1873 106.457 31.8685 104.013 31.8685C99.8905 31.8685 97.3455 28.9163 97.3455 25.2577C97.3455 21.3466 100.221 18.6468 104.09 18.6468C107.805 18.6468 110.325 21.0691 110.325 25.2324V25.9137H99.6869C99.865 28.0837 101.596 29.9509 103.988 29.9509C105.871 29.9509 107.144 29.2948 108.187 28.0332L109.867 29.2696Z" fill="white"/>
<path d="M116.127 8.25101H113.939V31.5657H116.127V8.25101Z" fill="white"/>
<path d="M122.872 0H120.683V31.5657H122.872V0Z" fill="white"/>
<path d="M127.453 17.0319H129.641V31.5657H127.453V17.0319ZM128.547 9.56308C129.438 9.56308 130.15 10.3705 130.15 11.3293C130.15 12.3639 129.463 13.0956 128.547 13.0956C127.631 13.0956 126.944 12.3386 126.944 11.3293C126.944 10.3705 127.631 9.56308 128.547 9.56308Z" fill="white"/>
<path d="M140.254 29.7743C143.257 29.7743 144.962 27.6295 144.962 25.2072C144.962 22.4821 143.053 20.5897 140.254 20.5897C137.505 20.5897 135.622 22.6335 135.622 25.2829C135.597 27.8314 137.683 29.7743 140.254 29.7743ZM147.125 30.9854C147.125 35.5272 144.555 38 139.949 38C137.378 38 135.342 37.344 133.484 35.6029L135.062 33.8871C136.436 35.3001 137.938 36.0571 139.949 36.0571C143.893 36.0571 144.937 33.6348 144.937 30.9854V29.3705H144.886C143.842 30.9854 141.984 31.7171 140.254 31.7171C136.106 31.7171 133.255 28.9668 133.255 25.2577C133.255 21.1448 136.055 18.6468 140.254 18.6468C142.035 18.6468 144.02 19.4542 144.886 21.1195H144.937V18.9748H147.125V30.9854Z" fill="white"/>
<path d="M161.072 24.1474C160.996 22.0279 159.519 20.5897 157.102 20.5897C154.684 20.5897 153.081 22.0027 152.801 24.1474H161.072ZM162.955 29.2696C161.403 31.1873 159.545 31.8685 157.102 31.8685C152.979 31.8685 150.434 28.9163 150.434 25.2577C150.434 21.3466 153.31 18.6468 157.178 18.6468C160.894 18.6468 163.413 21.0691 163.413 25.2324V25.9137H152.775C152.953 28.0837 154.684 29.9509 157.076 29.9509C158.96 29.9509 160.232 29.2948 161.275 28.0332L162.955 29.2696Z" fill="white"/>
<path d="M166.824 21.9522C166.824 20.7915 166.722 19.8075 166.722 18.9748H168.809C168.809 19.6561 168.859 20.3373 168.859 21.0438H168.91C169.496 19.8075 171.15 18.6468 173.313 18.6468C176.774 18.6468 178.327 20.741 178.327 23.7942V31.5658H176.138V23.996C176.138 21.9017 175.171 20.5897 173.135 20.5897C170.285 20.5897 169.063 22.5578 169.063 25.4343V31.5658H166.874V21.9522H166.824Z" fill="white"/>
<path d="M191.841 22.1288C190.899 21.0438 189.856 20.5896 188.532 20.5896C185.58 20.5896 184.078 22.6839 184.078 25.2829C184.078 27.8566 185.835 29.9509 188.532 29.9509C189.957 29.9509 191.077 29.4714 191.866 28.3864L193.495 29.8752C192.222 31.2629 190.415 31.8937 188.507 31.8937C184.435 31.8937 181.712 29.1434 181.712 25.2829C181.712 21.4728 184.46 18.672 188.507 18.672C190.441 18.672 192.248 19.2775 193.571 20.6653L191.841 22.1288Z" fill="white"/>
<path d="M205.914 24.1474C205.838 22.0279 204.362 20.5897 201.944 20.5897C199.527 20.5897 197.923 22.0027 197.643 24.1474H205.914ZM207.798 29.2696C206.245 31.1873 204.387 31.8685 201.944 31.8685C197.796 31.8685 195.276 28.9163 195.276 25.2577C195.276 21.3466 198.152 18.6468 202.021 18.6468C205.736 18.6468 208.256 21.0691 208.256 25.2324V25.9137H197.618C197.796 28.0837 199.527 29.9509 201.919 29.9509C203.802 29.9509 205.075 29.2948 206.093 28.0332L207.798 29.2696Z" fill="white"/>
<path d="M215 18.8738C215 20.4383 213.702 21.7251 212.073 21.7251C210.444 21.7251 209.121 20.4635 209.121 18.8738C209.121 17.3094 210.419 16.0478 212.073 16.0478C213.728 16.0478 215 17.3094 215 18.8738ZM210.012 18.8991C210.012 20.085 210.877 21.0186 212.073 21.0186C213.269 21.0186 214.135 20.085 214.135 18.8738C214.135 17.7132 213.269 16.7543 212.048 16.7543C210.877 16.7543 210.012 17.7132 210.012 18.8991ZM211.717 20.2112H210.903V17.6122C211.081 17.587 211.513 17.5365 212.073 17.5365C212.659 17.5365 212.939 17.6122 213.142 17.7384C213.295 17.8646 213.422 18.0412 213.422 18.3187C213.422 18.5711 213.168 18.8234 212.811 18.8991V18.9243C213.117 19.0252 213.269 19.2271 213.346 19.6056C213.422 19.9841 213.473 20.1355 213.524 20.2364H212.608C212.531 20.1355 212.48 19.9084 212.43 19.6813C212.379 19.429 212.251 19.2776 211.971 19.2776H211.717V20.2112ZM211.742 18.7225H211.971C212.277 18.7225 212.48 18.5963 212.48 18.4197C212.48 18.2178 212.302 18.0916 212.022 18.0916C211.921 18.0916 211.819 18.1169 211.768 18.1169V18.7225H211.742Z" fill="white"/>
</g>
<defs>
<clipPath id="clip0_3_4">
<rect width="215" height="43" fill="white"/>
</clipPath>
</defs>
</svg>
