<svg width="291" height="58" fill="none" xmlns="http://www.w3.org/2000/svg"><path d="M181.191 3.988c-.112.158-.336.725-.471 1.224l-.246.953-3.251.635c-3.027.59-3.251.612-3.632.25-1.681-1.52-4.842-1.43-10.582.317-6.434 1.927-14.056 5.442-16.209 7.438-1.076.997-1.143 1.133-1.143 2.131.022 1.134.74 3.492 1.412 4.58.74 1.203 1.009 1.248 6.121 1.384 4.506.113 11.658.748 13.675 1.225.516.113 1.413.272 2.018.34.673.09 1.054.25 1.054.453 0 .817-2.892 3.356-6.659 5.873-2.981 1.973-10.111 5.624-12.846 6.6-1.166.407-3.744 1.428-5.717 2.267-1.973.839-3.878 1.587-4.214 1.633l-.628.113.605.318c.673.362 3.587.43 3.789.09.067-.113.247-.226.359-.226.134 0 .179.09.112.204-.09.113.224.113.717 0 1.144-.273 1.682-.25 1.48.045-.09.181.022.204.381.068.291-.09 1.098-.181 1.771-.204.695-.045 1.906-.318 2.802-.68.875-.34 1.839-.658 2.175-.726.336-.068.74-.25.874-.43.292-.364.875-.432.875-.114 0 .136.56.022 1.278-.227 1.457-.499 1.479-.499 1.3-.181-.359.59 4.798-2.087 8.385-4.354 3.789-2.404 7.42-6.236 7.42-7.847 0-1.61-.627-2.63-2.533-4.036-.336-.25-.605-.59-.605-.748 0-.703-4.843-2.313-9.237-3.084-1.076-.204-3.789-.567-6.053-.817-2.242-.272-4.125-.521-4.17-.566-.471-.454 9.797-4.627 13.9-5.624 3.789-.93 3.856-.93 4.551-.023 1.009 1.338 1.3 1.36 5.537.272 2.063-.521 3.812-.884 3.901-.793.09.09-.112 2.108-.448 4.512-.314 2.404-.74 5.76-.919 7.438-.202 1.678-.404 3.243-.471 3.447-.179.59-.179 9.388 0 9.66.067.136.067.295-.045.363-.291.181-.314 3.787-.022 5.442.269 1.678.65 1.928 1.21.817.202-.386.494-.68.673-.68.179 0 .381-.273.471-.636.067-.34.269-1.133.426-1.746.179-.635.426-2.358.56-3.855.292-3.31.65-5.329.942-5.329.112 0 .157-.068.112-.181-.067-.09.045-1.18.202-2.426.179-1.248.47-3.447.65-4.876 1.054-8.073 2.152-13.356 2.78-13.402 1.009-.045 5.223-.612 4.842-.657-1.165-.137 1.435-.477 4.596-.613 2.354-.09 3.61-.226 3.924-.43.269-.205 1.053-.318 2.017-.318 1.345 0 1.704-.09 2.354-.567.426-.317.942-.567 1.166-.567.224 0 .404-.113.404-.227 0-.816-4.933-1.406-12.174-1.474-5.717-.045-6.008-.068-6.501-.521-.92-.862-4.529-1.52-5.045-.907Zm-23.248 6.281c-.068.136-.314.25-.516.25-.336-.023-.336-.046.045-.34.471-.363.717-.295.471.09Zm-1.009.431c0 .25-2.265 1.202-2.489 1.043-.112-.068-.202-.023-.202.09 0 .137-.426.386-.941.613-.538.204-1.951.93-3.184 1.61-1.21.68-2.286 1.225-2.399 1.18-.403-.137 2.713-2.019 5.291-3.198 3.543-1.61 3.924-1.746 3.924-1.338Zm2.578.499c-.628.272-.83.272-.673 0 .068-.136.359-.227.628-.204.471 0 .471.023.045.204Zm-1.906.794c-.314.181-.717.317-.896.317-.202 0-.09-.136.224-.317.314-.182.717-.318.897-.318.201 0 .089.136-.225.318Zm-3.138 1.201c0 .227-1.592 1.02-1.727.862-.067-.045.269-.317.763-.567 1.008-.544.964-.521.964-.295Zm2.466-.068c0 .114-1.233.794-1.458.794-.358 0-.022-.454.516-.635.718-.272.942-.317.942-.159Zm-2.13.998c-.336.34-2.847 1.429-2.69 1.157.179-.295 2.152-1.338 2.578-1.36.202 0 .224.067.112.203Zm-2.668.363c-.247.181-.56.34-.673.34-.134 0-.044-.159.18-.34.246-.181.56-.34.672-.34.135 0 .045.159-.179.34Zm-.359.907c0 .068-.403.363-.874.703-1.143.771-2.466.454-1.502-.34.269-.227.291-.181.202.181-.157.59-.09.59 1.076-.09 1.076-.613 1.098-.613 1.098-.454Zm-3.407 1.973c-.068.159-.337.317-.651.363-.538.09-.538.068-.089-.272.538-.431.852-.454.74-.091Zm12.801 15.692c-.583.567-2.332 1.746-3.139 2.132-.583.294-1.3.748-1.636 1.043-.718.68-3.834 2.2-5.74 2.812-.807.25-1.636.544-1.838.612-.224.09-.404.068-.404-.068 0-.25 1.749-1.18 2.198-1.18.515 0 1.39-.543 1.39-.838 0-.227.134-.272.448-.182.291.091.516 0 .717-.317.157-.272.471-.476.695-.476.202 0 .561-.204.763-.454.224-.25.493-.453.627-.453.112 0 1.39-.613 2.803-1.361 1.412-.748 2.712-1.338 2.892-1.36.179 0 .269.045.224.09Zm-2.802 4.331c-.404.318-.987.454-.987.227 0-.159 1.211-.77 1.323-.657.067.045-.09.249-.336.43Zm-1.435.68c-.157.182-.449.34-.65.34-.292-.022-.292-.067.067-.34.583-.43.941-.43.583 0Zm-6.838.091c-.269.25-4.282 1.837-4.641 1.837-.448 0-.045-.25 1.995-1.134 1.861-.839 3.117-1.156 2.646-.703Z" fill="url(#a)"/><path d="M229.93 4.192c-.044.181-.201.816-.336 1.451-.336 1.383-2.399 5.284-5.358 10.046-3.116 5.011-5.919 9.887-6.815 11.86-1.032 2.267-1.973 3.696-2.22 3.447-.112-.114-.359-1.565-.538-3.243-.202-1.678-.561-4.558-.785-6.395-.246-1.837-.448-3.65-.448-4.036 0-.885-1.099-2.087-2.489-2.699-1.255-.544-2.129-.68-2.062-.317.045.158-.045.294-.157.294-.135 0-.224.205-.224.454 0 .25-.74 3.696-1.659 7.665-.92 3.945-1.839 8.05-2.04 9.116-.202 1.065-.516 2.358-.695 2.902-.314.998-.404 2.948-.18 3.855.09.34.314.5.673.5.291 0 .538-.114.538-.228 0-.136.202-.226.426-.226.65 0 1.479-1.27 2.018-3.062.269-.884.672-2.04.896-2.608.247-.567.807-2.38 1.278-4.036.449-1.633.919-2.993 1.009-2.993.09 0 .448.884.762 1.973 1.435 4.83 3.789 8.231 5.672 8.231.92 0 2.354-2.086 5.089-7.37 1.704-3.288 3.274-6.054 3.386-5.941.112.113-.74 4.354-1.076 5.374-.157.431-.247.885-.225.998.045.113-.044.522-.179.907-.247.68-.65 4.173-1.031 8.753-.157 1.905-.202 2.041-.336 1.134l-.135-1.02-.067.907c-.135 1.791.269 4.694.717 5.283.336.409.628.34.628-.181 0-.227.179-.612.426-.839.426-.43.471-.612 1.569-6.418.359-1.927 1.076-4.852 1.592-6.462.516-1.633 1.076-3.492 1.255-4.173.18-.68.426-1.36.538-1.474.09-.136.202-.363.225-.476.112-.43.269-.907.65-1.927.471-1.157.493-1.248 2.287-6.463 1.591-4.649 2.219-7.982 1.793-9.456-.448-1.497-1.816-2.654-3.878-3.289-.225-.068-.426.023-.494.182Zm-.291 5.646c-.135.5-.516.862-.516.477 0-.386.269-.93.449-.93.112 0 .134.204.067.453Zm-.785 2.948c-.179.567-.627 1.157-.627.84 0-.34.538-1.52.672-1.52.112 0 .09.317-.045.68Zm-.672 6.531c-.135.522-.314.953-.426.953-.292 0-.247-.363.134-1.293.449-1.066.606-.884.292.34Zm1.995 2.245c-.426 1.225-.852 2.45-.942 2.721-.067.295-.224.522-.336.522-.09 0 .112-.884.448-1.996.359-1.088.673-2.222.718-2.54.067-.521.628-1.201.829-1.02.045.045-.269 1.089-.717 2.313Zm-2.578-.499c-.045.318-.135.567-.18.567-.044 0-.089-.25-.089-.567 0-.317.089-.567.202-.567.089 0 .134.25.067.567Zm-1.614.59c-.157.25-.314.43-.359.363-.157-.16.157-.84.381-.84.135 0 .112.205-.022.477Zm-16.837 7.052a8.826 8.826 0 0 1-.202.862c-.157.499-.179.476-.202-.295-.022-.453.09-.839.202-.839.135 0 .224.136.202.272Zm-3.901 4.535c-.314 1.656-.673 3.22-.785 3.47-.56 1.27.023-2.721.83-5.783.628-2.335.605-.975-.045 2.313Z" fill="url(#b)"/><path d="M57.617 6.187c.65 1.248 0 2.767-1.39 3.175-1.3.408-4.439 1.86-4.439 2.064 0 .158 1.031 1.836 1.928 3.129.56.816 1.794 1.338 2.332.998.246-.159.493-.272.56-.272.359 0-.47 5.215-.919 5.669-.291.295-1.143.34-1.973.113-.56-.159-.628-.136-.516.204.113.272-.022.431-.448.613-.336.136-.672.317-.74.43-.067.091-.695.34-1.39.522l-1.3.34v-.59c0-.34.314-2.766.695-5.374.381-2.63.695-5.556.717-6.508l.045-1.746-.897-.93c-.56-.567-1.008-.862-1.255-.794-.202.069-.605.023-.897-.09-.291-.114-.38-.227-.224-.227.247-.023.27-.09.09-.272-.135-.136-.718-.25-1.3-.25-1.323-.022-1.525.182-3.027 3.22-.987 1.973-1.928 4.354-5.515 13.674-1.345 3.493-1.457 3.651-2.982 4.128l-.538.158.448-.59c.314-.407.516-1.11.628-2.154.18-1.814-.09-2.426-1.367-3.197-.449-.25-.718-.567-.65-.68.224-.386-2.556-1.565-4.26-1.814-.852-.114-2.713-.227-4.08-.227-1.547 0-2.534-.09-2.534-.227 0-.136.067-.227.18-.227.09 0 .403-.204.717-.453 1.053-.862 2.13-1.587 2.825-1.905.38-.181 1.435-1.043 2.309-1.882 1.39-1.338 1.659-1.7 1.928-2.767.336-1.315.224-2.494-.247-2.675-.18-.069-.314-.25-.314-.409 0-.158-.336-.408-.717-.567-.897-.317-1.883-.816-2.646-1.27-.762-.476-5.2-.272-8.07.363-3.027.68-5.336 1.02-5.538.817-.09-.091-.045-.25.135-.34.38-.25-.202-.477-1.211-.477-.807 0-1.009.34-1.009 1.86 0 .793-.067.862-1.726 1.791-3.498 1.928-3.901 2.336-3.296 3.266.516.816 2.354 2.154 2.937 2.154.27 0 .516.045.516.113s-.202 1.452-.471 3.107c-.516 3.288-.807 4.037-1.637 4.037-.762 0-1.255.226-1.255.544 0 .159.403.657.897 1.133.493.454.896.998.896 1.225 0 .68-.695 8.3-.807 8.821-.044.295-.246.522-.426.522-.403 0-.448.703-.067 1.088.202.204.292 1.452.336 4.082.045 4.195.09 4.694.449 5.057.202.204.381.068.717-.499.27-.43.471-.839.471-.952 0-.091.202-.16.448-.16.27 0 .494-.18.56-.52.427-1.95.561-2.631.561-3.289 0-.385.09-.725.202-.725.112 0 .247-.227.292-.5.067-.407.403-.566 2.533-1.088 4.91-1.247 11.59-3.968 15.447-6.326 1.547-.93 2.04-1.134 2.174-.908 1.076 1.928 2.444 2.948 3.34 2.472.404-.204.651-.045 2.108 1.452 1.547 1.587 2.511 2.176 3.004 1.859.113-.068.292-.68.36-1.36.089-.704.335-1.883.537-2.654l.381-1.406 1.502-.635c2.736-1.134 2.422-1.746 2.444 4.717 0 3.084.09 6.44.202 7.438.112.998.09.83.224 2.394.247 2.857.583.456 1.121 1 .247.25 1.04.544 1.265 0 .157-.386.5-1 .876-1.784L48 44c-.224-3.152-.225-2.165-.068-2.414.112-.205.291-2.563.359-5.239.224-7.551.291-8.118 1.031-8.821.359-.317 1.076-.726 1.614-.884a32.432 32.432 0 0 0 2.377-.862c.986-.386 1.502-.499 1.659-.34.157.159.09 1.746-.225 4.966-.717 7.075-.807 9.116-.493 10.227.247.998.27.998 1.076.84.449-.069 1.01-.182 1.211-.25.583-.182 1.076-2.132 1.412-5.42.27-2.744.426-3.674.695-4.467.27-.749.247-.817-.09-.703-.336.136-.336.113-.067-.227.157-.204.225-.386.157-.386-.09 0 0-.158.18-.362.403-.386.493-1.452.134-1.452-.112 0-.224-.113-.224-.25 0-.135.157-.203.336-.113.247.091.337-.045.337-.521v-.658l3.542.091c1.928.068 5.089.204 6.995.318 3.61.226 11.86 1.292 12.353 1.587.201.136.201.793 0 3.107-.157 1.587-.36 3.923-.471 5.17-.202 2.245-.045 4.014.403 4.467.292.295 1.816-.023 2.287-.499.247-.25.516-1.179.74-2.517.515-3.152.83-5.896.717-6.1-.067-.113-.022-.227.067-.272.292-.113.539-1.315.27-1.315-.314 0-.27-.363.067-.726.38-.385.74-2.109.403-1.882-.134.068-.246.023-.246-.09 0-.137.09-.25.224-.25.112 0 .269-.25.359-.544l.134-.545 3.385.091c7.354.227 13.205.771 18.407 1.678 1.21.227 1.659.43 2.174.975.359.363.65.771.65.885 0 .294 1.816 1.088 2.534 1.088.65 0 1.95-.567 1.95-.862 0-.09.673-.725 1.48-1.406 1.748-1.474 5.156-5.215 7.084-7.755.74-.998 1.39-1.746 1.457-1.678.113.113-.224 1.429-.605 2.29-.112.25-.314.862-.471 1.36-.336 1.157-3.945 9.752-4.909 11.68-.852 1.745-3.834 5.827-5.964 8.14-1.524 1.678-2.713 2.427-5.762 3.651l-1.3.522.897.408c.515.227 1.547.521 2.309.68.785.136 1.592.363 1.794.476.246.114 1.008.046 2.017-.181l1.637-.363 2.937-3.016c2.443-2.494 3.206-3.447 4.394-5.465 1.524-2.585 3.161-6.123 4.08-8.821.314-.884 1.031-2.925 1.592-4.535.583-1.633 1.255-3.606 1.48-4.422.246-.817.672-2.245.986-3.175.538-1.769 1.3-5.488 1.569-7.778.157-1.202.112-1.36-.47-2.132-.808-1.066-1.39-1.655-1.637-1.655-.112 0-.314-.136-.448-.318-.135-.158-.718-.43-1.278-.59-1.211-.34-1.345-.249-2.085 1.588-.516 1.247-2.578 4.853-4.417 7.756-2.152 3.356-7.869 9.886-9.483 10.794l-.919.521v-.68c0-1.02 1.659-7.914 2.555-10.567 1.144-3.402 1.166-3.72.382-4.604-.382-.385-.875-.725-1.121-.725-.269 0-.449-.114-.426-.25.067-.204-1.413-.884-1.973-.884-.157 0-.314.181-.381.385-1.682 5.783-2.848 11.112-2.848 13.017v1.156l-1.39-.113c-1.277-.091-7.801-.862-10.2-1.18-.538-.09-.964-.226-.964-.317 0-.09.38-.295.852-.453 1.748-.635 6.389-2.994 7.891-3.991 2.175-1.474 3.139-2.654 3.139-3.855 0-.613-.157-1.18-.448-1.543-.247-.317-.449-.634-.449-.725 0-.454-2.085-2.018-3.475-2.585-2.309-.975-4.506-1.248-9.64-1.202-4.417.045-4.462.045-5.044-.5-.314-.294-.763-.589-1.01-.634-.246-.045-.448-.227-.448-.408 0-.318-1.77-.885-2.017-.635-.068.045.022.43.179.839.224.612.202.839-.18 1.565-.358.68-.694.907-1.815 1.315-1.816.657-4.148 1.746-4.08 1.905.044.068.515.839 1.053 1.723 1.323 2.132 2.802 3.084 3.565 2.313.134-.136.314-.204.38-.136.158.159-.761 5.692-1.008 6.077-.135.227-.426.204-1.255-.09-.583-.204-1.099-.363-1.144-.363-.202 0-.022.68.359 1.451.247.476.516 1.18.605 1.565l.135.703-.56-.386c-.337-.204-1.032-.385-1.548-.385-.538 0-1.569-.114-2.309-.227-1.009-.159-9.102-1.134-9.46-1.134-.045 0-.068-.113-.068-.227 0-.136.135-.226.291-.226.471-.023 5.628-2.381 7.354-3.402 1.928-1.156 3.834-2.902 4.237-3.877.404-.953.023-2.087-1.143-3.447-2.242-2.63-6.569-3.674-13.99-3.402l-3.385.136-.381-.612c-.247-.386-.583-.59-.964-.59-.426 0-.56-.09-.47-.317.134-.363-.875-.816-1.795-.816-.448 0-.493.068-.29.43Zm-32.754 1.02c-.247.228-1.995.341-1.995.137 0-.114.47-.227 1.053-.227.56 0 .987.045.942.09Zm.022 2.405c0 .362-1.681 2.131-3.677 3.832-2.645 2.267-7.062 5.102-7.42 4.74-.247-.25 1.076-5.284 1.524-5.783.718-.794 4.327-2.041 7.892-2.676.874-.159 1.591-.318 1.636-.318.023-.022.045.091.045.205Zm49.546 2.698c.516.159.471.227-1.008 1.202-1.906 1.247-3.677 2.154-6.3 3.265-1.099.431-2.937 1.225-4.08 1.724-1.144.499-2.13.861-2.198.793-.201-.181.628-5.351.92-5.737.134-.204.852-.499 1.569-.68 2.197-.567 9.82-.93 11.097-.567Zm27.329-.068c.381.09.628.25.561.363-.247.385-3.161 2.2-4.73 2.925-.853.386-3.094 1.36-5 2.177-1.906.794-3.61 1.52-3.744 1.587-.202.069-.291-.113-.291-.612 0-.952.672-5.057.874-5.26.695-.772 9.954-1.656 12.33-1.18Zm-80.462 2.993c0 .091-.291.34-.65.567-.493.295-.673.318-.762.114-.067-.182-.202-.046-.337.294-.134.34-.47.771-.762.976-.56.408-1.636.498-1.412.113.09-.136.291-.181.47-.113.18.067.427-.091.561-.363.381-.726 1.413-1.542 1.57-1.27.111.158.336.113.672-.136.605-.408.65-.431.65-.182Zm76.113 1.406c-.09.136-.74.545-1.48.907-1.21.635-1.793 1.089-.986.771.605-.25.336.114-.359.5-.65.34-.695.34-.583 0 .09-.205.112-.364.045-.364-.09 0-2.488 1.089-4.439 2.041-1.636.794-1.076.794.65 0 .83-.362 1.547-.657 1.592-.612.157.181-.785.84-1.838 1.247-.606.25-1.3.522-1.502.613-.314.136-.404.045-.404-.386 0-.59 1.076-1.18 7.062-3.9 2.556-1.157 2.421-1.111 2.242-.817Zm-28.091.34c-.27.204-.83.5-1.256.68-.515.227-.74.454-.672.658.067.204-.135.409-.605.567-.606.204-.673.204-.427-.09.404-.477.314-.454-2.264.703-2.802 1.247-3.183 1.45-3.049 1.587.068.068.718-.181 1.48-.567.74-.385 1.48-.703 1.636-.703.494 0-.582.794-1.838 1.315-1.95.862-1.973.862-1.838.159.09-.522.426-.771 2.152-1.61 5.448-2.585 8.004-3.606 6.68-2.699Zm-51.968.975c.068.114-.067.363-.291.545-.314.272-.493.294-.673.113-.179-.181-.246-.09-.246.318 0 .317-.224.77-.471 1.02l-.493.43.38-.747c.203-.409.27-.726.135-.726-.47 0-.201-.612.404-.84.762-.317 1.12-.34 1.255-.113Zm27.62 3.04c-.313 2.516-.448 3.083-.829 3.4-.269.227-.605.409-.762.409-.157 0-.448.068-.65.136-.516.204-.449-.113.426-2.472 1.054-2.88 1.905-4.785 2.04-4.626.067.068-.023 1.474-.224 3.152ZM9.776 19.52c-.135 1.089-.27 1.383-.494 1.157-.201-.227.157-2.223.404-2.223.157 0 .18.386.09 1.066Zm59.5 1.656c-.538.34-.83.249-.359-.114.247-.181.493-.272.56-.204.068.068-.022.204-.201.318Zm-1.12.43c0 .227-1.368.771-1.525.613-.09-.114 1.053-.794 1.367-.817.09 0 .157.091.157.204Zm27.575 0c0 .227-1.368.771-1.525.59-.067-.045.224-.25.65-.43.92-.409.875-.409.875-.16Zm-64.142.68c.247.16.157.273-.336.545-.358.204-1.412 1.043-2.331 1.86-3.52 3.197-6.973 5.102-13.474 7.483-2.265.839-4.237 1.542-4.394 1.564-.157.023-.36.114-.426.205-.247.226-.538.204-.538-.069 0-.136.134-.226.313-.226.404 0 .583-.5.583-1.565 0-.454.157-1.043.337-1.293.179-.272.291-.521.224-.567-.045-.045.067-.702.246-1.45.157-.75.314-1.679.314-2.087 0-.386.135-.862.314-1.043.807-.794 8.318-2.903 12.129-3.402 1.39-.181 6.748-.136 7.04.046Zm14.394 1.452c-.292.295-.337-.023-.09-.68.157-.386.18-.386.246.022.045.227-.022.522-.156.658Zm80.125 2.245c-.179.612-.493.998-.672.84-.157-.16.403-1.339.628-1.339.112 0 .112.227.044.499Zm-114.673.522c0 .181-.09.34-.224.34-.113 0-.225-.159-.225-.34 0-.182.112-.34.225-.34.134 0 .224.158.224.34Zm-2.892 2.426c-.157 1.02-.314 2.744-.381 3.81-.113 1.746-.337 2.54-.65 2.222-.113-.113.47-6.826.694-7.869.09-.385.18-.476.36-.295.156.16.156.794-.023 2.132Zm117.005-1.293c0 .182-.09.34-.224.34-.112 0-.224-.158-.224-.34 0-.181.112-.34.224-.34.134 0 .224.159.224.34ZM25.109 28.66c-.717.613-.74.659-.224.545.56-.113.56-.113.112.25-.493.43-6.255 3.333-7.33 3.718-.606.205-.65.205-.404-.09s.224-.318-.09-.204c-.202.068-.359.362-.359.612 0 .363-.067.408-.269.204-.38-.385-.65-.34-.493.068.09.181.023.34-.112.34a.25.25 0 0 1-.247-.25c0-.113-.112-.158-.224-.09-.134.09-.157.25-.09.386.09.136-.022.181-.291.09-.224-.068-1.166.114-2.085.431-1.726.59-2.489.59-.986 0 1.77-.725 1.995-.907.538-.453-.449.136-.516.113-.292-.114.157-.158.695-.317 1.233-.34.65-.023 2.108-.567 4.484-1.655 1.928-.907 3.632-1.633 3.811-1.633.157 0 .426-.204.583-.454.157-.249.426-.453.628-.453.291 0 .314.068.09.34s-.157.272.426-.023c.38-.204.695-.408.695-.453 0-.068-.09-.046-.225.022-.112.069-.224.023-.224-.09 0-.25 1.525-1.36 1.906-1.36.134 0-.135.294-.56.657Zm31.41 1.588c-.225.567-.225.567-.225-.113-.022-.386.068-.93.157-1.247.157-.567.157-.545.224.113.045.386-.022.952-.156 1.247Zm1.076-1.655c0 .113-.09.385-.202.635-.18.408-.202.385-.202-.182-.022-.34.09-.612.202-.612.134 0 .224.068.202.159Zm26.611 1.837c-.246.226-.291-.068-.157-.976l.135-.906.067.884c.045.476.022.93-.045.998Zm39.189-.386c-.224.522-.426.862-.471.726-.112-.318.56-1.996.74-1.837.045.068-.067.567-.269 1.111Zm-77.66-.59c0 .182-.09.34-.224.34-.112 0-.224-.158-.224-.34 0-.18.112-.34.224-.34.134 0 .224.16.224.34Zm39.928.726c-.224.386-.224.363-.246-.068 0-.521.291-.93.403-.567.045.136-.022.408-.157.635Zm36.88 2.041c-.247.476-.336.522-.359.227 0-.544.493-1.474.605-1.134.045.136-.067.544-.246.907Zm-65.576.907c-.224.386-.224.363-.247-.068 0-.521.292-.93.404-.567.045.136-.023.408-.157.635Zm-1.816.159c0 .181-.09.408-.224.476-.112.068-.224-.068-.224-.317 0-.273.112-.477.224-.477.134 0 .224.136.224.318Zm66.54 1.542c-.247.657-.538 1.36-.65 1.587-.135.272-.135.408 0 .408.134 0 .493-.476.784-1.088.314-.59.561-.884.583-.658.045 1.77-6.994 11.724-8.295 11.724-.448 0-.179-.385 1.256-1.814.807-.816 1.905-2.086 2.443-2.835.92-1.315 2.018-3.288 1.816-3.288-.314 0 1.413-4.512 1.973-5.102.493-.567.538-.09.09 1.066Zm-100.93-.84c-.247.182-.606.341-.786.341-.291-.023-.269-.09.068-.34.246-.182.605-.34.784-.34.292.022.27.09-.067.34Zm61.966.454c0 .182-.09.34-.225.34-.112 0-.224-.158-.224-.34 0-.181.112-.34.224-.34.135 0 .225.159.225.34Zm-71.07.114c-.178.113-.492.227-.672.227-.291 0-.291-.023 0-.227.18-.114.494-.227.673-.227.291 0 .291.023 0 .227Zm6.413.567c-.247.181-.493.272-.56.204-.135-.136.425-.544.761-.544.135.022.023.158-.201.34Zm64.567.952c-.247.25-.426-.136-.247-.544.18-.386.18-.386.27 0 .067.227.044.476-.023.544Zm-37.216.703c-.246.227-.336-.09-.18-.635l.158-.567.067.522c.045.295.022.59-.045.68ZM7.533 38.683c-.09.657-.135 1.61-.135 2.109 0 .499-.045 1.156-.134 1.474l-.135.567-.202-.522c-.224-.612.225-4.807.539-4.807.112 0 .134.544.067 1.179Zm76 .794c-.246.249-.425-.136-.246-.545.18-.385.18-.385.269 0 .067.227.045.477-.022.545Zm39.772-.431c0 .385-1.659 2.608-1.749 2.358-.044-.181.09-.522.337-.794a7.01 7.01 0 0 0 .739-1.133c.27-.567.673-.84.673-.431Zm-4.977.998c-.291.544-.628 1.065-.762 1.201-.135.114-.673.771-1.188 1.429-.538.658-1.032 1.134-1.099 1.066-.067-.068.179-.454.561-.862.381-.385.807-.975.964-1.292.448-.84 1.659-2.472 1.86-2.495.112 0-.045.43-.336.953Zm-72.593.703c0 .226-.09.34-.224.272-.112-.068-.224-.409-.224-.749 0-.476.044-.544.224-.272.112.182.224.522.224.748Zm-.673 1.541c0 .25-.09.386-.224.318-.112-.068-.224-.295-.224-.476 0-.182.112-.318.224-.318.135 0 .224.204.224.477Zm68.849 2.88c-.291.567-2.017 1.746-2.219 1.52-.09-.091-.045-.227.112-.272.135-.046.695-.454 1.233-.885 1.121-.884 1.166-.907.874-.363Z" fill="url(#c)"/><path d="M273.625 7.117c-5.717 1.973-14.191 7.28-17.532 10.953l-.874.952.023-2.63c0-2.54-.023-2.653-.651-3.47-1.367-1.814-4.304-3.152-6.972-3.174-1.278 0-1.794.113-2.758.635-1.098.566-1.255.59-2.017.317-.449-.159-.964-.385-1.121-.499-.18-.136-.875-.204-1.547-.204-.964.023-1.368.159-1.794.567-1.614 1.52-3.407 4.762-4.214 7.597-1.704 5.895-1.57 11.134.336 14.24.762 1.27 2.959 3.538 3.856 3.992 2.556 1.315 6.188-.386 10.851-5.103 2.645-2.675 4.394-5.918 5.47-10.204.359-1.451.426-1.542.561-.93.067.363.291 1.043.448 1.474.157.431.359 1.043.426 1.36.067.318.426.976.785 1.475l.65.93 2.107-.16c1.143-.09 3.408-.294 5-.43 3.273-.295 5.492-.159 7.958.476 2.556.635 2.691.68 2.691.998 0 .567-2.87 2.948-5.269 4.4-3.004 1.813-4.865 2.607-7.241 3.083-2.242.454-3.072.295-5.583-1.043l-1.636-.862.538 1.066c.291.59 1.121 1.791 1.816 2.699 1.659 2.086 3.721 3.288 5.649 3.265 2.825-.023 8.139-2.245 11.501-4.807 2.063-1.588 4.417-4.082 5.157-5.488.717-1.338.493-1.973-1.188-3.651-2.892-2.88-8.811-4.898-14.393-4.898-1.099 0-2.153-.09-2.332-.204-.336-.204 1.793-1.746 5.65-4.082 2.623-1.588 9.236-4.105 10.806-4.105.224 0 .852-.226 1.39-.498l1.008-.5.852.5c1.076.612 1.704.635 2.018.045.202-.386.023-.658-1.278-1.996-1.95-1.995-3.228-2.63-5.448-2.72-1.412-.046-2.017.067-3.699.634Zm-4.147 2.835c0 .045-.404.317-.897.567-.493.249-.874.566-.83.703.023.158-.089.317-.269.385-.201.068-.246 0-.134-.204.112-.159-.314 0-.919.363-1.861 1.111-4.125 2.608-4.125 2.744 0 .068.112.045.224-.023.134-.068.224-.023.224.113 0 .16-.157.205-.359.136-.426-.158-1.435.477-1.435.907 0 .182-.112.318-.246.318-.112 0-.157-.113-.067-.272.224-.363-2.511 1.746-3.543 2.744-.47.43-.852.657-.852.476 0-.953 6.345-5.624 11.12-8.186 1.592-.84 2.108-1.02 2.108-.771Zm-24.303 3.401c-.246.182-.56.34-.672.34-.135 0-.045-.158.179-.34.247-.181.561-.34.673-.34.134 0 .045.159-.18.34Zm1.211.34c-.83.658-1.121.545-.359-.136.337-.317.695-.499.785-.43.067.09-.112.34-.426.566Zm4.73-.068c.314 4.195-2.802 11.316-6.434 14.83-1.547 1.475-5.358 4.196-6.389 4.559-1.973.703-2.018-2.359-.09-9.411 1.255-4.649 2.578-7.098 3.654-6.803.269.068.807-.09 1.233-.363.942-.59 1.211-.612.807-.09-.291.385-.269.385.247.045 1.569-.998 3.251-1.86 4.843-2.472 2.107-.794 2.107-.794 2.129-.295Zm-7.734 1.996c-.471.363-.718.295-.471-.09.067-.137.314-.25.516-.25.336.022.336.045-.045.34Zm10.851 3.447c0 .113-.112.34-.225.521-.179.272-.224.25-.224-.181 0-.272.112-.5.224-.5.135 0 .225.069.225.16Zm-.359 1.02c.179.113.157.25-.045.454-.202.204-.269.204-.291-.068 0-.204-.09-.136-.202.136-.179.43-.202.43-.202-.046a2.29 2.29 0 0 1 .135-.884c.112-.317.179-.34.246-.068.068.159.224.385.359.476Zm-2.982 2.381c-.672 1.769-3.318 6.554-3.52 6.35-.067-.046.83-1.996 1.973-4.309 1.144-2.336 2.108-4.127 2.153-4.036.044.113-.247 1.02-.606 1.995Zm1.771 1.089c0 .181-.089.34-.224.34-.112 0-.224-.159-.224-.34 0-.182.112-.34.224-.34.135 0 .224.158.224.34Zm-.381 1.043c-.134.136-.381.181-.538.068-.202-.114-.179-.204.157-.318.516-.204.695-.068.381.25Zm-1.323 2.29c-.919 1.61-2.981 4.286-3.004 3.923 0-.25 2.848-4.195 3.027-4.195.09 0 .067.136-.023.272Zm-3.452 4.445c0 .272-2.242 1.678-2.511 1.587-.135-.045.336-.476 1.054-.93 1.457-.907 1.457-.907 1.457-.657Zm20.805 1.519c-.067.068-1.256.635-2.668 1.247-1.412.613-2.578 1.225-2.623 1.36-.112.341-2.152.273-2.87-.113l-.65-.34h.897c1.233 0 2.982-.476 5.627-1.542 1.973-.793 2.668-.998 2.287-.612Zm-10.649 1.338c.224.181.314.385.179.454-.179.113-.919-.409-.919-.68 0-.182.336-.069.74.226Zm.964 1.293c.426.498.426.498-.067.226-.539-.272-.875-.703-.561-.703.112 0 .381.227.628.477Z" fill="url(#d)"/><path d="M194.217 9.634c-.964.272-1.211.703-2.309 3.946-.516 1.497-1.278 3.742-1.704 4.989-.449 1.247-1.592 4.807-2.579 7.937-.964 3.106-1.883 5.714-1.995 5.737-.134.045-.179.158-.112.272.135.227-.448 2.63-.897 3.719-.179.408-.246.975-.179 1.247.067.295.022.59-.135.68-.403.25 2.422 2.29 3.162 2.29.762 0 .874-.226 1.524-3.015.292-1.248.628-2.268.762-2.313.269-.068 4.327-1.225 4.865-1.384.314-.09.381.25.516 2.223.493 7.37 1.592 11.746 2.937 11.746.089 0 .089-.317 0-.703-.112-.499-.09-.657.089-.567.135.091.449.046.695-.09.382-.204.449-.477.449-1.656 0-3.106-.314-7.869-.471-7.596-.112.158-.202.703-.202 1.201 0 .68-.067.817-.224.567-.247-.385-.291-3.061-.067-4.422.112-.703.179-.793.314-.453.134.385.179.363.179-.182.022-.362-.067-.59-.202-.498-.112.068-.224-.023-.224-.227 0-.204.112-.295.224-.227.135.068.224.045.224-.045 0-.114.359-.34.808-.5.493-.18.874-.498 1.008-.884.135-.34.494-.884.785-1.201.718-.749.426-.998-.942-.772l-.986.137v-2.63c0-1.702-.09-2.586-.224-2.495-.135.068-.224-.114-.224-.431 0-.318.134-.658.291-.748.381-.227.964-11.18.628-11.407-.112-.068-.292-.408-.359-.748-.09-.34-.269-.612-.381-.612-.112 0-.493-.182-.807-.431-.717-.476-3.161-.749-4.237-.454Zm-1.009 4.558a.703.703 0 0 1-.359.363c-.157.045-.224-.045-.134-.272.157-.408.627-.499.493-.09Zm-.628 1.996c0 .25-.09.453-.224.453-.112 0-.202.068-.179.159.089.386-.337 1.791-.673 2.154-.179.227-.359.703-.381 1.066-.067.748-3.139 10.273-3.61 11.134-.515.975-.336 0 .449-2.54.448-1.45.672-2.449.538-2.494-.157-.068-.112-.227.067-.408.179-.181.359-.68.381-1.089.045-.408.224-.997.381-1.338.157-.317.247-.725.18-.884-.068-.181 0-.317.134-.317.135 0 .18-.136.112-.295-.045-.159.09-.499.314-.748.224-.227.381-.567.314-.726-.045-.136 0-.272.112-.272.09 0 .202-.295.224-.68.023-.363.202-.908.381-1.18.18-.294.337-.635.359-.748.067-1.18 1.121-2.358 1.121-1.247Zm2.601 4.694c-.068 1.86-.135 4.74-.135 6.44v3.084l-2.062.34c-1.144.181-2.108.318-2.153.295-.134-.114 3.094-10.431 4.148-13.175.291-.771.336-.114.202 3.016Zm1.076.204c.067.204.134.816.134 1.36 0 .567.112.998.247.998s.202.159.112.34c-.067.182-.022.34.09.34.224 0 .314-.476.246-1.088-.022-.136.068-.272.202-.272.202 0 .224.975.135 3.538-.068 1.95-.157 3.582-.18 3.628-.045.045-.515.136-1.031.227l-.919.136v-2.29c.022-1.361.112-2.291.246-2.291.135 0 .202-.59.18-1.429-.09-2.2-.023-3.56.202-3.56.112 0 .269.159.336.363Zm2.825 8.572c-.269.272-.292-.635-.045-2.926l.157-1.587.067 2.132c.045 1.27-.022 2.222-.179 2.38Zm-1.749 5.283c.045 2.54.112 4.218.179 4.49.135.544-.022 1.02-.336 1.02-.179 0-.336.114-.336.25 0 .114.089.181.202.09.112-.067.269-.022.358.114.067.114-.022.227-.224.227s-.291.09-.224.227c.067.113.045.227-.067.227-.135 0-.157.317-.045.839.157.612.112.952-.135 1.292-.336.454-.336.454-.179-.159.067-.34.045-.612-.09-.612-.246 0-.986-5.42-1.031-7.733-.022-1.587 0-1.655.538-1.814 1.323-.385 1.345-.34 1.39 1.542Zm1.524 5.08c0 .227-.089.43-.224.43-.112 0-.224-.271-.224-.589 0-.317.09-.522.224-.43.135.067.224.34.224.589Z" fill="url(#e)"/><g opacity=".4"><path d="M182.191 6.988c-.112.158-.336.725-.471 1.224l-.246.953-3.251.635c-3.027.59-3.251.612-3.632.25-1.681-1.52-4.842-1.43-10.582.316-6.434 1.928-14.056 5.443-16.209 7.439-1.076.997-1.143 1.133-1.143 2.131.022 1.134.74 3.492 1.412 4.58.74 1.203 1.009 1.248 6.121 1.384 4.506.113 11.658.748 13.675 1.225.516.113 1.413.272 2.018.34.673.09 1.054.25 1.054.453 0 .817-2.892 3.356-6.659 5.873-2.981 1.973-10.111 5.624-12.846 6.6-1.166.407-3.744 1.428-5.717 2.267-1.973.839-3.878 1.587-4.214 1.633l-.628.113.605.318c.673.362 3.587.43 3.789.09.067-.113.247-.226.359-.226.134 0 .179.09.112.204-.09.113.224.113.717 0 1.144-.273 1.682-.25 1.48.045-.09.181.022.204.381.068.291-.09 1.098-.181 1.771-.204.695-.045 1.906-.318 2.802-.68.875-.34 1.839-.658 2.175-.726.336-.068.74-.25.874-.43.292-.364.875-.432.875-.114 0 .136.56.022 1.278-.227 1.457-.499 1.479-.499 1.3-.181-.359.59 4.798-2.087 8.385-4.354 3.789-2.404 7.42-6.236 7.42-7.847 0-1.61-.627-2.63-2.533-4.036-.336-.25-.605-.59-.605-.748 0-.703-4.843-2.313-9.237-3.084-1.076-.204-3.789-.567-6.053-.817-2.242-.272-4.125-.521-4.17-.566-.471-.454 9.797-4.627 13.9-5.624 3.789-.93 3.856-.93 4.551-.023 1.009 1.338 1.3 1.36 5.537.272 2.063-.521 3.812-.884 3.901-.793.09.09-.112 2.108-.448 4.512-.314 2.404-.74 5.76-.919 7.438-.202 1.678-.404 3.243-.471 3.447-.179.59-.179 9.388 0 9.66.067.136.067.295-.045.363-.291.181-.314 3.787-.022 5.442.269 1.678.65 1.928 1.21.817.202-.386.494-.68.673-.68.179 0 .381-.273.471-.636.067-.34.269-1.133.426-1.746.179-.635.426-2.358.56-3.855.292-3.31.65-5.329.942-5.329.112 0 .157-.068.112-.181-.067-.09.045-1.18.202-2.426.179-1.248.47-3.447.65-4.876 1.054-8.073 2.152-13.356 2.78-13.402 1.009-.045 5.223-.612 4.842-.658-1.165-.136 1.435-.476 4.596-.612 2.354-.09 3.61-.226 3.924-.43.269-.205 1.053-.318 2.017-.318 1.345 0 1.704-.09 2.354-.567.426-.317.942-.567 1.166-.567.224 0 .404-.113.404-.227 0-.816-4.933-1.406-12.174-1.474-5.717-.045-6.008-.068-6.501-.521-.92-.862-4.529-1.52-5.045-.907Zm-23.248 6.281c-.068.136-.314.25-.516.25-.336-.023-.336-.046.045-.34.471-.363.717-.295.471.09Zm-1.009.431c0 .25-2.265 1.202-2.489 1.043-.112-.068-.202-.023-.202.09 0 .137-.426.386-.941.613-.538.204-1.951.93-3.184 1.61-1.21.68-2.286 1.225-2.399 1.18-.403-.137 2.713-2.019 5.291-3.198 3.543-1.61 3.924-1.746 3.924-1.338Zm2.578.499c-.628.272-.83.272-.673 0 .068-.136.359-.227.628-.204.471 0 .471.023.045.204Zm-1.906.794c-.314.181-.717.317-.896.317-.202 0-.09-.136.224-.317.314-.182.717-.318.897-.318.201 0 .089.136-.225.318Zm-3.138 1.201c0 .227-1.592 1.02-1.727.862-.067-.045.269-.317.763-.567 1.008-.544.964-.521.964-.295Zm2.466-.068c0 .114-1.233.794-1.458.794-.358 0-.022-.454.516-.635.718-.272.942-.317.942-.159Zm-2.13.998c-.336.34-2.847 1.429-2.69 1.157.179-.295 2.152-1.338 2.578-1.36.202 0 .224.067.112.203Zm-2.668.363c-.247.181-.56.34-.673.34-.134 0-.044-.159.18-.34.246-.181.56-.34.672-.34.135 0 .045.159-.179.34Zm-.359.907c0 .068-.403.363-.874.703-1.143.771-2.466.454-1.502-.34.269-.227.291-.181.202.181-.157.59-.09.59 1.076-.09 1.076-.613 1.098-.613 1.098-.454Zm-3.407 1.973c-.068.159-.337.317-.651.363-.538.09-.538.068-.089-.272.538-.431.852-.454.74-.091Zm12.801 15.692c-.583.567-2.332 1.746-3.139 2.132-.583.294-1.3.748-1.636 1.043-.718.68-3.834 2.2-5.74 2.812-.807.25-1.636.544-1.838.612-.224.09-.404.068-.404-.068 0-.25 1.749-1.18 2.198-1.18.515 0 1.39-.543 1.39-.838 0-.227.134-.272.448-.182.291.091.516 0 .717-.317.157-.272.471-.476.695-.476.202 0 .561-.204.763-.454.224-.25.493-.453.627-.453.112 0 1.39-.613 2.803-1.361 1.412-.748 2.712-1.338 2.892-1.36.179 0 .269.045.224.09Zm-2.802 4.331c-.404.318-.987.454-.987.227 0-.159 1.211-.77 1.323-.657.067.045-.09.249-.336.43Zm-1.435.68c-.157.182-.449.34-.65.34-.292-.022-.292-.067.067-.34.583-.43.941-.43.583 0Zm-6.838.091c-.269.25-4.282 1.837-4.641 1.837-.448 0-.045-.25 1.995-1.134 1.861-.839 3.117-1.156 2.646-.703Z" fill="url(#f)"/><path d="M230.93 7.192c-.044.181-.201.816-.336 1.451-.336 1.383-2.399 5.284-5.358 10.046-3.116 5.011-5.919 9.887-6.815 11.86-1.032 2.267-1.973 3.696-2.22 3.447-.112-.114-.359-1.565-.538-3.243-.202-1.678-.561-4.558-.785-6.395-.246-1.837-.448-3.65-.448-4.036 0-.885-1.099-2.087-2.489-2.699-1.255-.544-2.129-.68-2.062-.317.045.158-.045.294-.157.294-.135 0-.224.204-.224.454s-.74 3.696-1.659 7.665c-.92 3.945-1.839 8.05-2.04 9.116-.202 1.065-.516 2.358-.695 2.902-.314.998-.404 2.948-.18 3.855.09.34.314.5.673.5.291 0 .538-.114.538-.228 0-.136.202-.226.426-.226.65 0 1.479-1.27 2.018-3.062.269-.884.672-2.04.896-2.608.247-.567.807-2.38 1.278-4.036.449-1.633.919-2.993 1.009-2.993.09 0 .448.884.762 1.973 1.435 4.83 3.789 8.231 5.672 8.231.92 0 2.354-2.086 5.089-7.37 1.704-3.288 3.274-6.054 3.386-5.941.112.113-.74 4.354-1.076 5.374-.157.431-.247.885-.225.998.045.114-.044.522-.179.907-.247.68-.65 4.173-1.031 8.753-.157 1.905-.202 2.041-.336 1.134l-.135-1.02-.067.907c-.135 1.791.269 4.694.717 5.283.336.409.628.34.628-.181 0-.227.179-.612.426-.839.426-.43.471-.612 1.569-6.418.359-1.927 1.076-4.852 1.592-6.462.516-1.633 1.076-3.492 1.255-4.173.18-.68.426-1.36.538-1.474.09-.136.202-.363.225-.476.112-.43.269-.907.65-1.927.471-1.157.493-1.248 2.287-6.463 1.591-4.649 2.219-7.982 1.793-9.456-.448-1.497-1.816-2.654-3.878-3.289-.225-.068-.426.023-.494.182Zm-.291 5.646c-.135.5-.516.862-.516.477 0-.386.269-.93.449-.93.112 0 .134.204.067.453Zm-.785 2.948c-.179.567-.627 1.157-.627.84 0-.34.538-1.52.672-1.52.112 0 .09.317-.045.68Zm-.672 6.531c-.135.522-.314.953-.426.953-.292 0-.247-.363.134-1.293.449-1.066.606-.884.292.34Zm1.995 2.245c-.426 1.225-.852 2.45-.942 2.721-.067.295-.224.522-.336.522-.09 0 .112-.884.448-1.996.359-1.088.673-2.222.718-2.54.067-.521.628-1.201.829-1.02.045.045-.269 1.089-.717 2.313Zm-2.578-.499c-.045.318-.135.567-.18.567-.044 0-.089-.25-.089-.567 0-.317.089-.567.202-.567.089 0 .134.25.067.567Zm-1.614.59c-.157.25-.314.43-.359.363-.157-.16.157-.84.381-.84.135 0 .112.205-.022.477Zm-16.837 7.052a8.826 8.826 0 0 1-.202.862c-.157.499-.179.476-.202-.295-.022-.453.09-.839.202-.839.135 0 .224.136.202.272Zm-3.901 4.535c-.314 1.656-.673 3.22-.785 3.47-.56 1.27.023-2.721.83-5.782.628-2.336.605-.976-.045 2.313Z" fill="url(#g)"/><path d="M58.617 9.187c.65 1.248 0 2.767-1.39 3.175-1.3.408-4.439 1.86-4.439 2.064 0 .158 1.031 1.836 1.928 3.129.56.816 1.794 1.338 2.332.998.246-.159.493-.272.56-.272.359 0-.47 5.215-.919 5.669-.291.295-1.143.34-1.973.113-.56-.159-.628-.136-.516.204.113.272-.022.431-.448.613-.336.136-.672.317-.74.43-.067.091-.695.34-1.39.522l-1.3.34v-.59c0-.34.314-2.766.695-5.374.381-2.63.695-5.556.717-6.508l.045-1.746-.897-.93c-.56-.567-1.008-.861-1.255-.793-.202.068-.605.022-.897-.091-.291-.114-.38-.227-.224-.227.247-.023.27-.09.09-.272-.135-.136-.718-.25-1.3-.25-1.323-.022-1.525.182-3.027 3.22-.987 1.973-1.928 4.354-5.515 13.674-1.345 3.493-1.457 3.651-2.982 4.128l-.538.158.448-.59c.314-.407.516-1.11.628-2.154.18-1.814-.09-2.426-1.367-3.197-.449-.25-.718-.567-.65-.68.224-.386-2.556-1.565-4.26-1.814-.852-.114-2.713-.227-4.08-.227-1.547 0-2.534-.09-2.534-.227 0-.136.067-.227.18-.227.09 0 .403-.204.717-.453 1.053-.862 2.13-1.587 2.825-1.905.38-.181 1.435-1.043 2.309-1.882 1.39-1.338 1.659-1.7 1.928-2.767.336-1.315.224-2.494-.247-2.675-.18-.069-.314-.25-.314-.409 0-.158-.336-.408-.717-.567-.897-.317-1.883-.816-2.646-1.27-.762-.476-5.2-.272-8.07.363-3.027.68-5.336 1.02-5.538.817-.09-.091-.045-.25.135-.34.38-.25-.202-.477-1.211-.477-.807 0-1.009.34-1.009 1.86 0 .793-.067.861-1.726 1.791-3.498 1.928-3.901 2.336-3.296 3.266.516.816 2.354 2.154 2.937 2.154.27 0 .516.045.516.113s-.202 1.452-.471 3.107c-.516 3.288-.807 4.037-1.637 4.037-.762 0-1.255.226-1.255.544 0 .159.403.657.897 1.133.493.454.896.998.896 1.225 0 .68-.695 8.3-.807 8.821-.044.295-.246.522-.426.522-.403 0-.448.703-.067 1.088.202.204.292 1.452.336 4.082.045 4.195.09 4.694.449 5.057.202.204.381.068.717-.499.27-.43.471-.839.471-.952 0-.091.202-.16.448-.16.27 0 .494-.18.56-.52.427-1.95.561-2.631.561-3.289 0-.385.09-.725.202-.725.112 0 .247-.227.292-.5.067-.407.403-.566 2.533-1.088 4.91-1.247 11.59-3.968 15.447-6.327 1.547-.93 2.04-1.133 2.174-.907 1.077 1.928 2.444 2.948 3.34 2.472.404-.204.651-.045 2.108 1.452 1.547 1.587 2.511 2.176 3.004 1.859.113-.068.292-.68.36-1.36.089-.704.335-1.883.537-2.654l.381-1.406 1.502-.635c2.736-1.133 2.422-1.746 2.444 4.717 0 3.084.09 6.44.202 7.438.112.998.09.83.224 2.394.247 2.857.583.456 1.121 1 .247.25 1.04.544 1.265 0 .157-.386.5-1 .876-1.784L49 47c-.224-3.152-.225-2.165-.068-2.414.112-.205.291-2.563.359-5.239.224-7.551.291-8.118 1.031-8.821.359-.317 1.076-.726 1.614-.884a32.432 32.432 0 0 0 2.377-.862c.986-.386 1.502-.499 1.659-.34.157.159.09 1.746-.225 4.966-.717 7.075-.807 9.116-.493 10.227.247.998.27.998 1.076.84.449-.069 1.01-.182 1.211-.25.583-.182 1.076-2.132 1.412-5.42.27-2.744.426-3.674.695-4.467.27-.749.247-.817-.09-.703-.336.136-.336.113-.067-.227.157-.204.225-.386.157-.386-.09 0 0-.158.18-.362.403-.386.493-1.452.134-1.452-.112 0-.224-.113-.224-.25 0-.135.157-.203.336-.113.247.091.337-.045.337-.521v-.658l3.542.091c1.928.068 5.089.204 6.995.318 3.61.226 11.86 1.292 12.353 1.587.201.136.201.793 0 3.107-.157 1.587-.36 3.923-.471 5.17-.202 2.245-.045 4.014.403 4.467.292.295 1.816-.023 2.287-.499.247-.25.516-1.179.74-2.517.515-3.152.83-5.896.717-6.1-.067-.113-.022-.227.067-.272.292-.113.539-1.315.27-1.315-.314 0-.27-.363.067-.726.38-.385.74-2.109.403-1.882-.134.068-.246.023-.246-.09 0-.137.09-.25.224-.25.112 0 .269-.25.359-.544l.134-.545 3.385.091c7.354.227 13.205.771 18.407 1.678 1.21.227 1.659.43 2.174.975.359.363.65.771.65.885 0 .294 1.816 1.088 2.534 1.088.65 0 1.95-.567 1.95-.862 0-.09.673-.725 1.48-1.406 1.748-1.474 5.156-5.215 7.084-7.755.74-.998 1.39-1.746 1.457-1.678.113.113-.224 1.429-.605 2.29-.112.25-.314.862-.471 1.36-.336 1.157-3.945 9.752-4.909 11.68-.852 1.745-3.834 5.827-5.964 8.14-1.524 1.678-2.713 2.427-5.762 3.651l-1.3.522.897.408c.515.227 1.547.521 2.309.68.785.136 1.592.363 1.794.476.246.114 1.008.046 2.017-.181l1.637-.363 2.937-3.016c2.443-2.494 3.206-3.447 4.394-5.465 1.524-2.585 3.161-6.123 4.08-8.821.314-.884 1.031-2.925 1.592-4.535.583-1.633 1.255-3.606 1.48-4.422.246-.817.672-2.245.986-3.175.538-1.769 1.3-5.488 1.569-7.778.157-1.202.112-1.36-.47-2.132-.808-1.066-1.39-1.655-1.637-1.655-.112 0-.314-.136-.448-.318-.135-.158-.718-.43-1.278-.59-1.211-.34-1.345-.249-2.085 1.588-.516 1.247-2.578 4.853-4.417 7.756-2.152 3.356-7.869 9.886-9.483 10.794l-.919.521v-.68c0-1.02 1.659-7.914 2.555-10.567 1.144-3.402 1.166-3.72.382-4.604-.382-.385-.875-.725-1.121-.725-.269 0-.449-.114-.426-.25.067-.204-1.413-.884-1.973-.884-.157 0-.314.181-.381.385-1.682 5.783-2.848 11.112-2.848 13.017v1.156l-1.39-.113c-1.277-.091-7.801-.862-10.2-1.18-.538-.09-.964-.226-.964-.317 0-.09.38-.295.852-.453 1.748-.635 6.389-2.994 7.891-3.991 2.175-1.474 3.139-2.654 3.139-3.855 0-.613-.157-1.18-.448-1.542-.247-.318-.449-.636-.449-.726 0-.454-2.085-2.018-3.475-2.585-2.309-.975-4.506-1.247-9.64-1.202-4.417.045-4.462.045-5.044-.5-.314-.294-.763-.589-1.01-.634-.246-.045-.448-.227-.448-.408 0-.318-1.77-.885-2.017-.635-.068.045.022.43.179.839.224.612.202.839-.18 1.565-.358.68-.694.907-1.815 1.315-1.816.657-4.148 1.746-4.08 1.905.044.068.515.839 1.053 1.723 1.323 2.132 2.802 3.084 3.565 2.313.134-.136.314-.204.38-.136.158.159-.761 5.692-1.008 6.077-.135.227-.426.204-1.255-.09-.583-.204-1.099-.363-1.144-.363-.202 0-.022.68.359 1.451.247.476.516 1.18.605 1.565l.135.703-.56-.386c-.337-.204-1.032-.385-1.548-.385-.538 0-1.569-.114-2.309-.227-1.009-.159-9.102-1.134-9.46-1.134-.045 0-.068-.113-.068-.227 0-.136.135-.226.291-.226.471-.023 5.628-2.381 7.354-3.402 1.928-1.156 3.834-2.902 4.237-3.877.404-.953.023-2.087-1.143-3.447-2.242-2.63-6.569-3.674-13.99-3.402l-3.385.136-.381-.612c-.247-.386-.583-.59-.964-.59-.426 0-.56-.09-.47-.317.134-.363-.875-.816-1.795-.816-.448 0-.493.068-.29.43Zm-32.754 1.02c-.247.228-1.995.341-1.995.137 0-.114.47-.227 1.053-.227.56 0 .987.045.942.09Zm.022 2.404c0 .363-1.681 2.132-3.677 3.833-2.645 2.268-7.062 5.102-7.42 4.74-.247-.25 1.076-5.284 1.524-5.783.718-.794 4.327-2.041 7.892-2.676.874-.159 1.591-.318 1.636-.318.023-.022.045.091.045.204Zm49.546 2.699c.516.159.471.227-1.008 1.202-1.906 1.247-3.677 2.154-6.3 3.265-1.099.431-2.937 1.225-4.08 1.724-1.144.499-2.13.861-2.198.793-.201-.181.628-5.351.92-5.737.134-.204.852-.499 1.569-.68 2.197-.567 9.82-.93 11.097-.567Zm27.329-.068c.381.09.628.25.561.363-.247.385-3.161 2.2-4.73 2.925-.853.386-3.094 1.36-5 2.177-1.906.794-3.61 1.52-3.744 1.587-.202.069-.291-.113-.291-.612 0-.952.672-5.057.874-5.26.695-.772 9.954-1.656 12.33-1.18Zm-80.462 2.993c0 .091-.291.34-.65.567-.493.295-.673.318-.762.114-.067-.182-.202-.046-.337.294-.134.34-.47.771-.762.976-.56.408-1.636.498-1.412.113.09-.136.291-.181.47-.113.18.067.427-.091.561-.363.381-.726 1.413-1.542 1.57-1.27.111.159.336.113.672-.136.605-.408.65-.431.65-.182Zm76.113 1.406c-.09.136-.74.545-1.48.907-1.21.635-1.793 1.089-.986.771.605-.25.336.114-.359.5-.65.34-.695.34-.583 0 .09-.205.112-.364.045-.364-.09 0-2.488 1.089-4.439 2.041-1.636.794-1.076.794.65 0 .83-.362 1.547-.657 1.592-.612.157.181-.785.84-1.838 1.247-.606.25-1.3.522-1.502.613-.314.136-.404.045-.404-.386 0-.59 1.076-1.18 7.062-3.9 2.556-1.157 2.421-1.111 2.242-.817Zm-28.091.34c-.27.204-.83.5-1.256.68-.515.227-.74.454-.672.658.067.204-.135.409-.605.567-.606.204-.673.204-.427-.09.404-.477.314-.454-2.264.703-2.802 1.247-3.183 1.45-3.049 1.587.068.068.718-.181 1.48-.567.74-.385 1.48-.703 1.636-.703.494 0-.582.794-1.838 1.315-1.95.862-1.973.862-1.838.159.09-.522.426-.771 2.152-1.61 5.448-2.585 8.004-3.606 6.68-2.699Zm-51.968.975c.068.114-.067.363-.291.545-.314.272-.493.294-.673.113-.179-.181-.246-.09-.246.318 0 .317-.224.77-.471 1.02l-.493.43.38-.747c.203-.409.27-.726.135-.726-.47 0-.201-.612.404-.84.762-.317 1.12-.34 1.255-.113Zm27.62 3.04c-.313 2.516-.448 3.083-.829 3.4-.269.227-.605.409-.762.409-.157 0-.448.068-.65.136-.516.204-.449-.113.426-2.472 1.054-2.88 1.905-4.785 2.04-4.626.067.068-.023 1.474-.224 3.152ZM10.776 22.52c-.135 1.089-.27 1.383-.494 1.157-.201-.227.157-2.223.404-2.223.157 0 .18.386.09 1.066Zm59.5 1.656c-.538.34-.83.249-.359-.114.247-.181.493-.272.56-.204.068.068-.022.204-.201.318Zm-1.12.43c0 .227-1.368.771-1.525.613-.09-.114 1.053-.794 1.367-.817.09 0 .157.091.157.204Zm27.575 0c0 .227-1.368.771-1.525.59-.067-.045.224-.25.65-.43.92-.409.875-.409.875-.16Zm-64.141.68c.246.16.156.273-.337.545-.359.204-1.412 1.043-2.331 1.86-3.52 3.197-6.973 5.102-13.474 7.483-2.265.839-4.237 1.542-4.394 1.564-.157.023-.36.114-.426.205-.247.226-.538.204-.538-.069 0-.136.134-.226.313-.226.404 0 .583-.5.583-1.565 0-.454.157-1.043.337-1.293.179-.272.291-.521.224-.566-.045-.046.067-.703.246-1.452.157-.748.314-1.678.314-2.086 0-.386.135-.862.314-1.043.807-.794 8.318-2.903 12.129-3.402 1.39-.181 6.748-.136 7.04.046Zm14.393 1.452c-.292.295-.337-.023-.09-.68.157-.386.18-.386.246.022.045.227-.022.522-.156.658Zm80.125 2.245c-.179.612-.493.998-.672.84-.157-.16.403-1.339.628-1.339.112 0 .112.227.044.499Zm-114.673.522c0 .181-.09.34-.224.34-.113 0-.225-.159-.225-.34 0-.182.112-.34.225-.34.134 0 .224.158.224.34Zm-2.892 2.426c-.157 1.02-.314 2.744-.381 3.81-.113 1.746-.337 2.54-.65 2.222-.113-.113.47-6.826.694-7.869.09-.385.18-.476.36-.295.156.16.156.794-.023 2.132Zm117.005-1.293c0 .182-.09.34-.224.34-.112 0-.224-.158-.224-.34 0-.181.112-.34.224-.34.134 0 .224.159.224.34ZM26.109 31.66c-.717.613-.74.659-.224.545.56-.113.56-.113.112.25-.493.43-6.255 3.333-7.33 3.718-.606.205-.65.205-.404-.09s.224-.318-.09-.204c-.202.068-.359.362-.359.612 0 .363-.067.408-.269.204-.38-.385-.65-.34-.493.068.09.181.023.34-.112.34a.25.25 0 0 1-.247-.25c0-.113-.112-.158-.224-.09-.134.09-.157.25-.09.386.09.136-.022.181-.291.09-.224-.068-1.166.114-2.085.431-1.726.59-2.489.59-.986 0 1.77-.725 1.995-.907.538-.453-.449.136-.516.113-.292-.114.157-.158.695-.317 1.233-.34.65-.023 2.108-.567 4.484-1.655 1.928-.907 3.632-1.633 3.811-1.633.157 0 .426-.204.583-.453.157-.25.426-.454.628-.454.291 0 .314.068.09.34s-.157.272.426-.023c.38-.204.695-.408.695-.453 0-.068-.09-.045-.225.023-.112.068-.224.022-.224-.091 0-.25 1.525-1.36 1.906-1.36.134 0-.135.294-.56.657Zm31.41 1.588c-.225.567-.225.567-.225-.113-.022-.386.068-.93.157-1.247.157-.567.157-.545.224.113.045.386-.022.952-.156 1.247Zm1.076-1.655c0 .113-.09.385-.202.635-.18.408-.202.385-.202-.182-.022-.34.09-.612.202-.612.134 0 .224.068.202.159Zm26.611 1.837c-.246.226-.291-.068-.157-.976l.135-.907.067.885c.045.476.022.93-.045.998Zm39.189-.386c-.224.522-.426.862-.471.726-.112-.318.56-1.996.74-1.837.045.068-.067.567-.269 1.111Zm-77.66-.59c0 .182-.09.34-.224.34-.112 0-.224-.158-.224-.34 0-.18.112-.34.224-.34.134 0 .224.16.224.34Zm39.928.726c-.224.386-.224.363-.246-.068 0-.521.291-.93.403-.567.045.136-.022.408-.157.635Zm36.88 2.041c-.247.476-.336.522-.359.227 0-.544.493-1.474.605-1.134.045.136-.067.544-.246.907Zm-65.576.907c-.224.386-.224.363-.247-.068 0-.521.292-.93.404-.567.045.136-.023.408-.157.635Zm-1.816.159c0 .181-.09.408-.224.476-.112.068-.224-.068-.224-.317 0-.273.112-.477.224-.477.134 0 .224.136.224.318Zm66.54 1.542c-.247.657-.538 1.36-.65 1.587-.135.272-.135.408 0 .408.134 0 .493-.476.784-1.088.314-.59.561-.884.583-.658.045 1.77-6.994 11.724-8.295 11.724-.448 0-.179-.385 1.256-1.814.807-.816 1.905-2.086 2.443-2.835.92-1.315 2.018-3.288 1.816-3.288-.314 0 1.413-4.512 1.973-5.102.493-.567.538-.09.09 1.066Zm-100.93-.84c-.247.182-.606.341-.786.341-.291-.023-.269-.09.068-.34.246-.182.605-.34.784-.34.292.022.27.09-.067.34Zm61.966.454c0 .182-.09.34-.225.34-.112 0-.224-.158-.224-.34 0-.181.112-.34.224-.34.135 0 .225.159.225.34Zm-71.07.114c-.178.113-.492.227-.672.227-.291 0-.291-.023 0-.227.18-.114.494-.227.673-.227.291 0 .291.023 0 .227Zm6.413.567c-.247.181-.493.272-.56.204-.135-.136.425-.544.761-.544.135.022.023.158-.201.34Zm64.567.952c-.247.25-.426-.136-.247-.544.18-.386.18-.386.27 0 .067.227.044.476-.023.544Zm-37.216.703c-.246.227-.336-.09-.18-.635l.158-.567.067.522c.045.295.022.59-.045.68ZM8.533 41.683c-.09.657-.135 1.61-.135 2.109 0 .499-.045 1.156-.134 1.474l-.135.567-.202-.522c-.224-.612.225-4.807.539-4.807.112 0 .134.544.067 1.179Zm76 .794c-.246.249-.425-.136-.246-.545.18-.385.18-.385.269 0 .067.227.045.477-.022.545Zm39.772-.431c0 .385-1.659 2.608-1.749 2.358-.044-.181.09-.522.337-.794a7.01 7.01 0 0 0 .739-1.133c.27-.567.673-.84.673-.431Zm-4.977.998c-.291.544-.628 1.065-.762 1.201-.135.114-.673.771-1.188 1.429-.538.658-1.032 1.134-1.099 1.066-.067-.068.179-.454.561-.862.381-.385.807-.975.964-1.292.448-.84 1.659-2.472 1.86-2.495.112 0-.045.43-.336.953Zm-72.593.703c0 .226-.09.34-.224.272-.112-.068-.224-.409-.224-.749 0-.476.044-.544.224-.272.112.182.224.522.224.748Zm-.673 1.541c0 .25-.09.386-.224.318-.112-.068-.224-.295-.224-.476 0-.182.112-.318.224-.318.135 0 .224.204.224.477Zm68.849 2.88c-.291.567-2.017 1.746-2.219 1.52-.09-.091-.045-.227.112-.272.135-.046.695-.454 1.233-.885 1.121-.884 1.166-.907.874-.363Z" fill="url(#h)"/><path d="M274.625 10.117c-5.717 1.973-14.191 7.28-17.532 10.953l-.874.952.023-2.63c0-2.54-.023-2.653-.651-3.47-1.367-1.814-4.304-3.152-6.972-3.174-1.278 0-1.794.113-2.758.635-1.098.566-1.255.59-2.017.317-.449-.159-.964-.385-1.121-.499-.18-.136-.875-.204-1.547-.204-.964.023-1.368.159-1.794.567-1.614 1.52-3.407 4.762-4.214 7.597-1.704 5.895-1.57 11.134.336 14.24.762 1.27 2.959 3.538 3.856 3.992 2.556 1.315 6.188-.386 10.851-5.103 2.645-2.675 4.394-5.918 5.47-10.204.359-1.451.426-1.542.561-.93.067.363.291 1.043.448 1.474.157.431.359 1.043.426 1.36.067.318.426.976.785 1.475l.65.93 2.107-.16c1.143-.09 3.408-.294 5-.43 3.273-.295 5.492-.159 7.958.476 2.556.635 2.691.68 2.691.998 0 .567-2.87 2.948-5.269 4.4-3.004 1.813-4.865 2.607-7.241 3.083-2.242.454-3.072.295-5.583-1.043l-1.636-.862.538 1.066c.291.59 1.121 1.791 1.816 2.699 1.659 2.086 3.721 3.288 5.649 3.265 2.825-.023 8.139-2.245 11.501-4.807 2.063-1.588 4.417-4.082 5.157-5.488.717-1.338.493-1.973-1.188-3.651-2.892-2.88-8.811-4.898-14.393-4.898-1.099 0-2.153-.09-2.332-.204-.336-.204 1.793-1.746 5.65-4.082 2.623-1.588 9.236-4.105 10.806-4.105.224 0 .852-.226 1.39-.498l1.008-.5.852.5c1.076.612 1.704.635 2.018.045.202-.386.023-.658-1.278-1.996-1.95-1.995-3.228-2.63-5.448-2.72-1.412-.046-2.017.067-3.699.634Zm-4.147 2.835c0 .045-.404.317-.897.567-.493.249-.874.566-.83.703.023.158-.089.317-.269.385-.201.068-.246 0-.134-.204.112-.159-.314 0-.919.363-1.861 1.111-4.125 2.608-4.125 2.744 0 .068.112.045.224-.023.134-.068.224-.023.224.113 0 .16-.157.204-.359.136-.426-.158-1.435.477-1.435.907 0 .182-.112.318-.246.318-.112 0-.157-.113-.067-.272.224-.363-2.511 1.746-3.543 2.744-.47.43-.852.657-.852.476 0-.953 6.345-5.624 11.12-8.186 1.592-.84 2.108-1.02 2.108-.771Zm-24.303 3.401c-.246.182-.56.34-.672.34-.135 0-.045-.158.179-.34.247-.181.561-.34.673-.34.134 0 .045.159-.18.34Zm1.211.34c-.83.658-1.121.545-.359-.136.337-.317.695-.499.785-.43.067.09-.112.34-.426.566Zm4.73-.068c.314 4.195-2.802 11.316-6.434 14.83-1.547 1.475-5.358 4.196-6.389 4.559-1.973.703-2.018-2.359-.09-9.411 1.255-4.649 2.578-7.098 3.654-6.803.269.068.807-.09 1.233-.363.942-.59 1.211-.612.807-.09-.291.385-.269.385.247.045 1.569-.998 3.251-1.86 4.843-2.472 2.107-.794 2.107-.794 2.129-.295Zm-7.734 1.996c-.471.363-.718.295-.471-.09.067-.137.314-.25.516-.25.336.022.336.045-.045.34Zm10.851 3.447c0 .113-.112.34-.225.521-.179.272-.224.25-.224-.181 0-.272.112-.5.224-.5.135 0 .225.069.225.16Zm-.359 1.02c.179.113.157.25-.045.454-.202.204-.269.204-.291-.068 0-.204-.09-.136-.202.136-.179.43-.202.43-.202-.046a2.29 2.29 0 0 1 .135-.884c.112-.317.179-.34.246-.068.068.159.224.385.359.476Zm-2.982 2.381c-.672 1.769-3.318 6.554-3.52 6.35-.067-.046.83-1.996 1.973-4.309 1.144-2.336 2.108-4.127 2.153-4.036.044.113-.247 1.02-.606 1.995Zm1.771 1.089c0 .181-.089.34-.224.34-.112 0-.224-.159-.224-.34 0-.182.112-.34.224-.34.135 0 .224.158.224.34Zm-.381 1.043c-.134.136-.381.181-.538.068-.202-.114-.179-.204.157-.318.516-.204.695-.068.381.25Zm-1.323 2.29c-.919 1.61-2.981 4.286-3.004 3.923 0-.25 2.848-4.195 3.027-4.195.09 0 .067.136-.023.272Zm-3.452 4.445c0 .272-2.242 1.678-2.511 1.587-.135-.045.336-.476 1.054-.93 1.457-.907 1.457-.907 1.457-.657Zm20.805 1.519c-.067.068-1.256.635-2.668 1.247-1.412.613-2.578 1.225-2.623 1.36-.112.341-2.152.273-2.87-.113l-.65-.34h.897c1.233 0 2.982-.476 5.627-1.542 1.973-.793 2.668-.998 2.287-.612Zm-10.649 1.338c.224.181.314.385.179.454-.179.113-.919-.409-.919-.68 0-.182.336-.069.74.226Zm.964 1.293c.426.498.426.498-.067.226-.539-.272-.875-.703-.561-.703.112 0 .381.227.628.477Z" fill="url(#i)"/><path d="M195.217 12.634c-.964.272-1.211.703-2.309 3.946-.516 1.497-1.278 3.742-1.704 4.989-.449 1.247-1.592 4.807-2.579 7.937-.964 3.106-1.883 5.714-1.995 5.737-.134.045-.179.158-.112.272.135.227-.448 2.63-.897 3.719-.179.408-.246.975-.179 1.247.067.295.022.59-.135.68-.403.25 2.422 2.29 3.162 2.29.762 0 .874-.226 1.524-3.015.292-1.248.628-2.268.762-2.313.269-.068 4.327-1.225 4.865-1.384.314-.09.381.25.516 2.223.493 7.37 1.592 11.746 2.937 11.746.089 0 .089-.317 0-.703-.112-.499-.09-.657.089-.567.135.091.449.046.695-.09.382-.204.449-.477.449-1.656 0-3.106-.314-7.869-.471-7.596-.112.158-.202.703-.202 1.201 0 .68-.067.817-.224.567-.247-.385-.291-3.061-.067-4.422.112-.703.179-.793.314-.453.134.385.179.363.179-.182.022-.362-.067-.59-.202-.498-.112.068-.224-.023-.224-.227 0-.204.112-.295.224-.227.135.068.224.045.224-.045 0-.114.359-.34.808-.5.493-.18.874-.498 1.008-.884.135-.34.494-.884.785-1.202.718-.748.426-.997-.942-.77l-.986.136v-2.63c0-1.702-.09-2.586-.224-2.495-.135.068-.224-.114-.224-.431 0-.318.134-.658.291-.748.381-.227.964-11.18.628-11.407-.112-.068-.292-.408-.359-.748-.09-.34-.269-.612-.381-.612-.112 0-.493-.182-.807-.431-.717-.476-3.161-.749-4.237-.454Zm-1.009 4.558a.703.703 0 0 1-.359.363c-.157.045-.224-.045-.134-.272.157-.408.627-.499.493-.09Zm-.628 1.996c0 .25-.09.453-.224.453-.112 0-.202.068-.179.159.089.386-.337 1.791-.673 2.154-.179.227-.359.703-.381 1.066-.067.748-3.139 10.273-3.61 11.134-.515.975-.336 0 .449-2.54.448-1.45.672-2.449.538-2.494-.157-.068-.112-.227.067-.408.179-.181.359-.68.381-1.089.045-.408.224-.997.381-1.338.157-.317.247-.725.18-.884-.068-.181 0-.317.134-.317.135 0 .18-.136.112-.295-.045-.159.09-.499.314-.748.224-.227.381-.567.314-.726-.045-.136 0-.272.112-.272.09 0 .202-.295.224-.68.023-.363.202-.908.381-1.18.18-.294.337-.635.359-.748.067-1.18 1.121-2.358 1.121-1.247Zm2.601 4.694c-.068 1.86-.135 4.74-.135 6.44v3.084l-2.062.34c-1.144.181-2.108.318-2.153.295-.134-.113 3.094-10.431 4.148-13.175.291-.771.336-.114.202 3.016Zm1.076.204c.067.204.134.816.134 1.36 0 .567.112.998.247.998s.202.159.112.34c-.067.182-.022.34.09.34.224 0 .314-.476.246-1.088-.022-.136.068-.272.202-.272.202 0 .224.975.135 3.538-.068 1.95-.157 3.582-.18 3.628-.045.045-.515.136-1.031.227l-.919.136v-2.29c.022-1.361.112-2.291.246-2.291.135 0 .202-.59.18-1.429-.09-2.2-.023-3.56.202-3.56.112 0 .269.159.336.363Zm2.825 8.572c-.269.272-.292-.635-.045-2.926l.157-1.587.067 2.132c.045 1.27-.022 2.222-.179 2.38Zm-1.749 5.283c.045 2.54.112 4.218.179 4.49.135.544-.022 1.02-.336 1.02-.179 0-.336.114-.336.25 0 .114.089.181.202.09.112-.067.269-.022.358.114.067.114-.022.227-.224.227s-.291.09-.224.227c.067.113.045.227-.067.227-.135 0-.157.317-.045.839.157.612.112.952-.135 1.292-.336.454-.336.454-.179-.159.067-.34.045-.612-.09-.612-.246 0-.986-5.42-1.031-7.733-.022-1.587 0-1.655.538-1.814 1.323-.385 1.345-.34 1.39 1.542Zm1.524 5.08c0 .227-.089.43-.224.43-.112 0-.224-.271-.224-.589 0-.317.09-.522.224-.43.135.067.224.34.224.589Z" fill="url(#j)"/></g><defs><linearGradient id="a" x1="-12.911" y1="-3.72" x2="27.646" y2="137.54" gradientUnits="userSpaceOnUse"><stop stop-color="#0AA5FE"/><stop offset=".255" stop-color="#02DDEB"/><stop offset=".469" stop-color="#FDD13B"/><stop offset=".729" stop-color="#FF8F81"/><stop offset="1" stop-color="#C14ECF"/></linearGradient><linearGradient id="b" x1="-12.911" y1="-3.72" x2="27.646" y2="137.54" gradientUnits="userSpaceOnUse"><stop stop-color="#0AA5FE"/><stop offset=".255" stop-color="#02DDEB"/><stop offset=".469" stop-color="#FDD13B"/><stop offset=".729" stop-color="#FF8F81"/><stop offset="1" stop-color="#C14ECF"/></linearGradient><linearGradient id="c" x1="-12.911" y1="-3.72" x2="27.646" y2="137.54" gradientUnits="userSpaceOnUse"><stop stop-color="#0AA5FE"/><stop offset=".255" stop-color="#02DDEB"/><stop offset=".469" stop-color="#FDD13B"/><stop offset=".729" stop-color="#FF8F81"/><stop offset="1" stop-color="#C14ECF"/></linearGradient><linearGradient id="d" x1="-12.911" y1="-3.72" x2="27.646" y2="137.54" gradientUnits="userSpaceOnUse"><stop stop-color="#0AA5FE"/><stop offset=".255" stop-color="#02DDEB"/><stop offset=".469" stop-color="#FDD13B"/><stop offset=".729" stop-color="#FF8F81"/><stop offset="1" stop-color="#C14ECF"/></linearGradient><linearGradient id="e" x1="-12.911" y1="-3.72" x2="27.646" y2="137.54" gradientUnits="userSpaceOnUse"><stop stop-color="#0AA5FE"/><stop offset=".255" stop-color="#02DDEB"/><stop offset=".469" stop-color="#FDD13B"/><stop offset=".729" stop-color="#FF8F81"/><stop offset="1" stop-color="#C14ECF"/></linearGradient><linearGradient id="f" x1="-11.911" y1="-.72" x2="28.646" y2="140.54" gradientUnits="userSpaceOnUse"><stop stop-color="#0AA5FE"/><stop offset=".255" stop-color="#02DDEB"/><stop offset=".469" stop-color="#FDD13B"/><stop offset=".729" stop-color="#FF8F81"/><stop offset="1" stop-color="#C14ECF"/></linearGradient><linearGradient id="g" x1="-11.911" y1="-.72" x2="28.646" y2="140.54" gradientUnits="userSpaceOnUse"><stop stop-color="#0AA5FE"/><stop offset=".255" stop-color="#02DDEB"/><stop offset=".469" stop-color="#FDD13B"/><stop offset=".729" stop-color="#FF8F81"/><stop offset="1" stop-color="#C14ECF"/></linearGradient><linearGradient id="h" x1="-11.911" y1="-.72" x2="28.646" y2="140.54" gradientUnits="userSpaceOnUse"><stop stop-color="#0AA5FE"/><stop offset=".255" stop-color="#02DDEB"/><stop offset=".469" stop-color="#FDD13B"/><stop offset=".729" stop-color="#FF8F81"/><stop offset="1" stop-color="#C14ECF"/></linearGradient><linearGradient id="i" x1="-11.911" y1="-.72" x2="28.646" y2="140.54" gradientUnits="userSpaceOnUse"><stop stop-color="#0AA5FE"/><stop offset=".255" stop-color="#02DDEB"/><stop offset=".469" stop-color="#FDD13B"/><stop offset=".729" stop-color="#FF8F81"/><stop offset="1" stop-color="#C14ECF"/></linearGradient><linearGradient id="j" x1="-11.911" y1="-.72" x2="28.646" y2="140.54" gradientUnits="userSpaceOnUse"><stop stop-color="#0AA5FE"/><stop offset=".255" stop-color="#02DDEB"/><stop offset=".469" stop-color="#FDD13B"/><stop offset=".729" stop-color="#FF8F81"/><stop offset="1" stop-color="#C14ECF"/></linearGradient></defs></svg>