<svg width="643" height="500" viewBox="0 0 643 500" fill="none" xmlns="http://www.w3.org/2000/svg">
<path d="M446.848 311.172H189.302L318.075 9.87793L446.848 311.172ZM210.527 297.116H425.601L318.075 45.5005L210.527 297.116Z" fill="black"/>
<path d="M452.738 315.083H183.412L318.075 0L452.738 315.083ZM195.191 307.284H440.936L318.075 19.7779L195.191 307.284ZM431.491 301.026H204.637L318.075 35.6226L431.491 301.026ZM216.417 293.227H419.711L318.075 55.3781L216.417 293.227Z" fill="black"/>
<path d="M303.192 246.157H155.467L229.33 73.3115L303.192 246.157ZM173.803 234.014H284.856L229.33 104.085L173.803 234.014Z" fill="black"/>
<path d="M308.299 249.537H150.379L229.349 64.7788L308.299 249.537ZM160.555 242.779H298.104L229.33 81.8646L160.555 242.779ZM289.944 237.374H168.715L229.33 95.5331L289.944 237.374ZM178.891 230.636H279.768L229.33 112.619L178.891 230.636Z" fill="black"/>
<path d="M481.352 246.157H333.608L407.471 73.3115L481.352 246.157ZM351.964 234.014H463.016L407.49 104.085L351.964 234.014Z" fill="black"/>
<path d="M486.441 249.537H328.521L407.471 64.7788L486.441 249.537ZM338.716 242.779H476.265L407.49 81.8452L338.716 242.779ZM468.105 237.374H346.857L407.471 95.5331L468.105 237.374ZM357.052 230.636H457.929L407.49 112.619L357.052 230.636Z" fill="black"/>
<path d="M50.8852 376.92H0V498.163H25.3508V454.075H50.8852C78.9915 454.075 95.5246 439.93 95.5246 415.865C95.5246 391.065 78.9915 376.92 50.8852 376.92ZM47.0275 434.418H25.3508V397.127H47.0275C62.8258 397.127 69.8065 403.373 69.8065 415.681C69.8065 427.989 62.8258 434.418 47.0275 434.418Z" fill="black"/>
<path d="M195.075 498.163H221.344L177.072 376.92H146.761L102.489 498.163H128.391L138.311 468.587H184.971L195.075 498.163ZM144.557 449.849L156.314 415.314L161.458 397.311H161.825L167.336 415.681L178.725 449.849H144.557Z" fill="black"/>
<path d="M351.753 376.92H328.974V447.094L329.709 468.587H329.342L318.871 448.012L276.436 376.92H247.595V498.163H270.374V427.989L269.639 406.496H269.823L280.294 426.887L322.729 498.163H351.753V376.92Z" fill="black"/>
<path d="M438.508 376.92H391.664V498.163H438.508C476.534 498.163 498.211 476.302 498.211 437.541C498.211 398.78 476.534 376.92 438.508 376.92ZM437.222 477.956H417.015V397.127H437.222C460.368 397.127 471.941 411.456 471.941 437.541C471.941 463.627 460.368 477.956 437.222 477.956Z" fill="black"/>
<path d="M584.32 375.083C548.315 375.083 525.904 398.597 525.904 437.541C525.904 476.486 548.315 500 584.32 500C620.326 500 642.554 476.486 642.554 437.541C642.554 398.597 620.326 375.083 584.32 375.083ZM584.32 395.841C604.528 395.841 616.285 410.537 616.285 437.541C616.285 464.545 604.528 479.242 584.32 479.242C563.93 479.242 552.173 464.545 552.173 437.541C552.173 410.537 563.93 395.841 584.32 395.841Z" fill="black"/>
</svg>
