<svg width="32" height="32" viewBox="0 0 32 32" fill="none" xmlns="http://www.w3.org/2000/svg">
<path opacity="0.4" d="M13.377 4.3619C14.45 2.10162 17.55 2.10161 18.6229 4.3619L20.4771 8.26826C20.9032 9.16582 21.7268 9.78794 22.6795 9.93187L26.8257 10.5583C29.2248 10.9207 30.1828 13.9861 28.4468 15.7455L25.4465 18.7861C24.7571 19.4848 24.4426 20.4914 24.6053 21.4779L25.3136 25.7714C25.7234 28.2557 23.2154 30.1502 21.0696 28.9773L17.3611 26.9502C16.509 26.4844 15.491 26.4844 14.6389 26.9502L10.9303 28.9773C8.78448 30.1502 6.27652 28.2557 6.68634 25.7714L7.39461 21.4779C7.55735 20.4914 7.24277 19.4848 6.5534 18.7861L3.55313 15.7455C1.81711 13.9861 2.77506 10.9207 5.17417 10.5583L9.32046 9.93187C10.2731 9.78794 11.0967 9.16582 11.5228 8.26826L13.377 4.3619Z" fill="#FFCA59"/>
</svg>
