<svg width="118" height="37" viewBox="0 0 118 37" fill="none" xmlns="http://www.w3.org/2000/svg">
<path d="M13.4286 27.7181L8.92838 27.0165C8.51634 26.9524 8.10752 27.1507 7.90214 27.5146C7.69693 27.8783 7.73772 28.3319 8.00483 28.653L9.48341 30.4308L5.16971 34.0388C4.23391 34.8214 3.36324 35.1427 2.83964 34.8964C2.31637 34.6508 2.00395 33.7745 2.00395 32.5527V4.43361C2.00395 3.21167 2.31637 2.33566 2.83948 2.08995C3.36243 1.84488 4.23375 2.16496 5.16955 2.94785L24.801 19.3667C25.2261 19.7219 25.8579 19.665 26.2124 19.2384C26.5667 18.8123 26.5096 18.1786 26.0847 17.8231L6.45339 1.40421C4.30097 -0.395322 2.73308 -0.0786411 1.98992 0.269885C1.24677 0.618735 0 1.62358 0 4.43361V32.5525C0 35.3626 1.24677 36.3674 1.99009 36.7163C2.28283 36.8538 2.70358 36.9861 3.23766 36.9861C4.05932 36.9861 5.14907 36.6726 6.45339 35.5819L10.7673 31.9741L12.3856 33.92C12.6527 34.241 13.0902 34.3627 13.4839 34.2257C13.8777 34.0884 14.1458 33.7208 14.1568 33.3028L14.2762 28.7373C14.2894 28.2322 13.9266 27.7959 13.4286 27.7181Z" fill="#010101"/>
<path d="M33.9651 0.269827C33.2219 -0.0790226 31.6536 -0.395541 29.5018 1.40415L25.1878 5.01211L23.5694 3.06628C23.3023 2.74524 22.8648 2.62351 22.4711 2.76059C22.0773 2.89784 21.8092 3.26544 21.7983 3.68348L21.6788 8.24891C21.6657 8.75408 22.0286 9.19039 22.5264 9.26814L27.0266 9.96988C27.4387 10.0341 27.8475 9.83571 28.0529 9.47183C28.2581 9.10811 28.2173 8.6545 27.9502 8.33346L26.4716 6.55559L30.7853 2.94779C31.7216 2.16458 32.5937 1.84563 33.1154 2.08989C33.6387 2.33577 33.9511 3.21177 33.9511 4.43355V32.5525C33.9511 33.7744 33.6387 34.6506 33.1154 34.8961C32.5936 35.142 31.7214 34.8216 30.7855 34.0382L11.1537 17.6195C10.7289 17.2649 10.097 17.3214 9.74232 17.7479C9.38783 18.174 9.44505 18.8077 9.86999 19.1632L29.5015 35.5819C30.8058 36.673 31.8957 36.9863 32.7174 36.9863C33.2511 36.9863 33.6722 36.8539 33.9648 36.7165C34.7079 36.3677 35.9549 35.3628 35.9549 32.5528V4.43355C35.9549 1.62352 34.7083 0.618677 33.9651 0.269827Z" fill="#010101"/>
<path d="M49.9391 6.2563L49.9117 14.4683L48.0771 14.4619L48.1162 2.80029L49.5573 2.80514L56.1797 11.2375L56.2076 2.84459L58.0579 2.85057L58.0192 14.4955L56.4963 14.4906L49.9391 6.2563Z" fill="#010101"/>
<path d="M69.7137 14.2884C69.7029 14.2992 69.6396 14.3235 69.5251 14.3616C69.4102 14.3993 69.2657 14.4403 69.0905 14.4833C68.9153 14.5263 68.7188 14.5642 68.5006 14.5958C68.2825 14.6282 68.0586 14.6432 67.8292 14.6427C67.2066 14.6406 66.7184 14.4698 66.3655 14.1288C66.0115 13.7884 65.8353 13.3828 65.8369 12.9121L65.8611 5.7511C65.8616 5.54321 65.8401 5.33144 65.7971 5.11822C65.754 4.905 65.6757 4.70729 65.5617 4.52624C65.4473 4.34519 65.2894 4.19663 65.0884 4.08137C64.8864 3.96611 64.6328 3.90743 64.3272 3.9063C64.043 3.90517 63.8002 3.96773 63.5977 4.09317C63.3953 4.21764 63.2308 4.37865 63.1046 4.57522C62.9784 4.77244 62.8876 4.99908 62.8323 5.25611C62.7764 5.51298 62.7485 5.77324 62.748 6.03609L62.7448 6.92276L64.3004 6.9281L64.2961 8.32431L62.7404 8.31897L62.7195 14.511L60.9179 14.505L60.9388 8.31299L59.792 8.30927L59.7963 6.91307L60.9432 6.91678L60.9475 5.63584C60.9512 4.60642 61.2424 3.80268 61.8237 3.22428C62.4043 2.64637 63.2349 2.35862 64.3156 2.36234C64.8834 2.36396 65.3776 2.43719 65.7977 2.58057C66.2172 2.72493 66.5663 2.92797 66.8436 3.19195C67.1214 3.45528 67.3276 3.77148 67.4635 4.13843C67.5982 4.50587 67.6654 4.90872 67.6638 5.34664L67.6417 12.0477C67.6413 12.157 67.6567 12.2692 67.689 12.3844C67.7217 12.4992 67.7733 12.6068 67.8437 12.7055C67.9147 12.8041 68.0011 12.8838 68.1054 12.9447C68.209 13.005 68.3315 13.0352 68.4728 13.0357C68.6801 13.0362 68.8906 13.0023 69.1039 12.9313C69.3167 12.8606 69.4289 12.8257 69.4402 12.8257L69.7137 14.2884Z" fill="#010101"/>
<path d="M73.348 14.7107C72.4637 14.708 71.7935 14.4128 71.3368 13.8256C70.8796 13.238 70.6534 12.3643 70.6573 11.2035L70.6745 5.94775L72.4762 5.95374L72.46 10.8486C72.4547 12.3924 72.9935 13.1659 74.0742 13.1698C74.5984 13.1714 75.09 13.0141 75.5499 12.6984C76.0096 12.3822 76.3652 11.9233 76.6188 11.3221L76.6366 5.9678L78.4382 5.97378L78.4168 12.4286C78.4163 12.6372 78.4538 12.7848 78.5306 12.8725C78.6063 12.9603 78.7427 13.0104 78.9394 13.0217L78.9341 14.5655C78.7374 14.5979 78.5683 14.6189 78.4264 14.6297C78.2841 14.6399 78.1583 14.6447 78.0494 14.6447C77.3725 14.5877 76.9912 14.2747 76.9058 13.7042L76.8763 12.8176C76.4916 13.4407 75.9937 13.9126 75.3808 14.2332C74.7683 14.5541 74.091 14.7135 73.348 14.7107Z" fill="#010101"/>
<path d="M84.6502 14.7489C83.9841 14.7462 83.3782 14.6267 82.833 14.3891C82.2883 14.1521 81.8225 13.8304 81.4358 13.4243C81.05 13.0176 80.7515 12.5457 80.5398 12.0082C80.3286 11.4717 80.2245 10.9019 80.2266 10.2991C80.2282 9.69739 80.3367 9.1253 80.5511 8.58392C80.7665 8.04254 81.0684 7.56744 81.4568 7.15813C81.8462 6.74882 82.314 6.42777 82.8604 6.19338C83.4072 5.96059 84.0191 5.84485 84.6959 5.84695C85.362 5.84905 85.9652 5.97191 86.5046 6.21439C87.045 6.45671 87.5049 6.77889 87.8856 7.17963C88.2666 7.58102 88.5571 8.0469 88.757 8.57858C88.9573 9.11026 89.0566 9.66668 89.0545 10.2469C89.0541 10.3783 89.0486 10.5016 89.0373 10.6164C89.0255 10.7312 89.0147 10.8275 89.0034 10.904L82.1406 10.8809C82.1724 11.2638 82.2615 11.6096 82.4075 11.9163C82.5542 12.2239 82.7438 12.49 82.9781 12.7145C83.2118 12.9402 83.4788 13.1131 83.7784 13.2349C84.0788 13.3566 84.3925 13.4175 84.72 13.4185C84.9602 13.4196 85.1982 13.3899 85.4329 13.3302C85.6676 13.2716 85.8841 13.1843 86.0808 13.0701C86.2775 12.956 86.4525 12.817 86.6062 12.6532C86.7598 12.4895 86.88 12.3091 86.9687 12.1123L88.5066 12.5611C88.2095 13.2064 87.7186 13.7328 87.0353 14.1405C86.3514 14.5491 85.5565 14.7517 84.6502 14.7489ZM87.2716 9.64938C87.2399 9.28792 87.1507 8.95394 87.0047 8.64632C86.858 8.33934 86.6711 8.07859 86.4422 7.86472C86.2135 7.65037 85.9463 7.48273 85.6413 7.361C85.3357 7.23976 85.0139 7.17834 84.6756 7.17737C84.3365 7.17623 84.0175 7.23556 83.7167 7.35454C83.4159 7.47416 83.1505 7.64002 82.9207 7.85276C82.6908 8.06501 82.5038 8.32463 82.3614 8.63064C82.218 8.93713 82.13 9.27063 82.0961 9.63208L87.2716 9.64938Z" fill="#010101"/>
<path d="M98.1797 14.6299L96.378 14.6239L96.3941 9.81144C96.3969 9.00123 96.2679 8.41249 96.0068 8.04408C95.7463 7.67664 95.3697 7.49187 94.8782 7.49025C94.6165 7.48912 94.3517 7.53762 94.0838 7.63509C93.8157 7.73257 93.5669 7.87159 93.337 8.05152C93.1072 8.23144 92.9015 8.44482 92.7209 8.69037C92.5399 8.93592 92.3996 9.20637 92.3003 9.50155L92.2831 14.6097L90.4814 14.6037L90.51 6.01354L92.1483 6.01888L92.143 7.74373C92.4717 7.16468 92.9487 6.70898 93.5719 6.3771C94.1956 6.04523 94.8837 5.8805 95.6373 5.88309C96.1503 5.8847 96.5736 5.97943 96.9061 6.16647C97.2381 6.35398 97.4997 6.60924 97.6899 6.93303C97.8795 7.25682 98.0122 7.6296 98.0875 8.05071C98.1621 8.47295 98.1992 8.9196 98.1976 9.38985L98.1797 14.6299Z" fill="#010101"/>
<path d="M99.7012 10.3312C99.7033 9.72952 99.8086 9.16066 100.018 8.62413C100.227 8.08873 100.526 7.61848 100.915 7.21499C101.304 6.81101 101.772 6.49272 102.319 6.25832C102.866 6.02554 103.477 5.90979 104.154 5.91189C105.039 5.91464 105.8 6.1117 106.437 6.50225C107.074 6.8933 107.55 7.41204 107.865 8.05947L106.111 8.61168C105.904 8.25022 105.627 7.96684 105.279 7.76332C104.929 7.55963 104.543 7.45682 104.117 7.45569C103.756 7.45407 103.42 7.52407 103.108 7.66519C102.797 7.8068 102.526 8.00612 102.295 8.26202C102.065 8.51889 101.884 8.82231 101.752 9.1723C101.62 9.52195 101.553 9.91073 101.552 10.3375C101.55 10.7539 101.617 11.1401 101.752 11.4962C101.887 11.8528 102.073 12.1626 102.306 12.4259C102.54 12.6899 102.812 12.8962 103.123 13.0442C103.434 13.1934 103.763 13.2683 104.113 13.2699C104.332 13.2704 104.55 13.2408 104.768 13.1816C104.987 13.1223 105.186 13.0378 105.367 12.9285C105.548 12.8202 105.706 12.6952 105.843 12.5525C105.98 12.4109 106.082 12.2578 106.148 12.0935L107.915 12.6252C107.629 13.2706 107.152 13.7974 106.484 14.2051C105.817 14.6139 105.03 14.8165 104.124 14.8137C103.458 14.8116 102.852 14.6887 102.307 14.4458C101.762 14.2035 101.296 13.8759 100.91 13.4644C100.524 13.0523 100.225 12.5777 100.014 12.0402C99.8039 11.504 99.6991 10.934 99.7012 10.3312Z" fill="#010101"/>
<path d="M113.28 14.8449C112.614 14.8421 112.008 14.7227 111.463 14.485C110.918 14.248 110.452 13.9264 110.066 13.5203C109.68 13.1136 109.381 12.6417 109.17 12.1042C108.959 11.5677 108.854 10.9978 108.856 10.395C108.858 9.79334 108.967 9.22125 109.181 8.67987C109.396 8.13849 109.698 7.66338 110.087 7.25408C110.476 6.84477 110.944 6.52372 111.49 6.28932C112.037 6.05654 112.649 5.9408 113.326 5.9429C113.992 5.945 114.595 6.06786 115.134 6.31034C115.675 6.55266 116.135 6.87484 116.516 7.27558C116.896 7.6768 117.187 8.14285 117.387 8.67453C117.587 9.20621 117.687 9.76262 117.684 10.3428C117.684 10.4742 117.678 10.5976 117.667 10.7123C117.655 10.8271 117.645 10.9235 117.633 10.9999L110.77 10.9768C110.802 11.3598 110.891 11.7055 111.037 12.0122C111.184 12.3198 111.374 12.5859 111.608 12.8105C111.842 13.0361 112.109 13.2091 112.408 13.3308C112.709 13.4525 113.022 13.5135 113.35 13.5145C113.59 13.5156 113.828 13.4858 114.063 13.4262C114.297 13.3675 114.514 13.2802 114.711 13.1661C114.907 13.052 115.082 12.9129 115.236 12.7492C115.39 12.5854 115.51 12.405 115.599 12.2083L117.136 12.657C116.839 13.3024 116.349 13.8287 115.665 14.2364C114.981 14.6451 114.186 14.8476 113.28 14.8449ZM115.902 9.74533C115.87 9.38387 115.781 9.04989 115.635 8.74226C115.488 8.43528 115.301 8.17453 115.072 7.96067C114.843 7.74631 114.576 7.57868 114.271 7.45695C113.966 7.33571 113.644 7.27428 113.306 7.27331C112.967 7.27218 112.648 7.33151 112.347 7.45049C112.046 7.57011 111.781 7.73597 111.551 7.9487C111.321 8.16096 111.134 8.42057 110.991 8.72658C110.848 9.03308 110.76 9.36657 110.726 9.72803L115.902 9.74533Z" fill="#010101"/>
<path d="M48.2412 34.1718L48.2799 22.5103L53.0629 22.5259C53.5539 22.5276 54.0064 22.6336 54.4212 22.8433C54.8357 23.0523 55.1921 23.3302 55.491 23.6766C55.7902 24.0219 56.0236 24.4118 56.192 24.8444C56.3591 25.2779 56.4426 25.7133 56.4413 26.1507C56.4397 26.6221 56.3586 27.0762 56.1993 27.5136C56.0392 27.951 55.8139 28.3393 55.5238 28.6777C55.2332 29.016 54.8887 29.2858 54.4892 29.4868C54.0901 29.6888 53.6448 29.7879 53.1533 29.7863L49.0913 29.7729L49.0767 34.1749L48.2412 34.1718ZM49.0937 29.0007L53.1064 29.0141C53.4889 29.0152 53.833 28.937 54.1391 28.7792C54.4452 28.6219 54.7056 28.4092 54.9196 28.1415C55.1332 27.8738 55.2982 27.5678 55.4136 27.2236C55.5298 26.8788 55.5885 26.5206 55.5898 26.148C55.5909 25.765 55.5234 25.4008 55.3881 25.0555C55.2527 24.7097 55.0684 24.4053 54.8345 24.142C54.6003 23.8787 54.3285 23.6696 54.0175 23.5149C53.7071 23.3604 53.3769 23.2828 53.0277 23.2817L49.1129 23.2687L49.0937 29.0007Z" fill="#010101"/>
<path d="M60.1147 34.3756C59.7215 34.3744 59.353 34.3049 59.0098 34.167C58.6666 34.0287 58.3663 33.8416 58.1111 33.6051C57.8549 33.3686 57.6566 33.0891 57.5159 32.7653C57.3752 32.4422 57.3054 32.0941 57.3067 31.7219C57.3078 31.3496 57.3958 31.0107 57.572 30.7042C57.7471 30.3989 57.9939 30.1333 58.3119 29.9102C58.6289 29.6866 59.0033 29.5127 59.4352 29.3882C59.8671 29.2637 60.3452 29.2023 60.869 29.2039C61.3278 29.2055 61.7919 29.2481 62.2608 29.3321C62.7303 29.4155 63.1499 29.5293 63.521 29.6731L63.5237 28.8354C63.5265 28.0251 63.2992 27.381 62.842 26.9026C62.3848 26.4248 61.7638 26.185 60.9775 26.1825C60.5516 26.1808 60.1062 26.267 59.6416 26.4405C59.177 26.6139 58.709 26.865 58.2384 27.1913L57.913 26.6322C59.0179 25.891 60.0568 25.5219 61.0291 25.5252C62.0551 25.5284 62.8645 25.8296 63.4581 26.4285C64.0512 27.0274 64.3455 27.8527 64.3423 28.9037L64.3283 33.0757C64.3272 33.3494 64.4421 33.4861 64.6715 33.4873L64.6688 34.2264C64.614 34.2365 64.5619 34.242 64.513 34.242C64.4636 34.242 64.4174 34.2416 64.3739 34.2416C64.1772 34.2411 63.9969 34.1725 63.834 34.0346C63.6707 33.8972 63.589 33.7189 63.5896 33.4997L63.5924 32.7935C63.1976 33.3074 62.6964 33.7 62.0893 33.9716C61.4829 34.2435 60.8243 34.3783 60.1147 34.3756ZM60.2807 33.7189C60.9141 33.721 61.4985 33.6058 62.0347 33.372C62.5702 33.1388 62.9705 32.8193 63.2331 32.4154C63.4194 32.1971 63.5134 31.9786 63.514 31.7592L63.5194 30.2482C62.69 29.9385 61.8386 29.7823 60.9651 29.7796C60.1136 29.7763 59.4251 29.9498 58.8997 30.2983C58.3748 30.6473 58.1111 31.1063 58.1095 31.6751C58.1083 31.9601 58.1615 32.2283 58.2707 32.4805C58.3787 32.7332 58.5312 32.9496 58.7267 33.1312C58.9223 33.3122 59.1542 33.4554 59.4214 33.5605C59.6881 33.6656 59.9751 33.7184 60.2807 33.7189Z" fill="#010101"/>
<path d="M70.8855 26.4457C70.1098 26.4651 69.4379 26.6897 68.8685 27.1206C68.2996 27.551 67.8995 28.1441 67.6674 28.8982L67.6497 34.2363L66.8311 34.2336L66.8596 25.6931L67.6293 25.6958L67.6224 27.7983C67.9195 27.1971 68.3111 26.7081 68.7978 26.3321C69.2844 25.9556 69.8071 25.7417 70.3642 25.6884C70.4732 25.6889 70.5715 25.6863 70.659 25.6814C70.7461 25.6761 70.8228 25.6738 70.8884 25.6738L70.8855 26.4457Z" fill="#010101"/>
<path d="M76.2487 33.8552C76.2047 33.8773 76.131 33.9177 76.0273 33.9769C75.9232 34.0372 75.792 34.0943 75.6335 34.1487C75.4746 34.2032 75.2972 34.2516 75.1006 34.2947C74.9034 34.3372 74.6908 34.3589 74.4614 34.3582C74.232 34.3571 74.0171 34.3238 73.8151 34.2575C73.6126 34.1908 73.4358 34.0917 73.2838 33.9596C73.1313 33.8277 73.0088 33.6693 72.9169 33.4824C72.8245 33.296 72.7789 33.0768 72.7799 32.8246L72.8013 26.3864L71.6055 26.3827L71.6076 25.7094L72.8034 25.7131L72.8131 22.7893L73.6317 22.7921L73.622 25.7159L75.6203 25.7228L75.6182 26.3961L73.6199 26.3892L73.5989 32.6302C73.5978 32.948 73.7063 33.1866 73.9244 33.3461C74.142 33.5062 74.3929 33.5859 74.6769 33.587C75.0148 33.5881 75.3071 33.5315 75.5536 33.4173C75.7996 33.3031 75.9495 33.2297 76.0048 33.1969L76.2487 33.8552Z" fill="#010101"/>
<path d="M84.5846 34.2936L83.766 34.2909L83.7816 29.5281C83.7853 28.4222 83.6323 27.6168 83.3228 27.1117C83.0139 26.6075 82.5148 26.3538 81.8268 26.3511C81.4664 26.3499 81.1086 26.4146 80.7535 26.5451C80.3979 26.6749 80.0697 26.8601 79.7684 27.0999C79.4676 27.3401 79.2016 27.6207 78.9717 27.9434C78.7412 28.2655 78.5705 28.6125 78.4604 28.9841L78.4426 34.2728L77.624 34.27L77.6526 25.7295L78.4057 25.7323L78.3988 27.7689C78.5745 27.4409 78.7942 27.143 79.0573 26.8758C79.3199 26.6086 79.6101 26.3797 79.9275 26.1884C80.2444 25.9983 80.586 25.8517 80.9529 25.7489C81.3187 25.6461 81.6932 25.5949 82.0751 25.5965C83.0033 25.5997 83.657 25.9277 84.0374 26.5806C84.4177 27.2329 84.6052 28.1676 84.6008 29.3827L84.5846 34.2936Z" fill="#010101"/>
<path d="M90.6446 34.4779C90.0441 34.4762 89.4875 34.3561 88.975 34.1191C88.4626 33.8822 88.0189 33.5579 87.6433 33.1458C87.2679 32.7338 86.9751 32.2592 86.7634 31.7221C86.5523 31.1851 86.4481 30.6098 86.4502 29.9963C86.4518 29.3946 86.5603 28.8285 86.7747 28.298C86.9896 27.7674 87.2829 27.303 87.6557 26.905C88.028 26.5064 88.4717 26.1929 88.9858 25.965C89.4994 25.7366 90.0516 25.6229 90.6414 25.625C91.2414 25.6271 91.7953 25.7468 92.303 25.9837C92.8095 26.2214 93.2478 26.5402 93.6179 26.9409C93.9876 27.3421 94.2781 27.8082 94.4892 28.3398C94.7009 28.8715 94.805 29.4333 94.8034 30.0243C94.8029 30.0792 94.8002 30.1476 94.7942 30.2301C94.7883 30.312 94.7857 30.3642 94.7857 30.3857L87.3003 30.3604C87.3314 30.8537 87.4447 31.3111 87.6398 31.7335C87.8348 32.1559 88.0818 32.5204 88.3816 32.828C88.6808 33.1356 89.0268 33.3775 89.4195 33.5542C89.8122 33.7309 90.2316 33.8198 90.6796 33.8214C90.9745 33.8219 91.2663 33.7821 91.5563 33.7013C91.8453 33.62 92.1139 33.5084 92.3599 33.3673C92.6059 33.2257 92.8251 33.0538 93.0168 32.8518C93.208 32.6497 93.3595 32.4289 93.4691 32.1882L94.1894 32.3875C94.0572 32.6935 93.8729 32.9751 93.6377 33.2317C93.4019 33.488 93.1285 33.7095 92.8169 33.8943C92.5048 34.0795 92.1632 34.2234 91.7915 34.3257C91.4199 34.4282 91.038 34.4795 90.6446 34.4779ZM94.0014 29.7264C93.9708 29.2226 93.8596 28.7621 93.6705 28.3452C93.4809 27.9288 93.2365 27.5689 92.9371 27.2668C92.6375 26.9651 92.2915 26.7282 91.8993 26.5573C91.5066 26.3866 91.0865 26.2998 90.6392 26.2982C90.1912 26.2965 89.7706 26.3806 89.3768 26.5486C88.9829 26.7172 88.636 26.9514 88.3346 27.2516C88.0331 27.5518 87.7919 27.912 87.6099 28.3332C87.4284 28.7538 87.3204 29.2113 87.2861 29.7036L94.0014 29.7264Z" fill="#010101"/>
<path d="M100.629 26.5456C99.8536 26.565 99.1817 26.7895 98.6122 27.2205C98.0428 27.6508 97.6425 28.2439 97.4106 28.998L97.3928 34.3362L96.5742 34.3334L96.6028 25.7929L97.3725 25.7957L97.3656 27.8981C97.6627 27.2969 98.0542 26.8079 98.5414 26.4319C99.0281 26.0554 99.5507 25.8416 100.108 25.7882C100.217 25.7887 100.315 25.7861 100.403 25.7813C100.49 25.7759 100.566 25.7737 100.632 25.7737L100.629 26.5456Z" fill="#010101"/>
<path d="M104.779 34.5251C104.125 34.523 103.497 34.411 102.897 34.19C102.297 33.9697 101.774 33.639 101.328 33.1999L101.74 32.6424C102.197 33.0604 102.67 33.3685 103.161 33.5667C103.652 33.7655 104.192 33.8662 104.781 33.8679C105.524 33.8706 106.122 33.717 106.577 33.4057C107.031 33.0955 107.259 32.6613 107.26 32.1026C107.262 31.8398 107.205 31.6178 107.091 31.4363C106.977 31.2559 106.806 31.1023 106.577 30.9752C106.348 30.8486 106.064 30.7355 105.726 30.6359C105.388 30.5363 104.995 30.4306 104.548 30.3197C104.067 30.2088 103.65 30.0978 103.296 29.9869C102.942 29.8765 102.65 29.7446 102.421 29.5898C102.192 29.4358 102.021 29.2494 101.907 29.0297C101.793 28.811 101.736 28.5309 101.737 28.1915C101.739 27.7644 101.822 27.3926 101.987 27.076C102.152 26.7586 102.379 26.4964 102.669 26.2895C102.959 26.0826 103.293 25.9276 103.67 25.8246C104.047 25.7218 104.448 25.671 104.874 25.6726C105.54 25.6747 106.13 25.789 106.642 26.0152C107.155 26.2415 107.552 26.5302 107.835 26.8813L107.375 27.323C107.092 26.9938 106.724 26.746 106.272 26.5802C105.819 26.4143 105.336 26.3307 104.823 26.3291C104.506 26.328 104.209 26.3598 103.93 26.425C103.652 26.4896 103.408 26.5925 103.2 26.7342C102.992 26.8765 102.828 27.059 102.707 27.2832C102.586 27.5073 102.525 27.7729 102.524 28.0789C102.523 28.3309 102.563 28.5334 102.645 28.6875C102.726 28.8411 102.857 28.9725 103.037 29.0824C103.217 29.1928 103.448 29.2898 103.732 29.3727C104.015 29.4552 104.354 29.5467 104.747 29.6469C105.281 29.78 105.756 29.9077 106.171 30.0294C106.585 30.1511 106.931 30.3003 107.209 30.4765C107.487 30.6527 107.699 30.8611 107.846 31.1024C107.992 31.3443 108.065 31.6514 108.063 32.0235C108.061 32.7901 107.761 33.3992 107.165 33.8519C106.568 34.3038 105.773 34.5284 104.779 34.5251Z" fill="#010101"/>
</svg>
