<svg width="137" height="27" viewBox="0 0 137 27" fill="none" xmlns="http://www.w3.org/2000/svg">
<path d="M129.187 22.6975C129.187 20.6884 130.799 19.0583 132.785 19.0583C134.771 19.0583 136.382 20.6884 136.382 22.6975C136.382 24.7066 134.771 26.3356 132.785 26.3356C130.799 26.3356 129.187 24.7066 129.187 22.6975Z" fill="#FFCA59"/>
<path d="M14.4294 13.0599C14.4294 10.7549 13.989 9.04483 13.1082 7.93076C12.2263 6.81775 10.8904 6.26176 9.09438 6.26176H7.18385V20.3572H8.64557C10.6405 20.3572 12.1024 19.7591 13.0332 18.5586C13.9629 17.3603 14.4294 15.5271 14.4294 13.0599ZM21.2428 12.8198C21.2428 17.0192 20.1267 20.255 17.8944 22.5263C15.6621 24.7987 12.524 25.9348 8.47902 25.9348H0.619141V0.771484H9.02768C12.9279 0.771484 15.939 1.80446 18.0609 3.86938C20.1818 5.93536 21.2428 8.91743 21.2428 12.8198Z" fill="#FFCA59"/>
<path d="M43.0146 25.9347H49.269V0.666016H43.0146V25.9347Z" fill="#FFCA59"/>
<path d="M58.0553 16.5092C58.0553 18.1203 58.2635 19.3491 58.679 20.1936C59.0955 21.0392 59.793 21.4614 60.7737 21.4614C61.7441 21.4614 62.4303 21.0392 62.8301 20.1936C63.2299 19.3491 63.4288 18.1203 63.4288 16.5092C63.4288 14.9066 63.2267 13.6977 62.8217 12.8816C62.4157 12.0635 61.7234 11.6538 60.7416 11.6538C59.7816 11.6538 59.0955 12.0614 58.679 12.8722C58.2635 13.684 58.0553 14.896 58.0553 16.5092ZM69.7946 16.5092C69.7946 19.5787 68.999 21.9732 67.4039 23.6896C65.8099 25.407 63.5787 26.2662 60.7103 26.2662C57.9595 26.2662 55.7698 25.388 54.1446 23.6316C52.5172 21.8752 51.7041 19.5018 51.7041 16.5092C51.7041 13.4492 52.5007 11.0715 54.0958 9.37622C55.6908 7.6809 57.9272 6.83325 60.8071 6.83325C62.5865 6.83325 64.1608 7.22604 65.5247 8.01052C66.8897 8.795 67.9434 9.91854 68.6837 11.3822C69.425 12.8438 69.7946 14.5538 69.7946 16.5092Z" fill="#FFCA59"/>
<path d="M72.2783 25.9347H78.5337V16.264V7.16504H72.2783V25.9347Z" fill="#FFCA59"/>
<path d="M72.2783 4.89466H78.5337V0.664795H72.2783V4.89466Z" fill="#FFCA59"/>
<path d="M91.2064 21.1473C92.0509 21.1473 93.0566 20.9304 94.2299 20.4997V25.2224C93.3866 25.5972 92.585 25.8658 91.8228 26.0248C91.0607 26.1859 90.1662 26.2659 89.1428 26.2659C87.0427 26.2659 85.5288 25.732 84.599 24.6664C83.6735 23.6008 83.2091 21.9644 83.2091 19.7563V12.0189H81.0186V7.16671H83.2091V2.37348L89.5125 1.26465V7.16671H93.5033V12.0189H89.5125V19.3246C89.5125 20.5397 90.0778 21.1473 91.2064 21.1473Z" fill="#FFCA59"/>
<path d="M105.684 21.1473C106.528 21.1473 107.534 20.9304 108.708 20.4997V25.2224C107.865 25.5972 107.063 25.8658 106.3 26.0248C105.537 26.1859 104.646 26.2659 103.62 26.2659C101.52 26.2659 100.007 25.732 99.0788 24.6664C98.1512 23.6008 97.6869 21.9644 97.6869 19.7563V12.0189H95.4951V7.16671H97.6869V2.30083L103.989 1.26465V7.16671H107.982V12.0189H103.989V19.3246C103.989 20.5397 104.554 21.1473 105.684 21.1473Z" fill="#FFCA59"/>
<path d="M116.6 14.2226C116.686 13.1949 116.976 12.442 117.472 11.9608C117.97 11.4806 118.584 11.2405 119.319 11.2405C120.121 11.2405 120.758 11.5101 121.23 12.0534C121.706 12.5936 121.954 13.317 121.974 14.2226H116.6ZM125.421 9.04611C123.934 7.57192 121.825 6.83374 119.096 6.83374C116.228 6.83374 114.02 7.68139 112.473 9.37671C110.927 11.072 110.153 13.5045 110.153 16.674C110.153 19.7435 110.989 22.1106 112.657 23.7722C114.326 25.4338 116.67 26.2657 119.688 26.2657C121.138 26.2657 122.385 26.1657 123.431 25.9667C124.47 25.7697 125.475 25.4138 126.451 24.8999L125.49 20.6701C124.781 20.9628 124.106 21.1881 123.469 21.3366C122.549 21.5525 121.539 21.6609 120.439 21.6609C119.234 21.6609 118.282 21.3629 117.584 20.7669C116.887 20.1699 116.515 19.3465 116.472 18.2977H127.652V15.4156C127.652 12.6431 126.909 10.5192 125.421 9.04611Z" fill="#FFCA59"/>
<path d="M29.5437 14.2226C29.629 13.1949 29.9195 12.442 30.415 11.9608C30.9117 11.4806 31.5272 11.2405 32.2633 11.2405C33.0629 11.2405 33.7001 11.5101 34.1738 12.0534C34.6496 12.5936 34.8964 13.317 34.9183 14.2226H29.5437ZM38.3656 9.04611C36.8778 7.57192 34.7693 6.83374 32.0394 6.83374C29.1699 6.83374 26.9636 7.68139 25.4174 9.37671C23.8713 11.072 23.0967 13.5045 23.0967 16.674C23.0967 19.7435 23.9318 22.1106 25.6018 23.7722C27.2698 25.4338 29.6134 26.2657 32.6318 26.2657C34.0811 26.2657 35.3284 26.1657 36.3737 25.9667C37.4128 25.7697 38.4188 25.4138 39.3954 24.8999L38.4333 20.6701C37.7242 20.9628 37.0495 21.1881 36.4134 21.3366C35.4909 21.5525 34.482 21.6609 33.3824 21.6609C32.1778 21.6609 31.2253 21.3629 30.5277 20.7669C29.829 20.1699 29.4584 19.3465 29.4157 18.2977H40.5958V15.4156C40.5958 12.6431 39.8524 10.5192 38.3656 9.04611Z" fill="#FFCA59"/>
</svg>
