<svg width="32" height="32" viewBox="0 0 32 32" fill="none" xmlns="http://www.w3.org/2000/svg">
<path d="M19.3333 7.33333C19.3333 9.17428 17.8409 10.6667 16 10.6667C14.159 10.6667 12.6666 9.17428 12.6666 7.33333C12.6666 5.49238 14.159 4 16 4C17.8409 4 19.3333 5.49238 19.3333 7.33333Z" fill="#FFCA59"/>
<path opacity="0.4" d="M7.8022 20.3286L12.7608 26.46C14.4214 28.5133 17.5785 28.5133 19.2391 26.46L24.1977 20.3286C24.9328 19.4197 25.3333 18.2903 25.3333 17.1263V16.8963C25.3333 14.1922 23.1172 12 20.3835 12C19.0708 12 17.8118 12.5159 16.8835 13.4341L16 14.3082L15.1164 13.4341C14.1881 12.5159 12.9291 12 11.6164 12C8.8827 12 6.66663 14.1922 6.66663 16.8963V17.1263C6.66663 18.2903 7.06711 19.4197 7.8022 20.3286Z" fill="#FFCA59"/>
</svg>
