<svg width="32" height="32" viewBox="0 0 32 32" fill="none" xmlns="http://www.w3.org/2000/svg">
<ellipse opacity="0.4" cx="10" cy="11.3333" rx="3.33333" ry="3.33333" fill="#FFCA59"/>
<ellipse opacity="0.4" cx="22" cy="11.3333" rx="3.33333" ry="3.33333" fill="#FFCA59"/>
<ellipse opacity="0.4" cx="16" cy="21.3334" rx="8" ry="4" fill="#FFCA59"/>
<path fill-rule="evenodd" clip-rule="evenodd" d="M21.9928 23.9832C23.2418 23.2776 24 22.3498 24 21.3334C24 19.7507 22.1617 18.3828 19.4945 17.7342C20.4378 17.4785 21.5183 17.3334 22.6666 17.3334C26.3485 17.3334 29.3333 18.8258 29.3333 20.6667C29.3333 22.5077 26.3485 24 22.6666 24C22.4392 24 22.2144 23.9943 21.9928 23.9832Z" fill="#FFCA59"/>
<path fill-rule="evenodd" clip-rule="evenodd" d="M10.0071 23.9832C9.78556 23.9943 9.56079 24 9.33335 24C5.65146 24 2.66669 22.5077 2.66669 20.6667C2.66669 18.8258 5.65146 17.3334 9.33335 17.3334C10.4817 17.3334 11.5622 17.4785 12.5055 17.7342C9.83829 18.3828 8.00002 19.7507 8.00002 21.3334C8.00002 22.3498 8.75818 23.2776 10.0071 23.9832Z" fill="#FFCA59"/>
<circle cx="16" cy="10.6667" r="4" fill="#FFCA59"/>
</svg>
