<svg width="32" height="32" viewBox="0 0 32 32" fill="none" xmlns="http://www.w3.org/2000/svg">
<path opacity="0.4" d="M29.3333 16C29.3333 23.3638 23.3638 29.3334 16 29.3334C8.63619 29.3334 2.66666 23.3638 2.66666 16C2.66666 8.63622 8.63619 2.66669 16 2.66669C23.3638 2.66669 29.3333 8.63622 29.3333 16Z" fill="#FFCA59"/>
<path fill-rule="evenodd" clip-rule="evenodd" d="M18.0119 7.07054C18.5252 6.86674 19.1065 7.11763 19.3104 7.63094L20.3703 10.3005C20.5267 10.6943 20.4178 11.144 20.0986 11.4227C19.7794 11.7015 19.3191 11.7487 18.9499 11.5407C18.0939 11.0583 17.0853 10.7777 16 10.7777C12.8043 10.7777 10.3333 13.1797 10.3333 16C10.3333 16.4594 10.3975 16.9037 10.5177 17.3265C10.6687 17.8578 10.3605 18.4108 9.82923 18.5618C9.298 18.7129 8.74492 18.4046 8.5939 17.8734C8.42383 17.2752 8.33331 16.6469 8.33331 16C8.33331 11.9474 11.8319 8.77774 16 8.77774C16.5774 8.77774 17.1408 8.83799 17.6832 8.95247L17.4515 8.36899C17.2477 7.85568 17.4986 7.27435 18.0119 7.07054ZM22.1707 13.4381C22.702 13.2871 23.255 13.5953 23.4061 14.1265C23.5761 14.7248 23.6666 15.3531 23.6666 16C23.6666 20.0525 20.1681 23.2222 16 23.2222C15.4226 23.2222 14.8592 23.1619 14.3168 23.0475L14.5484 23.6309C14.7523 24.1442 14.5014 24.7256 13.9881 24.9294C13.4748 25.1332 12.8934 24.8823 12.6896 24.369L11.6296 21.6994C11.4733 21.3056 11.5821 20.8559 11.9013 20.5772C12.2206 20.2984 12.6808 20.2512 13.05 20.4592C13.9061 20.9416 14.9146 21.2222 16 21.2222C19.1957 21.2222 21.6666 18.8203 21.6666 16C21.6666 15.5405 21.6025 15.0962 21.4823 14.6734C21.3313 14.1422 21.6395 13.5891 22.1707 13.4381Z" fill="#FFCA59"/>
</svg>
