<svg width="32" height="32" viewBox="0 0 32 32" fill="none" xmlns="http://www.w3.org/2000/svg">
<path opacity="0.4" d="M29.3334 16C29.3334 23.3638 23.3638 29.3334 16 29.3334C8.63622 29.3334 2.66669 23.3638 2.66669 16C2.66669 8.63622 8.63622 2.66669 16 2.66669C23.3638 2.66669 29.3334 8.63622 29.3334 16Z" fill="#FFCA59"/>
<path fill-rule="evenodd" clip-rule="evenodd" d="M16 7.66669C16.5523 7.66669 17 8.1144 17 8.66669V9.80471C18.539 10.24 19.6667 11.655 19.6667 13.3334C19.6667 13.8856 19.219 14.3334 18.6667 14.3334C18.1144 14.3334 17.6667 13.8856 17.6667 13.3334C17.6667 12.4129 16.9205 11.6667 16 11.6667C15.0796 11.6667 14.3334 12.4129 14.3334 13.3334C14.3334 14.2538 15.0796 15 16 15C18.0251 15 19.6667 16.6416 19.6667 18.6667C19.6667 20.3451 18.539 21.76 17 22.1953V23.3334C17 23.8856 16.5523 24.3334 16 24.3334C15.4478 24.3334 15 23.8856 15 23.3334V22.1953C13.461 21.76 12.3334 20.3451 12.3334 18.6667C12.3334 18.1144 12.7811 17.6667 13.3334 17.6667C13.8857 17.6667 14.3334 18.1144 14.3334 18.6667C14.3334 19.5872 15.0796 20.3334 16 20.3334C16.9205 20.3334 17.6667 19.5872 17.6667 18.6667C17.6667 17.7462 16.9205 17 16 17C13.975 17 12.3334 15.3584 12.3334 13.3334C12.3334 11.655 13.461 10.24 15 9.80471V8.66669C15 8.1144 15.4478 7.66669 16 7.66669Z" fill="#FFCA59"/>
</svg>
