<svg width="32" height="32" viewBox="0 0 32 32" fill="none" xmlns="http://www.w3.org/2000/svg">
<path opacity="0.4" fill-rule="evenodd" clip-rule="evenodd" d="M13.0008 21.3333H10.4981C8.91529 21.3333 7.41424 22.0364 6.40094 23.2523L4.97831 24.9595C3.53091 26.6964 4.766 29.3333 7.0269 29.3333H24.9733C27.2342 29.3333 28.4693 26.6964 27.0219 24.9595L25.5993 23.2523C24.586 22.0364 23.0849 21.3333 21.5021 21.3333H19.0001V23.3333C19.0001 24.9902 17.657 26.3333 16.0001 26.3333C14.3433 26.3333 13.0001 24.9902 13.0001 23.3333L13.0008 21.3333Z" fill="#FFCA59"/>
<path d="M17 23.3333C17 23.8856 16.5523 24.3333 16 24.3333C15.4477 24.3333 15 23.8856 15 23.3333L15.0064 4.66667C15.0064 3.19391 16.2003 2 17.6731 2H24.8491C25.8402 2 26.4849 3.04308 26.0416 3.92962L24.6379 6.73705C24.4502 7.11242 24.4502 7.55425 24.6379 7.92962L26.0416 10.737C26.4849 11.6236 25.8402 12.6667 24.8491 12.6667H17V23.3333Z" fill="#FFCA59"/>
</svg>
