<svg width="32" height="32" viewBox="0 0 32 32" fill="none" xmlns="http://www.w3.org/2000/svg">
<path opacity="0.4" d="M7.99999 29.3334C10.49 29.3334 12.5814 27.627 13.1688 25.3199C13.3504 24.6062 13.9303 24 14.6667 24H24V6.66669C24 4.45755 22.2091 2.66669 20 2.66669H6.66666C4.45752 2.66669 2.66666 4.45755 2.66666 6.66669V24C2.66666 26.9455 5.05447 29.3334 7.99999 29.3334Z" fill="#FFCA59"/>
<path d="M24 29.3333C26.6056 29.3333 28.7748 27.4648 29.2408 24.9946C29.3431 24.4519 28.8856 24 28.3333 24H24H14.3333C13.781 24 13.3431 24.4519 13.2408 24.9946C12.7748 27.4648 10.6056 29.3333 8 29.3333H24Z" fill="#FFCA59"/>
<path d="M9.82002 12.9417L12.2922 16.0319C12.826 16.6991 13.8407 16.6991 14.3745 16.0319L16.8467 12.9417C17.1617 12.5479 17.3333 12.0586 17.3333 11.5543V11.4546C17.3333 10.2831 16.3836 9.33331 15.212 9.33331C14.6494 9.33331 14.1098 9.55681 13.712 9.95463L13.3333 10.3333L12.9547 9.95463C12.5568 9.55681 12.0173 9.33331 11.4547 9.33331C10.2831 9.33331 9.33334 10.2831 9.33334 11.4546V11.5543C9.33334 12.0586 9.50498 12.5479 9.82002 12.9417Z" fill="#FFCA59"/>
</svg>
