<svg width="32" height="32" viewBox="0 0 32 32" fill="none" xmlns="http://www.w3.org/2000/svg">
<path d="M26.6667 10.6667H24V26.6667C24 28.1394 25.1939 29.3334 26.6667 29.3334C28.1394 29.3334 29.3333 28.1394 29.3333 26.6667V13.3334C29.3333 11.8606 28.1394 10.6667 26.6667 10.6667Z" fill="#FFCA59"/>
<path opacity="0.4" d="M20 2.66669H6.66666C4.45753 2.66669 2.66666 4.45755 2.66666 6.66669V25.3334C2.66666 27.5425 4.45753 29.3334 6.66666 29.3334H26.6667C25.1939 29.3334 24 28.1394 24 26.6667V6.66669C24 4.45755 22.2091 2.66669 20 2.66669Z" fill="#FFCA59"/>
<path fill-rule="evenodd" clip-rule="evenodd" d="M7 9.33331C7 8.78103 7.44772 8.33331 8 8.33331H18.6667C19.219 8.33331 19.6667 8.78103 19.6667 9.33331C19.6667 9.8856 19.219 10.3333 18.6667 10.3333H8C7.44772 10.3333 7 9.8856 7 9.33331Z" fill="#FFCA59"/>
<path fill-rule="evenodd" clip-rule="evenodd" d="M7 16C7 15.4477 7.44772 15 8 15L18.6667 15C19.219 15 19.6667 15.4477 19.6667 16C19.6667 16.5523 19.219 17 18.6667 17L8 17C7.44772 17 7 16.5523 7 16Z" fill="#FFCA59"/>
<path fill-rule="evenodd" clip-rule="evenodd" d="M7 22.6667C7 22.1144 7.44772 21.6667 8 21.6667H13.3333C13.8856 21.6667 14.3333 22.1144 14.3333 22.6667C14.3333 23.219 13.8856 23.6667 13.3333 23.6667H8C7.44772 23.6667 7 23.219 7 22.6667Z" fill="#FFCA59"/>
</svg>
