<svg width="32" height="32" viewBox="0 0 32 32" fill="none" xmlns="http://www.w3.org/2000/svg">
<path opacity="0.4" fill-rule="evenodd" clip-rule="evenodd" d="M5.33337 29C4.78109 29 4.33337 28.5523 4.33337 28L4.33337 18.6667C4.33337 18.1144 4.78109 17.6667 5.33337 17.6667C5.88566 17.6667 6.33337 18.1144 6.33337 18.6667V28C6.33337 28.5523 5.88566 29 5.33337 29Z" fill="#FFCA59"/>
<path opacity="0.4" fill-rule="evenodd" clip-rule="evenodd" d="M16 29C15.4477 29 15 28.5523 15 28L15 18.6667C15 18.1144 15.4477 17.6667 16 17.6667C16.5523 17.6667 17 18.1144 17 18.6667L17 28C17 28.5523 16.5523 29 16 29Z" fill="#FFCA59"/>
<path opacity="0.4" fill-rule="evenodd" clip-rule="evenodd" d="M16 9C15.4477 9 15 8.55228 15 8L15 4C15 3.44771 15.4477 3 16 3C16.5523 3 17 3.44771 17 4L17 8C17 8.55228 16.5523 9 16 9Z" fill="#FFCA59"/>
<path opacity="0.4" fill-rule="evenodd" clip-rule="evenodd" d="M5.33337 14.3333C4.78109 14.3333 4.33337 13.8856 4.33337 13.3333L4.33337 3.99998C4.33337 3.4477 4.78109 2.99998 5.33337 2.99998C5.88566 2.99998 6.33337 3.4477 6.33337 3.99998L6.33337 13.3333C6.33337 13.8856 5.88566 14.3333 5.33337 14.3333Z" fill="#FFCA59"/>
<path opacity="0.4" fill-rule="evenodd" clip-rule="evenodd" d="M26.6667 14.3333C26.1144 14.3333 25.6667 13.8856 25.6667 13.3333L25.6667 3.99998C25.6667 3.4477 26.1144 2.99998 26.6667 2.99998C27.219 2.99998 27.6667 3.4477 27.6667 3.99998L27.6667 13.3333C27.6667 13.8856 27.219 14.3333 26.6667 14.3333Z" fill="#FFCA59"/>
<path opacity="0.4" fill-rule="evenodd" clip-rule="evenodd" d="M26.6667 29C26.1144 29 25.6667 28.5523 25.6667 28L25.6667 24C25.6667 23.4477 26.1144 23 26.6667 23C27.219 23 27.6667 23.4477 27.6667 24L27.6667 28C27.6667 28.5523 27.219 29 26.6667 29Z" fill="#FFCA59"/>
<path d="M13.3334 9.33335V12C13.3334 13.4728 14.5273 14.6667 16 14.6667C17.4728 14.6667 18.6667 13.4728 18.6667 12V9.33335C18.6667 7.86059 17.4728 6.66669 16 6.66669C14.5273 6.66669 13.3334 7.86059 13.3334 9.33335Z" fill="#FFCA59"/>
<path d="M2.66669 14.6667V17.3333C2.66669 18.8061 3.86059 20 5.33335 20C6.80611 20 8.00002 18.8061 8.00002 17.3333V14.6667C8.00002 13.1939 6.80611 12 5.33335 12C3.86059 12 2.66669 13.1939 2.66669 14.6667Z" fill="#FFCA59"/>
<path d="M24 20V22.6666C24 24.1394 25.1939 25.3333 26.6667 25.3333C28.1394 25.3333 29.3333 24.1394 29.3333 22.6666V20C29.3333 18.5272 28.1394 17.3333 26.6667 17.3333C25.1939 17.3333 24 18.5272 24 20Z" fill="#FFCA59"/>
</svg>
