<svg width="32" height="32" viewBox="0 0 32 32" fill="none" xmlns="http://www.w3.org/2000/svg">
<path opacity="0.4" d="M2.66666 19.4376V11.4273C2.66666 10.3128 3.23733 9.29407 4.14075 8.79568L6.87388 7.28792C7.61444 6.87938 8.43105 6.66669 9.25902 6.66669H11.5006C13.1552 6.66669 14.6978 7.51206 15.6985 8.9213L13.1127 12.4876C12.4792 13.3612 12.5424 14.6207 13.2595 15.4118C14.0366 16.2693 15.2967 16.2693 16.0738 15.4118L17.9608 13.3299L21.0153 19.5084C21.851 21.1988 21.0141 23.3046 19.321 23.7716L14.6145 25.0698C12.9183 25.5377 11.1299 25.3796 9.52289 24.6197L4.28287 22.1419C3.30238 21.6783 2.66666 20.6146 2.66666 19.4376Z" fill="#FFCA59"/>
<path d="M29.3333 19.7688V11.4273C29.3333 10.3128 28.7626 9.29407 27.8592 8.79568L25.1261 7.28792C24.3855 6.87938 23.5689 6.66669 22.7409 6.66669H19.8966C18.2765 6.66669 16.7441 7.47926 15.732 8.87513L13.1127 12.4876C12.4792 13.3612 12.5424 14.6207 13.2595 15.4118C14.0366 16.2693 15.2967 16.2693 16.0738 15.4118L17.9608 13.3299L21.0152 19.5084C21.5471 20.5842 21.4015 21.8282 20.7889 22.711H26.6666C28.1394 22.711 29.3333 21.3938 29.3333 19.7688Z" fill="#FFCA59"/>
</svg>
