<svg width="32" height="32" viewBox="0 0 32 32" fill="none" xmlns="http://www.w3.org/2000/svg">
<path opacity="0.4" d="M24.7211 4.96356L28.6172 9.40199C29.5214 10.432 29.5752 11.9673 28.7454 13.0597L18.2472 26.8795C17.1123 28.3735 14.8877 28.3735 13.7528 26.8795L3.25459 13.0597C2.4248 11.9673 2.4786 10.432 3.38278 9.40199L7.2789 4.96356C7.81691 4.35067 8.58807 4 9.39788 4H13.4799H18.8351H22.6021C23.4119 4 24.1831 4.35067 24.7211 4.96356Z" fill="#FFCA59"/>
<path d="M28.3333 10.1772C28.8856 10.1772 29.3333 10.6249 29.3333 11.1772C29.3333 11.7295 28.8856 12.1772 28.3333 12.1772L3.66666 12.1771C3.11437 12.1771 2.66666 11.7293 2.66666 11.1771C2.66666 10.6248 3.11437 10.1771 3.66666 10.1771L28.3333 10.1772Z" fill="#FFCA59"/>
</svg>
