<svg width="32" height="32" viewBox="0 0 32 32" fill="none" xmlns="http://www.w3.org/2000/svg">
<path opacity="0.4" d="M26.6665 10.6667C28.1393 10.6667 29.3332 11.8606 29.3332 13.3334L29.3332 26.6667C29.3332 28.1394 28.1393 29.3334 26.6665 29.3334C25.1938 29.3334 23.9999 28.1394 23.9999 26.6667L23.9999 13.3334C23.9999 11.8606 25.1938 10.6667 26.6665 10.6667Z" fill="#FFCA59"/>
<path opacity="0.4" d="M5.33329 21.3334C6.80605 21.3334 7.99996 22.5273 7.99996 24V26.6667C7.99996 28.1395 6.80605 29.3334 5.33329 29.3334C3.86053 29.3334 2.66663 28.1395 2.66663 26.6667L2.66663 24C2.66663 22.5273 3.86053 21.3334 5.33329 21.3334Z" fill="#FFCA59"/>
<path opacity="0.4" d="M16 16C17.4728 16 18.6667 17.1939 18.6667 18.6667L18.6667 26.6667C18.6667 28.1394 17.4728 29.3333 16 29.3333C14.5273 29.3333 13.3334 28.1394 13.3334 26.6667L13.3334 18.6667C13.3334 17.1939 14.5273 16 16 16Z" fill="#FFCA59"/>
<path fill-rule="evenodd" clip-rule="evenodd" d="M24.3333 2.66669C24.3333 2.1144 24.781 1.66669 25.3333 1.66669H27.9999C29.2886 1.66669 30.3333 2.71136 30.3333 4.00002V6.66669C30.3333 7.21897 29.8856 7.66669 29.3333 7.66669C28.781 7.66669 28.3333 7.21897 28.3333 6.66669V5.01484C23.156 9.16218 19.1415 11.8565 15.2543 13.6593C11.2788 15.5032 7.48459 16.3925 2.79336 16.992C2.24553 17.062 1.74468 16.6746 1.67468 16.1268C1.60468 15.5789 1.99203 15.0781 2.53986 15.0081C7.10479 14.4248 10.6829 13.575 14.4128 11.845C18.025 10.1696 21.8241 7.64823 26.8167 3.66669H25.3333C24.781 3.66669 24.3333 3.21897 24.3333 2.66669Z" fill="#FFCA59"/>
</svg>
