<svg width="32" height="32" viewBox="0 0 32 32" fill="none" xmlns="http://www.w3.org/2000/svg">
<ellipse opacity="0.4" cx="13.3333" cy="22.6666" rx="9.33333" ry="5.33333" fill="#FFCA59"/>
<ellipse cx="13.3333" cy="9.33333" rx="5.33333" ry="5.33333" fill="#FFCA59"/>
<path fill-rule="evenodd" clip-rule="evenodd" d="M24.3334 17.3333C24.3334 17.8856 24.7811 18.3333 25.3334 18.3333C25.8856 18.3333 26.3334 17.8856 26.3334 17.3333V15.6667H28C28.5523 15.6667 29 15.219 29 14.6667C29 14.1144 28.5523 13.6667 28 13.6667H26.3334V12C26.3334 11.4477 25.8856 11 25.3334 11C24.7811 11 24.3334 11.4477 24.3334 12L24.3334 13.6667H22.6667C22.1144 13.6667 21.6667 14.1144 21.6667 14.6667C21.6667 15.219 22.1144 15.6667 22.6667 15.6667H24.3334L24.3334 17.3333Z" fill="#FFCA59"/>
</svg>
