<svg width="32" height="32" viewBox="0 0 32 32" fill="none" xmlns="http://www.w3.org/2000/svg">
<g opacity="0.4">
<path d="M22.6666 5.33335V12.6667H9.33331V5.33335C9.33331 3.86059 10.5272 2.66669 12 2.66669H20C21.4727 2.66669 22.6666 3.86059 22.6666 5.33335Z" fill="#FFCA59"/>
</g>
<path fill-rule="evenodd" clip-rule="evenodd" d="M16 29.3333C21.891 29.3333 26.6666 24.5577 26.6666 18.6667C26.6666 12.7756 21.891 8 16 8C10.1089 8 5.33331 12.7756 5.33331 18.6667C5.33331 24.5577 10.1089 29.3333 16 29.3333ZM17.7909 15.574L17.0491 14.0114C16.62 13.1073 15.38 13.1073 14.9508 14.0114L14.2091 15.574C14.0387 15.933 13.7093 16.1818 13.3282 16.2394L11.6697 16.49C10.71 16.635 10.3268 17.8611 11.0212 18.5648L12.2214 19.7811C12.4971 20.0606 12.6229 20.4632 12.5578 20.8578L12.2745 22.5752C12.1106 23.5689 13.1138 24.3267 13.9721 23.8576L15.4555 23.0467C15.7964 22.8604 16.2036 22.8604 16.5444 23.0467L18.0278 23.8576C18.8862 24.3267 19.8894 23.5689 19.7254 22.5752L19.4421 20.8578C19.377 20.4632 19.5029 20.0606 19.7786 19.7811L20.9787 18.5648C21.6731 17.8611 21.2899 16.635 20.3303 16.49L18.6718 16.2394C18.2907 16.1818 17.9613 15.933 17.7909 15.574Z" fill="#FFCA59"/>
</svg>
