<svg width="32" height="32" viewBox="0 0 32 32" fill="none" xmlns="http://www.w3.org/2000/svg">
<path opacity="0.4" d="M2.66669 21.3334C2.66669 19.8606 3.86059 18.6667 5.33335 18.6667H10.6667C12.1394 18.6667 13.3334 19.8606 13.3334 21.3334V26.6667C13.3334 28.1394 12.1394 29.3334 10.6667 29.3334H5.33335C3.86059 29.3334 2.66669 28.1394 2.66669 26.6667V21.3334Z" fill="#FFCA59"/>
<path opacity="0.4" d="M2.66669 5.33335C2.66669 3.86059 3.86059 2.66669 5.33335 2.66669H10.6667C12.1394 2.66669 13.3334 3.86059 13.3334 5.33335V10.6667C13.3334 12.1394 12.1394 13.3334 10.6667 13.3334H5.33335C3.86059 13.3334 2.66669 12.1394 2.66669 10.6667V5.33335Z" fill="#FFCA59"/>
<path opacity="0.4" d="M18.6667 21.3334C18.6667 19.8606 19.8606 18.6667 21.3334 18.6667H26.6667C28.1394 18.6667 29.3334 19.8606 29.3334 21.3334V26.6667C29.3334 28.1394 28.1394 29.3334 26.6667 29.3334H21.3334C19.8606 29.3334 18.6667 28.1394 18.6667 26.6667V21.3334Z" fill="#FFCA59"/>
<path d="M17.4673 10.7617C16.4259 9.72029 16.4259 8.03185 17.4673 6.99046L21.2385 3.21922C22.2799 2.17782 23.9683 2.17782 25.0097 3.21922L28.781 6.99046C29.8224 8.03185 29.8224 9.72029 28.781 10.7617L25.0097 14.5329C23.9683 15.5743 22.2799 15.5743 21.2385 14.5329L17.4673 10.7617Z" fill="#FFCA59"/>
</svg>
