<svg width="32" height="32" viewBox="0 0 32 32" fill="none" xmlns="http://www.w3.org/2000/svg">
<path opacity="0.4" fill-rule="evenodd" clip-rule="evenodd" d="M8.00004 5.33331H24C25.4355 5.33331 26.606 6.46744 26.6644 7.88849H19.8663C18.3936 7.88849 17.1997 9.0824 17.1997 10.5552V22.6666H5.33337V7.99998C5.33337 6.52722 6.52728 5.33331 8.00004 5.33331Z" fill="#FFCA59"/>
<path d="M18.6667 12C18.6667 10.5272 19.8606 9.33331 21.3334 9.33331H26.6667C28.1394 9.33331 29.3334 10.5272 29.3334 12V24C29.3334 25.4727 28.1394 26.6666 26.6667 26.6666H21.3334C19.8606 26.6666 18.6667 25.4727 18.6667 24V12Z" fill="#FFCA59"/>
<path d="M17.3334 22.6666H4.66669C3.56212 22.6666 2.66669 23.5621 2.66669 24.6666C2.66669 25.7712 3.56212 26.6666 4.66669 26.6666H17.3334V22.6666Z" fill="#FFCA59"/>
</svg>
