<svg width="88" height="31" viewBox="0 0 88 31" fill="none" xmlns="http://www.w3.org/2000/svg">
<g clip-path="url(#clip0_198_895)">
<path d="M45.8712 2.29192C42.3066 1.40251 38.8853 6.99676 37.0195 14.4851C35.1538 21.9735 35.55 28.5204 39.1149 29.4098C42.6797 30.2992 46.101 24.7049 47.9667 17.2165C49.8325 9.72813 49.4361 3.1812 45.8712 2.29192ZM57.0714 15.8508C56.6549 24.1128 50.216 30.8106 41.7387 30.8106C33.2615 30.8106 27.4982 24.1128 27.9149 15.8508C28.3314 7.58864 34.7702 0.891113 43.2473 0.891113C51.7245 0.891113 57.488 7.58864 57.0714 15.8508ZM76.7789 2.29192C73.2142 1.40251 69.7927 6.99676 67.9271 14.4851C66.0615 21.9735 66.4573 28.5204 70.0221 29.4098C73.5869 30.2992 77.0083 24.7049 78.8739 17.2165C80.7395 9.72813 80.3431 3.1812 76.7789 2.29192ZM87.9788 15.8508C87.5624 24.1128 81.1235 30.8106 72.6463 30.8106C64.1691 30.8106 58.4057 24.1128 58.8222 15.8508C59.2387 7.58864 65.6776 0.891113 74.1547 0.891113C82.6319 0.891113 88.3952 7.58864 87.9788 15.8508ZM26.4624 20.4933C26.231 27.1287 20.0102 30.7275 13.6059 30.7275C8.17963 30.7275 3.11313 27.8239 0.734924 26.0579L3.41043 18.6184L3.56996 18.6757C7.9697 25.2569 11.7084 29.7896 15.6167 29.4369C18.2016 29.2036 19.7373 27.6266 19.8463 24.5017C19.9979 20.1549 16.6821 14.766 4.20696 16.9896L4.02032 16.9223L9.6359 1.30624H28.4582L25.9315 8.3332H8.29719L6.63445 12.9574C16.5991 7.83542 26.7156 13.2386 26.4624 20.4933Z" fill="white"/>
</g>
<defs>
<clipPath id="clip0_198_895">
<rect width="87.265" height="29.9194" fill="white" transform="translate(0.734924 0.891113)"/>
</clipPath>
</defs>
</svg>
