<svg width="147" height="34" viewBox="0 0 147 34" fill="none" xmlns="http://www.w3.org/2000/svg">
<g clip-path="url(#clip0_198_825)">
<path d="M77.1815 20.3528C73.4695 20.3528 70.528 23.2243 70.528 27.0064C70.528 30.7884 73.5396 33.6599 77.1815 33.6599C80.8935 33.6599 83.8351 30.7184 83.8351 27.0064C83.8351 23.2243 80.8935 20.3528 77.1815 20.3528ZM77.1815 23.0142C79.4227 23.0142 81.1036 24.6951 81.1036 27.0064C81.1036 29.3176 79.3527 30.9985 77.1815 30.9985C74.9403 30.9985 73.2594 29.3176 73.2594 27.0064C73.1894 24.6951 74.9403 23.0142 77.1815 23.0142Z" fill="white"/>
<path d="M132.581 29.3879V23.2946H135.733V20.6332H132.581V17.0613L129.85 17.9017V20.6332H127.539V23.2946H129.85V29.3879C129.85 32.6797 131.531 33.8703 135.733 33.31V30.8587C133.632 30.9988 132.581 30.9988 132.581 29.3879Z" fill="white"/>
<path d="M146.729 30.7886H140.496L146.729 23.2945V20.7732H137.064V23.2945H143.297L137.064 30.7886V33.38H146.729V30.7886Z" fill="white"/>
<path d="M37.6804 0.882444L40.4819 0.0419922V17.7615H37.6804V16.781C36.4197 17.6915 34.8088 18.1817 33.0579 18.0417C29.9763 17.7615 27.3849 15.2402 27.1047 12.0885C27.1047 11.8083 27.0347 11.5982 27.0347 11.3181C27.0347 11.1079 27.0347 10.8978 27.1047 10.6877C27.1047 10.6177 27.1047 10.6177 27.1047 10.5476V10.4776V10.4076C27.1047 10.2675 27.1747 10.1274 27.1747 9.98734C27.1747 9.9173 27.1747 9.84726 27.2448 9.84726V9.77722V9.70719C27.2448 9.56711 27.3148 9.49707 27.3148 9.357C27.3148 9.28696 27.3849 9.21692 27.3849 9.14688V9.07685C27.4549 8.93677 27.4549 8.86673 27.5249 8.72666C27.5249 8.65662 27.595 8.58658 27.595 8.51655C27.595 8.51655 27.595 8.51655 27.595 8.44651C27.665 8.30643 27.735 8.2364 27.735 8.09632C27.8051 8.02628 27.8051 7.95625 27.8751 7.88621C27.9452 7.81617 28.0152 7.6761 28.0852 7.60606C28.1553 7.53602 28.2253 7.46598 28.2953 7.39594C28.3654 7.32591 28.4354 7.18583 28.5055 7.11579C28.5755 7.04576 28.6455 6.97572 28.7156 6.90568C28.7856 6.83564 28.8556 6.76561 28.9957 6.62553C29.0658 6.55549 29.1358 6.48546 29.2058 6.41542C29.2759 6.34538 29.4159 6.27534 29.486 6.2053C29.7661 6.06523 29.8362 5.99519 29.9062 5.92515C29.9763 5.85512 30.1163 5.78508 30.1864 5.71504H30.2564C30.3264 5.645 30.3965 5.645 30.4665 5.57497C30.6066 5.50493 30.6766 5.43489 30.8167 5.43489H30.8867C30.9568 5.43489 31.0268 5.36485 31.0969 5.36485C31.2369 5.29482 31.307 5.29482 31.447 5.22478H31.5171C31.5871 5.22478 31.6572 5.15474 31.7272 5.15474C31.8673 5.0847 31.9373 5.0847 32.0774 5.0847H32.1474H32.2175C32.2875 5.0847 32.3575 5.0847 32.4276 5.01466C32.5676 5.01466 32.7077 4.94463 32.8478 4.94463H32.9178C32.9879 4.94463 32.9879 4.94463 33.0579 4.94463C33.268 4.94463 33.5482 4.87459 33.7583 4.87459C35.2291 4.87459 36.5598 5.36485 37.6804 6.13527V0.882444ZM32.9178 15.2402C35.4392 15.8005 37.6804 13.8394 37.6804 11.4581V11.3881C37.6804 9.21692 35.9294 7.46598 33.7583 7.46598C33.6182 7.46598 33.4781 7.46598 33.3381 7.46598H33.268C33.268 7.46598 33.268 7.46598 33.198 7.46598C33.1279 7.46598 32.9879 7.46598 32.9178 7.53602H32.8478C32.7778 7.53602 32.7077 7.60606 32.6377 7.60606C32.5676 7.60606 32.4976 7.67609 32.4976 7.67609C32.4276 7.67609 32.3575 7.74613 32.2875 7.74613C32.2175 7.74613 32.2175 7.81617 32.1474 7.81617C32.0774 7.88621 32.0073 7.88621 31.9373 7.95625C31.8673 7.95625 31.8673 8.02628 31.7972 8.02628C31.7272 8.09632 31.6572 8.09632 31.5871 8.16636C31.5871 8.16636 31.5871 8.16636 31.5171 8.16636L31.447 8.2364C31.377 8.30643 31.307 8.37647 31.2369 8.44651C31.2369 8.44651 31.2369 8.44651 31.1669 8.51655C31.0969 8.58658 30.9568 8.72666 30.8867 8.7967C30.8167 8.86673 30.7467 9.00681 30.6766 9.07685C30.6766 9.07685 30.6766 9.14688 30.6066 9.14688C30.6066 9.14688 30.6066 9.14689 30.6066 9.21692C30.5366 9.28696 30.5366 9.357 30.4665 9.42704C30.4665 9.49707 30.3965 9.49707 30.3965 9.56711C30.3264 9.63715 30.3264 9.70719 30.3264 9.77722C30.3264 9.84726 30.2564 9.84726 30.2564 9.9173C30.2564 9.98734 30.1864 10.0574 30.1864 10.1274C30.1864 10.1974 30.1864 10.2675 30.1163 10.2675C30.1163 10.3375 30.1163 10.4076 30.0463 10.5476C30.0463 10.6177 30.0463 10.6877 30.0463 10.6877C30.0463 10.7578 30.0463 10.8978 30.0463 10.9679V11.0379C30.0463 11.1079 30.0463 11.1079 30.0463 11.178C30.0463 11.4581 30.0463 11.7383 30.1163 12.0885C30.2564 13.7694 31.447 14.96 32.9178 15.2402Z" fill="white"/>
<path d="M10.5757 5.1546V5.99505C9.52516 5.22464 8.12441 4.73438 6.72366 4.73438C2.80155 4.73438 -0.350147 8.16622 0.0700793 12.1584C0.420268 15.24 2.94162 17.7614 6.02328 18.1116C7.77422 18.2516 9.38509 17.7614 10.6458 16.8509V17.8314H13.4473V5.1546H10.5757ZM10.5757 11.458C10.5757 13.9093 8.33452 15.8003 5.81317 15.24C4.34238 14.9599 3.15174 13.7692 2.80155 12.2284C2.31128 9.70705 4.27234 7.46584 6.72366 7.46584C8.82478 7.46584 10.5757 9.21678 10.5757 11.458Z" fill="white"/>
<path d="M91.5393 20.4927V23.4343C89.7183 23.2942 87.6171 24.1346 87.6171 27.0062V33.3796H84.8857V20.7028H87.6171V22.8039C88.3876 21.123 89.9284 20.4927 91.5393 20.4927Z" fill="white"/>
<path d="M98.1229 20.3528C94.4109 20.3528 91.4693 23.2243 91.4693 27.0064C91.4693 30.7884 94.4809 33.6599 98.1229 33.6599C101.835 33.6599 104.776 30.7184 104.776 27.0064C104.846 23.2243 101.905 20.3528 98.1229 20.3528ZM98.1229 23.0142C100.364 23.0142 102.045 24.6951 102.045 27.0064C102.045 29.3176 100.294 30.9985 98.1229 30.9985C95.8817 30.9985 94.2008 29.3176 94.2008 27.0064C94.2008 24.6951 95.9517 23.0142 98.1229 23.0142Z" fill="white"/>
<path d="M122.846 20.7031L118.854 33.3799H116.192L113.531 24.8353L110.87 33.3799H108.208L104.216 20.7031H107.088L109.539 29.4578L112.2 20.7031H114.792L117.453 29.4578L119.904 20.7031H122.846Z" fill="white"/>
<path d="M126.488 20.7031H123.757V33.3799H126.488V20.7031Z" fill="white"/>
<path d="M48.186 4.94458V7.88616C46.365 7.74609 44.2639 8.58654 44.2639 11.4581V17.8315H41.5324V5.15469H44.2639V7.25582C45.0343 5.57492 46.5751 4.94458 48.186 4.94458Z" fill="white"/>
<path d="M64.6448 20.3526C62.8939 20.3526 61.5632 20.9829 60.7227 22.3136V15.3799L58.4815 14.1192C58.3414 14.3293 58.2014 14.5395 57.9912 14.6795C57.2909 15.2398 56.3804 15.6601 55.1897 15.6601C53.1586 15.6601 51.5478 14.6095 51.1276 12.6484H61.283C61.283 12.2983 61.353 11.878 61.353 11.5278C61.353 7.88589 58.7617 4.87427 54.9796 4.87427C51.0575 4.87427 48.326 7.74581 48.326 11.5278C48.326 15.3099 50.9875 18.1814 55.1897 18.1814C56.2403 18.1814 57.1508 17.9713 57.9912 17.6211V33.3796H60.7227V26.5859C60.7227 23.9945 62.1235 22.944 63.9444 22.944C65.6253 22.944 66.7459 23.9945 66.7459 25.8856V33.3796H69.4774V25.5354C69.4774 22.2436 67.4463 20.3526 64.6448 20.3526ZM54.9096 7.32558C56.5905 7.32558 58.1313 8.23607 58.5515 10.4072H51.1276C51.4777 8.51622 52.8785 7.32558 54.9096 7.32558Z" fill="white"/>
<path d="M72.0688 14.0494C71.4384 14.9599 70.3178 15.5902 68.777 15.5902C66.7459 15.5902 65.135 14.6097 64.7148 12.5786H74.8002C74.8703 12.2284 74.8703 11.8082 74.8703 11.458C74.8703 7.81606 72.2789 4.80444 68.4968 4.80444C64.5047 4.80444 61.8433 7.74602 61.8433 11.458C61.8433 15.2401 64.5747 18.1116 68.7069 18.1116C71.1583 18.1116 73.1193 17.061 74.2399 15.3801L72.0688 14.0494ZM68.5669 7.3258C70.2478 7.3258 71.7886 8.23629 72.2088 10.4075H64.7148C65.135 8.51644 66.5358 7.3258 68.5669 7.3258Z" fill="white"/>
<path d="M103.376 15.6601C104.916 15.6601 106.037 14.9597 106.667 14.1192L108.909 15.45C107.718 17.2009 105.827 18.1814 103.376 18.1814C99.1734 18.1814 96.512 15.3099 96.512 11.5278C96.512 7.74581 99.2434 4.87427 103.166 4.87427C106.948 4.87427 109.539 7.88589 109.539 11.5278C109.539 11.878 109.469 12.2983 109.469 12.6484H99.3835C99.7337 14.6095 101.345 15.6601 103.376 15.6601ZM106.737 10.4072C106.387 8.23607 104.776 7.32558 103.095 7.32558C101.064 7.32558 99.6637 8.51622 99.2434 10.4072H106.737Z" fill="white"/>
<path d="M123.757 17.8314H126.488V15.3801H123.757V17.8314Z" fill="white"/>
<path d="M21.1514 4.80444C19.4004 4.80444 18.0697 5.43478 17.2293 6.7655V5.29471V5.08459H14.4978V6.13516V17.7614H17.2293V10.9678C17.2293 8.37636 18.63 7.3258 20.451 7.3258C22.2019 7.3258 23.2525 8.30633 23.2525 10.2674V17.7614H25.984V10.0573C26.054 6.7655 24.0229 4.80444 21.1514 4.80444Z" fill="white"/>
<path d="M113.601 17.8314H110.87V5.15463H113.601V6.7655C114.442 5.43478 115.772 4.80444 117.523 4.80444C120.325 4.80444 122.356 6.69546 122.356 9.98723V17.7614H119.624V10.3374C119.624 8.4464 118.504 7.39584 116.823 7.39584C115.002 7.39584 113.601 8.4464 113.601 11.0378V17.8314Z" fill="white"/>
<path d="M78.5123 8.65651C78.5123 7.74602 79.3527 7.3258 80.3333 7.3258C81.3138 7.3258 82.1542 7.74602 82.6445 8.58648L85.0258 7.39584C84.1153 5.78497 82.4344 4.80444 80.3333 4.80444C77.7419 4.80444 75.7108 6.27523 75.7108 8.65651C75.7108 11.3179 78.022 11.9483 79.9831 12.5086C81.3838 12.9288 82.5044 13.209 82.5044 14.1895C82.5044 15.17 81.5939 15.5902 80.3333 15.5902C79.1426 15.5902 78.1621 15.1 77.6718 14.1895L75.2205 15.3801C76.061 17.061 77.8819 18.1116 80.2632 18.1116C82.9947 18.1116 85.2359 16.7108 85.2359 14.1895C85.2359 11.458 82.8546 10.7576 80.9636 10.2674C79.7029 9.91719 78.5123 9.567 78.5123 8.65651Z" fill="white"/>
<path d="M90.909 7.32558C89.9285 7.32558 89.088 7.74581 89.088 8.6563C89.088 9.63683 90.2786 9.91698 91.6094 10.3372C93.5704 10.8975 95.8816 11.5278 95.8816 14.2593C95.8816 16.7807 93.7105 18.1814 90.909 18.1814C88.4577 18.1814 86.7067 17.1309 85.8663 15.45L88.3176 14.2593C88.8079 15.1698 89.7183 15.6601 90.979 15.6601C92.1697 15.6601 93.1502 15.2398 93.1502 14.2593C93.1502 13.3488 91.9595 12.9986 90.6288 12.5784C88.6678 12.0181 86.3565 11.3878 86.3565 8.72634C86.3565 6.34506 88.3876 4.87427 90.979 4.87427C93.0101 4.87427 94.7611 5.85479 95.6715 7.46566L93.2903 8.6563C92.73 7.74581 91.8895 7.32558 90.909 7.32558Z" fill="white"/>
</g>
<defs>
<clipPath id="clip0_198_825">
<rect width="146.729" height="33.6181" fill="white" transform="translate(0 0.0419922)"/>
</clipPath>
</defs>
</svg>
