<svg width="38" height="22" viewBox="0 0 38 22" fill="none" xmlns="http://www.w3.org/2000/svg">
<path d="M2.93432 11.5659H14.3193V9.59995H2.93432V2.95744H15.2205V0.961704H0.44104V20.7701H15.3106V18.7744H2.93432V11.5659Z" fill="white"/>
<path d="M27.5362 21.2765C34.4754 21.2765 37.5094 16.8084 37.5094 10.851C37.5094 4.98296 34.4754 0.425537 27.5362 0.425537C20.5971 0.425537 17.5932 4.95317 17.5932 10.851C17.5932 16.8382 20.5971 21.2765 27.5362 21.2765ZM20.2066 10.851C20.2066 5.28083 22.4295 2.48084 27.5362 2.48084C32.643 2.48084 34.8959 5.28083 34.8959 10.851C34.8959 16.4212 32.643 19.2212 27.5362 19.2212C22.4295 19.2212 20.2066 16.4212 20.2066 10.851Z" fill="white"/>
</svg>
