<svg width="117" height="31" viewBox="0 0 117 31" fill="none" xmlns="http://www.w3.org/2000/svg">
<path fill-rule="evenodd" clip-rule="evenodd" d="M8.77428 1.0181C3.22012 2.21591 -0.384221 7.75071 0.306099 14.0217C0.857947 19.0366 3.96226 22.8951 8.0736 23.6763C10.1563 24.0721 12.4603 23.3263 14.0651 21.7369C14.5597 21.247 14.9826 20.8462 15.0048 20.8462C15.0269 20.8462 15.095 21.2978 15.1562 21.85C15.3475 23.5782 15.2038 23.4649 17.2047 23.4649H18.9773V17.4418V11.4187H14.22H9.46273V13.2518V15.0849H12.1812H14.8997V15.4896C14.8997 17.0029 13.7839 18.7733 12.3982 19.4589C11.3021 20.0013 9.53868 20.0188 8.4134 19.4987C7.42473 19.0417 6.17764 17.8767 5.60812 16.8782C4.20488 14.4175 4.15952 10.6065 5.50363 8.06914C6.10611 6.93156 7.54893 5.56458 8.7369 5.00574C11.1295 3.88021 14.6067 4.52861 17.4907 6.63792L18.2977 7.22818V4.98654V2.74507L17.2358 2.21364C15.3572 1.27334 13.9754 0.923476 11.8414 0.847532C10.5815 0.802664 9.49212 0.863245 8.77428 1.0181ZM39.0719 1.02805C38.3615 1.34527 37.8374 2.23773 37.8397 3.12601C37.8423 4.0307 38.1291 4.59163 38.8412 5.08483C39.9875 5.87866 41.4832 5.44953 42.0946 4.15151C42.6917 2.88421 42.313 1.77265 41.0604 1.11604C40.2874 0.710834 39.8276 0.690408 39.0719 1.02805ZM97.8127 12.2916V23.4649H99.7666H101.721V12.2916V1.11831H99.7666H97.8127V12.2916ZM25.0089 8.17372C24.4483 8.30553 23.5308 8.60319 22.9701 8.83521L21.9507 9.25718L21.9024 11.1296L21.8542 13.0018L22.561 12.5434C25.1233 10.8813 28.2459 10.7818 29.624 12.3183C29.8262 12.5437 30.0174 12.8796 30.0488 13.0648C30.1003 13.3681 29.8852 13.4398 27.8973 13.7836C26.6825 13.9936 25.197 14.2997 24.5962 14.4636C21.5606 15.2916 20.1696 16.869 20.3792 19.2451C20.491 20.5115 20.9542 21.4631 21.8751 22.3181C23.033 23.393 23.9149 23.7163 25.6886 23.7163C27.4892 23.7163 28.3727 23.3832 29.5644 22.2545L30.3222 21.5366L30.4323 22.0207C30.4929 22.2868 30.6256 22.7206 30.7272 22.9848L30.9119 23.4649H33.1893H35.4667L35.2264 22.9848C35.0943 22.7206 34.8149 21.9548 34.606 21.2826C34.2762 20.2227 34.2114 19.5275 34.118 16.0451C34.0189 12.3583 33.9788 11.9641 33.627 11.2266C33.0843 10.0898 32.1502 9.18647 30.8769 8.56758C29.8913 8.08852 29.587 8.02882 27.9036 7.98395C26.7471 7.95322 25.6378 8.02585 25.0089 8.17372ZM52.7872 8.09009C51.9234 8.36017 51.2844 8.80711 50.5307 9.66832L49.7582 10.5514L49.6705 10.0685C49.6224 9.80293 49.5361 9.29105 49.4788 8.93089L49.3747 8.2762H47.5985H45.8222V15.8705V23.4649H47.7623H49.7026L49.7587 19.4058C49.8144 15.3782 49.8186 15.3388 50.292 14.2998C50.8753 13.0196 51.309 12.5173 52.1936 12.0978C53.4799 11.4878 54.7705 11.7268 55.3361 12.68C55.6547 13.2171 55.6754 13.5626 55.6759 18.3584L55.6766 23.4649H57.6305H59.5844V17.8227C59.5844 11.2862 59.529 10.9283 58.3013 9.52499C57.3065 8.38811 56.1663 7.92092 54.4383 7.94205C53.7645 7.95025 53.0213 8.01694 52.7872 8.09009ZM67.4485 8.17023C63.2562 9.57527 61.2309 15.1073 63.2703 19.583C63.8641 20.8863 65.1255 22.147 66.5037 22.8149C67.5118 23.3034 67.8239 23.3711 69.014 23.3596C70.7204 23.3434 71.7091 22.8999 72.9643 21.5881L73.8563 20.656V21.8542C73.8563 24.2402 72.9803 25.9703 71.3941 26.7165C69.1946 27.7511 66.7931 27.2556 64.3981 25.2732C64.0085 24.9508 63.643 24.687 63.586 24.687C63.5287 24.687 63.5034 25.6887 63.5295 26.9129L63.5771 29.1388L64.6815 29.6912C68.6 31.6513 72.9568 31.216 75.4957 28.6107C75.9769 28.117 76.5753 27.2977 76.8255 26.7902C77.6863 25.0447 77.758 24.2125 77.7612 15.9142L77.7641 8.2762H76.2751H74.786L74.366 8.97453C74.1349 9.35861 73.8825 9.67286 73.8048 9.67286C73.7272 9.67286 73.4203 9.48536 73.1228 9.25631C71.9257 8.33434 71.1161 8.04139 69.6087 7.98465C68.704 7.9506 67.8971 8.01991 67.4485 8.17023ZM85.2154 8.32037C82.6826 9.23221 80.925 11.2273 80.2263 13.9838C79.4302 17.1244 80.6934 20.5543 83.3014 22.3329C84.7866 23.3458 85.92 23.6863 87.8734 23.7062C89.8009 23.7257 91.256 23.3491 93.2605 22.312L94.4147 21.7147V19.6878V17.6611L94.0324 17.9446C93.2092 18.5553 91.9079 19.2929 91.0166 19.6541C89.6699 20.1997 87.6452 20.1936 86.5991 19.6407C85.3221 18.9657 84.5487 18.0385 84.1459 16.6998L84.0276 16.307H89.5583H95.089L94.9918 15.2159C94.7006 11.9515 93.4732 9.89999 91.0859 8.68769C89.9217 8.09655 89.6762 8.03859 88.0812 7.97889C86.595 7.92337 86.1813 7.9726 85.2154 8.32037ZM108.181 8.20689C105.155 9.04262 103.535 11.8464 104.706 14.2251C105.323 15.4807 106.789 16.3068 109.791 17.0914C111.83 17.6242 112.32 17.9442 112.391 18.7889C112.433 19.2946 112.35 19.483 111.919 19.8557C110.529 21.0571 107.486 20.6026 105.093 18.8365L104.269 18.2279V20.2096V22.1911L105.416 22.729C106.693 23.3284 108.756 23.8156 109.996 23.8111C111.048 23.8071 112.891 23.4036 113.852 22.9666C114.849 22.5136 116.137 21.2812 116.524 20.4097C116.895 19.5748 116.94 17.9322 116.612 17.1279C116.321 16.4104 115.311 15.4955 114.336 15.0664C113.92 14.8831 112.661 14.4671 111.537 14.1418C109.076 13.429 108.43 12.951 108.862 12.1601C109.238 11.4716 109.804 11.2495 111.186 11.2467C112.525 11.2439 113.758 11.6271 115.179 12.4882L115.992 12.9809V11.1427V9.30432L115.1 8.88584C113.059 7.92791 110.205 7.64788 108.181 8.20689ZM38.1765 15.8705V23.4649H40.1304H42.0843V15.8705V8.2762H40.1304H38.1765V15.8705ZM89.112 11.2256C89.4586 11.4073 89.8731 11.7048 90.0332 11.8866C90.4044 12.3085 90.8662 13.4353 90.7267 13.5788C90.5879 13.7214 84.6496 13.722 84.511 13.5793C84.3591 13.4234 84.9648 12.2734 85.437 11.8209C86.3995 10.8984 87.9952 10.6399 89.112 11.2256ZM71.994 11.8265C72.3246 11.9889 72.8872 12.3691 73.244 12.6713L73.8928 13.2209L73.8235 14.9821C73.7309 17.3294 73.1383 18.4841 71.6119 19.291C69.3267 20.4987 66.6864 18.5249 66.6864 15.6087C66.6864 13.8908 67.4305 12.5722 68.8028 11.8581C69.8223 11.3277 70.9557 11.3164 71.994 11.8265ZM30.4508 16.7775C29.8972 19.8097 26.5909 21.713 24.8985 19.9738C23.9165 18.9649 24.4447 17.7098 26.1157 17.0815C26.7127 16.8571 29.6279 16.2243 30.4222 16.1467C30.5028 16.1389 30.5157 16.4228 30.4508 16.7775Z" fill="white"/>
</svg>
