<svg width="88" height="18" viewBox="0 0 88 18" fill="none" xmlns="http://www.w3.org/2000/svg">
<g clip-path="url(#clip0_198_892)">
<path d="M8.27657 13.2127C8.25186 13.2042 4.49406 0.796387 4.49406 0.796387H0.53006L5.97524 17.0524H10.5779L16.1142 0.796387H12.3325L8.2758 13.2127M17.044 17.0524H20.8034V0.796387H17.044V17.0524ZM46.44 0.796387H34.1147V3.7078H38.3537V17.0501H42.113V3.7078H46.44V0.796387ZM50.1661 10.2202L52.2875 4.03446H52.3624L54.4838 10.2202H50.1661ZM49.8116 0.796387L43.9958 17.0524H47.8779L49.1815 13.1842H55.4754L56.7859 17.0532H60.8418L54.9773 0.796387H49.8116ZM80.3212 14.1186V10.2287H86.2977V7.34127H80.3212V3.7078H86.7533V0.796387H76.5912V17.0501H86.9124V14.1178L80.3212 14.1186ZM30.9323 7.59457L28.651 6.7196C27.1961 6.16203 26.6262 5.74655 26.6262 5.016C26.6262 4.20204 27.3181 3.56416 29.5291 3.56416C30.9022 3.56416 32.2969 3.87229 32.9703 4.06612V0.877474C32.6722 0.814149 31.1694 0.50293 29.024 0.50293C25.0129 0.50293 22.802 2.35171 22.802 5.27779C22.802 8.08495 24.9519 9.21631 26.7613 9.91906C27.2293 10.1013 28.2363 10.4805 28.5977 10.618C30.045 11.1663 30.638 11.7285 30.638 12.5393C30.638 13.6537 29.7832 14.2924 27.6618 14.2924C25.3373 14.2924 23.8113 13.6437 23.4012 13.4707V16.7628C23.8206 16.8709 25.7165 17.3451 28.1344 17.3451C32.0073 17.3451 34.409 15.3758 34.409 12.354C34.409 9.99474 33.1409 8.44096 30.9323 7.59379M68.2377 10.2295H70.902V14.1974C70.5325 14.2637 70.1576 14.2957 69.7822 14.2931C66.28 14.2931 64.0428 12.0906 64.0428 8.92439C64.0428 6.0153 66.0344 3.56338 70.0255 3.56338C72.2457 3.56338 74.2034 4.12945 74.5409 4.2283V1.03888C74.137 0.93076 72.6303 0.503702 70.0255 0.503702C63.5354 0.503702 60.2101 3.92171 60.2101 8.92439C60.2101 14.5271 64.2413 17.3459 69.8324 17.3459C72.5199 17.3459 74.1076 16.9149 74.5941 16.7968V7.34127H67.2044L68.2377 10.2295Z" fill="white"/>
</g>
<defs>
<clipPath id="clip0_198_892">
<rect width="86.4928" height="16.9897" fill="white" transform="translate(0.529907 0.356201)"/>
</clipPath>
</defs>
</svg>
