<svg width="121" height="26" viewBox="0 0 121 26" fill="none" xmlns="http://www.w3.org/2000/svg">
<g clip-path="url(#clip0_198_851)">
<path fill-rule="evenodd" clip-rule="evenodd" d="M0.544678 0.494873H25.3102V25.2071H0.544678V0.494873ZM7.80929 6.50812L12.102 14.4984V19.688H13.753V14.5808L18.0457 6.50812H16.2296L13.753 11.5329C13.5879 11.7801 13.4228 12.0272 13.3402 12.2743C13.2927 12.464 13.2179 12.599 13.1471 12.7266C13.095 12.8207 13.0451 12.9108 13.01 13.0157C12.9688 12.9745 12.9481 12.9127 12.9275 12.8509C12.9068 12.7891 12.8862 12.7274 12.8449 12.6862C12.8037 12.6038 12.783 12.542 12.7624 12.4802C12.7417 12.4185 12.7211 12.3567 12.6798 12.2743V12.1919L12.5973 12.1096C12.5657 12.0466 12.5463 11.9957 12.5296 11.9522C12.5027 11.8819 12.4832 11.831 12.4322 11.7801C12.3496 11.6977 12.2671 11.6153 12.2671 11.5329L9.79052 6.50812H7.80929Z" fill="white"/>
<path d="M36.6198 5.27246C37.8581 5.27246 38.9312 5.60196 39.7567 6.26095L38.9312 7.24944C38.1883 6.75519 37.4453 6.4257 36.5372 6.4257C35.1339 6.4257 34.0607 7.16707 33.4828 8.56742C33.1526 9.39117 32.9875 10.462 32.9875 11.8624C32.9875 12.9333 33.1526 13.8394 33.4003 14.4984C34.0607 16.0635 35.1339 16.8048 36.7849 16.8048C37.693 16.8048 38.5185 16.5577 39.2614 15.9811L40.087 17.052C39.0138 17.7109 37.8581 18.0404 36.6198 18.0404C35.1339 18.0404 33.8956 17.4638 32.905 16.2282C31.9143 15.075 31.5016 13.5099 31.5016 11.6153C31.5016 9.72066 31.9969 8.23793 32.9875 7.00232C33.8956 5.93145 35.1339 5.27246 36.6198 5.27246Z" fill="white"/>
<path d="M41.3252 13.4274C41.3252 11.9446 41.6554 10.7914 42.3984 9.96764C43.1414 9.1439 44.0494 8.64966 45.2051 8.64966C46.526 8.64966 47.5991 9.1439 48.3421 10.2148C48.92 11.0385 49.1676 12.1917 49.1676 13.5921C49.1676 15.2396 48.6723 16.5576 47.7643 17.3813C47.1038 17.9579 46.2783 18.2874 45.2877 18.2874C44.0494 18.2874 43.1414 17.8756 42.3984 16.9694C41.6554 16.1457 41.3252 14.9101 41.3252 13.4274ZM47.1038 11.0385C46.6911 10.2971 46.1132 9.88527 45.2051 9.88527C44.2971 9.88527 43.7192 10.2148 43.3065 10.8738C42.9763 11.368 42.8937 12.1917 42.8937 13.2626C42.8937 14.663 43.0588 15.6515 43.4716 16.2281C43.8843 16.8047 44.4622 17.1342 45.2877 17.1342C46.2783 17.1342 46.9387 16.6399 47.2689 15.7338C47.434 15.2396 47.5166 14.5806 47.5166 13.7569C47.5991 12.5212 47.434 11.6151 47.1038 11.0385Z" fill="white"/>
<path d="M51.8092 11.2033C51.8092 10.2971 51.7267 9.55577 51.479 8.97916L52.8824 8.64966C53.13 9.06153 53.2126 9.55577 53.2126 9.96764V10.05C53.5428 9.72052 53.873 9.39103 54.3683 9.1439C54.9462 8.81441 55.4415 8.64966 55.9368 8.64966C56.6798 8.64966 57.3402 8.97915 57.7529 9.55577C57.8355 9.72052 58.0006 9.96764 58.0831 10.1324C59.0738 9.1439 59.9818 8.64966 60.9724 8.64966C61.6329 8.64966 62.2107 8.89678 62.6235 9.30865C63.0362 9.8029 63.2839 10.3795 63.2839 11.0385V17.8756H61.798V11.1209C61.798 10.2148 61.3852 9.8029 60.6422 9.8029C60.2295 9.8029 59.7342 9.96764 59.3214 10.2971C59.1563 10.4619 58.8261 10.709 58.4133 11.0385L58.2482 11.2033V17.8756H56.6798V11.4504C56.6798 10.8738 56.5972 10.4619 56.4321 10.2971C56.1844 10.05 55.9368 9.96764 55.524 9.96764C54.8636 9.96764 54.1207 10.3795 53.2126 11.2033V17.9579H51.8092V11.2033Z" fill="white"/>
<path d="M65.8431 4.94302L67.329 4.61353C67.4941 5.27252 67.5767 6.01388 67.5767 6.92V8.97935C67.5767 9.4736 67.5767 9.80309 67.5767 9.96784C68.4022 9.1441 69.3102 8.73223 70.2183 8.73223C71.2915 8.73223 72.1996 9.1441 72.7774 9.96784C73.4378 10.7916 73.768 11.9448 73.768 13.3452C73.768 14.8279 73.4378 15.9811 72.7774 16.8873C72.117 17.7934 71.2089 18.2052 70.1358 18.2052C69.6405 18.2052 69.2277 18.1229 68.7324 17.8758C68.2371 17.6286 67.9069 17.3815 67.6592 17.052C67.5767 17.4639 67.4941 17.7934 67.4116 18.0405H66.0082C66.1733 17.6286 66.2558 16.8873 66.2558 15.734V7.08475C66.1733 6.09626 66.0907 5.35489 65.8431 4.94302ZM68.2371 10.5445C67.9894 10.7092 67.7418 10.9563 67.5767 11.2035V15.8988C68.1545 16.6401 68.8975 16.9696 69.8056 16.9696C70.5485 16.9696 71.1264 16.7225 71.4566 16.1459C71.8693 15.4869 72.117 14.5808 72.117 13.2628C72.117 12.1096 71.9519 11.2858 71.5391 10.7916C71.2089 10.2973 70.6311 10.0502 69.8056 10.0502C69.3102 9.96784 68.7324 10.1326 68.2371 10.5445Z" fill="white"/>
<path d="M75.9143 6.09635C75.9143 5.76686 75.9968 5.51973 76.2445 5.27261C76.4921 5.02549 76.7398 4.94312 77.07 4.94312C77.4002 4.94312 77.6479 5.02549 77.8955 5.27261C78.1432 5.51973 78.2257 5.76686 78.2257 6.09635C78.2257 6.42585 78.1432 6.67297 77.8955 6.92009C77.6479 7.16722 77.4002 7.24959 77.07 7.24959C76.7398 7.24959 76.4921 7.16722 76.2445 6.92009C75.9968 6.67297 75.9143 6.42585 75.9143 6.09635ZM76.2445 17.9582V8.89707L77.7304 8.64995V17.9582H76.2445Z" fill="white"/>
<path d="M80.95 11.2033C80.95 10.5443 80.95 10.1324 80.8675 9.96764C80.8675 9.72052 80.7024 9.4734 80.5373 9.06153L81.9406 8.64966C82.1883 9.1439 82.2708 9.55577 82.2708 10.05C83.1789 9.1439 84.1695 8.64966 85.1602 8.64966C85.6555 8.64966 86.0682 8.73203 86.481 8.97916C86.8937 9.22628 87.2239 9.55577 87.389 9.96764C87.5541 10.2971 87.6367 10.6266 87.6367 11.0385V17.9579H86.2333V11.7799C86.2333 11.0385 86.1508 10.5443 85.9031 10.2971C85.6555 10.05 85.3253 9.88527 84.9125 9.88527C84.5823 9.88527 84.087 10.05 83.5917 10.2971C83.0964 10.5443 82.6836 10.8738 82.3534 11.2033V17.9579H80.95V11.2033Z" fill="white"/>
<path d="M90.9388 10.8738L90.1958 9.88527C91.4341 9.06153 92.6724 8.64966 93.9932 8.64966C95.314 8.64966 96.1395 9.1439 96.5523 10.05C96.7174 10.3795 96.7174 10.8738 96.7174 11.6151V12.1094L96.6348 15.0748C96.6348 15.1572 96.6348 15.322 96.6348 15.4867C96.6348 15.981 96.6348 16.3104 96.7174 16.5576C96.7999 16.8871 97.0476 17.1342 97.3778 17.2989L96.6348 18.2874C95.9744 18.0403 95.5617 17.6284 95.3966 16.9694C94.571 17.7932 93.663 18.2051 92.7549 18.2051C91.8468 18.2051 91.1039 17.9579 90.526 17.4637C90.0307 17.0518 89.7831 16.3928 89.7831 15.5691C89.7831 14.4982 90.1958 13.7569 91.0213 13.1802C91.8468 12.6036 93.0851 12.3565 94.571 12.3565C94.8187 12.3565 94.9838 12.3565 95.2315 12.3565V11.6975C95.2315 10.9561 95.1489 10.4619 94.9013 10.2971C94.571 9.96764 94.2408 9.8029 93.663 9.8029C93.1677 9.8029 92.5898 9.96764 91.9294 10.2148C91.6817 10.3795 91.3515 10.6266 90.9388 10.8738ZM95.314 15.7338L95.3966 13.345C94.9838 13.345 94.7361 13.345 94.6536 13.345C93.3328 13.345 92.5073 13.5921 92.0119 14.0863C91.6817 14.4158 91.5166 14.9101 91.5166 15.5691C91.5166 16.6399 92.0119 17.2166 93.0851 17.2166C94.0757 17.1342 94.8187 16.6399 95.314 15.7338Z" fill="white"/>
<path d="M101.423 8.89696H103.734L103.321 10.0502H101.423V15.8988C101.423 16.393 101.505 16.7225 101.67 16.9696C101.835 17.1344 102.166 17.2991 102.578 17.2991C102.909 17.2991 103.239 17.2167 103.487 17.1344L103.652 18.0405C103.156 18.2876 102.661 18.37 102.083 18.37C100.68 18.37 100.019 17.711 100.019 16.3106V10.0502H98.7811V8.89696H99.9368V8.73221C99.9368 8.56746 100.019 7.90847 100.102 6.8376V6.59048L101.588 6.26099C101.423 7.24948 101.423 8.15559 101.423 8.89696Z" fill="white"/>
<path d="M105.22 13.4274C105.22 11.9446 105.55 10.7914 106.293 9.96764C106.954 9.1439 107.944 8.64966 109.1 8.64966C110.421 8.64966 111.494 9.1439 112.237 10.2148C112.815 11.0385 113.063 12.1917 113.063 13.5921C113.063 15.2396 112.567 16.5576 111.659 17.3813C110.999 17.9579 110.173 18.2874 109.183 18.2874C107.944 18.2874 107.036 17.8756 106.293 16.9694C105.633 16.1457 105.22 14.9101 105.22 13.4274ZM111.081 11.0385C110.669 10.2971 110.091 9.88527 109.183 9.88527C108.275 9.88527 107.697 10.2148 107.284 10.8738C106.954 11.368 106.871 12.1917 106.871 13.2626C106.871 14.663 107.036 15.6515 107.449 16.2281C107.862 16.8047 108.44 17.1342 109.265 17.1342C110.256 17.1342 110.916 16.6399 111.247 15.7338C111.412 15.2396 111.494 14.5806 111.494 13.7569C111.494 12.5212 111.329 11.6151 111.081 11.0385Z" fill="white"/>
<path d="M115.787 11.0385C115.787 10.2148 115.704 9.55577 115.457 9.06153L116.86 8.64966C117.108 9.1439 117.19 9.55577 117.19 10.05V10.2148C117.933 9.22628 118.759 8.73203 119.749 8.73203C119.914 8.73203 120.08 8.73203 120.245 8.81441L119.667 10.3795C119.502 10.2971 119.337 10.2971 119.254 10.2971C118.924 10.2971 118.511 10.3795 118.181 10.6266C117.851 10.8738 117.52 11.1209 117.355 11.4504C117.273 11.6975 117.19 12.027 117.19 12.4389V18.1227H115.787V11.0385Z" fill="white"/>
</g>
<defs>
<clipPath id="clip0_198_851">
<rect width="119.7" height="24.7122" fill="white" transform="translate(0.544678 0.494873)"/>
</clipPath>
</defs>
</svg>
