<svg width="114" height="42" viewBox="0 0 114 42" fill="none" xmlns="http://www.w3.org/2000/svg">
<path d="M21.4228 3.14853L28.2448 14.9734H14.6007L21.4228 3.14853Z" fill="white"/>
<path d="M21.3879 14.9736L24.8164 20.8511H17.9594L21.3879 14.9736Z" fill="white"/>
<path d="M14.5656 14.9736L17.9592 20.8511H11.1721L14.5656 14.9736Z" fill="white"/>
<path d="M28.2097 14.9736L31.6034 20.8511H24.8163L28.2097 14.9736Z" fill="white"/>
<path d="M14.5656 26.7286L17.9592 32.676H11.1721L14.5656 26.7286Z" fill="white"/>
<path d="M28.2097 26.7286L31.6034 32.676H24.8163L28.2097 26.7286Z" fill="white"/>
<path d="M11.1722 20.8511L14.6007 26.7285H7.74371L11.1722 20.8511Z" fill="white"/>
<path d="M21.3879 26.7286L24.8164 32.676H17.9594L21.3879 26.7286Z" fill="white"/>
<path d="M17.9943 20.8511L21.3878 26.7285H14.6007L17.9943 20.8511Z" fill="white"/>
<path d="M24.7813 20.8511L28.1748 26.7285H21.3878L24.7813 20.8511Z" fill="white"/>
<path d="M17.9943 32.6758L21.3878 38.5532H14.6007L17.9943 32.6758Z" fill="white"/>
<path d="M24.7813 32.6758L28.1748 38.5532H21.3878L24.7813 32.6758Z" fill="white"/>
<path d="M31.6034 20.8511L35.0318 26.7285H28.1748L31.6034 20.8511Z" fill="white"/>
<path d="M7.77872 26.7284L14.6008 38.5532H0.956696L7.77872 26.7284Z" fill="white"/>
<path d="M34.9968 26.7284L41.8189 38.5532H28.1748L34.9968 26.7284Z" fill="white"/>
<path d="M18.5322 28.4266H24.2436L21.3879 23.4728L18.5322 28.4266Z" fill="black" stroke="white" stroke-width="0.661935"/>
<g clip-path="url(#clip0_198_867)">
<path d="M109.216 21.0554C109.216 22.5999 108.912 24.1292 108.321 25.556C107.73 26.9829 106.864 28.2794 105.773 29.3715C104.681 30.4636 103.385 31.3299 101.959 31.9209C100.532 32.5119 99.0034 32.8161 97.4595 32.8161C94.3415 32.8161 91.3512 31.5771 89.1464 29.3715C86.9416 27.1659 85.703 24.1746 85.703 21.0554C85.703 17.9363 86.9416 14.9449 89.1464 12.7393C91.3512 10.5338 94.3415 9.29468 97.4595 9.29468C99.0034 9.29468 100.532 9.59888 101.959 10.1899C103.385 10.7809 104.681 11.6472 105.773 12.7393C106.864 13.8314 107.73 15.1279 108.321 16.5548C108.912 17.9817 109.216 19.511 109.216 21.0554ZM105.985 21.0514C105.985 18.7894 105.087 16.6201 103.488 15.0206C101.889 13.4211 99.7207 12.5226 97.4595 12.5226C95.1984 12.5226 93.0298 13.4211 91.4309 15.0206C89.832 16.6201 88.9337 18.7894 88.9337 21.0514C88.9337 23.3134 89.832 25.4827 91.4309 27.0822C93.0298 28.6817 95.1984 29.5802 97.4595 29.5802C99.7207 29.5802 101.889 28.6817 103.488 27.0822C105.087 25.4827 105.985 23.3134 105.985 21.0514Z" fill="white"/>
<path d="M52.7823 20.9952L59.1757 9.87607C59.2078 9.82034 59.2518 9.77311 59.3041 9.73826C59.3564 9.7034 59.4154 9.68192 59.4763 9.67558C60.6494 9.55796 61.8185 9.57266 62.9836 9.71969C63.0063 9.7232 63.0279 9.73194 63.0465 9.74513C63.0652 9.75833 63.0803 9.77558 63.0906 9.79537C63.1009 9.81517 63.106 9.8369 63.1055 9.85866C63.1051 9.88042 63.099 9.90154 63.0878 9.92018L54.5981 24.6602C54.4618 24.8954 54.3937 25.1507 54.3937 25.4261V32.2788C54.3937 32.332 54.3726 32.383 54.335 32.4206C54.2974 32.4582 54.2464 32.4793 54.1933 32.4793H51.195C51.1676 32.4793 51.1405 32.4739 51.1152 32.4634C51.09 32.4529 51.067 32.4376 51.0476 32.4182C51.0283 32.3989 51.0129 32.3759 51.0024 32.3506C50.992 32.3253 50.9866 32.2982 50.9866 32.2708V25.4581C50.9866 25.2149 50.9265 24.989 50.8062 24.7805L42.2964 10.0004C42.1521 9.75177 42.2216 9.62746 42.5049 9.62746L45.8519 9.6435C45.9116 9.64334 45.9708 9.65994 46.0236 9.69163C46.0764 9.72332 46.1209 9.76897 46.1525 9.82394L52.614 20.9952C52.6701 21.0915 52.7262 21.0915 52.7823 20.9952Z" fill="white"/>
<path d="M69.8379 25.8714C69.758 25.8692 69.6784 25.8834 69.6039 25.913C69.5294 25.9427 69.4614 25.9871 69.4039 26.0439C69.3464 26.1007 69.3006 26.1685 69.2691 26.2436C69.2377 26.3186 69.2212 26.3993 69.2206 26.4809L69.2046 32.1507C69.2037 32.213 69.1823 32.2724 69.1449 32.3166C69.1076 32.3607 69.0571 32.386 69.0042 32.3873L66.2104 32.4394C66.1594 32.4405 66.1087 32.4306 66.0614 32.4101C66.014 32.3896 65.9709 32.359 65.9346 32.3201C65.8984 32.2812 65.8697 32.2348 65.8503 32.1837C65.8308 32.1325 65.8211 32.0777 65.8215 32.0224L65.8897 9.90034C65.8897 9.8464 65.911 9.79455 65.9491 9.75567C65.9872 9.71679 66.0392 9.69391 66.0941 9.69183C68.4724 9.60896 70.852 9.58624 73.233 9.62367C74.4435 9.64238 75.5017 9.72391 76.4076 9.86826C77.4819 10.042 78.4573 10.4123 79.3337 10.979C81.0948 12.1151 82.2305 13.6615 82.7409 15.6183C83.2192 17.4521 83.0909 19.2458 82.3561 20.9995C81.5677 22.8814 80.2143 24.2568 78.2956 25.1255C77.3469 25.5533 76.0736 25.7925 74.4756 25.8433C72.8776 25.8914 71.3317 25.9008 69.8379 25.8714ZM77.7504 13.834C76.9648 13.2592 76.3275 12.9585 75.8385 12.9317C73.8369 12.8248 71.7392 12.7927 69.5453 12.8355C69.4862 12.8376 69.4301 12.8622 69.389 12.9041C69.3478 12.9459 69.3249 13.0019 69.3249 13.0601L69.3489 22.435C69.3489 22.4875 69.3699 22.5378 69.4074 22.5753C69.4449 22.6128 69.4958 22.6344 69.5493 22.6355C72.406 22.6756 74.2351 22.6822 75.0368 22.6555C76.5867 22.602 77.7932 22.046 78.6563 20.9874C79.4714 19.9903 79.8629 18.8382 79.8308 17.531C79.7934 16.0581 79.0999 14.8257 77.7504 13.834Z" fill="white"/>
</g>
<defs>
<clipPath id="clip0_198_867">
<rect width="75.3573" height="41.7019" fill="white" transform="translate(38.4604)"/>
</clipPath>
</defs>
</svg>
