<?xml version="1.0" encoding="UTF-8" standalone="no"?>
<!-- Created with Inkscape (http://www.inkscape.org/) -->

<svg
   xmlns:dc="http://purl.org/dc/elements/1.1/"
   xmlns:cc="http://creativecommons.org/ns#"
   xmlns:rdf="http://www.w3.org/1999/02/22-rdf-syntax-ns#"
   xmlns:svg="http://www.w3.org/2000/svg"
   xmlns="http://www.w3.org/2000/svg"
   xmlns:sodipodi="http://sodipodi.sourceforge.net/DTD/sodipodi-0.dtd"
   xmlns:inkscape="http://www.inkscape.org/namespaces/inkscape"
   width="1000"
   height="1000"
   viewBox="0 0 264.58333 264.58334"
   version="1.1"
   id="svg8"
   sodipodi:docname="AXA (Print).svg"
   inkscape:version="0.92.2 (5c3e80d, 2017-08-06)">
  <defs
     id="defs2" />
  <sodipodi:namedview
     id="base"
     pagecolor="#ffffff"
     bordercolor="#666666"
     borderopacity="1.0"
     inkscape:pageopacity="0.0"
     inkscape:pageshadow="2"
     inkscape:zoom="0.35355339"
     inkscape:cx="444.63578"
     inkscape:cy="436.71229"
     inkscape:document-units="px"
     inkscape:current-layer="layer1"
     showgrid="false"
     units="px"
     inkscape:window-width="1366"
     inkscape:window-height="705"
     inkscape:window-x="-8"
     inkscape:window-y="-8"
     inkscape:window-maximized="1" />
  <metadata
     id="metadata5">
    <rdf:RDF>
      <cc:Work
         rdf:about="">
        <dc:format>image/svg+xml</dc:format>
        <dc:type
           rdf:resource="http://purl.org/dc/dcmitype/StillImage" />
        <dc:title></dc:title>
      </cc:Work>
    </rdf:RDF>
  </metadata>
  <g
     inkscape:label="Layer 1"
     inkscape:groupmode="layer"
     id="layer1"
     transform="translate(0,-32.416659)">
    <path
       style="fill:#000000;stroke-width:2.50008106"
       d="M 0 0 L 0 871.97266 C 0.79982084 871.10888 1.4405801 870.46957 1.7285156 870.18164 C 3.0402219 869.28589 65.938205 791.16314 123.78125 714.19336 C 175.67362 647.10871 224.39729 581.81627 228.65234 575.57812 C 238.95404 560.54246 253.95898 528.13477 253.95898 528.13477 L 330.83789 528.13477 C 330.83789 528.13477 333.11011 557.95098 335.34961 565.21289 C 337.42914 571.64304 384.23379 725.22978 385.35352 726.86133 L 411.23633 693.7207 L 366.95703 557.56641 C 366.95703 557.56641 356.65564 531.90968 353.23242 528.13477 L 443.03711 528.13477 C 443.03711 528.13477 442.26808 541.31545 445.94727 552.57617 C 449.62645 563.80492 468.82227 633.25781 468.82227 633.25781 C 468.82227 633.25781 530.08943 556.41453 533.64062 550.91211 C 540.45508 541.66678 541.19141 528.13477 541.19141 528.13477 L 615.99023 528.13477 C 615.99023 528.13477 602.29737 538.05333 578.30273 568.47656 C 570.20854 578.71356 491.21875 679.03516 491.21875 679.03516 C 491.21875 679.03516 498.06429 702.58191 501.51953 714.22656 C 502.35133 717.61755 502.99219 719.88739 502.99219 720.11133 C 502.99219 720.23945 504.68649 718.12942 507.75781 714.22656 C 528.16923 688.41001 620.85317 566.94068 626.41992 556.51172 C 630.96291 548.00215 637.58563 538.56377 641.55273 528.13477 L 714.56055 528.13477 C 714.56055 528.13477 716.25492 549.85659 718.39844 555.9668 L 764.18164 714.22656 C 781.55375 763.04449 817.57762 889.91904 831.81445 899.99609 L 737.4668 899.99609 C 737.4668 899.99609 737.14669 881.31314 732.92383 866.69336 C 728.95672 852.26554 694.94922 742.53711 694.94922 742.53711 L 545.0293 742.53711 L 521.58008 775.93555 C 521.58008 775.93555 549.89301 864.51817 551.55664 868.70898 C 554.62792 876.57872 568.12891 899.99609 568.12891 899.99609 L 477.74805 899.99609 C 477.74805 899.99609 475.44614 886.49632 474.48633 880.83398 C 473.91044 876.32327 465.97656 851.37109 465.97656 851.37109 C 465.97656 851.37109 445.40366 873.82686 439.96484 884.25586 C 434.20617 894.65285 431.80664 899.96484 431.80664 899.96484 L 361.13477 899.96484 C 361.13477 899.96484 358.76763 886.46511 357.83984 880.80273 C 357.19998 876.29206 348.43359 849.32227 348.43359 849.32227 C 348.43359 849.32227 328.72599 873.47632 323.03125 883.77734 C 317.43251 894.14232 315.0332 899.96484 315.0332 899.96484 L 245.0332 899.96484 C 245.0332 899.96484 264.80412 881.28266 271.81055 873.125 C 283.42395 859.33698 326.83789 802.67969 326.83789 802.67969 L 309.43555 742.50586 L 160.76367 742.50586 C 160.76367 742.50586 75.982486 853.89731 72.783203 857.32031 C 69.200007 860.67933 44.5981 896.15795 43.990234 899.96484 L 0 899.96484 L 0 1000 L 1000 1000 L 1000 0 L 619.66992 493.8418 L 562.40234 493.8418 L 943.88477 0 L 0 0 z M 270.27344 597.96094 C 270.07473 597.92063 269.78679 598.23978 269.37891 599.1875 C 258.56533 622.25286 195.57227 699.0293 195.57227 699.0293 L 295.45312 699.0293 C 295.45313 699.0293 276.06555 639.39857 272.73828 625.89844 C 269.9549 615.30952 270.69141 601.45818 270.69141 599.89062 C 270.69141 599.09089 270.60462 598.02811 270.27344 597.96094 z M 654.06445 597.96094 C 653.85359 597.92063 653.54544 598.23978 653.10156 599.1875 C 642.41597 622.25286 579.39062 699.0293 579.39062 699.0293 L 679.27148 699.0293 C 679.27148 699.0293 659.81946 639.39857 656.49219 625.89844 C 653.77282 615.30952 654.47656 601.45818 654.47656 599.89062 C 654.49546 599.09089 654.41589 598.02811 654.06445 597.96094 z M 429.2168 744.48828 L 402.66211 778.91211 L 419.74609 831.98438 L 447.22852 794.20312 C 444.60511 791.45194 429.2168 744.48828 429.2168 744.48828 z "
       transform="matrix(0.26458333,0,0,0.26458333,0,32.416659)"
       id="rect3" />
  </g>
</svg>
