<svg width="540" height="291" viewBox="0 0 540 291" fill="none" xmlns="http://www.w3.org/2000/svg" style="opacity:0.6">
<mask id="mask0_91_26241" style="mask-type:alpha" maskUnits="userSpaceOnUse" x="0" y="0" width="540" height="291">
<rect width="540" height="291" rx="24" fill="#212121"/>
</mask>
<g mask="url(#mask0_91_26241)">
<path opacity="0.15" d="M691 144.68H423.736L681.892 75.5059L681.466 73.9196L423.309 143.093L654.767 9.46109L653.946 8.03891L422.489 141.671L611.472 -47.312L610.312 -48.4717L421.329 140.511L554.961 -90.9462L553.539 -91.7667L419.907 139.691L489.08 -118.466L487.494 -118.892L418.321 139.264V-128H416.68V139.264L347.506 -118.892L345.92 -118.466L415.093 139.691L281.461 -91.7667L280.039 -90.9462L413.671 140.511L224.688 -48.4717L223.528 -47.312L412.511 141.671L143 -14L142.18 -12.5778L411.691 143.093L-39.5733 15.4137L-40 17L411.264 144.68H-64.5V146.321H411.264L-49.4267 279.953L-49 281.539L411.691 147.907L103.18 322.078L104 323.5L412.511 149.329L223.528 338.312L224.688 339.472L413.671 150.489L280.039 381.946L281.461 382.767L415.093 151.309L345.92 409.466L347.506 409.892L416.68 151.736V419H418.321V151.736L487.494 409.892L489.08 409.466L419.907 151.309L553.539 382.767L554.961 381.946L421.329 150.489L610.312 339.472L611.472 338.312L422.489 149.329L653.946 282.961L654.767 281.539L423.309 147.907L681.466 217.08L681.892 215.494L423.736 146.321H691V144.68Z" fill="url(#paint0_radial_91_26241)"/>
</g>
<defs>
<radialGradient id="paint0_radial_91_26241" cx="0" cy="0" r="1" gradientUnits="userSpaceOnUse" gradientTransform="translate(414 145) rotate(113.641) scale(135.906 182.267)">
<stop stop-color="#0AA5FE"/>
<stop offset="0.255208" stop-color="#02DDEB"/>
<stop offset="0.46875" stop-color="#FDD13B"/>
<stop offset="0.729167" stop-color="#FF8F81"/>
<stop offset="1" stop-color="#C14ECF"/>
</radialGradient>
</defs>
</svg>
