<svg width="41" height="40" viewBox="0 0 41 40" fill="none" xmlns="http://www.w3.org/2000/svg">
<path d="M27.5295 25.9382C26.2353 27.0652 24.6192 28.4676 21.6887 28.4676H19.9363C17.8157 28.4676 15.8869 27.7112 14.5064 26.3402C13.1578 25.0005 12.4154 23.167 12.4154 21.1766V18.8238C12.4154 16.8334 13.1578 14.9999 14.5064 13.6602C15.8869 12.2892 17.8157 11.5339 19.9363 11.5339H21.6887C24.6227 11.5339 26.2353 12.9352 27.5295 14.0622C28.8734 15.2242 30.0325 16.2397 33.124 16.2397C33.5955 16.2396 34.0663 16.2026 34.5318 16.1293L34.5212 16.1026C34.336 15.6513 34.1188 15.2134 33.8711 14.7919L31.805 11.2795C29.911 8.06074 26.3997 6.07166 22.6122 6.07178H18.4788C14.6913 6.07166 11.18 8.06074 9.286 11.2795L7.21987 14.7919C5.32661 18.011 5.32661 21.9894 7.21987 25.2085L9.286 28.7209C11.18 31.9397 14.6913 33.9287 18.4788 33.9286H22.6122C26.3997 33.9287 29.911 31.9397 31.805 28.7209L33.8711 25.2143C34.1188 24.7929 34.336 24.3549 34.5212 23.9036L34.5318 23.8781C34.0665 23.8022 33.5957 23.7634 33.124 23.7619C30.0325 23.7619 28.8734 24.7716 27.5295 25.9393" fill="#396677"/>
<path d="M21.6887 13.666H19.9363C16.7087 13.666 14.5881 15.9283 14.5881 18.8237V21.1766C14.5881 24.0721 16.7087 26.3343 19.9363 26.3343H21.6887C26.3916 26.3343 26.0222 21.6286 33.124 21.6286C33.7969 21.6279 34.4684 21.6886 35.1298 21.8099C35.3453 20.6127 35.3453 19.3876 35.1298 18.1905C34.4682 18.3112 33.7969 18.3719 33.124 18.3718C26.0199 18.3718 26.3916 13.666 21.6887 13.666Z" fill="#396677"/>
<path d="M39.2099 23.5293C38.0005 22.6601 36.6058 22.0717 35.1309 21.8085V21.8434C35.004 22.5372 34.8056 23.2164 34.5389 23.8709C35.7572 24.056 36.9132 24.5233 37.911 25.2338C37.911 25.2431 37.9051 25.2547 37.9016 25.2652C35.5547 32.7226 28.4815 37.8435 20.5281 37.8435C10.5531 37.8435 2.34498 29.7886 2.34498 20C2.34498 10.2114 10.5531 2.15651 20.5281 2.15651C28.4815 2.15651 35.5547 7.27741 37.9016 14.7348C37.9016 14.7452 37.9075 14.7569 37.911 14.7662C36.9134 15.4768 35.7573 15.9436 34.5389 16.1279C34.8053 16.7832 35.0036 17.4633 35.1309 18.1578C35.1302 18.1686 35.1302 18.1795 35.1309 18.1903C36.6056 17.9276 38.0005 17.3396 39.2099 16.4707C40.3726 15.626 40.1477 14.672 39.9712 14.1074C37.3436 5.74426 29.4134 0 20.4953 0C9.31475 0 0.114624 9.02829 0.114624 20C0.114624 30.9717 9.31475 40 20.4953 40C29.4134 40 37.3436 34.2557 39.9712 25.8926C40.1477 25.3279 40.3726 24.374 39.2099 23.5293Z" fill="#396677"/>
<path d="M34.5316 16.1278C34.0663 16.2037 33.5955 16.2425 33.1238 16.244C30.0323 16.244 28.8731 15.2343 27.5305 14.0666C26.2351 12.9395 24.6225 11.5371 21.6885 11.5371H19.9361C17.8143 11.5371 15.8867 12.2935 14.5062 13.6646C13.1575 15.0043 12.4152 16.8378 12.4152 18.8281V21.181C12.4152 23.1713 13.1575 25.0048 14.5062 26.3445C15.8867 27.7156 17.8143 28.4708 19.9361 28.4708H21.6885C24.6225 28.4708 26.2351 27.0696 27.5305 25.9425C28.8731 24.7806 30.0323 23.7651 33.1238 23.7651C33.5953 23.7652 34.066 23.8021 34.5316 23.8755C34.7988 23.2212 34.9972 22.5418 35.1236 21.8479C35.1243 21.8363 35.1243 21.8247 35.1236 21.8131C34.4621 21.6927 33.7906 21.6324 33.1179 21.633C26.0137 21.633 26.3855 26.3399 21.6825 26.3399H19.9302C16.7025 26.3399 14.5819 24.0765 14.5819 21.181V18.8235C14.5819 15.928 16.7025 13.6657 19.9302 13.6657H21.6825C26.3855 13.6657 26.0161 18.3703 33.1179 18.3703C33.7908 18.3715 34.4622 18.3112 35.1236 18.1902V18.1577C34.9963 17.4632 34.798 16.7831 34.5316 16.1278Z" fill="#5ECDF8"/>
<path d="M34.5316 16.1278C34.0663 16.2037 33.5955 16.2425 33.1238 16.244C30.0323 16.244 28.8731 15.2343 27.5305 14.0666C26.2351 12.9395 24.6225 11.5371 21.6885 11.5371H19.9361C17.8143 11.5371 15.8867 12.2935 14.5062 13.6646C13.1575 15.0043 12.4152 16.8378 12.4152 18.8281V21.181C12.4152 23.1713 13.1575 25.0048 14.5062 26.3445C15.8867 27.7156 17.8143 28.4708 19.9361 28.4708H21.6885C24.6225 28.4708 26.2351 27.0696 27.5305 25.9425C28.8731 24.7806 30.0323 23.7651 33.1238 23.7651C33.5953 23.7652 34.066 23.8021 34.5316 23.8755C34.7988 23.2212 34.9972 22.5418 35.1236 21.8479C35.1243 21.8363 35.1243 21.8247 35.1236 21.8131C34.4621 21.6927 33.7906 21.6324 33.1179 21.633C26.0137 21.633 26.3855 26.3399 21.6825 26.3399H19.9302C16.7025 26.3399 14.5819 24.0765 14.5819 21.181V18.8235C14.5819 15.928 16.7025 13.6657 19.9302 13.6657H21.6825C26.3855 13.6657 26.0161 18.3703 33.1179 18.3703C33.7908 18.3715 34.4622 18.3112 35.1236 18.1902V18.1577C34.9963 17.4632 34.798 16.7831 34.5316 16.1278Z" fill="#5ECDF8"/>
</svg>
