<svg width="97" height="96" viewBox="0 0 97 96" fill="none" xmlns="http://www.w3.org/2000/svg">
<ellipse opacity="0.4" cx="60.4921" cy="32" rx="11.9917" ry="12" fill="url(#paint0_linear_135_2533)"/>
<path fill-rule="evenodd" clip-rule="evenodd" d="M64.9491 75.7932C67.2025 73.4871 68.4868 70.8293 68.4868 68C68.4868 61.1948 61.057 55.3819 50.5829 53.069C53.6034 52.3824 56.9586 52 60.4923 52C73.738 52 84.4757 57.3726 84.4757 64C84.4757 69.8654 76.0652 74.748 64.9491 75.7932Z" fill="url(#paint1_linear_135_2533)"/>
<ellipse opacity="0.4" cx="40.506" cy="68" rx="27.9806" ry="16" fill="url(#paint2_linear_135_2533)"/>
<ellipse cx="40.506" cy="28" rx="15.9889" ry="16" fill="url(#paint3_linear_135_2533)"/>
<defs>
<linearGradient id="paint0_linear_135_2533" x1="46.9151" y1="16.0338" x2="81.6786" y2="35.6606" gradientUnits="userSpaceOnUse">
<stop stop-color="#0AA5FE"/>
<stop offset="0.255208" stop-color="#02DDEB"/>
<stop offset="0.46875" stop-color="#FDD13B"/>
<stop offset="0.729167" stop-color="#FF8F81"/>
<stop offset="1" stop-color="#C14ECF"/>
</linearGradient>
<linearGradient id="paint1_linear_135_2533" x1="48.3425" y1="48.068" x2="87.6622" y2="79.7119" gradientUnits="userSpaceOnUse">
<stop stop-color="#0AA5FE"/>
<stop offset="0.255208" stop-color="#02DDEB"/>
<stop offset="0.46875" stop-color="#FDD13B"/>
<stop offset="0.729167" stop-color="#FF8F81"/>
<stop offset="1" stop-color="#C14ECF"/>
</linearGradient>
<linearGradient id="paint2_linear_135_2533" x1="8.82619" y1="46.7118" x2="62.9562" y2="100.193" gradientUnits="userSpaceOnUse">
<stop stop-color="#0AA5FE"/>
<stop offset="0.255208" stop-color="#02DDEB"/>
<stop offset="0.46875" stop-color="#FDD13B"/>
<stop offset="0.729167" stop-color="#FF8F81"/>
<stop offset="1" stop-color="#C14ECF"/>
</linearGradient>
<linearGradient id="paint3_linear_135_2533" x1="22.4033" y1="6.71179" x2="68.7546" y2="32.8808" gradientUnits="userSpaceOnUse">
<stop stop-color="#0AA5FE"/>
<stop offset="0.255208" stop-color="#02DDEB"/>
<stop offset="0.46875" stop-color="#FDD13B"/>
<stop offset="0.729167" stop-color="#FF8F81"/>
<stop offset="1" stop-color="#C14ECF"/>
</linearGradient>
</defs>
</svg>
