<svg xmlns="http://www.w3.org/2000/svg" width="255" height="255" viewBox="0 0 255 255"><rect width="100%" height="100%" fill="#DDDDDD"/><path fill="#999999" d="M60.89 135.88h6.3q.68 0 1.08.38t.4 1.01v2.52H51.81v-1.39q0-.43.18-.9.18-.46.57-.84l7.46-7.48q.94-.95 1.68-1.82.73-.86 1.23-1.71.49-.85.75-1.73.27-.88.27-1.84 0-.89-.26-1.56-.25-.67-.72-1.13-.47-.46-1.12-.69-.66-.23-1.47-.23-.75 0-1.39.21-.64.22-1.13.6-.49.38-.83.89-.34.51-.51 1.12-.29.79-.75 1.04-.46.26-1.33.12l-2.21-.39q.26-1.77.99-3.1.73-1.34 1.83-2.23 1.09-.89 2.51-1.34 1.42-.45 3.06-.45 1.7 0 3.11.5t2.41 1.42q1 .91 1.56 2.21.57 1.29.57 2.87 0 1.36-.4 2.52-.4 1.15-1.07 2.21-.68 1.05-1.58 2.04-.9.98-1.88 2l-5.55 5.66q.8-.24 1.59-.36.79-.13 1.51-.13Zm17.12-16.86-.87 5.11q.82-.17 1.56-.24.75-.08 1.45-.08 1.94 0 3.42.58 1.47.58 2.48 1.6 1 1.02 1.51 2.38.51 1.37.51 2.95 0 1.96-.69 3.57-.69 1.62-1.91 2.77-1.22 1.14-2.9 1.77-1.67.63-3.65.63-1.15 0-2.19-.24-1.04-.23-1.94-.63-.91-.4-1.69-.92-.77-.52-1.38-1.1l1.29-1.78q.41-.58 1.07-.58.42 0 .87.27.44.27 1.01.6.57.32 1.34.59.77.27 1.86.27 1.16 0 2.04-.37.89-.38 1.47-1.05.59-.67.89-1.59.29-.93.29-2.02 0-2.01-1.16-3.14-1.16-1.13-3.44-1.13-1.75 0-3.59.65l-2.62-.75 2.04-11.93h12.14v1.78q0 .9-.56 1.46-.56.57-1.9.57h-6.75Zm19.72 0-.87 5.11q.82-.17 1.56-.24.75-.08 1.45-.08 1.94 0 3.42.58 1.47.58 2.48 1.6 1 1.02 1.51 2.38.51 1.37.51 2.95 0 1.96-.69 3.57-.69 1.62-1.91 2.77-1.22 1.14-2.9 1.77-1.67.63-3.65.63-1.15 0-2.19-.24-1.04-.23-1.94-.63-.91-.4-1.69-.92-.77-.52-1.38-1.1l1.29-1.78q.41-.58 1.07-.58.42 0 .87.27.44.27 1.01.6.57.32 1.34.59.77.27 1.86.27 1.16 0 2.04-.37.89-.38 1.47-1.05.59-.67.89-1.59.29-.93.29-2.02 0-2.01-1.16-3.14-1.16-1.13-3.44-1.13-1.75 0-3.59.65l-2.62-.75 2.04-11.93h12.14v1.78q0 .9-.56 1.46-.56.57-1.9.57h-6.75Zm38.09 15.14-2.22 2.2-5.77-5.77-5.81 5.8-2.23-2.19 5.82-5.83-5.55-5.55 2.21-2.21 5.55 5.55 5.5-5.51 2.25 2.21-5.53 5.52 5.78 5.78Zm20.47 1.72h6.31q.68 0 1.08.38t.4 1.01v2.52h-16.87v-1.39q0-.43.18-.9.18-.46.57-.84l7.46-7.48q.94-.95 1.68-1.82.74-.86 1.23-1.71t.76-1.73q.26-.88.26-1.84 0-.89-.25-1.56-.26-.67-.73-1.13-.46-.46-1.12-.69-.65-.23-1.47-.23-.75 0-1.38.21-.64.22-1.13.6-.5.38-.84.89-.34.51-.51 1.12-.29.79-.75 1.04-.45.26-1.32.12l-2.21-.39q.25-1.77.98-3.1.74-1.34 1.83-2.23 1.1-.89 2.52-1.34 1.42-.45 3.05-.45 1.7 0 3.11.5t2.41 1.42q1.01.91 1.57 2.21.56 1.29.56 2.87 0 1.36-.4 2.52-.4 1.15-1.07 2.21-.67 1.05-1.57 2.04-.9.98-1.89 2l-5.54 5.66q.8-.24 1.59-.36.79-.13 1.5-.13Zm17.12-16.86-.87 5.11q.82-.17 1.57-.24.75-.08 1.44-.08 1.94 0 3.42.58t2.48 1.6q1.01 1.02 1.51 2.38.51 1.37.51 2.95 0 1.96-.68 3.57-.69 1.62-1.92 2.77-1.22 1.14-2.89 1.77-1.68.63-3.65.63-1.16 0-2.19-.24-1.04-.23-1.95-.63-.91-.4-1.68-.92-.78-.52-1.39-1.1l1.29-1.78q.41-.58 1.07-.58.43 0 .87.27t1.01.6q.57.32 1.35.59.77.27 1.86.27 1.15 0 2.04-.37.88-.38 1.47-1.05.58-.67.88-1.59.3-.93.3-2.02 0-2.01-1.17-3.14-1.16-1.13-3.44-1.13-1.75 0-3.58.65l-2.62-.75 2.04-11.93h12.14v1.78q0 .9-.57 1.46-.56.57-1.9.57h-6.75Zm19.72 0-.87 5.11q.82-.17 1.57-.24.75-.08 1.44-.08 1.94 0 3.42.58t2.48 1.6q1.01 1.02 1.51 2.38.51 1.37.51 2.95 0 1.96-.68 3.57-.69 1.62-1.92 2.77-1.22 1.14-2.89 1.77-1.68.63-3.65.63-1.16 0-2.19-.24-1.04-.23-1.95-.63-.91-.4-1.68-.92-.78-.52-1.39-1.1l1.29-1.78q.41-.58 1.07-.58.43 0 .87.27t1.01.6q.57.32 1.35.59.77.27 1.86.27 1.15 0 2.04-.37.88-.38 1.47-1.05.58-.67.88-1.59.3-.93.3-2.02 0-2.01-1.17-3.14-1.16-1.13-3.44-1.13-1.75 0-3.59.65l-2.61-.75 2.04-11.93h12.14v1.78q0 .9-.57 1.46-.56.57-1.9.57h-6.75Z"/></svg>