<svg width="184" height="64" viewBox="0 0 184 64" fill="none" xmlns="http://www.w3.org/2000/svg">
<path d="M165.198 19.8624L165.186 23.4327C165.186 23.4469 165.181 23.4606 165.172 23.4707C165.162 23.4807 165.15 23.4864 165.136 23.4864L164.298 23.4854C164.284 23.4854 164.271 23.4799 164.262 23.47C164.252 23.4601 164.247 23.4466 164.247 23.4327V19.8554C164.247 19.8413 164.241 19.8278 164.232 19.8178C164.222 19.8077 164.209 19.8019 164.195 19.8017L162.972 19.7828C162.96 19.7827 162.948 19.7799 162.937 19.7745C162.927 19.7692 162.917 19.7615 162.908 19.7518C162.9 19.7421 162.893 19.7306 162.889 19.718C162.885 19.7054 162.882 19.6919 162.883 19.6783L162.887 19.093C162.887 19.0692 162.896 19.0465 162.91 19.0297C162.924 19.0129 162.944 19.0034 162.964 19.0034L166.465 19.0104C166.473 19.0104 166.482 19.012 166.49 19.015C166.497 19.018 166.504 19.0224 166.51 19.028C166.516 19.0335 166.521 19.0401 166.524 19.0473C166.527 19.0546 166.529 19.0623 166.529 19.0701L166.512 19.7758C166.512 19.7821 166.51 19.7882 166.507 19.7939C166.504 19.7995 166.5 19.8045 166.495 19.8085C166.489 19.8126 166.483 19.8155 166.477 19.8173C166.47 19.819 166.463 19.8195 166.456 19.8186C166.054 19.7642 165.651 19.7602 165.248 19.8067C165.234 19.8084 165.221 19.815 165.212 19.8252C165.203 19.8355 165.198 19.8487 165.198 19.8624Z" fill="white"/>
<path d="M168.297 19.8624C168.335 21.0481 168.339 22.2342 168.309 23.4207C168.309 23.4354 168.303 23.4494 168.294 23.4598C168.284 23.4702 168.272 23.4761 168.258 23.4764L167.444 23.4923C167.436 23.4926 167.428 23.4911 167.42 23.4878C167.413 23.4846 167.406 23.4798 167.4 23.4735C167.394 23.4673 167.39 23.4599 167.386 23.4516C167.383 23.4434 167.382 23.4346 167.382 23.4257L167.388 19.083C167.388 19.0613 167.397 19.0404 167.413 19.0249C167.429 19.0095 167.451 19.0007 167.473 19.0004L168.695 18.9964C168.725 18.9961 168.755 19.0055 168.778 19.023C168.802 19.0405 168.819 19.0652 168.825 19.093L169.635 22.4005C169.658 22.496 169.681 22.4957 169.703 22.3995L170.467 19.091C170.473 19.0658 170.488 19.0433 170.509 19.027C170.53 19.0108 170.556 19.0017 170.584 19.0014L171.833 18.9924C171.848 18.9924 171.863 18.9983 171.874 19.0088C171.884 19.0192 171.89 19.0334 171.89 19.0482L171.885 23.4266C171.884 23.4376 171.882 23.4485 171.878 23.4586C171.875 23.4687 171.869 23.4778 171.862 23.4854C171.854 23.4931 171.846 23.499 171.836 23.5029C171.827 23.5069 171.817 23.5087 171.807 23.5083L171.057 23.4784C171.044 23.4778 171.031 23.4715 171.022 23.4608C171.013 23.4501 171.008 23.4357 171.008 23.4207L170.989 19.9131C170.988 19.8474 170.98 19.8468 170.963 19.9111C170.659 21.1035 170.384 22.2694 170.137 23.4087C170.113 23.5222 170.037 23.5574 169.91 23.5142C169.893 23.5083 169.86 23.5039 169.813 23.5013L169.203 23.4694C169.189 23.4688 169.177 23.4626 169.166 23.4516C169.155 23.4407 169.147 23.4256 169.143 23.4087L168.308 19.8604C168.3 19.8259 168.296 19.8265 168.297 19.8624Z" fill="white"/>
<path d="M58.0215 22.2263L53.0577 22.2204C53.04 22.2204 53.0231 22.2134 53.0106 22.2011C52.9981 22.1888 52.9911 22.1721 52.9911 22.1547V19.2652C52.9911 19.2504 52.9969 19.2363 53.0074 19.2258C53.0178 19.2153 53.032 19.2095 53.0468 19.2095H61.6855C61.7088 19.2095 61.731 19.2187 61.7475 19.2351C61.7639 19.2516 61.7731 19.2738 61.7731 19.2971V45.3061C61.7731 45.3209 61.7672 45.3351 61.7568 45.3456C61.7463 45.356 61.7322 45.3619 61.7174 45.3619H58.1578C58.1401 45.3619 58.1231 45.3549 58.1106 45.3424C58.0981 45.3298 58.0911 45.3129 58.0911 45.2952V22.297C58.0911 22.2877 58.0893 22.2785 58.0858 22.27C58.0823 22.2614 58.0772 22.2536 58.0707 22.247C58.0642 22.2405 58.0566 22.2353 58.0481 22.2317C58.0397 22.2282 58.0306 22.2263 58.0215 22.2263Z" fill="white"/>
<path d="M154.215 22.2263L149.254 22.2204C149.244 22.2204 149.233 22.2183 149.224 22.2142C149.214 22.2102 149.205 22.2043 149.198 22.1969C149.191 22.1894 149.185 22.1806 149.182 22.171C149.178 22.1613 149.176 22.151 149.177 22.1407C149.207 21.2794 149.202 20.3508 149.163 19.3548C149.162 19.3368 149.165 19.3188 149.171 19.3019C149.177 19.285 149.187 19.2696 149.2 19.2566C149.212 19.2436 149.227 19.2332 149.244 19.2261C149.26 19.2191 149.278 19.2154 149.296 19.2154L157.881 19.2095C157.9 19.2095 157.918 19.217 157.932 19.2305C157.945 19.2439 157.953 19.2621 157.953 19.2811V45.2862C157.953 45.3 157.947 45.3131 157.938 45.3228C157.928 45.3325 157.915 45.338 157.902 45.338L154.35 45.3619C154.334 45.3619 154.319 45.3553 154.307 45.3435C154.296 45.3318 154.29 45.3158 154.29 45.2992C154.3 38.9377 154.3 32.5904 154.29 26.2574C154.286 24.1321 154.278 22.8053 154.266 22.2771C154.265 22.2635 154.26 22.2506 154.25 22.2411C154.241 22.2317 154.228 22.2263 154.215 22.2263Z" fill="white"/>
<path d="M26.1434 40.9685C26.8267 40.2711 27.3226 39.4394 27.6311 38.4732C27.6353 38.4594 27.6439 38.4473 27.6556 38.4387C27.6672 38.4301 27.6813 38.4255 27.6958 38.4255L31.2424 38.4195C31.2539 38.4194 31.2652 38.422 31.2755 38.4271C31.2859 38.4321 31.2949 38.4394 31.302 38.4485C31.3091 38.4577 31.3141 38.4683 31.3165 38.4796C31.3189 38.491 31.3188 38.5028 31.3161 38.5141C30.7721 40.7622 29.6466 42.5737 27.9396 43.9486C27.4195 44.3673 26.8612 44.7229 26.2648 45.0156C24.5677 45.8483 22.7453 46.1499 20.7975 45.9203C18.374 45.635 16.3529 44.6257 14.7342 42.8925C13.6926 41.7771 12.9542 40.4447 12.519 38.8953C11.7846 36.2822 11.965 33.7912 13.0604 31.4223C13.345 30.8072 13.6843 30.2392 14.0784 29.7183C15.4497 27.9041 17.2688 26.7174 19.5357 26.158C20.4903 25.9224 21.4997 25.8332 22.5639 25.8902C24.444 25.9904 26.1261 26.5674 27.6102 27.6211C28.1509 28.0047 28.6455 28.4443 29.0939 28.9399C30.1594 30.1177 30.8891 31.4843 31.2832 33.0397C31.2857 33.0489 31.286 33.0585 31.2841 33.0677C31.2823 33.077 31.2783 33.0858 31.2725 33.0933C31.2667 33.1008 31.2593 33.1068 31.2508 33.111C31.2423 33.1152 31.233 33.1174 31.2235 33.1174L27.6152 33.1203C27.6006 33.1203 27.5863 33.1157 27.5744 33.1071C27.5625 33.0986 27.5534 33.0865 27.5485 33.0726C26.836 31.1695 25.5572 29.9585 23.7123 29.4396C23.0701 29.2591 22.4146 29.1808 21.7459 29.2047C20.5703 29.2472 19.4962 29.5862 18.5236 30.2219C17.9584 30.5909 17.4761 31.0408 17.0767 31.5716C16.3914 32.482 15.9734 33.5371 15.8228 34.7368C15.7359 35.4308 15.7223 36.0868 15.782 36.7045C15.9413 38.3409 16.5768 39.7254 17.6887 40.8581C18.4848 41.6689 19.4654 42.2144 20.6303 42.4944C21.987 42.8202 23.2863 42.6918 24.5283 42.1092C25.1413 41.8219 25.6796 41.4417 26.1434 40.9685Z" fill="white"/>
<path d="M53.8319 35.9272C53.8319 38.5945 52.7726 41.1525 50.8869 43.0385C49.0013 44.9245 46.4438 45.9841 43.7771 45.9841C41.1104 45.9841 38.5529 44.9245 36.6673 43.0385C34.7816 41.1525 33.7223 38.5945 33.7223 35.9272C33.7223 33.26 34.7816 30.702 36.6673 28.8159C38.5529 26.9299 41.1104 25.8704 43.7771 25.8704C46.4438 25.8704 49.0013 26.9299 50.8869 28.8159C52.7726 30.702 53.8319 33.26 53.8319 35.9272ZM50.2922 35.9272C50.2922 34.1989 49.6058 32.5415 48.384 31.3194C47.1622 30.0973 45.505 29.4108 43.7771 29.4108C42.0492 29.4108 40.392 30.0973 39.1702 31.3194C37.9484 32.5415 37.262 34.1989 37.262 35.9272C37.262 36.783 37.4305 37.6303 37.7579 38.421C38.0853 39.2116 38.5652 39.9299 39.1702 40.535C39.7752 41.1402 40.4934 41.6202 41.2839 41.9476C42.0743 42.2751 42.9215 42.4437 43.7771 42.4437C45.505 42.4437 47.1622 41.7571 48.384 40.535C49.6058 39.313 50.2922 37.6555 50.2922 35.9272Z" fill="white"/>
<path d="M86.3966 35.9272C86.3966 37.2479 86.1366 38.5557 85.6313 39.7758C85.126 40.996 84.3853 42.1046 83.4517 43.0385C82.518 43.9724 81.4096 44.7131 80.1896 45.2185C78.9697 45.7239 77.6623 45.9841 76.3418 45.9841C73.6751 45.9841 71.1176 44.9245 69.232 43.0385C67.3464 41.1525 66.287 38.5945 66.287 35.9272C66.287 33.26 67.3464 30.702 69.232 28.8159C71.1176 26.9299 73.6751 25.8704 76.3418 25.8704C77.6623 25.8704 78.9697 26.1305 80.1896 26.6359C81.4096 27.1413 82.518 27.8821 83.4517 28.8159C84.3853 29.7498 85.126 30.8585 85.6313 32.0786C86.1366 33.2988 86.3966 34.6065 86.3966 35.9272ZM82.857 35.9272C82.857 34.1992 82.1707 32.542 80.949 31.3201C79.7274 30.0982 78.0705 29.4118 76.3428 29.4118C74.6152 29.4118 72.9583 30.0982 71.7366 31.3201C70.515 32.542 69.8287 34.1992 69.8287 35.9272C69.8287 36.7828 69.9972 37.6301 70.3245 38.4206C70.6519 39.2111 71.1317 39.9293 71.7366 40.5343C72.3415 41.1394 73.0596 41.6193 73.85 41.9467C74.6403 42.2742 75.4874 42.4427 76.3428 42.4427C77.1983 42.4427 78.0453 42.2742 78.8357 41.9467C79.626 41.6193 80.3441 41.1394 80.949 40.5343C81.5539 39.9293 82.0337 39.2111 82.3611 38.4206C82.6885 37.6301 82.857 36.7828 82.857 35.9272Z" fill="white"/>
<path d="M93.6233 32.2922C93.7155 32.5297 93.9145 32.7703 94.2204 33.0138C94.4592 33.2036 94.8314 33.3675 95.3369 33.5055C96.62 33.8552 97.92 34.1226 99.2368 34.3077C100.197 34.4431 101.085 34.6442 101.902 34.9109C102.61 35.1418 103.283 35.4965 103.923 35.9749C104.328 36.2775 104.673 36.666 104.958 37.1405C105.207 37.5558 105.395 38.0316 105.522 38.5678C105.711 39.368 105.746 40.1626 105.628 40.9516C105.369 42.6622 104.502 43.9436 103.027 44.7956C102.323 45.203 101.549 45.4946 100.705 45.6705C98.7562 46.0766 96.7835 46.0898 94.7866 45.7103C93.757 45.5145 92.8176 45.1499 91.9684 44.6164C91.372 44.2422 90.8764 43.8066 90.4817 43.3095C89.6756 42.2956 89.2527 41.0903 89.2129 39.6935C89.2125 39.6834 89.2141 39.6732 89.2176 39.6638C89.2212 39.6543 89.2265 39.6456 89.2334 39.6384C89.2403 39.6311 89.2486 39.6254 89.2577 39.6215C89.2668 39.6176 89.2766 39.6157 89.2865 39.6159L92.4172 39.6427C92.4311 39.643 92.4445 39.6481 92.4554 39.6573C92.4662 39.6665 92.4738 39.6793 92.4769 39.6935C92.6839 40.657 93.215 41.3842 94.0701 41.8753C94.5909 42.1745 95.1459 42.3865 95.735 42.5113C96.7474 42.7269 97.8576 42.7731 99.0657 42.6496C99.6037 42.5946 100.096 42.4871 100.541 42.3272C101.101 42.1261 101.517 41.8617 101.789 41.5339C102.144 41.1072 102.294 40.5747 102.238 39.9364C102.192 39.4155 101.979 39.0114 101.597 38.724C101.304 38.5037 100.933 38.3272 100.484 38.1945C99.7991 37.9921 99.1025 37.8428 98.394 37.7466C97.3279 37.6006 96.2687 37.4158 95.2165 37.1922C94.2871 36.9938 93.4027 36.6733 92.5635 36.2307C91.2798 35.5539 90.4853 34.5022 90.1801 33.0755C89.9897 32.1817 89.9722 31.2849 90.1274 30.3851C90.3205 29.2617 90.7975 28.3503 91.5584 27.6509C92.2576 27.0086 93.1367 26.5491 94.1955 26.2724C95.7612 25.8637 97.3846 25.7654 99.0657 25.9778C99.8273 26.074 100.544 26.2528 101.215 26.5143C101.869 26.7684 102.441 27.0985 102.931 27.5046C104.232 28.5842 104.937 30.0633 105.043 31.9418C105.044 31.9493 105.043 31.9567 105.04 31.9637C105.038 31.9707 105.034 31.9771 105.029 31.9825C105.023 31.9879 105.017 31.9922 105.01 31.9951C105.004 31.9981 104.996 31.9996 104.989 31.9996H101.915C101.893 31.9996 101.871 31.9913 101.855 31.9762C101.838 31.9611 101.828 31.9403 101.826 31.9179C101.768 31.1515 101.451 30.5172 100.876 30.0149C100.486 29.6751 99.9583 29.4372 99.2916 29.3012C98.8252 29.2057 98.3555 29.1499 97.8825 29.134C97.3789 29.1161 96.9072 29.1217 96.4674 29.1509C95.9327 29.1867 95.4222 29.282 94.9359 29.4366C94.6201 29.5368 94.3113 29.709 94.0094 29.9532C93.7991 30.123 93.6479 30.3397 93.5556 30.6031C93.4853 30.8035 93.4545 31.058 93.4631 31.3665C93.4724 31.7308 93.5258 32.0394 93.6233 32.2922Z" fill="white"/>
<path d="M110.867 43.8351C110.108 43.0953 109.599 42.2091 109.341 41.1766C109.218 40.6816 109.146 40.1793 109.124 39.6697C109.124 39.6632 109.125 39.6568 109.128 39.6508C109.13 39.6447 109.133 39.6392 109.138 39.6346C109.142 39.6299 109.148 39.6262 109.154 39.6237C109.159 39.6212 109.166 39.6199 109.172 39.6199L112.281 39.6139C112.31 39.614 112.337 39.6238 112.359 39.6417C112.381 39.6596 112.397 39.6846 112.402 39.7125C112.469 40.023 112.573 40.314 112.714 40.5854C112.849 40.8441 113.034 41.0863 113.268 41.312C113.678 41.7061 114.154 42.0094 114.695 42.2217C115.404 42.5004 116.14 42.6626 116.902 42.7084C117.618 42.7522 118.331 42.7369 119.044 42.6626C119.65 42.5996 120.232 42.4466 120.788 42.2038C121.07 42.081 121.32 41.9178 121.538 41.7141C121.755 41.511 121.917 41.2688 122.023 40.9875C122.24 40.4168 122.22 39.8541 121.966 39.2994C121.855 39.0565 121.686 38.8561 121.458 38.6982C121.106 38.454 120.691 38.2699 120.212 38.1458C119.598 37.9865 119.175 37.889 118.942 37.8532C117.539 37.6362 116.603 37.4849 116.132 37.3993C115.313 37.25 114.542 37.0592 113.819 36.827C113.316 36.6657 112.834 36.4504 112.371 36.181C111.868 35.889 111.46 35.5629 111.146 35.2026C110.597 34.5735 110.242 33.8231 110.081 32.9511C109.979 32.3991 109.934 31.8549 109.947 31.3188C109.961 30.7402 110.047 30.206 110.204 29.7163C110.608 28.4529 111.429 27.498 112.667 26.8517C113.588 26.3707 114.619 26.0711 115.759 25.9529C116.477 25.8786 117.158 25.8528 117.803 25.8753C118.538 25.9019 119.197 25.9758 119.778 26.0973C120.421 26.232 121.036 26.4423 121.624 26.7283C122.252 27.0336 122.784 27.3959 123.22 27.8152C123.98 28.5484 124.496 29.4539 124.767 30.5315C124.884 30.9993 124.952 31.4741 124.969 31.9558C124.969 31.9624 124.968 31.9689 124.966 31.975C124.963 31.9811 124.96 31.9867 124.955 31.9913C124.951 31.996 124.946 31.9996 124.94 32.0021C124.934 32.0045 124.928 32.0057 124.921 32.0056L121.823 31.9817C121.81 31.9817 121.797 31.9767 121.787 31.9675C121.777 31.9583 121.77 31.9456 121.769 31.9319C121.663 30.9306 121.176 30.1838 120.306 29.6914C120.117 29.5846 119.867 29.4847 119.555 29.3918C119.315 29.3202 119.053 29.2651 118.769 29.2266C117.712 29.0839 116.67 29.0896 115.641 29.2435C115.225 29.3059 114.811 29.4393 114.398 29.6436C113.886 29.8971 113.568 30.2667 113.446 30.7525C113.337 31.1884 113.352 31.6366 113.491 32.0971C113.636 32.5769 113.947 32.9405 114.422 33.188C114.804 33.3864 115.299 33.5553 115.907 33.6947C116.835 33.907 117.771 34.0822 118.714 34.2202C119.511 34.3376 120.301 34.4939 121.083 34.689C121.886 34.8894 122.622 35.1893 123.291 35.5888C123.734 35.8535 124.123 36.1817 124.46 36.5732C124.773 36.9375 125.025 37.3701 125.217 37.8711C125.611 38.9016 125.716 39.9593 125.531 41.0442C125.412 41.7423 125.195 42.365 124.879 42.9125C124.475 43.6112 123.92 44.1852 123.217 44.6344C122.526 45.075 121.763 45.3942 120.929 45.5919C118.962 46.059 116.98 46.1231 114.984 45.784C113.841 45.5896 112.78 45.1851 111.8 44.5707C111.463 44.359 111.152 44.1138 110.867 43.8351Z" fill="white"/>
<path d="M143.697 42.355C143.484 42.6741 143.245 42.9983 142.981 43.3274C141.952 44.6107 140.631 45.4262 139.018 45.7739C136.607 46.2928 134.421 45.913 132.458 44.6343C131.465 43.9866 130.628 43.137 129.947 42.0852C129.603 41.5544 129.301 40.9651 129.042 40.3175C128.314 38.5034 128.049 36.5989 128.247 34.6043C128.413 32.9321 128.936 31.3824 129.813 29.9551C130.314 29.1416 130.922 28.4322 131.639 27.8271C132.144 27.4004 132.698 27.0381 133.301 26.7402C135.014 25.8928 136.853 25.6592 138.819 26.0394C140.832 26.4276 142.439 27.4558 143.641 29.124C143.712 29.2215 143.747 29.2099 143.747 29.0891V26.4615C143.747 26.4454 143.754 26.4299 143.765 26.4185C143.776 26.4071 143.792 26.4007 143.808 26.4007H147.091C147.099 26.4007 147.108 26.4024 147.116 26.4057C147.123 26.4089 147.131 26.4137 147.137 26.4197C147.143 26.4257 147.147 26.4328 147.151 26.4407C147.154 26.4485 147.155 26.4569 147.155 26.4654V42.5003C147.155 42.5135 147.161 42.5261 147.17 42.5355C147.179 42.5448 147.192 42.55 147.205 42.55H149.087C149.101 42.55 149.114 42.5528 149.126 42.558C149.139 42.5633 149.15 42.571 149.16 42.5807C149.169 42.5904 149.177 42.602 149.182 42.6146C149.187 42.6273 149.19 42.6409 149.19 42.6546L149.165 45.1568C149.165 45.1698 149.159 45.1822 149.15 45.1913C149.14 45.2005 149.127 45.2056 149.114 45.2056L144.687 45.1937C144.671 45.1933 144.657 45.1886 144.645 45.1802C144.633 45.1718 144.625 45.1601 144.621 45.1469L143.788 42.3689C143.767 42.2992 143.737 42.2946 143.697 42.355ZM134.039 41.3865C135.231 42.3984 136.635 42.8029 138.249 42.5998C139.613 42.428 140.759 41.8825 141.688 40.9635C142.639 40.0232 143.256 38.8627 143.538 37.4818C143.76 36.3995 143.755 35.3186 143.525 34.239C143.254 32.9617 142.68 31.8797 141.803 30.9932C141.325 30.5102 140.791 30.1216 140.201 29.8277C139.279 29.3685 138.288 29.1635 137.229 29.2126C136.112 29.265 135.129 29.613 134.277 30.2567C133.761 30.6475 133.319 31.1362 132.95 31.7228C132.399 32.6013 132.059 33.606 131.93 34.7367C131.764 36.1972 131.904 37.5664 132.349 38.8444C132.529 39.362 132.751 39.8222 133.017 40.2249C133.312 40.6722 133.652 41.0594 134.039 41.3865Z" fill="white"/>
</svg>
