<svg width="215" height="48" viewBox="0 0 2629 475" fill="none" xmlns="http://www.w3.org/2000/svg">
  <path fill-rule="evenodd" clip-rule="evenodd" d="M414.6 395.3L357 250.5C385.4 220.8 403 180.6 403 136.3C403 101 391.8 68.2 372.8 41.3C434.7 84.2 475.4 155.8 475.4 236.7C475.4 297.6 452.4 353.2 414.6 395.3Z" fill="white"></path>
  <path fill-rule="evenodd" clip-rule="evenodd" d="M83.7 417.3L140.9 270C168.1 289.8 201.6 301.5 237.8 301.5C273.5 301.5 306.6 290.1 333.6 270.8L391.8 417.4C350.3 452.8 296.5 474.3 237.8 474.3C179 474.3 125.2 452.8 83.7 417.3Z" fill="white"></path>
  <path fill-rule="evenodd" clip-rule="evenodd" d="M0.199951 236.7C0.199951 155.9 40.8 84.4 102.6 41.5C83.7 68.4 72.5 101.1 72.5 136.4C72.5 180.1 89.6 219.9 117.5 249.5L60.8999 395.2C23.1999 353 0.199951 297.5 0.199951 236.7Z" fill="white"></path>
  <path fill-rule="evenodd" clip-rule="evenodd" d="M257.7 0.5C324 10.2 375 67.4 375 136.3C375 168.4 363.9 197.9 345.4 221.3L257.7 0.5Z" fill="white"></path>
  <path fill-rule="evenodd" clip-rule="evenodd" d="M236 25.2L322.9 243.9C299.5 262.5 269.9 273.6 237.8 273.6C205.1 273.6 175.1 262.1 151.5 242.9L236 25.2Z" fill="white"></path>
  <path fill-rule="evenodd" clip-rule="evenodd" d="M213.9 1.20001L129 219.8C111.2 196.6 100.5 167.7 100.5 136.3C100.5 68.7 149.6 12.5 213.9 1.20001Z" fill="white"></path>
  <path fill-rule="evenodd" clip-rule="evenodd" d="M1579.1 331.7C1555.3 356.6 1525.4 369 1489.2 369C1453 369 1423 356.6 1399.3 331.7C1375.5 306.9 1363.6 275.3 1363.6 237.2C1363.6 199 1375.5 167.5 1399.3 142.5C1423 117.6 1453 105.1 1489.2 105.1C1525.6 105.1 1555.6 117.5 1579.3 142.4C1602.9 167.2 1614.8 198.9 1614.8 237.2C1614.7 275.3 1602.8 306.8 1579.1 331.7ZM1489.1 67.2C1441 67.2 1401.2 83.2 1369.7 115.2C1338.2 147.2 1322.4 187.9 1322.4 237.2C1322.4 286.3 1338.1 326.9 1369.5 358.9C1400.9 390.9 1440.8 406.9 1489.1 406.9C1537.6 406.9 1577.6 390.9 1609.3 358.9C1640.9 326.9 1656.7 286.3 1656.7 237.2C1656.7 188.1 1640.8 147.5 1609.1 115.4C1577.4 83.2 1537.4 67.2 1489.1 67.2ZM755 129.7L684.4 273.3H826.3L755 129.7ZM580.4 398.3L738.4 74.2H771.7L931.5 398.3H888L844.2 311.1H666L623.4 398.3H580.4ZM1175.1 218.7C1195.4 218.7 1210.7 214.2 1221.1 205.2C1231.5 196.2 1236.7 183 1236.7 165.6C1236.7 148.6 1231.5 135.3 1221.1 125.8C1210.7 116.3 1196 111.6 1177.1 111.6H1033V218.8H1175.1V218.7ZM1177.8 74.2C1209.1 74.2 1233.8 82 1251.8 97.7C1269.8 113.4 1278.8 134.8 1278.8 162C1278.8 190.2 1270.1 213 1252.7 230.4C1235.3 247.8 1212.1 256.5 1183.1 256.5H1033V398.3H993V74.2H1177.8ZM1718.1 74.2H1758.1V361H1968.6V398.3H1718.1V74.2ZM2062.3 74.2H2022.3V398.3H2272.8V361H2062.2V74.2H2062.3ZM2460.6 369C2496.8 369 2526.8 356.6 2550.5 331.7C2574.2 306.9 2586.1 275.3 2586.1 237.2C2586.1 198.8 2574.3 167.2 2550.6 142.4C2527 117.5 2496.9 105.1 2460.5 105.1C2424.3 105.1 2394.3 117.6 2370.6 142.5C2346.8 167.5 2335 199 2335 237.2C2335 275.4 2346.8 306.9 2370.6 331.7C2394.4 356.5 2424.4 369 2460.6 369ZM2460.6 67.2C2508.9 67.2 2548.9 83.3 2580.6 115.4C2612.3 147.5 2628.2 188.1 2628.2 237.2C2628.2 286.3 2612.4 326.9 2580.7 358.9C2549.1 390.9 2509 406.9 2460.6 406.9C2412.3 406.9 2372.5 390.9 2341 358.9C2309.6 326.9 2293.8 286.3 2293.8 237.2C2293.8 187.9 2309.6 147.2 2341.1 115.2C2372.7 83.2 2412.5 67.2 2460.6 67.2Z" fill="white"></path>
</svg>