<svg width="152" height="64" viewBox="0 0 152 64" fill="none" xmlns="http://www.w3.org/2000/svg">
<g clip-path="url(#clip0_269_887)">
<path fill-rule="evenodd" clip-rule="evenodd" d="M141 49.4995V51.9424C141 52.7138 140.363 53.3566 139.599 53.3566C139.025 53.3566 138.452 52.9709 138.261 52.3924C136.987 53.0995 135.585 53.4209 134.12 53.4209C129.342 53.4209 125.392 49.4995 125.392 44.7424C125.392 39.9852 129.278 36.0638 134.12 36.0638C135.712 36.0638 137.241 36.5138 138.516 37.2852C138.579 37.3495 138.643 37.3495 138.707 37.4138C139.153 37.6709 139.471 38.1852 139.471 38.6995C139.471 38.7638 139.471 38.8281 139.471 38.8281C139.344 39.6638 138.643 40.2424 137.815 40.1138C137.815 40.1138 137.815 40.1138 137.751 40.1138C137.56 40.1138 137.369 39.9852 137.178 39.8566C135.904 39.0852 134.438 38.7638 132.973 39.0209C130.234 39.5352 128.195 42.0424 128.259 44.8066C128.322 47.9566 130.934 50.5281 134.056 50.5281C135.585 50.5281 136.987 49.9495 138.07 48.9209V46.7352H134.629C133.865 46.7352 133.228 46.0924 133.164 45.3209C133.164 45.3209 133.164 45.3209 133.164 45.2566C133.164 44.4852 133.865 43.8424 134.629 43.8424H139.471C140.236 43.8424 140.937 44.4852 140.937 45.2566L141 49.4995ZM121.251 53.4209C120.805 53.4209 120.359 53.2281 120.104 52.8424L111.249 41.5924V51.9424C111.249 52.7138 110.612 53.3566 109.784 53.3566C109.019 53.3566 108.382 52.7138 108.318 51.9424V37.4781C108.318 36.8352 108.701 36.3209 109.274 36.1281C109.847 35.9352 110.484 36.1281 110.866 36.5781L119.722 47.8281V37.4781C119.722 36.7066 120.359 35.9995 121.123 35.9995C121.888 35.9995 122.589 36.6424 122.589 37.4138V52.0066C122.589 52.5852 122.207 53.1638 121.633 53.3566C121.633 53.3566 121.442 53.4209 121.251 53.4209ZM118.321 32.2066H110.038C109.274 32.2066 108.637 31.5638 108.573 30.7924V16.2638C108.573 15.4924 109.21 14.8495 110.038 14.8495C110.803 14.8495 111.44 15.4924 111.504 16.2638V29.3138H118.321C119.149 29.3138 119.786 29.9566 119.786 30.7281C119.786 31.4995 119.149 32.2066 118.321 32.2066ZM98.8259 32.2066C94.876 32.2066 91.6905 28.9924 91.6905 25.0709V16.2638C91.6905 15.4924 92.3279 14.7852 93.1559 14.7852C93.9204 14.7852 94.6213 15.4281 94.6213 16.2638V25.0709C94.6213 27.3852 96.5325 29.3138 98.8895 29.3138C101.247 29.3138 103.094 27.3852 103.094 25.0709V16.2638C103.094 15.4281 103.731 14.7852 104.56 14.7852C105.324 14.7852 106.025 15.4281 106.025 16.2638V25.0709C105.961 29.0566 102.776 32.2066 98.8259 32.2066ZM80.2868 32.2066C75.5089 32.2066 71.5589 28.2852 71.5589 23.5281C71.5589 18.7709 75.4453 14.8495 80.2868 14.8495C85.0648 14.8495 89.0148 18.7709 89.0148 23.5281C89.0148 28.3495 85.0648 32.2066 80.2868 32.2066ZM80.2868 17.6781C77.0378 17.6781 74.4897 20.3138 74.4897 23.5281C74.4897 26.7424 77.1014 29.3781 80.2868 29.3781C83.4723 29.3781 86.0845 26.8066 86.0845 23.5281C86.148 20.3138 83.4723 17.6781 80.2868 17.6781ZM63.5319 53.4209C61.3655 53.4209 60.0277 52.5209 59.2634 51.7495C58.3715 50.7852 57.8619 49.4995 57.8619 48.2138C57.8619 47.4424 58.4989 46.7995 59.3272 46.7995C60.0917 46.7995 60.7286 47.4424 60.7922 48.2138C60.7922 49.0495 61.3655 50.5924 63.5954 50.5924C65.8253 50.5924 66.3987 49.1138 66.3987 48.2138C66.3987 46.9281 65.6977 46.4781 63.2772 45.8352C62.1941 45.5138 61.0473 45.1924 60.1553 44.5495C58.8175 43.6495 58.1804 42.4924 58.1804 40.9495C58.1804 39.7281 58.6901 38.5066 59.5184 37.6066C60.2188 36.8995 61.4931 36.0638 63.5319 36.0638C65.5707 36.0638 66.8445 36.8995 67.5454 37.6066C68.4374 38.5066 68.8832 39.7281 68.8832 40.9495C68.8832 41.7209 68.2463 42.3638 67.4178 42.3638C66.6533 42.3638 66.0164 41.7209 65.9529 40.9495C65.9529 40.1781 65.4431 38.8924 63.5319 38.8924C61.6207 38.8924 61.1109 40.1781 61.1109 40.9495C61.1109 41.9138 61.4931 42.2995 64.0417 43.0066C65.1884 43.3281 66.3987 43.6495 67.3543 44.3566C68.6286 45.2566 69.2655 46.5424 69.2655 48.1495C69.2655 49.4352 68.7557 50.7209 67.8001 51.6852C67.0356 52.5209 65.6977 53.4209 63.5319 53.4209ZM63.9777 21.7924C65.1244 22.1138 66.3351 22.4352 67.2907 23.1424C68.5645 24.0424 69.2019 25.3281 69.2019 26.9352C69.2019 28.2209 68.6921 29.5066 67.7365 30.4709C67.0356 31.2424 65.6977 32.1424 63.4683 32.1424C61.302 32.1424 59.9642 31.2424 59.1997 30.4709C58.3715 29.5709 57.8619 28.2852 57.8619 26.9995C57.8619 26.2281 58.4989 25.5852 59.3272 25.5852C60.0917 25.5852 60.7286 26.2281 60.7922 26.9995C60.7922 27.8352 61.3655 29.3781 63.5954 29.3781C65.8253 29.3781 66.3987 27.8995 66.3987 26.9995C66.3987 25.7138 65.6977 25.2638 63.2772 24.6209C62.1941 24.2995 61.0473 23.9781 60.1553 23.3352C58.8175 22.4352 58.1804 21.2781 58.1804 19.7352C58.1804 18.5138 58.6901 17.2924 59.5184 16.3924C60.2188 15.6852 61.4931 14.8495 63.5319 14.8495C65.5707 14.8495 66.8445 15.6852 67.5454 16.3924C68.4374 17.2924 68.8832 18.5138 68.8832 19.7352C68.8832 20.5066 68.2463 21.1495 67.4178 21.1495C66.6533 21.1495 66.0164 20.5066 65.9529 19.7352C65.9529 18.9638 65.4431 17.6781 63.5319 17.6781C61.6207 17.6781 61.1109 18.9638 61.1109 19.7352C61.0473 20.6995 61.4296 21.0852 63.9777 21.7924ZM36.5198 45.5138C34.6723 47.2495 32.5063 49.1781 31.5506 50.7852C31.5506 50.7852 31.5506 50.7852 31.5506 50.7209C31.6144 50.2709 31.6781 49.8209 31.7417 49.3709C31.8055 48.9209 31.9329 48.4709 31.9966 48.0209C32.2514 47.1209 32.5063 46.2852 32.8248 45.4495C33.207 44.6138 33.5893 43.7781 34.0989 43.0066C34.6086 42.2352 35.1182 41.5281 35.6916 40.8209C38.1125 38.0566 40.6608 35.2924 42.7632 32.2066C43.7825 30.6638 44.6744 28.9924 45.3752 27.2566C46.0122 25.5209 46.4582 23.7209 46.8405 21.8566C46.3945 23.6566 45.9486 25.4566 45.2478 27.1924C44.547 28.9281 43.6551 30.5352 42.5721 32.0138C41.489 33.4924 40.2786 34.9066 39.0681 36.3209C38.7496 36.6424 38.4311 37.0281 38.1125 37.3495C37.794 37.6709 37.4754 38.0566 37.1569 38.3781C36.5198 39.0209 35.8827 39.7281 35.2457 40.4352C34.6086 41.1424 34.0352 41.9138 33.5256 42.6852C33.0159 43.4566 32.57 44.2924 32.1877 45.1924C31.8055 46.0281 31.4869 46.9281 31.2321 47.8924C31.1047 48.3424 30.9773 48.7924 30.9136 49.3066C30.7861 49.7566 30.7861 50.2066 30.7225 50.7209C30.6587 51.1709 30.6587 51.6852 30.595 52.1352V52.3924C30.0854 53.3566 29.8305 53.9995 29.8305 53.9995C29.8305 53.9995 30.149 33.9424 30.9773 28.1566C32.3788 18.8995 39.0044 11.7638 39.2592 11.5067C39.0681 11.7638 33.5893 19.4781 32.7611 25.9066C31.9329 32.3352 32.3788 40.8852 32.3788 40.8852C32.3788 40.8852 32.7611 36.4495 36.7746 28.7995C41.1068 20.5066 50.4718 15.0424 50.4718 15.0424C50.4718 15.0424 51.7459 28.0281 45.6937 36.7709C43.018 40.6924 40.4697 41.7852 36.5198 45.5138ZM31.5506 15.1066C30.7861 15.1066 30.149 14.4638 30.149 13.6924C30.149 12.8567 30.7861 12.2138 31.5506 12.2138C32.3151 12.2138 32.9522 12.8567 32.9522 13.6281C32.9522 14.4638 32.3151 15.1066 31.5506 15.1066ZM29.7031 10.5424C29.2571 10.5424 28.9386 10.2209 28.9386 9.77094C28.9386 9.32094 29.2571 8.99951 29.7031 8.99951C30.149 8.99951 30.4676 9.32094 30.4676 9.77094C30.4676 10.2209 30.149 10.5424 29.7031 10.5424ZM31.1684 19.7995C31.1684 21.5352 29.7668 22.8852 28.0467 22.8852C26.3266 22.8852 24.925 21.4709 24.925 19.7995C24.925 18.1281 26.3266 16.7138 28.0467 16.7138C29.7668 16.6495 31.1684 18.0638 31.1684 19.7995ZM24.2243 23.8495C24.3517 23.9781 27.9193 28.2852 28.8112 35.2281C29.3209 38.8924 29.512 47.2495 29.5757 51.4281C29.512 51.1709 29.512 50.9781 29.4483 50.7209C29.3846 50.2709 29.2571 49.8209 29.1298 49.3066C28.8749 48.4066 28.5564 47.5066 28.1741 46.6066C27.7919 45.7709 27.3459 44.9352 26.8363 44.0995C26.3266 43.3281 25.7533 42.5566 25.1162 41.8495C24.4791 41.1424 23.842 40.4352 23.205 39.7924C22.8864 39.4709 22.5679 39.0852 22.2493 38.7638C21.9308 38.4424 21.6123 38.0566 21.2937 37.7352C20.0833 36.3209 18.8728 34.9066 17.7898 33.4281C16.7068 31.9495 15.8149 30.3424 15.1141 28.6066C14.477 26.9995 13.9673 25.1995 13.5851 23.3995C13.9673 25.1995 14.4133 26.9995 15.0504 28.7995C15.6874 30.5352 16.5794 32.2066 17.6624 33.7495C19.7647 36.8352 22.3131 39.5995 24.7339 42.3638C25.3073 43.071 25.8807 43.7781 26.3266 44.5495C26.8363 45.3209 27.2185 46.1566 27.6008 46.9924C27.983 47.8281 28.2379 48.7281 28.429 49.5638C28.4927 50.0138 28.6201 50.4638 28.6838 50.9138C28.7475 51.3638 28.8112 51.8138 28.8749 52.2638C28.8749 52.3281 28.8749 52.3281 28.8749 52.3924C28.1741 50.8495 26.454 48.4066 24.3517 46.9281C20.7204 44.3566 17.089 41.9781 14.477 38.2495C9.12557 30.4709 11.5465 19.7995 11.5465 19.7995C11.5465 19.7995 18.6817 23.3352 23.5235 31.8209C26.8363 37.6066 27.3459 42.3638 27.3459 42.3638C27.3459 42.3638 28.0467 38.9566 27.4733 33.2995C27.0911 28.9924 24.288 23.9781 24.2243 23.8495ZM73.279 35.9995H78.121C81.5611 35.9995 84.4279 38.8281 84.4279 42.2995C84.4279 45.7709 81.6247 48.5995 78.121 48.5995H74.7444V51.9424C74.7444 52.7138 74.1075 53.4209 73.279 53.4209C72.451 53.4209 71.8141 52.7781 71.8141 51.9424V37.4138C71.8776 36.6424 72.5145 35.9995 73.279 35.9995ZM74.7444 45.7066H78.121C80.0322 45.7066 81.5611 44.2281 81.5611 42.2995C81.5611 40.4352 80.0322 38.8924 78.121 38.8924H74.7444V45.7066ZM88.505 35.9995H93.347C96.7871 35.9995 99.6539 38.8281 99.6539 42.2995C99.6539 44.8066 98.1885 46.9281 96.0862 47.9566L99.017 50.9781C99.5904 51.5566 99.5268 52.4566 98.953 53.0352C98.6983 53.2924 98.3161 53.4209 97.9339 53.4209C97.5516 53.4209 97.1694 53.2924 96.9147 52.9709L92.7101 48.5995H89.9069V51.9424C89.9069 52.7138 89.2695 53.3566 88.4414 53.3566C87.677 53.3566 87.0401 52.7138 86.976 51.9424V37.4781C87.1036 36.6424 87.7405 35.9995 88.505 35.9995ZM89.9704 45.7066H93.347C95.1946 45.6424 96.7236 44.0995 96.6596 42.2352C96.596 40.4352 95.1306 38.9566 93.347 38.8924H89.9704V45.7066ZM103.859 35.9995C104.623 35.9995 105.324 36.6424 105.324 37.4138V51.9424C105.324 52.7138 104.623 53.3566 103.859 53.3566C103.094 53.3566 102.457 52.7138 102.394 51.9424V37.4781C102.457 36.6424 103.094 35.9995 103.859 35.9995Z" fill="white"/>
</g>
<defs>
<clipPath id="clip0_269_887">
<rect width="130" height="45" fill="white" transform="translate(11.0002 8.99951)"/>
</clipPath>
</defs>
</svg>
