<svg width="200" height="64" viewBox="0 0 200 64" fill="none" xmlns="http://www.w3.org/2000/svg">
<path d="M121.783 40.4256C121.506 40.6563 121.125 40.7717 120.618 40.7717H119.649V42.4445H118.68V37.7952H120.676C121.137 37.7952 121.506 37.9105 121.772 38.1528C122.048 38.3951 122.187 38.7643 122.187 39.2719C122.187 39.8141 122.048 40.2064 121.783 40.4256ZM121.045 38.7527C120.918 38.6489 120.745 38.6027 120.526 38.6027H119.649V39.9756H120.526C120.745 39.9756 120.918 39.918 121.045 39.8026C121.172 39.6988 121.229 39.5142 121.229 39.2719C121.229 39.0296 121.16 38.8566 121.045 38.7527Z" fill="white"/>
<path d="M126.894 38.6143H124.437V39.6065H126.687V40.414H124.437V41.6139H127.01V42.4445H123.479V37.7952H126.894V38.6143Z" fill="white"/>
<path d="M131.624 37.7952V38.6143H130.24V42.4445H129.259V38.6143H127.863V37.7952H131.624Z" fill="white"/>
<path d="M135.662 41.0138C135.697 41.233 135.754 41.383 135.835 41.4868C135.997 41.6829 136.274 41.7752 136.666 41.7752C136.897 41.7752 137.093 41.7521 137.231 41.6945C137.508 41.6022 137.646 41.4176 137.646 41.1522C137.646 41.0022 137.577 40.8753 137.439 40.7946C137.3 40.7138 137.093 40.6446 136.793 40.5754L136.285 40.46C135.789 40.3446 135.454 40.2293 135.27 40.1024C134.958 39.8832 134.797 39.5486 134.797 39.0987C134.797 38.6833 134.947 38.3372 135.258 38.0604C135.57 37.7835 136.02 37.645 136.608 37.645C137.104 37.645 137.531 37.7719 137.877 38.0373C138.223 38.3026 138.408 38.6718 138.431 39.1679H137.496C137.473 38.891 137.358 38.6949 137.116 38.568C136.966 38.4872 136.77 38.4526 136.539 38.4526C136.285 38.4526 136.077 38.4987 135.927 38.6026C135.777 38.7064 135.697 38.8449 135.697 39.0294C135.697 39.191 135.766 39.3179 135.927 39.3986C136.02 39.4563 136.227 39.514 136.55 39.5948L137.37 39.7909C137.727 39.8716 137.993 39.987 138.177 40.1254C138.454 40.3446 138.592 40.6561 138.592 41.0715C138.592 41.4983 138.431 41.8444 138.096 42.1329C137.773 42.4097 137.3 42.5482 136.7 42.5482C136.089 42.5482 135.604 42.4097 135.258 42.1329C134.912 41.856 134.728 41.4753 134.728 40.9907L135.662 41.0138Z" fill="white"/>
<path d="M139.758 37.7952H140.75V40.6563C140.75 40.9793 140.784 41.2101 140.865 41.3601C140.981 41.6254 141.234 41.7523 141.638 41.7523C142.03 41.7523 142.284 41.6254 142.4 41.3601C142.48 41.2101 142.515 40.9793 142.515 40.6563V37.7952H143.507V40.6563C143.507 41.1524 143.426 41.5331 143.276 41.81C142.988 42.3176 142.446 42.5714 141.638 42.5714C140.831 42.5714 140.288 42.3176 140 41.81C139.85 41.5331 139.769 41.1524 139.769 40.6563V37.7952H139.758Z" fill="white"/>
<path d="M148.03 40.4256C147.753 40.6563 147.372 40.7717 146.864 40.7717H145.895V42.4445H144.926V37.7952H146.922C147.384 37.7952 147.753 37.9105 148.03 38.1528C148.307 38.3951 148.445 38.7643 148.445 39.2719C148.433 39.8141 148.295 40.2064 148.03 40.4256ZM147.28 38.7527C147.153 38.6489 146.991 38.6027 146.761 38.6027H145.884V39.9756H146.761C146.98 39.9756 147.153 39.918 147.28 39.8026C147.407 39.6988 147.464 39.5142 147.464 39.2719C147.464 39.0296 147.407 38.8566 147.28 38.7527Z" fill="white"/>
<path d="M152.817 40.4256C152.541 40.6563 152.16 40.7717 151.652 40.7717H150.683V42.4445H149.714V37.7952H151.71C152.171 37.7952 152.541 37.9105 152.806 38.1528C153.083 38.3951 153.221 38.7643 153.221 39.2719C153.233 39.8141 153.094 40.2064 152.817 40.4256ZM152.079 38.7527C151.952 38.6489 151.779 38.6027 151.56 38.6027H150.683V39.9756H151.56C151.779 39.9756 151.952 39.918 152.079 39.8026C152.206 39.6988 152.264 39.5142 152.264 39.2719C152.264 39.0296 152.206 38.8566 152.079 38.7527Z" fill="white"/>
<path d="M154.49 37.7952H155.459V41.6139H157.79V42.4445H154.49V37.7952Z" fill="white"/>
<path d="M159.936 37.8413H158.966V42.4907H159.936V37.8413Z" fill="white"/>
<path d="M164.642 38.6143H162.185V39.6065H164.446V40.414H162.185V41.6139H164.758V42.4445H161.228V37.7952H164.642V38.6143Z" fill="white"/>
<path d="M166.696 41.0138C166.731 41.233 166.788 41.383 166.869 41.4868C167.031 41.6829 167.308 41.7752 167.7 41.7752C167.931 41.7752 168.127 41.7521 168.265 41.6945C168.542 41.6022 168.68 41.4176 168.68 41.1522C168.68 41.0022 168.611 40.8753 168.484 40.7946C168.346 40.7138 168.138 40.6446 167.838 40.5754L167.331 40.46C166.835 40.3446 166.5 40.2293 166.315 40.1024C166.004 39.8832 165.842 39.5486 165.842 39.0987C165.842 38.6833 165.992 38.3372 166.304 38.0604C166.615 37.7835 167.065 37.645 167.654 37.645C168.15 37.645 168.577 37.7719 168.923 38.0373C169.269 38.3026 169.453 38.6718 169.477 39.1679H168.542C168.531 38.891 168.404 38.6949 168.173 38.568C168.023 38.4872 167.827 38.4526 167.596 38.4526C167.342 38.4526 167.135 38.4987 166.985 38.6026C166.835 38.7064 166.754 38.8449 166.754 39.0294C166.754 39.191 166.835 39.3179 166.985 39.3986C167.077 39.4563 167.285 39.514 167.608 39.5948L168.427 39.7909C168.784 39.8716 169.05 39.987 169.234 40.1254C169.511 40.3446 169.65 40.6561 169.65 41.0715C169.65 41.4983 169.488 41.8444 169.153 42.1329C168.83 42.4097 168.357 42.5482 167.758 42.5482C167.146 42.5482 166.662 42.4097 166.315 42.1329C165.969 41.856 165.796 41.4753 165.796 40.9907L166.696 41.0138Z" fill="white"/>
<path d="M59.392 57.9996H59.3804C59.3112 57.9996 59.2535 57.9996 59.1843 57.9881C57.9845 57.8958 57.0269 56.9383 56.9346 55.7154L56.3116 48.3318C52.989 46.1051 50.4047 42.9902 48.8357 39.3099C48.7204 39.033 48.7665 38.71 48.9511 38.4793C50.8316 36.1373 52.0891 33.4607 52.7121 30.4958C53.5082 26.7001 53.1159 22.8007 51.593 19.2243C51.4777 18.9474 51.5238 18.6243 51.7084 18.3936C54.8003 14.5057 59.1728 11.8753 64.0182 10.9639C69.3944 9.96016 74.8513 11.0908 79.3853 14.1711C83.9193 17.2399 86.9881 21.9008 88.038 27.2655C89.0878 32.6301 87.9572 38.1216 84.8538 42.7248C81.7504 47.3281 77.0895 50.4315 71.7133 51.4582C69.4752 51.8851 67.2024 51.9543 64.9643 51.6428L61.434 56.9036C60.9494 57.5843 60.1995 57.9996 59.392 57.9996ZM50.5316 39.1023C52.043 42.4134 54.4542 45.1937 57.523 47.1665C57.7422 47.305 57.8806 47.5357 57.8922 47.7895L58.5498 55.5769C58.5844 55.9922 58.9074 56.3268 59.2997 56.3614C59.3227 56.3614 59.3573 56.3614 59.3804 56.3614C59.6342 56.3614 59.888 56.223 60.038 55.9807L63.8683 50.293C64.0413 50.0277 64.3643 49.8892 64.6874 49.9469C66.9025 50.3161 69.1521 50.2815 71.3788 49.8546C76.3165 48.9086 80.6082 46.0475 83.4694 41.8134C86.3305 37.5794 87.3688 32.5263 86.4113 27.5885C85.4422 22.6392 82.6157 18.359 78.4508 15.5325C74.286 12.7059 69.256 11.6561 64.3067 12.579C60.0034 13.3866 56.1039 15.6709 53.2774 19.0512C54.7772 22.8122 55.1349 26.8732 54.3042 30.8419C53.6697 33.8761 52.4006 36.6565 50.5316 39.1023Z" fill="white"/>
<path d="M38.1756 50.7197C37.7487 50.7197 37.3219 50.6159 36.9412 50.4198C36.7566 50.3275 36.572 50.2006 36.3989 50.0275L33.2378 47.0625C30.9535 47.351 28.6462 47.2587 26.3619 46.7857C21.0088 45.655 16.4056 42.4709 13.3714 37.8215C10.3487 33.1606 9.31038 27.6575 10.4525 22.3044C11.5947 16.9513 14.7558 12.3597 19.3359 9.36009C23.916 6.37204 29.3961 5.32219 34.7492 6.42973C41.3598 7.79107 46.8975 12.3251 49.5625 18.578C51.2238 22.466 51.6391 26.7 50.7854 30.8302C50.1163 34.0374 48.7434 36.9563 46.7013 39.4944C45.2938 41.248 43.6325 42.7478 41.7405 43.9591L40.656 48.7239C40.4253 49.7276 39.6408 50.5005 38.6602 50.6851C38.5102 50.7082 38.3371 50.7197 38.1756 50.7197ZM33.5032 45.3782C33.7108 45.3782 33.907 45.4589 34.0685 45.5974L37.518 48.8277C37.5757 48.8854 37.6334 48.9315 37.6911 48.9546C37.8987 49.0584 38.141 49.093 38.3833 49.0584C38.7178 49.0007 38.9947 48.7123 39.0755 48.3547L40.2407 43.2669C40.2869 43.0477 40.4253 42.8631 40.6099 42.7478C42.4558 41.6056 44.0825 40.1635 45.4438 38.4676C47.3128 36.1256 48.5819 33.4491 49.2048 30.4841C50.0009 26.6884 49.6086 22.789 48.0858 19.2126C45.6284 13.4557 40.5291 9.27933 34.4492 8.02181C29.5114 7.00657 24.4698 7.96413 20.2589 10.7214C16.0364 13.4787 13.1406 17.7128 12.0792 22.639C11.0294 27.5537 11.9869 32.6299 14.7673 36.9216C17.5477 41.2134 21.7933 44.1437 26.7195 45.182C28.9346 45.6551 31.1843 45.7243 33.4109 45.3897C33.434 45.3897 33.4686 45.3782 33.5032 45.3782Z" fill="white"/>
<path d="M32.0727 13.9979C29.3269 14.3324 29.0269 18.1511 29.8114 20.5162C30.4575 22.4774 32.0727 24.4272 34.1147 23.3542C34.4608 23.1697 34.9338 22.6505 35.1645 22.2813C36.5259 20.0547 35.6491 15.1977 33.1917 14.1363C32.9264 14.0209 32.5111 13.9402 32.0727 13.9979Z" fill="white"/>
<path d="M24.0892 16.64C23.8354 16.6746 23.3278 16.813 22.9932 17.0553C20.4205 18.9358 23.0394 24.3697 25.6582 25.4195C26.2582 25.6618 27.308 25.8464 28.1848 25.258C29.4308 24.4158 29.3962 22.3276 28.9116 20.8625C28.1617 18.5782 26.5581 17.0207 25.0468 16.6515C24.8045 16.5938 24.4815 16.5823 24.0892 16.64Z" fill="white"/>
<path d="M38.7062 18.9703C37.7601 19.2472 37.0449 20.0432 36.6295 20.8393C35.6143 22.8467 35.9489 27.5191 39.0061 27.5076C39.5945 27.5076 40.2636 27.1268 40.6674 26.7923C41.8788 25.777 42.5826 23.4351 42.1557 21.6468C41.7404 19.8009 40.4367 18.4742 38.7062 18.9703Z" fill="white"/>
<path d="M20.9857 24.8426C20.0513 25.1079 19.4398 25.8693 19.2898 26.6423C18.7014 29.4804 21.8741 32.4338 24.1584 32.3646C25.6466 32.3185 26.5234 31.2109 26.6619 30.2995C27.0195 28.1421 25.2082 25.9386 23.6046 25.1425C22.9701 24.8426 22.0125 24.5541 20.9857 24.8426Z" fill="white"/>
<path d="M31.8878 26.6191C30.8957 26.7922 29.9612 27.3575 29.3267 28.0266C27.8615 29.561 26.8924 32.1914 26.5924 34.4872C26.5117 35.0641 26.3617 36.287 26.5578 37.083C26.9385 38.6867 28.2422 39.4712 29.6035 39.1597C30.5726 38.9405 31.4379 38.3175 32.2339 37.7868C32.9838 37.2907 33.6991 36.5408 34.4721 36.2639C35.1412 36.0216 36.2257 36.1716 37.2871 36.1139C39.5483 35.987 42.2479 35.364 41.6365 32.8259C41.4173 31.8914 40.5289 30.9224 40.0444 30.3801C39.3983 29.6764 38.6715 29.0765 38.1293 28.6611C36.9987 27.8074 35.1412 26.8152 33.5722 26.5845C33.1569 26.5037 32.4301 26.5153 31.8878 26.6191Z" fill="white"/>
<path d="M76.305 30.8532C76.2934 30.8417 76.2819 30.8417 76.2588 30.8302C78.024 28.0613 76.9626 25.5232 75.2551 24.3234C74.136 23.5389 72.7516 23.3658 71.7018 23.6081C71.2518 22.6275 70.2943 21.6237 68.9906 21.1969C66.9947 20.5508 64.3412 21.2315 63.1876 24.3003C63.176 24.2888 63.1529 24.2772 63.1414 24.2772C61.9531 23.8734 59.6457 24.2888 58.619 26.2731C57.1192 29.215 58.7228 31.1763 58.7228 33.0683C58.7228 36.4371 60.3726 38.3983 63.5106 39.9097L63.5452 39.9212L63.5798 39.9327C66.6601 41.5248 69.2329 41.6633 71.921 39.6443C73.4438 38.5022 75.9704 38.6175 77.424 35.641C78.4047 33.6682 77.3548 31.5685 76.305 30.8532ZM71.1595 26.55C72.1863 25.5463 73.6861 25.4078 74.5168 26.25C75.3474 27.0922 75.1859 28.592 74.1591 29.5957C73.1323 30.5994 71.6325 30.7379 70.8019 29.8957C69.9828 29.0535 70.1443 27.5537 71.1595 26.55ZM67.9061 22.9505C69.0829 23.1005 69.8674 24.3811 69.6828 25.8116C69.4982 27.2307 68.3907 28.269 67.2255 28.1075C66.0602 27.9459 65.2642 26.6654 65.4488 25.2463C65.6334 23.8157 66.7409 22.789 67.9061 22.9505ZM60.2226 29.2611C59.7726 27.8998 60.3149 26.4923 61.4455 26.1231C62.5646 25.7539 63.8336 26.5615 64.2836 27.9344C64.7335 29.2958 64.1913 30.7033 63.0606 31.0724C61.9416 31.4301 60.6725 30.6225 60.2226 29.2611ZM69.4636 37.36C68.806 37.7869 67.5946 37.6369 66.614 36.714C66.141 36.2525 65.6218 35.9756 65.5526 35.9295C65.4719 35.8948 64.9412 35.6526 64.2836 35.5487C62.9568 35.3295 62.1146 34.4527 62.0569 33.6682C62.0223 33.2183 62.0915 32.6876 62.5299 32.2723C63.326 31.5108 64.0644 31.6724 65.2642 30.8994C66.0141 30.4148 67.2024 28.6958 68.7714 29.4803C70.3404 30.2764 69.6828 32.2607 69.752 33.1375C69.8559 34.5681 70.4327 35.0526 70.3058 36.1487C70.225 36.7486 69.8559 37.1177 69.4636 37.36ZM74.0899 36.1833C72.7285 36.6447 71.321 36.114 70.9403 34.995C70.5596 33.8759 71.3556 32.5953 72.717 32.1338C74.0783 31.6724 75.4858 32.203 75.8666 33.3221C76.2473 34.4412 75.4512 35.7218 74.0899 36.1833Z" fill="white"/>
<path d="M106.624 26.9042C106.416 26.858 106.162 26.8234 105.874 26.8234H103.693C103.359 26.8234 103.082 26.9157 102.874 27.1003C102.666 27.2964 102.551 27.5502 102.551 27.8387C102.551 28.2886 102.77 28.5193 102.966 28.6347C103.197 28.7732 103.509 28.8308 103.924 28.8308H105.124V29.9153C104.789 30.0884 104.466 30.2153 104.143 30.3191C103.786 30.4229 103.382 30.4806 102.966 30.4806C102.136 30.4806 101.501 30.2153 101.04 29.6846C100.578 29.1423 100.336 28.3348 100.336 27.2964C100.336 26.8119 100.394 26.3735 100.521 25.9812C100.636 25.6005 100.809 25.2659 101.04 25.0121C101.259 24.7583 101.524 24.5507 101.836 24.4238C102.147 24.2853 102.516 24.2161 102.909 24.2161C103.301 24.2161 103.612 24.2738 103.855 24.3776C104.097 24.493 104.282 24.6314 104.42 24.7814C104.57 24.966 104.766 25.2313 104.997 25.589L105.008 25.6005C105.124 25.7505 105.262 25.8774 105.424 25.9582C105.585 26.0389 105.77 26.0851 105.954 26.0851C106.278 26.0851 106.566 25.9697 106.797 25.7505C107.039 25.5313 107.154 25.2544 107.154 24.9314C107.154 24.666 107.062 24.3545 106.889 24.0315C106.716 23.7085 106.462 23.4085 106.128 23.1316C105.793 22.8547 105.366 22.6125 104.835 22.4394C104.316 22.2548 103.716 22.1741 103.047 22.1741C102.24 22.1741 101.513 22.2894 100.867 22.5317C100.221 22.774 99.6553 23.1201 99.2054 23.5816C98.7555 24.0315 98.3978 24.5968 98.1671 25.2429C97.9364 25.8774 97.821 26.5927 97.821 27.3657C97.821 28.1502 97.9364 28.8655 98.1786 29.5C98.4209 30.146 98.767 30.6998 99.2169 31.1497C99.6669 31.5997 100.221 31.9573 100.855 32.1996C101.49 32.4303 102.193 32.5572 102.943 32.5572C103.589 32.5572 104.201 32.488 104.755 32.338C105.308 32.1881 105.885 31.9573 106.474 31.6343C106.693 31.5189 106.877 31.392 107.016 31.2536C107.177 31.1036 107.293 30.9305 107.362 30.746C107.42 30.5729 107.443 30.3537 107.443 30.0768V28.254C107.443 27.8617 107.374 27.5733 107.224 27.3541C107.074 27.1234 106.866 26.9734 106.624 26.9042Z" fill="white"/>
<path d="M116.072 30.2844H111.873V28.1501H115.576C115.945 28.1501 116.234 28.0578 116.43 27.8617C116.626 27.6771 116.73 27.4233 116.73 27.1348C116.73 26.8464 116.626 26.5926 116.418 26.408C116.222 26.2234 115.934 26.1427 115.565 26.1427H111.861V24.3775H115.911C116.292 24.3775 116.58 24.2852 116.788 24.1007C116.995 23.9161 117.099 23.6507 117.099 23.3508C117.099 23.0508 116.984 22.797 116.788 22.6009C116.592 22.4163 116.292 22.324 115.911 22.324H110.835C110.523 22.324 110.258 22.3701 110.05 22.474C109.819 22.5778 109.635 22.7624 109.531 22.9931C109.427 23.2008 109.381 23.4777 109.381 23.7892V30.9189C109.381 31.4035 109.496 31.7727 109.739 32.0149C109.981 32.2572 110.35 32.3726 110.846 32.3726H116.072C116.442 32.3726 116.741 32.2803 116.949 32.0842C117.157 31.888 117.272 31.6342 117.272 31.3343C117.272 31.0228 117.168 30.7574 116.949 30.5613C116.73 30.3767 116.442 30.2844 116.072 30.2844Z" fill="white"/>
<path d="M125.337 22.324H119.222C118.841 22.324 118.53 22.4163 118.322 22.6009C118.091 22.797 117.976 23.0739 117.976 23.3969C117.976 23.7199 118.091 23.9853 118.311 24.1814C118.518 24.3775 118.83 24.4698 119.234 24.4698H121.045V31.092C121.045 31.5535 121.16 31.9226 121.391 32.1649C121.622 32.4187 121.933 32.5456 122.291 32.5456C122.648 32.5456 122.948 32.4187 123.179 32.1649C123.41 31.9226 123.525 31.5535 123.525 31.092V24.4814H125.337C125.729 24.4814 126.04 24.3891 126.259 24.1929C126.479 23.9968 126.606 23.7199 126.606 23.4084C126.606 23.0854 126.49 22.8201 126.271 22.6239C126.052 22.4163 125.74 22.324 125.337 22.324Z" fill="white"/>
<path d="M138.5 26.9851C138.177 26.7543 137.785 26.5582 137.323 26.3967C136.885 26.2467 136.389 26.0967 135.847 25.9698C135.431 25.866 135.12 25.7852 134.935 25.7275C134.774 25.6814 134.601 25.6006 134.439 25.5199C134.289 25.4391 134.185 25.3468 134.105 25.243C134.035 25.1507 134.012 25.0469 134.012 24.92C134.012 24.7815 134.047 24.5854 134.347 24.3662C134.601 24.1816 134.947 24.0893 135.385 24.0893C135.847 24.0893 136.181 24.1701 136.366 24.3201C136.574 24.4931 136.758 24.7469 136.92 25.0699V25.0815C137.07 25.3584 137.208 25.566 137.347 25.6929C137.52 25.8545 137.75 25.9352 138.05 25.9352C138.373 25.9352 138.65 25.8083 138.869 25.566C139.077 25.3238 139.181 25.0584 139.181 24.7585C139.181 24.47 139.112 24.1701 138.962 23.8586C138.812 23.5586 138.581 23.2817 138.281 23.0164C137.97 22.751 137.589 22.5434 137.127 22.3819C136.677 22.2319 136.135 22.1511 135.524 22.1511C134.762 22.1511 134.082 22.2665 133.516 22.4972C132.928 22.7395 132.466 23.0856 132.155 23.5355C131.832 23.9855 131.682 24.5162 131.682 25.093C131.682 25.7045 131.832 26.2236 132.143 26.639C132.443 27.0428 132.847 27.3658 133.343 27.6081C133.816 27.8273 134.416 28.0234 135.108 28.1849C135.604 28.3003 136.008 28.4041 136.297 28.5079C136.562 28.6002 136.77 28.7271 136.931 28.8887C137.07 29.0271 137.139 29.2232 137.139 29.454C137.139 29.7654 137 30.0077 136.724 30.2269C136.424 30.4577 136.008 30.573 135.501 30.573C135.131 30.573 134.843 30.5153 134.624 30.4115C134.416 30.3077 134.243 30.1577 134.139 29.9962C134.012 29.8116 133.886 29.5809 133.782 29.2924C133.666 28.9925 133.528 28.7733 133.355 28.6118C133.159 28.4387 132.916 28.3464 132.651 28.3464C132.328 28.3464 132.051 28.4618 131.832 28.681C131.613 28.9002 131.509 29.1655 131.509 29.477C131.509 29.927 131.659 30.4 131.959 30.873C132.247 31.3345 132.64 31.7036 133.113 31.9921C133.759 32.3728 134.589 32.5574 135.57 32.5574C136.389 32.5574 137.104 32.4189 137.716 32.142C138.339 31.8652 138.812 31.4614 139.135 30.9653C139.458 30.4577 139.619 29.8924 139.619 29.2694C139.619 28.7502 139.527 28.3003 139.331 27.9311C139.112 27.5388 138.846 27.2273 138.5 26.9851Z" fill="white"/>
<path d="M148.007 30.2844H143.807V28.1501H147.51C147.88 28.1501 148.168 28.0578 148.364 27.8617C148.56 27.6655 148.664 27.4233 148.664 27.1348C148.664 26.8464 148.56 26.5926 148.353 26.408C148.157 26.2234 147.868 26.1427 147.499 26.1427H143.807V24.3775H147.857C148.237 24.3775 148.526 24.2852 148.733 24.1007C148.941 23.9161 149.056 23.6507 149.056 23.3508C149.056 23.0508 148.941 22.797 148.733 22.6009C148.537 22.4163 148.237 22.324 147.857 22.324H142.78C142.469 22.324 142.204 22.3701 141.996 22.474C141.765 22.5778 141.581 22.7624 141.477 22.9931C141.373 23.2123 141.327 23.4661 141.327 23.7892V30.9189C141.327 31.4035 141.442 31.7727 141.684 32.0149C141.927 32.2572 142.296 32.3726 142.792 32.3726H148.018C148.387 32.3726 148.687 32.2803 148.895 32.0842C149.103 31.888 149.218 31.6342 149.218 31.3343C149.218 31.0228 149.114 30.7574 148.895 30.5613C148.676 30.3767 148.376 30.2844 148.007 30.2844Z" fill="white"/>
<path d="M157.271 22.324H151.156C150.775 22.324 150.464 22.4163 150.245 22.6009C150.014 22.797 149.898 23.0739 149.898 23.3969C149.898 23.7199 150.014 23.9853 150.233 24.1814C150.441 24.3775 150.752 24.4698 151.156 24.4698H152.967V31.092C152.967 31.5535 153.083 31.9226 153.313 32.1649C153.544 32.4187 153.856 32.5456 154.213 32.5456C154.571 32.5456 154.871 32.4187 155.113 32.1649C155.332 31.9226 155.448 31.5535 155.448 31.092V24.4814H157.259C157.663 24.4814 157.963 24.3891 158.182 24.1929C158.401 23.9968 158.528 23.7199 158.528 23.4084C158.528 23.0854 158.413 22.8201 158.194 22.6239C157.986 22.4163 157.674 22.324 157.271 22.324Z" fill="white"/>
<path d="M170.596 23.0972C170.284 22.8204 169.904 22.6242 169.477 22.4973C169.05 22.382 168.473 22.3127 167.712 22.3127H165.243C164.747 22.3127 164.377 22.4281 164.124 22.6588C163.87 22.9011 163.743 23.2703 163.743 23.7664V31.0808C163.743 31.5307 163.858 31.8883 164.077 32.1306C164.308 32.3844 164.62 32.5229 164.989 32.5229C165.346 32.5229 165.646 32.396 165.889 32.1306C166.119 31.8768 166.235 31.5192 166.235 31.0692V28.6696H167.712C168.958 28.6696 169.904 28.3927 170.55 27.8504C171.207 27.2967 171.542 26.4891 171.542 25.4392C171.542 24.9547 171.461 24.5047 171.3 24.1125C171.15 23.7202 170.907 23.3741 170.596 23.0972ZM169.038 25.4969C169.038 25.7853 168.981 26.0161 168.854 26.1776C168.727 26.3506 168.554 26.466 168.3 26.5468C168.023 26.6391 167.665 26.6737 167.25 26.6737H166.235V24.3432H167.25C168.219 24.3432 168.6 24.5278 168.75 24.6778C168.946 24.8739 169.038 25.1508 169.038 25.4969Z" fill="white"/>
<path d="M179.94 30.2844H175.741V28.1501H179.456C179.825 28.1501 180.114 28.0578 180.31 27.8617C180.506 27.6771 180.61 27.4233 180.61 27.1348C180.61 26.8464 180.506 26.5926 180.298 26.408C180.102 26.2234 179.814 26.1427 179.456 26.1427H175.753V24.3775H179.802C180.183 24.3775 180.471 24.2852 180.679 24.1007C180.886 23.9161 180.99 23.6507 180.99 23.3508C180.99 23.0508 180.886 22.797 180.679 22.6009C180.471 22.4163 180.183 22.324 179.802 22.324H174.726C174.414 22.324 174.149 22.3701 173.941 22.474C173.699 22.5778 173.526 22.7624 173.422 22.9931C173.318 23.2123 173.272 23.4661 173.272 23.7892V30.9189C173.272 31.4035 173.399 31.7727 173.63 32.0149C173.872 32.2572 174.241 32.3726 174.737 32.3726H179.964C180.333 32.3726 180.633 32.2803 180.84 32.0842C181.048 31.888 181.163 31.6342 181.163 31.3343C181.163 31.0228 181.06 30.7574 180.84 30.5613C180.61 30.3767 180.321 30.2844 179.94 30.2844Z" fill="white"/>
<path d="M190.139 22.6124C189.92 22.4163 189.608 22.324 189.205 22.324H183.09C182.709 22.324 182.398 22.4163 182.179 22.6009C181.948 22.797 181.833 23.0739 181.833 23.3969C181.833 23.7199 181.948 23.9853 182.167 24.1814C182.375 24.3775 182.686 24.4698 183.09 24.4698H184.901V31.092C184.901 31.5535 185.017 31.9111 185.247 32.1649C185.478 32.4187 185.79 32.5456 186.147 32.5456C186.505 32.5456 186.805 32.4187 187.047 32.1649C187.278 31.9226 187.393 31.5535 187.393 31.092V24.4814H189.205C189.597 24.4814 189.908 24.3891 190.128 24.1929C190.347 23.9968 190.474 23.7199 190.474 23.4084C190.474 23.0854 190.37 22.8201 190.139 22.6124Z" fill="white"/>
</svg>
