<svg width="200" height="64" viewBox="0 0 200 64" fill="none" xmlns="http://www.w3.org/2000/svg">
<g clip-path="url(#clip0_282_2024)">
<path d="M172.561 34.0814C172.519 35.0485 172.407 36.0021 172.223 36.9424C171.933 38.4713 172.355 39.3485 173.49 39.574C174.293 39.7307 174.967 39.4899 175.514 38.8516C176.03 38.2515 176.324 37.51 176.397 36.627C176.473 35.7021 176.965 35.2376 177.87 35.2338L182.709 35.2052C183.52 35.2013 183.89 35.6103 183.822 36.4321C183.447 40.8009 181.117 43.7861 176.833 45.3876C172.563 46.9814 169.037 46.1539 166.255 42.905C164.76 41.1544 164.269 39.0159 164.781 36.4894C165.247 34.1923 165.723 31.897 166.209 29.6037C166.885 26.393 167.612 24.1857 168.387 22.9817C169.924 20.5966 172.223 19.0907 175.285 18.4638C178.713 17.7644 181.517 18.5651 183.695 20.8661C184.685 21.9096 185.333 23.0906 185.639 24.4093C185.956 25.7968 185.93 27.1976 185.559 28.6118C185.475 28.9367 185.328 29.7394 185.117 31.0198C184.896 32.3729 184.112 33.145 182.767 33.3361C182.759 33.3361 181.761 33.3342 179.774 33.3304C177.549 33.3227 175.392 33.3361 173.301 33.3705C173.11 33.3718 172.927 33.4462 172.789 33.5785C172.652 33.7107 172.57 33.8908 172.561 34.0814ZM173.84 28.2277C173.599 28.9845 174.025 29.254 175.118 29.0361C175.73 28.9138 176.338 28.9233 176.942 29.0648C177.637 29.2253 178.033 29.0093 178.128 28.4169C178.193 28.0079 178.232 27.7805 178.243 27.7346C178.843 25.4184 178 24.4609 175.715 24.8622C175.525 24.8956 175.354 24.9861 175.227 25.1202C174.677 25.7089 174.32 26.3873 174.155 27.1556C174.113 27.3429 174.008 27.7002 173.84 28.2277Z" fill="white"/>
<path d="M158.44 22.0128C159.678 19.8303 161.467 18.8403 163.806 19.0429C164.999 19.1499 165.842 19.6296 166.335 20.482C166.912 21.4834 166.87 22.6148 166.209 23.8761C165.838 24.5794 165.257 24.8775 164.466 24.7705C163.155 24.5909 162.048 24.7973 161.146 25.3897C160.577 25.7681 160.181 26.437 159.959 27.3964C158.755 32.6596 157.662 37.9438 156.68 43.249C156.477 44.3345 156.229 45.0417 155.935 45.3704C155.407 45.9552 154.597 46.1864 153.504 46.0641C152.648 45.9685 151.797 46.001 150.952 46.1616C150.104 46.3183 149.563 46.0412 149.33 45.3302C149.211 44.9709 149.219 44.453 149.353 43.7765C150.499 37.9476 151.65 32.1206 152.804 26.2956C153.206 24.2621 153.521 22.2115 153.75 20.1437C153.765 20.0052 153.822 19.8745 153.914 19.7691C154.005 19.6636 154.126 19.5883 154.26 19.5532C155.564 19.2168 156.909 19.0869 158.297 19.1633C158.387 19.1683 158.472 19.1993 158.541 19.2517C158.61 19.3042 158.659 19.3756 158.681 19.4557C158.826 19.9755 158.742 20.4781 158.429 20.9636C158.199 21.3152 158.125 21.6592 158.205 21.9956C158.251 22.1981 158.329 22.2039 158.44 22.0128Z" fill="white"/>
<path d="M131.402 42.8076C130.611 41.5884 130.182 40.2238 130.117 38.714C130.083 37.8961 130.278 36.522 130.702 34.5918C131.272 32.0156 131.795 29.4318 132.273 26.8403C132.506 25.579 132.915 24.5737 133.5 23.8246C135.411 21.3669 138.05 20.0654 141.418 19.9202C144.586 19.7826 147.035 20.9961 148.762 23.5608C149.557 24.7419 149.943 25.9994 149.92 27.3334C149.913 27.6697 149.689 28.9215 149.25 31.0887C148.745 33.5961 148.227 36.1016 147.696 38.6051C147.077 41.5291 145.236 43.6543 142.175 44.9806C140.092 45.8864 138.083 46.1846 136.149 45.875C134.089 45.5463 132.506 44.5238 131.402 42.8076ZM141.71 26.0376C140.697 25.7357 139.868 25.944 139.222 26.6626C138.855 27.0677 138.557 27.771 138.328 28.7724C137.67 31.6047 137.089 34.4542 136.585 37.3208C136.428 38.2038 136.525 38.8555 136.877 39.2759C137.401 39.9028 138.2 40.0232 139.274 39.6371C140.168 39.3199 140.709 38.7064 140.896 37.7967L142.914 28.0328C143.124 27.0047 142.723 26.3396 141.71 26.0376Z" fill="white"/>
<path d="M108.652 24.1742C110.544 21.4222 113.057 20.8622 116.191 22.4943C117.086 22.9606 117.668 23.5875 117.94 24.3749C118.089 24.8144 118.297 24.8431 118.565 24.4609C119.669 22.8937 121.057 21.8598 122.727 21.3591C124.428 20.8508 125.947 21.0419 127.285 21.9325C128.313 22.6205 129.007 23.597 129.366 24.8622C129.603 25.6993 129.588 26.8325 129.321 28.2621C128.292 33.8043 127.178 39.3331 125.978 44.8486C125.817 45.5863 125.403 45.9609 124.734 45.9723L120.422 46.0583C119.517 46.0774 119.159 45.6149 119.35 44.6709L122.165 30.5153C122.372 29.4909 121.967 28.8755 120.95 28.6691C119.142 28.2984 118.022 29.145 117.59 31.209C116.268 37.5118 115.469 41.6131 115.194 43.5127C115.067 44.3918 114.771 45.0607 114.305 45.5194C113.934 45.8825 113.302 46.0755 112.407 46.0985C111.643 46.1176 110.936 46.1099 110.286 46.0755C109.097 46.0144 108.631 45.4028 108.887 44.2409C109.911 39.551 110.63 34.7961 111.043 29.9763C111.111 29.1507 110.735 28.6825 109.913 28.5717C109.153 28.4723 108.509 28.736 107.981 29.3629C107.671 29.7298 107.419 30.3222 107.224 31.1402C106.257 35.2414 105.392 39.3637 104.627 43.507C104.459 44.4243 104.226 45.0512 103.928 45.3875C103.442 45.9379 102.754 46.1978 101.864 46.1673C100.824 46.1367 99.8455 46.1023 98.9281 46.0641C97.9229 46.0258 97.5158 45.5117 97.7069 44.5218C99.0562 37.5348 100.442 30.5573 101.864 23.5894C102.081 22.5192 102.643 21.9802 103.549 21.9726C104.134 21.9688 104.444 21.9649 104.478 21.9611C105.269 21.8847 106.062 21.8484 106.857 21.8522C107.606 21.8522 108.121 22.0529 108.4 22.4542C108.709 22.8976 108.77 23.4594 108.583 24.1398C108.537 24.2965 108.56 24.308 108.652 24.1742Z" fill="white"/>
<path d="M81.9059 43.6905C80.6369 42.3375 80.075 40.7971 80.2203 39.0695C80.312 37.9763 80.6311 36.2181 81.1777 33.7948C81.8581 30.7982 82.2881 29.0648 82.4677 28.5947C83.7099 25.3725 86.2575 23.4652 90.1103 22.8728C90.8632 22.7581 91.6716 22.7925 92.5354 22.976C93.3114 23.1442 94.0491 23.4423 94.7485 23.8704C96.9195 25.2082 97.9917 27.0696 97.9649 29.4547C97.9611 29.8904 97.6496 31.6161 97.0304 34.6319C96.7934 35.7747 96.5603 36.9176 96.3309 38.0604C96.0366 39.532 95.6869 40.6423 95.2817 41.3915C93.9287 43.8836 91.7385 45.4086 88.7113 45.9667C86.0549 46.4559 83.7864 45.6972 81.9059 43.6905ZM90.6607 28.3195C89.5293 27.9755 88.7687 28.4991 88.3788 29.8904C87.5073 32.9979 86.8996 36.1512 86.5556 39.3504C86.537 39.55 86.5818 39.7392 86.6817 39.8836C87.4041 40.8965 88.2718 41.0092 89.2847 40.2219C89.4332 40.1032 89.5364 39.9415 89.5771 39.7632L91.6984 30.028C91.8895 29.1603 91.5436 28.5908 90.6607 28.3195Z" fill="white"/>
<path d="M74.8252 25.7509C76.0674 23.9239 77.753 23.1939 79.882 23.5608C80.5967 23.6869 81.0898 23.9774 81.3612 24.4323C81.6593 24.933 81.7568 25.5598 81.6536 26.3128C81.4663 27.7156 80.7668 28.4131 79.5552 28.4055C78.5423 28.3978 78.032 28.3959 78.0244 28.3997C77.1032 28.587 76.4821 29.103 76.1611 29.9477C76.1572 29.9516 75.9967 30.6835 75.6795 32.1436C74.7851 36.2563 73.9212 40.3728 73.088 44.4932C72.8357 45.724 72.0579 46.2896 70.7545 46.1903C69.8525 46.1253 68.9428 46.0928 68.0255 46.0928C67.91 46.0924 67.7958 46.0681 67.6902 46.0215C67.5846 45.9748 67.4897 45.9068 67.4116 45.8217C67.3335 45.7366 67.2739 45.6363 67.2365 45.5271C67.199 45.4178 67.1846 45.302 67.1941 45.1869C67.3547 43.2758 67.5553 41.3399 67.7961 39.3791C67.9987 37.7279 68.3312 35.8148 68.7937 33.64C69.3976 30.8154 69.9786 27.9583 70.5367 25.0687C70.701 24.2125 71.1616 23.7672 71.9184 23.7328L74.7793 23.5895C75.3374 23.5627 75.4616 23.7997 75.152 24.3004C74.8844 24.7285 74.7277 25.1967 74.6818 25.7051C74.6627 25.9 74.7105 25.9153 74.8252 25.7509Z" fill="white"/>
<path d="M58.1698 44.5794C56.1746 46.0127 54.0514 46.4408 51.8001 45.8636C50.5579 45.5464 49.7036 44.9807 49.2373 44.1666C48.7251 43.2722 48.5894 42.1465 48.8302 40.7896C49.7476 35.6487 50.7719 30.6474 51.9033 25.7855C52.0791 25.0325 52.555 24.6388 53.3309 24.6044C54.2941 24.5586 55.1809 24.4898 55.9912 24.398C57.6271 24.2069 58.2845 24.9102 57.9634 26.5079C57.0881 30.8423 56.188 35.1977 55.263 39.5742C55.0605 40.5374 55.4331 41.1546 56.381 41.426C57.3098 41.6898 58.0743 41.4834 58.6744 40.8068C59.0184 40.417 59.2859 39.7576 59.477 38.8288C60.402 34.2727 61.3442 29.7166 62.3036 25.1606C62.3505 24.9396 62.4572 24.7359 62.612 24.572C62.7667 24.4081 62.9636 24.2904 63.1808 24.2318C64.1096 23.9718 65.4435 23.9241 67.1826 24.0884C67.3797 24.1074 67.562 24.2005 67.6921 24.3488C67.8222 24.497 67.8902 24.689 67.8821 24.8854C67.7942 27.3392 67.4884 29.8657 66.9648 32.4648C66.1697 36.375 65.4168 40.2946 64.7058 44.2239C64.465 45.5387 63.5133 46.1541 61.8506 46.07C61.1703 46.0356 60.4899 46.0566 59.8096 46.1331C58.8425 46.2363 58.3667 45.7566 58.382 44.694C58.3858 44.5106 58.3151 44.4723 58.1698 44.5794Z" fill="white"/>
<path d="M40.0525 40.9614C40.8284 40.6174 41.2814 39.9486 41.4113 38.9548C41.5145 38.1712 41.9598 37.7794 42.7472 37.7794H45.9349C46.0782 37.7791 46.2161 37.8329 46.3205 37.9299C46.425 38.0268 46.488 38.1597 46.4968 38.3012C46.6688 40.9079 45.9063 42.8725 44.2092 44.195C42.9058 45.2079 41.3788 45.8214 39.6283 46.0354C37.8547 46.2571 36.301 45.9915 34.9671 45.2385C32.8037 44.0192 31.8347 41.9151 32.0603 38.9261C32.1558 37.6801 32.5686 35.6849 33.2987 32.9405C33.9752 30.4102 34.7931 28.6367 35.7525 27.62C37.4458 25.8197 39.7506 25.0495 42.6669 25.3094C45.2584 25.5388 46.944 26.76 47.7237 28.973C48.0524 29.898 48.1059 31.0026 47.8843 32.2869C47.6931 33.3992 47.4275 34.4904 47.0873 35.5606C47.0174 35.7778 46.8822 35.9674 46.701 36.1023C46.5198 36.2371 46.3018 36.3104 46.0783 36.3117L38.8084 36.3404C38.6685 36.3423 38.5337 36.3911 38.4263 36.4787C38.3189 36.5663 38.2453 36.6874 38.2179 36.822C38.0076 37.8578 37.8509 38.67 37.7477 39.2586C37.6025 40.1301 37.8433 40.7092 38.4701 40.9958C38.967 41.2214 39.4945 41.2099 40.0525 40.9614ZM41.8929 29.9764C40.2035 29.7585 39.2843 30.5306 39.1352 32.2926C39.1321 32.3305 39.1366 32.3685 39.1486 32.4045C39.1606 32.4406 39.1798 32.4738 39.205 32.5022C39.2302 32.5306 39.2608 32.5536 39.2952 32.5698C39.3295 32.586 39.3667 32.5951 39.4047 32.5965C40.2035 32.6309 41.0043 32.6596 41.8069 32.6825C42.6249 32.7054 42.9995 32.1703 42.9307 31.0772C42.9128 30.8016 42.7993 30.5409 42.6099 30.34C42.4205 30.1391 42.1669 30.0105 41.8929 29.9764Z" fill="white"/>
<path d="M14.0002 45.3417C14.0002 45.1009 14.0002 44.862 14.0002 44.625C15.1278 39.1554 16.2382 33.6839 17.3313 28.2105C17.6256 26.7504 18.6194 26.1484 20.3126 26.4045C20.4961 26.4351 20.6815 26.4236 20.8688 26.3701C22.3594 25.9344 23.0933 26.4752 23.0704 27.9926C23.0627 28.3634 23.1564 28.3901 23.3513 28.0729C24.4177 26.3109 25.9714 25.7146 28.0125 26.2841C30.8027 27.0638 31.8653 28.91 31.2002 31.8225C30.2179 36.134 29.3102 40.4626 28.4769 44.8085C28.3278 45.5806 27.9055 45.98 27.2098 46.0068L24.498 46.1157C23.615 46.1501 23.2634 45.6953 23.443 44.7512C24.1922 40.8028 24.7235 36.8506 25.0369 32.8946C25.1019 32.0958 24.733 31.7193 23.9304 31.7652C23.208 31.8072 22.6576 32.0767 22.2792 32.5736C22.0537 32.8641 21.8759 33.403 21.746 34.1904C21.1344 37.8903 20.3795 41.5596 19.4813 45.1984C19.4334 45.3895 19.3224 45.5497 19.1717 45.6456C18.564 46.0278 17.8932 46.2055 17.1593 46.1788C17.0485 46.1749 16.5688 46.1788 15.7202 46.1902C15.017 46.2017 14.4436 45.9189 14.0002 45.3417Z" fill="white"/>
</g>
<defs>
<clipPath id="clip0_282_2024">
<rect width="172" height="28.6667" fill="white" transform="translate(14.0002 17.9995)"/>
</clipPath>
</defs>
</svg>
