<svg width="20" height="20" viewBox="0 0 20 20" fill="none" xmlns="http://www.w3.org/2000/svg">
<g clip-path="url(#clip0_812_2683)">
<path d="M18.125 0.468822H1.875C1.5063 0.46507 1.15117 0.607735 0.887529 0.865514C0.623892 1.12329 0.473283 1.47513 0.46875 1.84382V18.1594C0.474103 18.5276 0.625072 18.8786 0.88862 19.1357C1.15217 19.3928 1.50683 19.5351 1.875 19.5313H18.125C18.4937 19.5342 18.8486 19.3911 19.1121 19.1332C19.3756 18.8752 19.5263 18.5235 19.5312 18.1548V1.83913C19.5247 1.47152 19.3733 1.12136 19.1099 0.864769C18.8466 0.608173 18.4927 0.465881 18.125 0.468822Z" fill="#0076B2"/>
<path d="M3.29043 7.61328H6.12012V16.718H3.29043V7.61328ZM4.70606 3.08203C5.03061 3.08203 5.34787 3.17829 5.6177 3.35864C5.88753 3.53898 6.09782 3.7953 6.22194 4.09518C6.34607 4.39505 6.37847 4.72501 6.31504 5.0433C6.25161 5.36159 6.0952 5.65392 5.8656 5.88331C5.636 6.11269 5.34352 6.26882 5.02517 6.33195C4.70681 6.39508 4.37689 6.36236 4.07713 6.23795C3.77737 6.11353 3.52125 5.90301 3.34117 5.633C3.16108 5.363 3.06512 5.04564 3.06543 4.72109C3.06584 4.28624 3.23888 3.86935 3.54651 3.56201C3.85414 3.25467 4.27121 3.08203 4.70606 3.08203ZM7.89512 7.61328H10.6076V8.86328H10.6451C11.0232 8.14766 11.9451 7.39297 13.3217 7.39297C16.1873 7.38672 16.7186 9.27266 16.7186 11.718V16.718H13.8889V12.2883C13.8889 11.2336 13.8701 9.87578 12.4186 9.87578C10.967 9.87578 10.7201 11.0258 10.7201 12.2195V16.718H7.89512V7.61328Z" fill="white"/>
</g>
<defs>
<clipPath id="clip0_812_2683">
<rect width="20" height="20" fill="white"/>
</clipPath>
</defs>
</svg>
