<svg width="23" height="20" viewBox="0 0 23 20" fill="none" xmlns="http://www.w3.org/2000/svg">
<path d="M22.253 4.49556C22.1225 4.0132 21.8679 3.57346 21.5145 3.22011C21.1612 2.86677 20.7215 2.61214 20.2391 2.4816C18.4733 2 11.3662 2 11.3662 2C11.3662 2 4.25886 2.01458 2.493 2.49618C2.01064 2.62673 1.5709 2.88137 1.21757 3.23473C0.864234 3.58809 0.609637 4.02786 0.479128 4.51022C-0.0550051 7.64782 -0.262205 12.4288 0.493795 15.4409C0.624317 15.9232 0.87892 16.363 1.23225 16.7163C1.58558 17.0697 2.02532 17.3243 2.50766 17.4548C4.27353 17.9364 11.3807 17.9364 11.3807 17.9364C11.3807 17.9364 18.4878 17.9364 20.2536 17.4548C20.736 17.3243 21.1757 17.0697 21.5291 16.7163C21.8824 16.363 22.137 15.9233 22.2676 15.4409C22.831 12.2988 23.0046 7.5208 22.253 4.49556Z" fill="#FF0000"/>
<path d="M9.104 13.3836L14.9998 9.96864L9.104 6.55371V13.3836Z" fill="white"/>
</svg>
