<svg width="169" height="240" viewBox="0 0 169 240" fill="none" xmlns="http://www.w3.org/2000/svg">
<path d="M1.28748 146.763C100.679 136.095 -13.104 6.55464 38.6201 0.824476C56.0743 -1.10916 54.6197 13.4343 72.0739 9.55458M1.28748 146.763C102.134 162.281 44.8341 80.5584 64.3165 63.8592C74.4981 55.1321 86.1343 65.3137 103.588 63.8592M1.28748 146.763C54.1349 175.372 73.0436 145.312 73.0436 139.979C73.0436 120.928 84.6797 124.464 84.6797 124.464M1.28748 146.763C41.0443 203.493 65.2862 181.675 93.4068 180.705M1.28748 146.763C6.6207 251.977 118.134 241.31 168.557 236.462" stroke="#C2C2C2" stroke-width="0.969678" stroke-dasharray="1.94 1.94"/>
</svg>
