<svg width="536" height="283" viewBox="0 0 536 283" fill="none" xmlns="http://www.w3.org/2000/svg">
<path d="M181.485 8.06576L100.168 12.7798C91.6143 13.2757 85.0817 20.6123 85.5776 29.1665L86.1949 39.8152C86.6908 48.3694 94.0274 54.9019 102.582 54.406L183.898 49.692C192.453 49.1961 198.985 41.8595 198.489 33.3053L197.872 22.6566C197.376 14.1024 190.04 7.56986 181.485 8.06576Z" fill="#212121"/>
<path d="M116.595 38.5285C118.926 38.3934 120.414 37.1832 120.874 35.4164L121.022 37.9637L122.702 37.8663L122.353 31.8504L115.47 32.2494L115.549 33.6224L120.626 33.3281C120.497 35.1664 119.595 36.8138 116.777 36.9772C113.778 37.151 112.524 35.5199 112.344 32.4306C112.163 29.3052 113.295 27.572 116.204 27.4033C118.751 27.2557 119.966 28.2003 120.335 30.191L122.268 30.0789C121.773 27.1711 119.891 25.6489 116.187 25.8636C111.924 26.1107 110.187 28.9848 110.393 32.5437C110.601 36.1207 112.548 38.7631 116.595 38.5285ZM129.634 28.2562C127.954 28.3536 127.036 29.4037 126.571 30.772L126.445 28.5861L124.656 28.6898L125.18 37.7226L126.986 37.6179L126.786 34.1674C126.644 31.7104 127.134 30.1594 129.555 30.019L130.007 29.9928L129.905 28.2405L129.634 28.2562ZM135.987 37.3862C139.13 37.2039 140.522 34.9481 140.368 32.2924C140.217 29.6729 138.573 27.5929 135.43 27.7752C132.286 27.9574 130.894 30.1952 131.046 32.8328C131.201 35.5065 132.844 37.5684 135.987 37.3862ZM132.872 32.7451C132.733 30.3423 133.563 29.3335 135.514 29.2204C137.465 29.1073 138.405 30.0135 138.545 32.4162C138.684 34.819 137.854 35.8278 135.903 35.9409C133.952 36.054 133.011 35.1478 132.872 32.7451ZM152.512 34.7787L149.465 27.2516L147.658 27.3563L145.502 35.1851L142.835 27.6359L140.974 27.7438L144.208 36.6196L146.773 36.4709L148.633 29.475L151.289 36.209L153.855 36.0603L156.041 26.8703L154.289 26.9719L152.512 34.7787ZM163.552 35.4981L163.468 34.0529L160.759 34.21L160.399 28.0134L163.29 27.8458L163.209 26.4548L160.319 26.6223L160.2 24.5809L159.297 24.6333L158.663 26.5189L156.822 27.2782L156.877 28.2176L158.593 28.1181L158.882 33.1043C158.987 34.9109 159.578 35.7286 161.764 35.6018L163.552 35.4981ZM170.046 25.7684C168.312 25.8689 167.375 26.9021 166.911 28.2704L166.584 22.6338L164.777 22.7386L165.51 35.3846L167.317 35.2799L167.096 31.468C166.929 28.5956 167.839 27.4009 169.609 27.2982C170.748 27.2322 171.641 27.6336 171.751 29.5305L172.068 35.0045L173.875 34.8997L173.548 29.2632C173.411 26.8966 172.449 25.6291 170.046 25.7684Z" fill="#FAFAFA"/>
<path d="M291.842 1.66884L224.079 5.59721C215.524 6.09311 208.992 13.4297 209.488 21.9839L210.105 32.6325C210.601 41.1868 217.938 47.7193 226.492 47.2234L294.256 43.2951C302.81 42.7992 309.342 35.4626 308.846 26.9084L308.229 16.2597C307.733 7.7055 300.397 1.17294 291.842 1.66884Z" fill="#212121"/>
<path d="M233.752 19.3742L233.839 20.8737L238.012 20.6317L238.622 31.146L240.482 31.0382L239.873 20.5239L244.028 20.283L243.941 18.7835L233.752 19.3742ZM246.926 30.9003C248.841 30.7893 249.768 29.5935 250.064 28.4344C250.106 29.157 250.177 29.7692 250.291 30.4696L251.935 30.3743C251.813 29.5294 251.764 28.9884 251.725 28.32L251.465 23.8397C251.369 22.1776 250.074 21.1107 247.581 21.2552C245.016 21.4039 243.659 22.6971 243.752 24.6131L245.558 24.5084C245.583 23.365 246.253 22.728 247.734 22.6421C249.288 22.552 249.754 23.0869 249.801 23.8999C249.838 24.5322 249.456 24.8262 248.597 25.021L246.361 25.5313C244.357 25.9919 243.689 26.9732 243.773 28.4184C243.869 30.0805 245.083 31.0071 246.926 30.9003ZM247.225 29.4872C246.285 29.5417 245.626 29.1086 245.575 28.2415C245.527 27.4104 245.99 26.9486 247.095 26.6307L248.325 26.2694C248.86 26.1115 249.429 25.9335 249.896 25.5439L249.928 26.0859C250.032 27.8924 249.121 29.3772 247.225 29.4872ZM255.906 30.144L255.173 17.498L253.366 17.6027L254.099 30.2488L255.906 30.144ZM262.393 28.7166C260.84 28.8067 259.644 28.1872 259.367 25.9193L266.485 25.5067C266.508 25.2697 266.495 25.0529 266.482 24.8181C266.332 22.2347 264.732 20.2791 261.86 20.4456C258.77 20.6247 257.414 22.8604 257.566 25.498C257.721 28.1718 259.201 30.243 262.417 30.0566C265.596 29.8723 266.487 28.0442 266.578 26.7883L264.916 26.8846C264.717 27.8387 264.037 28.6213 262.393 28.7166ZM261.955 21.7814C263.563 21.6882 264.514 22.4669 264.711 24.2863L259.309 24.5994C259.409 22.5816 260.401 21.8715 261.955 21.7814ZM273.102 19.7939C271.368 19.8944 270.431 20.9276 269.966 22.2959L269.849 20.2725L268.042 20.3772L268.566 29.4101L270.373 29.3054L270.152 25.4935C269.985 22.621 270.895 21.4263 272.665 21.3237C273.803 21.2577 274.697 21.6591 274.807 23.556L275.124 29.0299L276.931 28.9252L276.604 23.2887C276.467 20.9221 275.505 19.6546 273.102 19.7939ZM284.462 28.4886L284.378 27.0433L281.668 27.2004L281.309 21.0039L284.2 20.8363L284.119 19.4452L281.228 19.6128L281.11 17.5714L280.207 17.6237L279.573 19.5094L277.732 20.2687L277.786 21.2081L279.503 21.1086L279.792 26.0948C279.896 27.9013 280.488 28.719 282.673 28.5923L284.462 28.4886Z" fill="#FAFAFA"/>
<path d="M193.06 123.951L106.903 128.946C98.3486 129.442 91.8161 136.778 92.312 145.333L92.9293 155.981C93.4252 164.535 100.762 171.068 109.316 170.572L195.473 165.577C204.027 165.082 210.56 157.745 210.064 149.191L209.446 138.542C208.95 129.988 201.614 123.455 193.06 123.951Z" fill="#212121"/>
<path d="M126.2 142.166L117.131 142.692L117.828 154.705L119.688 154.598L119.382 149.304L126.048 148.918L125.963 147.454L119.297 147.841L119.079 144.083L126.287 143.665L126.2 142.166ZM134.825 148.481C134.981 151.173 134.028 152.552 132.42 152.645C131.21 152.715 130.28 152.316 130.17 150.419L129.853 144.945L128.046 145.05L128.373 150.686C128.51 153.053 129.544 154.316 131.947 154.177C133.645 154.078 134.566 153.083 135.014 151.733L135.128 153.703L136.934 153.598L136.411 144.565L134.604 144.67L134.825 148.481ZM143.819 143.845C142.085 143.946 141.148 144.979 140.683 146.347L140.566 144.324L138.759 144.429L139.283 153.462L141.09 153.357L140.869 149.545C140.702 146.673 141.612 145.478 143.382 145.375C144.52 145.309 145.414 145.711 145.524 147.608L145.841 153.081L147.647 152.977L147.321 147.34C147.183 144.974 146.222 143.706 143.819 143.845ZM156.659 144.95C155.976 143.811 154.836 143.207 153.21 143.301C150.301 143.47 149.125 145.695 149.279 148.351C149.433 151.006 150.858 153.081 153.767 152.912C155.393 152.818 156.456 152.085 157.002 150.876L157.092 152.429L158.899 152.324L158.166 139.678L156.359 139.783L156.659 144.95ZM154.062 151.445C152.057 151.561 151.233 150.485 151.103 148.245C150.974 146.005 151.667 144.841 153.673 144.724C155.57 144.614 156.696 145.6 156.83 147.913C156.964 150.225 155.959 151.335 154.062 151.445ZM162.828 141.674L162.734 140.048L160.458 140.18L160.552 141.806L162.828 141.674ZM163.195 152.075L162.672 143.042L160.865 143.147L161.389 152.18L163.195 152.075ZM170.089 142.322C168.354 142.423 167.417 143.456 166.953 144.824L166.835 142.801L165.029 142.906L165.552 151.939L167.359 151.834L167.138 148.022C166.972 145.15 167.881 143.955 169.652 143.852C170.79 143.786 171.683 144.188 171.793 146.085L172.11 151.559L173.917 151.454L173.59 145.817C173.453 143.451 172.491 142.183 170.089 142.322ZM182.885 143.321C182.227 142.289 181.126 141.737 179.536 141.829C176.627 141.998 175.38 143.937 175.534 146.593C175.688 149.248 177.151 151.031 180.06 150.862C181.649 150.77 182.685 150.184 183.219 149.084L183.32 150.818C183.428 152.679 182.616 153.378 180.647 153.493C178.841 153.597 178.004 152.921 177.825 151.717L176.019 151.821C176.307 153.98 177.964 155.044 180.71 154.885C184.088 154.689 185.272 153.225 185.13 150.768L184.608 141.771L182.801 141.876L182.885 143.321ZM180.413 149.446C178.407 149.562 177.492 148.781 177.359 146.487C177.226 144.193 178.045 143.311 180.05 143.195C181.947 143.085 182.921 143.935 183.05 146.157C183.178 148.379 182.309 149.336 180.413 149.446Z" fill="#FAFAFA"/>
<path d="M249.67 178.949L126.727 186.076C118.173 186.572 111.64 193.908 112.136 202.462L112.754 213.111C113.249 221.665 120.586 228.198 129.14 227.702L252.083 220.575C260.637 220.079 267.17 212.742 266.674 204.188L266.057 193.539C265.561 184.985 258.224 178.453 249.67 178.949Z" fill="#212121"/>
<path d="M142.277 199.513L136.604 199.842L137.301 211.855L139.18 211.746L138.905 207.013L142.699 206.793C145.373 206.638 146.34 204.878 146.227 202.927C146.116 201.012 144.951 199.358 142.277 199.513ZM138.818 205.514L138.57 201.232L141.912 201.038C143.61 200.94 144.205 201.812 144.276 203.04C144.347 204.269 143.859 205.222 142.16 205.32L138.818 205.514ZM150.894 211.303C152.809 211.192 153.737 209.996 154.032 208.837C154.074 209.56 154.146 210.172 154.259 210.872L155.903 210.777C155.782 209.932 155.732 209.391 155.693 208.723L155.434 204.242C155.337 202.58 154.043 201.513 151.55 201.658C148.984 201.807 147.627 203.1 147.72 205.016L149.527 204.911C149.551 203.768 150.221 203.131 151.703 203.045C153.256 202.955 153.722 203.49 153.769 204.303C153.806 204.935 153.424 205.229 152.566 205.424L150.329 205.934C148.326 206.395 147.658 207.376 147.742 208.821C147.838 210.483 149.052 211.41 150.894 211.303ZM151.193 209.89C150.254 209.944 149.594 209.511 149.544 208.644C149.496 207.813 149.958 207.351 151.064 207.033L152.294 206.672C152.828 206.514 153.398 206.336 153.865 205.947L153.896 206.489C154.001 208.295 153.09 209.78 151.193 209.89ZM162.593 201.181C160.912 201.278 159.995 202.328 159.53 203.697L159.403 201.511L157.615 201.614L158.138 210.647L159.945 210.543L159.745 207.092C159.603 204.635 160.093 203.084 162.514 202.944L162.965 202.918L162.864 201.165L162.593 201.181ZM170.135 209.952L170.052 208.507L167.342 208.664L166.983 202.467L169.873 202.3L169.792 200.908L166.902 201.076L166.784 199.035L165.88 199.087L165.246 200.973L163.405 201.732L163.46 202.671L165.176 202.572L165.465 207.558C165.57 209.365 166.161 210.182 168.347 210.056L170.135 209.952ZM176.63 200.222C174.895 200.323 173.958 201.356 173.494 202.724L173.376 200.701L171.57 200.805L172.094 209.838L173.9 209.734L173.679 205.922C173.513 203.049 174.422 201.855 176.193 201.752C177.331 201.686 178.224 202.087 178.334 203.984L178.651 209.458L180.458 209.353L180.131 203.717C179.994 201.35 179.032 200.083 176.63 200.222ZM186.721 207.939C185.168 208.029 183.972 207.41 183.695 205.142L190.813 204.729C190.836 204.492 190.823 204.275 190.809 204.04C190.66 201.457 189.06 199.501 186.187 199.668C183.098 199.847 181.741 202.083 181.894 204.72C182.049 207.394 183.529 209.465 186.745 209.279C189.924 209.095 190.815 207.267 190.905 206.011L189.243 206.107C189.045 207.061 188.365 207.844 186.721 207.939ZM186.283 201.004C187.891 200.911 188.842 201.689 189.038 203.509L183.637 203.822C183.737 201.804 184.729 201.094 186.283 201.004ZM197.348 199.166C195.668 199.263 194.75 200.314 194.286 201.682L194.159 199.496L192.37 199.6L192.894 208.632L194.701 208.528L194.5 205.077C194.358 202.62 194.848 201.069 197.269 200.929L197.721 200.903L197.619 199.15L197.348 199.166ZM198.685 205.27C198.791 207.112 200.087 208.506 203.067 208.333C205.687 208.181 206.842 207.153 206.734 205.292C206.653 203.901 205.979 202.907 203.719 202.694L201.752 202.518C200.768 202.43 200.47 201.994 200.439 201.452C200.397 200.729 200.925 200.137 202.316 200.056C203.707 199.976 204.416 200.641 204.555 201.467L206.361 201.362C206.136 199.672 204.623 198.581 202.292 198.716C199.926 198.853 198.596 199.982 198.696 201.716C198.776 203.089 199.675 203.907 201.26 204.051L203.52 204.264C204.486 204.353 204.926 204.745 204.969 205.485C205.017 206.316 204.652 206.9 203.044 206.993C201.292 207.094 200.501 206.27 200.365 205.172L198.685 205.27ZM213.361 198.093C211.627 198.193 210.69 199.226 210.225 200.595L209.898 194.958L208.092 195.063L208.825 207.709L210.632 207.604L210.411 203.792C210.244 200.92 211.154 199.725 212.924 199.623C214.062 199.557 214.956 199.958 215.066 201.855L215.383 207.329L217.189 207.224L216.863 201.588C216.726 199.221 215.764 197.953 213.361 198.093ZM220.956 196.583L220.861 194.957L218.585 195.089L218.679 196.715L220.956 196.583ZM221.323 206.984L220.799 197.952L218.993 198.056L219.516 207.089L221.323 206.984ZM228.429 197.219C226.803 197.313 225.739 198.046 225.193 199.256L225.103 197.702L223.297 197.807L224.03 210.453L225.836 210.348L225.537 205.181C226.219 206.32 227.36 206.924 228.986 206.83C231.894 206.662 233.07 204.436 232.916 201.781C232.762 199.125 231.337 197.051 228.429 197.219ZM228.523 205.407C226.626 205.517 225.499 204.531 225.365 202.218C225.231 199.906 226.236 198.796 228.133 198.686C230.138 198.57 230.962 199.646 231.092 201.886C231.222 204.127 230.528 205.291 228.523 205.407ZM234.446 203.197C234.552 205.039 235.848 206.432 238.829 206.26C241.448 206.108 242.603 205.08 242.495 203.219C242.414 201.828 241.741 200.834 239.48 200.621L237.513 200.445C236.529 200.357 236.232 199.921 236.2 199.379C236.158 198.656 236.686 198.064 238.077 197.983C239.468 197.902 240.177 198.568 240.316 199.394L242.122 199.289C241.897 197.599 240.384 196.508 238.054 196.643C235.687 196.78 234.357 197.909 234.457 199.643C234.537 201.016 235.436 201.834 237.021 201.978L239.282 202.191C240.247 202.28 240.687 202.672 240.73 203.412C240.778 204.243 240.413 204.826 238.805 204.92C237.053 205.021 236.262 204.197 236.126 203.099L234.446 203.197Z" fill="#FAFAFA"/>
<path d="M281.109 235.405L201.729 240.006C193.175 240.502 186.642 247.839 187.138 256.393L187.755 267.042C188.251 275.596 195.588 282.128 204.142 281.633L283.522 277.031C292.077 276.535 298.609 269.198 298.113 260.644L297.496 249.995C297 241.441 289.663 234.909 281.109 235.405Z" fill="#212121"/>
<path d="M218.234 265.75C222.208 265.519 223.776 263.489 223.798 260.424L221.883 260.535C221.845 262.694 220.71 264.065 218.109 264.216C215.254 264.382 213.93 262.791 213.748 259.665C213.567 256.54 214.754 254.804 217.608 254.638C220.101 254.494 221.326 255.619 221.681 257.665L223.578 257.555C223.134 254.59 221.385 252.878 217.555 253.1C213.31 253.346 211.593 256.256 211.797 259.778C212.005 263.355 213.989 265.996 218.234 265.75ZM232.217 259.392C232.373 262.084 231.42 263.463 229.812 263.556C228.602 263.626 227.672 263.227 227.562 261.33L227.245 255.856L225.439 255.96L225.765 261.597C225.902 263.964 226.936 265.227 229.339 265.088C231.037 264.989 231.958 263.993 232.406 262.644L232.52 264.613L234.327 264.508L233.803 255.476L231.996 255.58L232.217 259.392ZM238.658 264.257L237.925 251.611L236.119 251.716L236.852 264.362L238.658 264.257ZM246.432 263.807L246.348 262.361L243.638 262.519L243.279 256.322L246.169 256.154L246.089 254.763L243.198 254.931L243.08 252.89L242.177 252.942L241.543 254.828L239.702 255.587L239.756 256.526L241.472 256.427L241.761 261.413C241.866 263.219 242.457 264.037 244.643 263.91L246.432 263.807ZM254.464 258.103C254.62 260.794 253.667 262.173 252.059 262.266C250.849 262.336 249.919 261.937 249.809 260.04L249.492 254.566L247.686 254.671L248.012 260.307C248.149 262.674 249.183 263.937 251.586 263.798C253.284 263.7 254.205 262.704 254.653 261.354L254.767 263.324L256.574 263.219L256.05 254.186L254.243 254.291L254.464 258.103ZM263.376 253.616C261.696 253.714 260.778 254.764 260.314 256.132L260.187 253.946L258.399 254.05L258.922 263.083L260.729 262.978L260.529 259.527C260.386 257.07 260.877 255.519 263.297 255.379L263.749 255.353L263.647 253.6L263.376 253.616ZM269.616 261.411C268.062 261.501 266.866 260.882 266.59 258.614L273.708 258.201C273.73 257.964 273.718 257.748 273.704 257.513C273.554 254.929 271.954 252.974 269.082 253.14C265.993 253.319 264.636 255.555 264.789 258.193C264.944 260.867 266.423 262.938 269.639 262.751C272.819 262.567 273.71 260.739 273.8 259.483L272.138 259.579C271.94 260.533 271.26 261.316 269.616 261.411ZM269.178 254.476C270.785 254.383 271.737 255.162 271.933 256.981L266.531 257.294C266.632 255.276 267.624 254.566 269.178 254.476Z" fill="#FAFAFA"/>
<path d="M302.449 117.61L235.653 121.482C227.099 121.978 220.566 129.314 221.062 137.869L221.679 148.517C222.175 157.072 229.512 163.604 238.066 163.108L304.862 159.236C313.416 158.74 319.948 151.403 319.453 142.849L318.835 132.201C318.339 123.646 311.003 117.114 302.449 117.61Z" fill="#212121"/>
<path d="M258.995 134.468L255.797 134.653L252.83 145.066L248.679 135.066L245.445 135.253L246.142 147.267L248.003 147.159L247.39 136.59L251.688 146.945L254.145 146.803L257.218 136.021L257.83 146.589L259.691 146.481L258.995 134.468ZM277.782 138.689L275.705 138.81C274.964 138.853 274.355 139.287 274.38 140.337C274.402 141.042 274.329 141.663 274.18 142.215L271.107 139.856C271.051 139.823 271.011 139.771 270.955 139.738L272.082 139.165C273.613 138.369 274.431 137.47 274.347 136.025C274.25 134.345 272.778 133.342 270.592 133.469C268.333 133.6 266.917 134.806 267.032 136.793C267.094 137.859 267.687 138.713 268.494 139.5C266.863 140.446 266.034 141.455 266.132 143.153C266.264 145.43 268.327 146.307 270.675 146.171C272.609 146.059 273.913 145.421 274.721 144.359L276.864 145.993L277.746 144.945L275.394 143.142C275.691 142.327 275.833 141.34 275.843 140.252L277.866 140.135L277.782 138.689ZM270.665 134.734C271.821 134.667 272.519 135.134 272.584 136.254C272.633 137.103 272.099 137.587 271.185 138.075L269.831 138.788C269.215 138.171 268.853 137.558 268.801 136.654C268.73 135.444 269.455 134.804 270.665 134.734ZM270.687 144.811C268.917 144.913 267.966 144.153 267.895 142.924C267.837 141.913 268.476 141.06 269.601 140.451L270.132 140.855L273.564 143.466C272.941 144.281 271.97 144.736 270.687 144.811ZM295.608 144.399L290.45 132.644L287.65 132.806L283.884 145.079L285.763 144.97L286.663 142.054L292.48 141.716L293.712 144.509L295.608 144.399ZM289.117 134.045L291.833 140.249L287.136 140.522L289.117 134.045Z" fill="#FAFAFA"/>
<path d="M321.646 55.8975L235.489 60.8921C226.935 61.388 220.402 68.7246 220.898 77.2788L221.515 87.9275C222.011 96.4817 229.348 103.014 237.902 102.518L324.059 97.5237C332.613 97.0278 339.145 89.6912 338.65 81.137L338.032 70.4884C337.536 61.9342 330.2 55.4016 321.646 55.8975Z" fill="#212121"/>
<path d="M192.329 63.4039L130.355 66.6519C121.798 67.1003 115.225 74.4006 115.673 82.9574L116.232 93.6093C116.68 102.166 123.98 108.739 132.537 108.291L194.511 105.043C203.068 104.594 209.641 97.2942 209.193 88.7374L208.635 78.0855C208.186 69.5287 200.886 62.9555 192.329 63.4039Z" fill="#212121"/>
<path d="M140.557 88.46C140.676 90.7189 142.121 92.709 146.06 92.5025C149.494 92.3226 150.868 90.8727 150.744 88.506C150.639 86.5177 149.324 85.6263 147.212 85.4286L144.243 85.1496C143.114 85.0455 142.593 84.421 142.546 83.5352C142.483 82.3248 143.287 81.4305 145.239 81.3282C147.282 81.2212 148.289 82.1287 148.546 83.5652L150.353 83.4705C150.077 81.329 148.561 79.7041 145.182 79.8812C141.965 80.0498 140.565 81.6823 140.67 83.6876C140.768 85.567 141.891 86.5777 143.947 86.7603L146.751 87.0119C148.116 87.1396 148.818 87.7187 148.876 88.8391C148.941 90.0685 148.406 90.9296 145.985 91.0565C143.617 91.1806 142.514 90.187 142.365 88.3653L140.557 88.46ZM155.625 91.9462C157.541 91.8458 158.475 90.6553 158.777 89.4979C158.814 90.2209 158.883 90.8332 158.992 91.5344L160.637 91.4482C160.52 90.6032 160.473 90.0619 160.438 89.3928L160.203 84.9109C160.116 83.2492 158.827 82.1742 156.334 82.3049C153.768 82.4393 152.404 83.7255 152.486 85.6418L154.293 85.5472C154.324 84.404 154.998 83.7708 156.48 83.6932C158.033 83.6117 158.496 84.1493 158.539 84.9621C158.572 85.5953 158.189 85.8867 157.329 86.077L155.089 86.5749C153.084 87.0244 152.411 88.002 152.486 89.447C152.573 91.1098 153.782 92.0428 155.625 91.9462ZM155.932 90.5352C154.992 90.5845 154.334 90.1473 154.289 89.2805C154.245 88.4486 154.711 87.9896 155.818 87.6782L157.05 87.3233C157.586 87.169 158.157 86.9939 158.625 86.6069L158.653 87.1491C158.748 88.9557 157.829 90.4358 155.932 90.5352ZM164.61 91.24L163.947 78.5904L162.139 78.6851L162.802 91.3347L164.61 91.24ZM171.105 89.8492C169.551 89.9306 168.358 89.3042 168.094 87.0349L175.215 86.6617C175.238 86.4252 175.227 86.2075 175.215 85.9728C175.079 83.3883 173.49 81.4248 170.617 81.5754C167.526 81.7373 166.157 83.9651 166.295 86.6034C166.436 89.2778 167.903 91.3578 171.121 91.1892C174.301 91.0225 175.202 89.1988 175.3 87.944L173.637 88.0312C173.433 88.9842 172.75 89.763 171.105 89.8492ZM170.705 82.9116C172.313 82.8273 173.26 83.6108 173.446 85.4316L168.043 85.7147C168.155 83.6971 169.15 82.9931 170.705 82.9116ZM176.677 87.5815C176.773 89.4249 178.06 90.8255 181.042 90.6692C183.663 90.5319 184.823 89.5108 184.725 87.6493C184.652 86.2572 183.984 85.2598 181.725 85.0337L179.759 84.8464C178.775 84.7538 178.48 84.3156 178.452 83.7733C178.414 83.0513 178.945 82.4617 180.336 82.3888C181.728 82.3159 182.433 82.9849 182.568 83.812L184.374 83.7173C184.159 82.0252 182.652 80.9256 180.321 81.0478C177.953 81.1719 176.617 82.2933 176.708 84.028C176.78 85.4021 177.674 86.2244 179.259 86.3767L181.518 86.6027C182.483 86.6973 182.921 87.091 182.959 87.832C183.003 88.6638 182.635 89.2449 181.026 89.3292C179.274 89.4211 178.487 88.5921 178.357 87.4934L176.677 87.5815Z" fill="#FAFAFA"/>
<path d="M1.28711 176.763C100.679 166.095 -13.1044 36.5546 38.6197 30.8245C56.0739 28.8908 54.6193 43.4343 72.0735 39.5546M1.28711 176.763C102.134 192.281 44.8337 110.558 64.3161 93.8592C74.4977 85.1321 86.1339 95.3137 103.588 93.8592M1.28711 176.763C54.1345 205.372 73.0432 175.312 73.0432 169.979C73.0432 150.928 84.6793 154.464 84.6793 154.464M1.28711 176.763C41.0439 233.493 65.2858 211.675 93.4064 210.705M1.28711 176.763C6.62033 281.977 118.134 271.31 168.557 266.462" stroke="#C2C2C2" stroke-width="0.969678" stroke-dasharray="1.94 1.94"/>
<path d="M534.224 125.374L320.895 21.4521M534.224 125.374L352.894 76.239M534.224 125.374L333.986 136.844M534.224 125.374L275.805 197.449M534.224 125.374L309.744 251.751" stroke="#C2C2C2" stroke-width="0.969678" stroke-dasharray="1.94 1.94"/>
<path d="M246.391 87.0438L242.444 77.7574L242.374 77.7623C242.404 77.9742 242.443 78.2639 242.49 78.6313C242.536 78.9988 242.582 79.3924 242.627 79.8121C242.672 80.2319 242.708 80.634 242.735 81.0185L243.172 87.2688L241.473 87.3876L240.676 75.9936L243.303 75.8099L247.095 84.6842L247.142 84.6809L249.771 75.3576L252.39 75.1745L253.187 86.5685L251.402 86.6933L250.958 80.3495C250.934 80.0013 250.913 79.6243 250.895 79.2183C250.882 78.812 250.871 78.4264 250.861 78.0616C250.856 77.6965 250.851 77.4044 250.847 77.1855L250.784 77.1898L248.043 86.9282L246.391 87.0438ZM258.768 77.3442C259.859 77.268 260.699 77.452 261.289 77.8963C261.884 78.3402 262.217 79.074 262.289 80.0975L262.695 85.9037L261.393 85.9947L260.957 84.7956L260.894 84.8C260.672 85.1288 260.438 85.4036 260.192 85.6244C259.947 85.8452 259.656 86.0169 259.32 86.1396C258.99 86.2672 258.58 86.348 258.092 86.3822C257.577 86.4181 257.111 86.3568 256.693 86.1981C256.274 86.0342 255.934 85.7655 255.673 85.3922C255.412 85.0189 255.261 84.5335 255.219 83.936C255.157 83.0475 255.44 82.3568 256.068 81.8639C256.702 81.3705 257.688 81.0536 259.025 80.9131L260.518 80.7539L260.486 80.3019C260.444 79.7044 260.274 79.2882 259.976 79.0532C259.683 78.8179 259.284 78.7178 258.78 78.7531C258.349 78.7832 257.935 78.8748 257.538 79.0279C257.142 79.1809 256.758 79.3618 256.386 79.5705L255.703 78.3182C256.108 78.0654 256.574 77.8501 257.099 77.6724C257.629 77.4943 258.186 77.3849 258.768 77.3442ZM260.59 81.9079L259.479 82.0248C258.566 82.1199 257.936 82.3207 257.586 82.627C257.237 82.9334 257.08 83.3308 257.114 83.8191C257.143 84.2452 257.293 84.548 257.561 84.7277C257.829 84.9021 258.171 84.9748 258.586 84.9457C259.22 84.9014 259.733 84.6854 260.123 84.2979C260.519 83.9048 260.692 83.3575 260.643 82.6561L260.59 81.9079ZM269.016 76.6276C269.161 76.6174 269.321 76.6141 269.493 76.6177C269.666 76.6213 269.815 76.6318 269.942 76.649L269.89 78.3756C269.779 78.352 269.642 78.3381 269.48 78.3338C269.323 78.3291 269.182 78.3311 269.057 78.3398C268.73 78.3627 268.422 78.4391 268.134 78.5689C267.845 78.6935 267.594 78.8729 267.38 79.1071C267.167 79.3361 267.006 79.6162 266.899 79.9475C266.791 80.2787 266.753 80.6573 266.782 81.0833L267.098 85.5958L265.259 85.7244L264.655 77.097L266.089 76.9967L266.445 78.499L266.531 78.493C266.681 78.1745 266.874 77.879 267.111 77.6066C267.348 77.3342 267.624 77.1113 267.941 76.9377C268.263 76.7586 268.621 76.6552 269.016 76.6276ZM273.132 72.9879L273.541 78.8486C273.56 79.1136 273.57 79.4053 273.571 79.7236C273.572 80.0368 273.572 80.3318 273.57 80.6087L273.609 80.6059C273.732 80.4147 273.878 80.1904 274.048 79.9331C274.223 79.6755 274.39 79.4497 274.549 79.2559L276.985 76.2349L279.089 76.0877L275.896 80.0388L279.918 84.6993L277.767 84.8497L274.743 81.255L273.776 82.2076L273.979 85.1145L272.148 85.2426L271.3 73.116L273.132 72.9879ZM284.12 75.5715C284.889 75.5177 285.56 75.63 286.133 75.9084C286.705 76.1869 287.16 76.6067 287.497 77.1679C287.834 77.7291 288.031 78.4149 288.087 79.2255L288.156 80.2074L282.397 80.6102C282.476 81.4452 282.744 82.0739 283.202 82.4961C283.665 82.9179 284.283 83.1018 285.058 83.0477C285.608 83.0092 286.098 82.9227 286.527 82.7883C286.961 82.6483 287.405 82.458 287.858 82.2175L287.962 83.706C287.545 83.9388 287.116 84.1176 286.676 84.2424C286.236 84.3671 285.704 84.4513 285.081 84.4949C284.234 84.5541 283.477 84.4426 282.809 84.1603C282.147 83.8725 281.611 83.414 281.202 82.7848C280.797 82.1552 280.561 81.3546 280.493 80.383C280.426 79.4166 280.532 78.5843 280.812 77.8859C281.092 77.1876 281.516 76.6411 282.084 76.2464C282.651 75.8517 283.33 75.6267 284.12 75.5715ZM284.216 76.9509C283.639 76.9912 283.185 77.211 282.853 77.6101C282.525 78.0089 282.356 78.5716 282.344 79.2981L286.272 79.0235C286.237 78.5926 286.137 78.2158 285.974 77.8931C285.815 77.57 285.589 77.3248 285.296 77.1573C285.007 76.9896 284.647 76.9207 284.216 76.9509ZM293.612 82.4103C293.851 82.3936 294.086 82.3563 294.317 82.2984C294.547 82.2353 294.757 82.1658 294.945 82.09L295.042 83.4773C294.845 83.5798 294.588 83.6735 294.27 83.7583C293.952 83.8432 293.62 83.8978 293.271 83.9222C292.783 83.9563 292.338 83.9065 291.937 83.7727C291.536 83.6336 291.207 83.3721 290.951 82.988C290.694 82.6039 290.541 82.0586 290.492 81.352L290.167 76.7149L288.991 76.7972L288.933 75.9789L290.151 75.2437L290.622 73.3547L291.775 73.274L291.909 75.1912L294.38 75.0185L294.477 76.4135L292.007 76.5863L292.329 81.2C292.36 81.6364 292.492 81.9535 292.725 82.1513C292.958 82.3491 293.254 82.4354 293.612 82.4103ZM298.035 74.7629L298.638 83.3903L296.807 83.5183L296.203 74.891L298.035 74.7629ZM296.9 71.5217C297.18 71.5021 297.427 71.5605 297.64 71.697C297.859 71.8331 297.981 72.0857 298.006 72.4545C298.032 72.8182 297.946 73.0853 297.749 73.2557C297.557 73.4205 297.321 73.5128 297.04 73.5324C296.749 73.5527 296.497 73.4947 296.284 73.3581C296.076 73.2161 295.959 72.9632 295.933 72.5995C295.908 72.2306 295.988 71.9639 296.175 71.7995C296.367 71.6346 296.609 71.542 296.9 71.5217ZM305.147 74.1011C306.118 74.0332 306.892 74.2323 307.467 74.6985C308.048 75.1591 308.377 75.9428 308.454 77.0495L308.847 82.6763L307.016 82.8044L306.647 77.5204C306.6 76.8502 306.427 76.3584 306.128 76.0452C305.829 75.7267 305.391 75.5877 304.815 75.628C303.978 75.6865 303.414 75.9844 303.123 76.5216C302.837 77.0585 302.728 77.8153 302.796 78.7921L303.096 83.0785L301.264 83.2066L300.661 74.5792L302.087 74.4795L302.426 75.6305L302.528 75.6235C302.694 75.309 302.908 75.0461 303.169 74.8346C303.436 74.6175 303.738 74.4476 304.074 74.3249C304.415 74.2019 304.772 74.1273 305.147 74.1011ZM314.142 86.1592C312.973 86.241 312.062 86.0932 311.409 85.716C310.757 85.3387 310.404 84.7708 310.351 84.0122C310.314 83.4823 310.448 83.0212 310.755 82.6291C311.062 82.2421 311.52 81.9569 312.128 81.7734C311.887 81.6858 311.673 81.5389 311.487 81.3327C311.305 81.1209 311.204 80.8799 311.186 80.6098C311.163 80.2876 311.235 80.0059 311.401 79.7646C311.566 79.5233 311.824 79.2834 312.173 79.0449C311.707 78.8843 311.322 78.598 311.016 78.186C310.715 77.7685 310.545 77.2661 310.503 76.679C310.46 76.0556 310.555 75.5163 310.79 75.0614C311.024 74.6012 311.388 74.239 311.881 73.9748C312.374 73.7054 312.981 73.5454 313.703 73.4949C313.859 73.484 314.029 73.4826 314.212 73.4907C314.4 73.4932 314.573 73.502 314.731 73.5171C314.893 73.5266 315.017 73.5414 315.102 73.5616L318.087 73.3529L318.158 74.3738L316.712 74.749C316.866 74.9367 316.994 75.1549 317.095 75.4036C317.195 75.6472 317.256 75.9171 317.277 76.2132C317.339 77.1069 317.079 77.8325 316.497 78.3901C315.919 78.9422 315.09 79.256 314.01 79.3315C313.749 79.3393 313.496 79.3362 313.249 79.3221C313.07 79.4494 312.936 79.5867 312.847 79.7339C312.758 79.8759 312.719 80.0326 312.731 80.2041C312.741 80.3444 312.799 80.4552 312.903 80.5366C313.008 80.6129 313.158 80.665 313.353 80.6932C313.553 80.7209 313.794 80.725 314.074 80.7054L315.563 80.6013C316.508 80.5352 317.245 80.6847 317.771 81.0499C318.298 81.4151 318.589 81.9847 318.643 82.7589C318.711 83.7409 318.359 84.5252 317.586 85.1118C316.812 85.7036 315.665 86.0528 314.142 86.1592ZM314.123 84.8684C314.762 84.8237 315.295 84.7238 315.723 84.5685C316.15 84.4133 316.468 84.211 316.675 83.9616C316.882 83.7174 316.975 83.4368 316.953 83.1198C316.933 82.8393 316.848 82.6286 316.697 82.4877C316.546 82.3468 316.329 82.2576 316.044 82.2201C315.76 82.1826 315.409 82.1783 314.994 82.2074L313.638 82.3022C313.3 82.3258 313.005 82.3987 312.752 82.5208C312.5 82.648 312.309 82.8181 312.177 83.0309C312.051 83.2433 311.998 83.4924 312.018 83.7782C312.046 84.173 312.241 84.4648 312.604 84.6535C312.972 84.8418 313.478 84.9134 314.123 84.8684ZM314.011 78.1254C314.546 78.0879 314.934 77.9147 315.173 77.6055C315.412 77.2912 315.513 76.8665 315.476 76.3313C315.435 75.7494 315.269 75.3224 314.979 75.0504C314.694 74.7779 314.289 74.6601 313.764 74.6968C313.249 74.7327 312.867 74.9082 312.618 75.2233C312.374 75.538 312.272 75.9863 312.313 76.5682C312.349 77.0929 312.511 77.4941 312.796 77.7718C313.087 78.0438 313.492 78.1617 314.011 78.1254Z" fill="white"/>
</svg>
