<svg width="285" height="354" viewBox="0 0 285 354" fill="none" xmlns="http://www.w3.org/2000/svg">
<g clip-path="url(#clip0_444_1907)">
<path d="M106.574 91H44.5148C35.9462 91 29 97.9462 29 106.515V117.181C29 125.75 35.9462 132.696 44.5148 132.696H106.574C115.143 132.696 122.089 125.75 122.089 117.181V106.515C122.089 97.9462 115.143 91 106.574 91Z" fill="#212121"/>
<path d="M53.5625 113.313C53.5625 115.575 54.9015 117.638 58.8465 117.638C62.2845 117.638 63.7325 116.262 63.7325 113.892C63.7325 111.901 62.4655 110.942 60.3665 110.634L57.4165 110.2C56.2945 110.037 55.8065 109.386 55.8065 108.499C55.8065 107.287 56.6565 106.436 58.6115 106.436C60.6565 106.436 61.6155 107.395 61.7965 108.843H63.6055C63.4425 106.69 62.0135 104.988 58.6295 104.988C55.4085 104.988 53.9245 106.545 53.9245 108.553C53.9245 110.435 54.9925 111.503 57.0365 111.793L59.8235 112.191C61.1805 112.39 61.8505 113.005 61.8505 114.127C61.8505 115.358 61.2715 116.19 58.8465 116.19C56.4755 116.19 55.4265 115.14 55.3725 113.313H53.5625ZM68.4275 117.583C70.3455 117.583 71.3405 116.443 71.7025 115.303C71.7025 116.027 71.7385 116.642 71.8115 117.348H73.4585C73.3855 116.498 73.3675 115.955 73.3675 115.285V110.797C73.3675 109.133 72.1365 107.992 69.6395 107.992C67.0705 107.992 65.6405 109.205 65.6225 111.123H67.4315C67.5225 109.983 68.2285 109.386 69.7125 109.386C71.2685 109.386 71.7025 109.947 71.7025 110.761C71.7025 111.395 71.3045 111.666 70.4355 111.811L68.1735 112.191C66.1475 112.535 65.4235 113.476 65.4235 114.923C65.4235 116.588 66.5815 117.583 68.4275 117.583ZM68.8075 116.19C67.8665 116.19 67.2325 115.719 67.2325 114.851C67.2325 114.018 67.7215 113.584 68.8435 113.331L70.0925 113.041C70.6355 112.915 71.2145 112.77 71.7025 112.408V112.951C71.7025 114.76 70.7075 116.19 68.8075 116.19ZM77.4365 117.348V104.681H75.6265V117.348H77.4365ZM83.9955 116.299C82.4395 116.299 81.2805 115.611 81.1365 113.331H88.2665C88.3025 113.096 88.3025 112.878 88.3025 112.643C88.3025 110.055 86.8185 108.011 83.9415 108.011C80.8465 108.011 79.3625 110.164 79.3625 112.806C79.3625 115.484 80.7195 117.638 83.9415 117.638C87.1255 117.638 88.1215 115.864 88.2845 114.616H86.6195C86.3655 115.557 85.6425 116.299 83.9955 116.299ZM83.9595 109.35C85.5695 109.35 86.4745 110.182 86.5645 112.01H81.1545C81.3715 110.001 82.4025 109.35 83.9595 109.35ZM89.6785 114.326C89.6785 116.172 90.8905 117.638 93.8765 117.638C96.5005 117.638 97.7125 116.679 97.7125 114.815C97.7125 113.421 97.0975 112.39 94.8535 112.046L92.8995 111.756C91.9215 111.612 91.6505 111.159 91.6505 110.616C91.6505 109.893 92.2115 109.332 93.6045 109.332C94.9985 109.332 95.6675 110.037 95.7585 110.87H97.5675C97.4415 109.169 95.9935 107.992 93.6595 107.992C91.2885 107.992 89.8955 109.042 89.8955 110.779C89.8955 112.155 90.7455 113.023 92.3205 113.258L94.5645 113.602C95.5235 113.747 95.9395 114.163 95.9395 114.905C95.9395 115.738 95.5415 116.299 93.9305 116.299C92.1755 116.299 91.4335 115.43 91.3615 114.326H89.6785Z" fill="#FAFAFA"/>
<path d="M124.968 36H43.5148C34.9462 36 28 42.9462 28 51.5148V62.1813C28 70.7499 34.9462 77.6961 43.5148 77.6961H124.968C133.537 77.6961 140.483 70.7499 140.483 62.1813V51.5148C140.483 42.9462 133.537 36 124.968 36Z" fill="#212121"/>
<path d="M58.4232 62.6556C60.7576 62.6556 62.3139 61.5336 62.8748 59.7964V62.3479H64.5578V56.3219H57.6632V57.6972H62.7482C62.5129 59.5249 61.5176 61.1174 58.6946 61.1174C55.6907 61.1174 54.5325 59.4164 54.5325 56.3219C54.5325 53.1913 55.7631 51.5265 58.6765 51.5265C61.2281 51.5265 62.3862 52.5398 62.6396 54.5485H64.5759C64.2501 51.6169 62.4586 49.9883 58.7489 49.9883C54.4782 49.9883 52.5781 52.757 52.5781 56.3219C52.5781 59.905 54.3697 62.6556 58.4232 62.6556ZM72.0347 53.1551C70.3518 53.1551 69.3746 54.1504 68.8317 55.4895V53.2999H67.0402V62.3479H68.8498V58.8916C68.8498 56.4305 69.4289 54.9104 71.8538 54.9104H72.3062V53.1551H72.0347ZM77.8487 62.6375C80.9974 62.6375 82.5175 60.4659 82.5175 57.8058C82.5175 55.1819 80.9974 53.0103 77.8487 53.0103C74.6999 53.0103 73.1799 55.1638 73.1799 57.8058C73.1799 60.484 74.6999 62.6375 77.8487 62.6375ZM75.0076 57.8239C75.0076 55.4171 75.8943 54.458 77.8487 54.458C79.8031 54.458 80.6898 55.4171 80.6898 57.8239C80.6898 60.2307 79.8031 61.1898 77.8487 61.1898C75.8943 61.1898 75.0076 60.2307 75.0076 57.8239ZM94.4964 60.9907L91.8906 53.2999H90.0809L87.4751 60.9907L85.2493 53.2999H83.3854L86.0998 62.3479H88.6694L90.9315 55.4714L93.1935 62.3479H95.7631L98.4775 53.2999H96.7222L94.4964 60.9907ZM105.477 62.3479V60.9003H102.762V54.6933H105.657V53.2999H102.762V51.255H101.857L101.115 53.1008L99.2338 53.7523V54.6933H100.952V59.6878C100.952 61.4974 101.495 62.3479 103.685 62.3479H105.477ZM112.523 53.0103C110.786 53.0103 109.79 53.9875 109.248 55.3266V49.6807H107.438V62.3479H109.248V58.5297C109.248 55.6524 110.225 54.5123 111.998 54.5123C113.138 54.5123 114.007 54.9647 114.007 56.8648V62.3479H115.816V56.702C115.816 54.3314 114.93 53.0103 112.523 53.0103Z" fill="#FAFAFA"/>
<path d="M243.281 36H175.403C166.835 36 159.889 42.9462 159.889 51.5148V62.1813C159.889 70.7499 166.835 77.6961 175.403 77.6961H243.281C251.85 77.6961 258.796 70.7499 258.796 62.1813V51.5148C258.796 42.9462 251.85 36 243.281 36Z" fill="#212121"/>
<path d="M184.262 50.314V51.816H188.442V62.3479H190.306V51.816H194.468V50.314H184.262ZM196.746 62.5832C198.665 62.5832 199.66 61.4431 200.022 60.3031C200.022 61.0269 200.058 61.6422 200.13 62.3479H201.777C201.705 61.4974 201.687 60.9545 201.687 60.285V55.7971C201.687 54.1323 200.456 52.9922 197.959 52.9922C195.389 52.9922 193.96 54.2047 193.942 56.1229H195.751C195.842 54.9828 196.547 54.3857 198.031 54.3857C199.588 54.3857 200.022 54.9466 200.022 55.761C200.022 56.3943 199.624 56.6658 198.755 56.8105L196.493 57.1905C194.466 57.5344 193.743 58.4754 193.743 59.9231C193.743 61.5879 194.901 62.5832 196.746 62.5832ZM197.127 61.1898C196.186 61.1898 195.552 60.7193 195.552 59.8507C195.552 59.0183 196.041 58.584 197.163 58.3306L198.411 58.0411C198.954 57.9144 199.533 57.7696 200.022 57.4077V57.9506C200.022 59.7602 199.027 61.1898 197.127 61.1898ZM205.755 62.3479V49.6807H203.946V62.3479H205.755ZM212.315 61.2984C210.758 61.2984 209.6 60.6107 209.455 58.3306H216.585C216.621 58.0954 216.621 57.8782 216.621 57.643C216.621 55.0552 215.138 53.0103 212.26 53.0103C209.166 53.0103 207.682 55.1638 207.682 57.8058C207.682 60.484 209.039 62.6375 212.26 62.6375C215.445 62.6375 216.44 60.8641 216.603 59.6154H214.938C214.685 60.5564 213.961 61.2984 212.315 61.2984ZM212.278 54.3495C213.889 54.3495 214.794 55.1819 214.884 57.0096H209.473C209.691 55.0009 210.722 54.3495 212.278 54.3495ZM223.522 53.0103C221.784 53.0103 220.789 53.9875 220.246 55.3266V53.2999H218.437V62.3479H220.246V58.5297C220.246 55.6524 221.223 54.5123 222.997 54.5123C224.137 54.5123 225.006 54.9647 225.006 56.8648V62.3479H226.815V56.702C226.815 54.3314 225.928 53.0103 223.522 53.0103ZM234.359 62.3479V60.9003H231.645V54.6933H234.54V53.2999H231.645V51.255H230.74L229.998 53.1008L228.116 53.7523V54.6933H229.835V59.6878C229.835 61.4974 230.378 62.3479 232.568 62.3479H234.359Z" fill="#FAFAFA"/>
<path d="M130.705 146H44.4035C35.8349 146 28.8887 152.946 28.8887 161.515V172.181C28.8887 180.75 35.8349 187.696 44.4035 187.696H130.705C139.273 187.696 146.22 180.75 146.22 172.181V161.515C146.22 152.946 139.273 146 130.705 146Z" fill="#212121"/>
<path d="M62.9027 160.314H53.8184V172.348H55.6823V167.046H62.3598V165.58H55.6823V161.816H62.9027V160.314ZM71.1474 167.118C71.1474 169.815 70.116 171.136 68.5054 171.136C67.293 171.136 66.3882 170.683 66.3882 168.783V163.3H64.5785V168.946C64.5785 171.317 65.5376 172.638 67.9444 172.638C69.6455 172.638 70.6226 171.697 71.1474 170.376V172.348H72.957V163.3H71.1474V167.118ZM80.3947 163.011C78.6575 163.011 77.6622 163.988 77.1193 165.327V163.3H75.3097V172.348H77.1193V168.53C77.1193 165.653 78.0965 164.513 79.8699 164.513C81.01 164.513 81.8786 164.965 81.8786 166.865V172.348H83.6882V166.702C83.6882 164.332 82.8015 163.011 80.3947 163.011ZM93.1488 164.856C92.5335 163.68 91.4297 163.011 89.801 163.011C86.8875 163.011 85.5846 165.164 85.5846 167.824C85.5846 170.484 86.8875 172.638 89.801 172.638C91.4297 172.638 92.5335 171.968 93.1488 170.792V172.348H94.9584V159.681H93.1488V164.856ZM90.181 171.19C88.1723 171.19 87.4123 170.068 87.4123 167.824C87.4123 165.58 88.1723 164.458 90.181 164.458C92.0811 164.458 93.1488 165.508 93.1488 167.824C93.1488 170.14 92.0811 171.19 90.181 171.19ZM99.4976 161.943V160.314H97.2174V161.943H99.4976ZM99.2623 172.348V163.3H97.4527V172.348H99.2623ZM106.708 163.011C104.971 163.011 103.976 163.988 103.433 165.327V163.3H101.623V172.348H103.433V168.53C103.433 165.653 104.41 164.513 106.184 164.513C107.324 164.513 108.192 164.965 108.192 166.865V172.348H110.002V166.702C110.002 164.332 109.115 163.011 106.708 163.011ZM119.426 164.748C118.829 163.68 117.761 163.065 116.168 163.065C113.255 163.065 111.898 164.929 111.898 167.589C111.898 170.249 113.255 172.113 116.168 172.113C117.761 172.113 118.829 171.588 119.426 170.52V172.258C119.426 174.122 118.575 174.773 116.603 174.773C114.793 174.773 113.997 174.049 113.888 172.837H112.079C112.242 175.008 113.834 176.166 116.585 176.166C119.969 176.166 121.235 174.773 121.235 172.312V163.3H119.426V164.748ZM116.603 170.719C114.594 170.719 113.725 169.887 113.725 167.589C113.725 165.291 114.594 164.458 116.603 164.458C118.503 164.458 119.426 165.363 119.426 167.589C119.426 169.815 118.503 170.719 116.603 170.719Z" fill="#FAFAFA"/>
<path d="M167.553 201H44.4035C35.8349 201 28.8887 207.946 28.8887 216.515V227.181C28.8887 235.75 35.8349 242.696 44.4035 242.696H167.553C176.121 242.696 183.068 235.75 183.068 227.181V216.515C183.068 207.946 176.121 201 167.553 201Z" fill="#212121"/>
<path d="M59.147 215.314H53.4648V227.348H55.3468V222.607H59.147C61.8252 222.607 62.8929 220.906 62.8929 218.951C62.8929 217.033 61.8252 215.314 59.147 215.314ZM55.3468 221.105V216.816H58.6946C60.3956 216.816 60.9385 217.721 60.9385 218.951C60.9385 220.182 60.3956 221.105 58.6946 221.105H55.3468ZM67.0677 227.583C68.9859 227.583 69.9812 226.443 70.3431 225.303C70.3431 226.027 70.3793 226.642 70.4517 227.348H72.0984C72.026 226.498 72.0079 225.955 72.0079 225.285V220.797C72.0079 219.132 70.7774 217.992 68.2801 217.992C65.7105 217.992 64.2809 219.205 64.2628 221.123H66.0724C66.1629 219.983 66.8686 219.386 68.3525 219.386C69.9088 219.386 70.3431 219.947 70.3431 220.761C70.3431 221.394 69.945 221.666 69.0764 221.811L66.8143 222.191C64.7876 222.534 64.0637 223.475 64.0637 224.923C64.0637 226.588 65.2219 227.583 67.0677 227.583ZM67.4477 226.19C66.5067 226.19 65.8733 225.719 65.8733 224.851C65.8733 224.018 66.3619 223.584 67.4839 223.331L68.7325 223.041C69.2754 222.914 69.8545 222.77 70.3431 222.408V222.951C70.3431 224.76 69.3478 226.19 67.4477 226.19ZM79.3321 218.155C77.6491 218.155 76.6719 219.15 76.129 220.49V218.3H74.3375V227.348H76.1471V223.892C76.1471 221.431 76.7262 219.911 79.1511 219.911H79.6035V218.155H79.3321ZM86.3546 227.348V225.9H83.6402V219.693H86.5356V218.3H83.6402V216.255H82.7354L81.9935 218.101L80.1115 218.752V219.693H81.8306V224.688C81.8306 226.498 82.3735 227.348 84.5631 227.348H86.3546ZM93.4011 218.01C91.6639 218.01 90.6686 218.988 90.1257 220.327V218.3H88.3161V227.348H90.1257V223.53C90.1257 220.652 91.1029 219.512 92.8763 219.512C94.0164 219.512 94.885 219.965 94.885 221.865V227.348H96.6946V221.702C96.6946 219.331 95.8079 218.01 93.4011 218.01ZM103.029 226.298C101.473 226.298 100.315 225.611 100.17 223.331H107.3C107.336 223.095 107.336 222.878 107.336 222.643C107.336 220.055 105.852 218.01 102.975 218.01C99.8805 218.01 98.3966 220.164 98.3966 222.806C98.3966 225.484 99.7538 227.638 102.975 227.638C106.16 227.638 107.155 225.864 107.318 224.616H105.653C105.4 225.557 104.676 226.298 103.029 226.298ZM102.993 219.35C104.604 219.35 105.508 220.182 105.599 222.01H100.188C100.405 220.001 101.437 219.35 102.993 219.35ZM114.146 218.155C112.463 218.155 111.486 219.15 110.943 220.49V218.3H109.151V227.348H110.961V223.892C110.961 221.431 111.54 219.911 113.965 219.911H114.417V218.155H114.146ZM115.127 224.326C115.127 226.172 116.339 227.638 119.325 227.638C121.949 227.638 123.162 226.678 123.162 224.815C123.162 223.421 122.546 222.39 120.302 222.046L118.348 221.756C117.371 221.612 117.099 221.159 117.099 220.616C117.099 219.892 117.66 219.331 119.054 219.331C120.447 219.331 121.117 220.037 121.207 220.87H123.017C122.89 219.169 121.442 217.992 119.108 217.992C116.737 217.992 115.344 219.042 115.344 220.779C115.344 222.154 116.195 223.023 117.769 223.258L120.013 223.602C120.972 223.747 121.388 224.163 121.388 224.905C121.388 225.737 120.99 226.298 119.379 226.298C117.624 226.298 116.882 225.43 116.81 224.326H115.127ZM130.194 218.01C128.457 218.01 127.462 218.988 126.919 220.327V214.681H125.109V227.348H126.919V223.53C126.919 220.652 127.896 219.512 129.669 219.512C130.809 219.512 131.678 219.965 131.678 221.865V227.348H133.488V221.702C133.488 219.331 132.601 218.01 130.194 218.01ZM137.863 216.943V215.314H135.583V216.943H137.863ZM137.628 227.348V218.3H135.818V227.348H137.628ZM145.287 218.01C143.658 218.01 142.554 218.68 141.939 219.856V218.3H140.13V230.967H141.939V225.792C142.554 226.968 143.658 227.638 145.287 227.638C148.2 227.638 149.503 225.484 149.503 222.824C149.503 220.164 148.2 218.01 145.287 218.01ZM144.907 226.19C143.007 226.19 141.939 225.14 141.939 222.824C141.939 220.508 143.007 219.458 144.907 219.458C146.916 219.458 147.676 220.58 147.676 222.824C147.676 225.068 146.916 226.19 144.907 226.19ZM150.948 224.326C150.948 226.172 152.16 227.638 155.146 227.638C157.77 227.638 158.983 226.678 158.983 224.815C158.983 223.421 158.367 222.39 156.124 222.046L154.169 221.756C153.192 221.612 152.921 221.159 152.921 220.616C152.921 219.892 153.481 219.331 154.875 219.331C156.268 219.331 156.938 220.037 157.028 220.87H158.838C158.711 219.169 157.264 217.992 154.929 217.992C152.559 217.992 151.165 219.042 151.165 220.779C151.165 222.154 152.016 223.023 153.59 223.258L155.834 223.602C156.793 223.747 157.209 224.163 157.209 224.905C157.209 225.737 156.811 226.298 155.201 226.298C153.445 226.298 152.703 225.43 152.631 224.326H150.948Z" fill="#FAFAFA"/>
<path d="M123.917 255H44.4035C35.8349 255 28.8887 261.946 28.8887 270.515V281.181C28.8887 289.75 35.8349 296.696 44.4035 296.696H123.917C132.485 296.696 139.432 289.75 139.432 281.181V270.515C139.432 261.946 132.485 255 123.917 255Z" fill="#212121"/>
<path d="M59.3908 281.656C63.3719 281.656 65.0548 279.719 65.2539 276.661H63.3357C63.1728 278.815 61.9604 280.117 59.3546 280.117C56.4954 280.117 55.2648 278.453 55.2648 275.322C55.2648 272.191 56.5497 270.527 59.4088 270.527C61.9061 270.527 63.0643 271.721 63.2995 273.784H65.1996C64.9282 270.798 63.2814 268.988 59.445 268.988C55.1925 268.988 53.3105 271.793 53.3105 275.322C53.3105 278.905 55.1382 281.656 59.3908 281.656ZM73.7186 276.118C73.7186 278.815 72.6872 280.136 71.0766 280.136C69.8642 280.136 68.9594 279.683 68.9594 277.783V272.3H67.1497V277.946C67.1497 280.317 68.1088 281.638 70.5156 281.638C72.2167 281.638 73.1939 280.697 73.7186 279.376V281.348H75.5282V272.3H73.7186V276.118ZM79.8672 281.348V268.681H78.0576V281.348H79.8672ZM87.6536 281.348V279.9H84.9392V273.693H87.8346V272.3H84.9392V270.255H84.0344L83.2925 272.101L81.4105 272.752V273.693H83.1296V278.688C83.1296 280.498 83.6725 281.348 85.8621 281.348H87.6536ZM96.003 276.118C96.003 278.815 94.9715 280.136 93.361 280.136C92.1485 280.136 91.2437 279.683 91.2437 277.783V272.3H89.4341V277.946C89.4341 280.317 90.3932 281.638 92.8 281.638C94.501 281.638 95.4782 280.697 96.003 279.376V281.348H97.8126V272.3H96.003V276.118ZM105.16 272.155C103.477 272.155 102.5 273.15 101.957 274.49V272.3H100.165V281.348H101.975V277.892C101.975 275.431 102.554 273.911 104.979 273.911H105.431V272.155H105.16ZM110.938 280.298C109.381 280.298 108.223 279.611 108.079 277.331H115.208C115.245 277.095 115.245 276.878 115.245 276.643C115.245 274.055 113.761 272.01 110.883 272.01C107.789 272.01 106.305 274.164 106.305 276.806C106.305 279.484 107.662 281.638 110.883 281.638C114.068 281.638 115.064 279.864 115.227 278.616H113.562C113.308 279.557 112.584 280.298 110.938 280.298ZM110.902 273.35C112.512 273.35 113.417 274.182 113.507 276.01H108.097C108.314 274.001 109.345 273.35 110.902 273.35Z" fill="#FAFAFA"/>
<path d="M247.311 146H180.403C171.835 146 164.889 152.946 164.889 161.515V172.181C164.889 180.75 171.835 187.696 180.403 187.696H247.311C255.88 187.696 262.826 180.75 262.826 172.181V161.515C262.826 152.946 255.88 146 247.311 146Z" fill="#212121"/>
<path d="M202.955 160.314H199.752L196.187 170.539L192.622 160.314H189.383V172.348H191.247V161.762L194.938 172.348H197.399L201.091 161.762V172.348H202.955V160.314ZM221.467 165.616H219.386C218.644 165.616 218.01 166.015 217.974 167.064C217.956 167.77 217.848 168.385 217.667 168.928L214.735 166.395C214.681 166.358 214.645 166.304 214.59 166.268L215.748 165.761C217.323 165.055 218.191 164.205 218.191 162.757C218.191 161.074 216.78 159.988 214.59 159.988C212.328 159.988 210.844 161.11 210.844 163.101C210.844 164.169 211.387 165.055 212.147 165.888C210.464 166.738 209.578 167.697 209.578 169.398C209.578 171.679 211.586 172.674 213.939 172.674C215.875 172.674 217.214 172.113 218.083 171.1L220.128 172.855L221.069 171.86L218.825 169.923C219.169 169.127 219.368 168.15 219.44 167.064H221.467V165.616ZM214.59 161.255C215.748 161.255 216.418 161.762 216.418 162.884C216.418 163.734 215.857 164.187 214.916 164.621L213.523 165.254C212.943 164.603 212.618 163.97 212.618 163.065C212.618 161.852 213.378 161.255 214.59 161.255ZM214.029 171.317C212.256 171.317 211.351 170.502 211.351 169.272C211.351 168.258 212.039 167.444 213.197 166.901L213.704 167.336L216.979 170.14C216.309 170.919 215.314 171.317 214.029 171.317ZM238.932 172.348L234.463 160.314H231.658L227.188 172.348H229.07L230.138 169.489H235.965L237.032 172.348H238.932ZM233.051 161.635L235.404 167.987H230.699L233.051 161.635Z" fill="#FAFAFA"/>
<path d="M246.924 91.4131H160.622C152.054 91.4131 145.107 98.3593 145.107 106.928V117.594C145.107 126.163 152.054 133.109 160.622 133.109H246.924C255.492 133.109 262.438 126.163 262.438 117.594V106.928C262.438 98.3593 255.492 91.4131 246.924 91.4131Z" fill="#212121"/>
<path d="M169.889 117.771L166.6 108.231H166.529C166.545 108.445 166.563 108.737 166.584 109.106C166.605 109.476 166.623 109.872 166.639 110.294C166.654 110.716 166.662 111.119 166.662 111.505V117.771H164.959V106.349H167.592L170.756 115.466H170.803L174.076 106.349H176.701V117.771H174.912V111.411C174.912 111.062 174.917 110.685 174.928 110.278C174.943 109.872 174.959 109.487 174.975 109.122C174.995 108.757 175.011 108.466 175.021 108.247H174.959L171.545 117.771H169.889ZM182.912 108.958C184.006 108.958 184.831 109.2 185.389 109.685C185.951 110.169 186.232 110.924 186.232 111.95V117.771H184.928L184.576 116.544H184.514C184.269 116.856 184.016 117.114 183.756 117.317C183.495 117.521 183.193 117.672 182.85 117.771C182.511 117.875 182.097 117.927 181.607 117.927C181.092 117.927 180.631 117.833 180.225 117.646C179.818 117.453 179.498 117.161 179.264 116.771C179.029 116.38 178.912 115.885 178.912 115.286C178.912 114.396 179.243 113.726 179.904 113.278C180.571 112.83 181.576 112.583 182.92 112.536L184.42 112.481V112.028C184.42 111.429 184.279 111.002 183.998 110.747C183.722 110.492 183.331 110.364 182.826 110.364C182.394 110.364 181.975 110.427 181.568 110.552C181.162 110.677 180.766 110.83 180.381 111.013L179.787 109.716C180.209 109.492 180.688 109.31 181.225 109.169C181.766 109.028 182.329 108.958 182.912 108.958ZM184.412 113.638L183.295 113.677C182.378 113.708 181.735 113.864 181.365 114.146C180.995 114.427 180.811 114.812 180.811 115.302C180.811 115.729 180.938 116.041 181.193 116.239C181.449 116.432 181.785 116.528 182.201 116.528C182.837 116.528 183.363 116.349 183.779 115.989C184.201 115.625 184.412 115.091 184.412 114.388V113.638ZM193.186 108.958C193.331 108.958 193.49 108.966 193.662 108.981C193.834 108.997 193.982 109.018 194.107 109.044L193.936 110.763C193.826 110.731 193.691 110.708 193.529 110.692C193.373 110.677 193.232 110.669 193.107 110.669C192.779 110.669 192.467 110.724 192.17 110.833C191.873 110.937 191.61 111.099 191.381 111.317C191.152 111.531 190.972 111.799 190.842 112.122C190.712 112.445 190.646 112.82 190.646 113.247V117.771H188.803V109.122H190.24L190.49 110.646H190.576C190.748 110.338 190.962 110.057 191.217 109.802C191.472 109.547 191.764 109.343 192.092 109.192C192.425 109.036 192.79 108.958 193.186 108.958ZM197.545 105.614V111.489C197.545 111.755 197.535 112.047 197.514 112.364C197.493 112.677 197.472 112.971 197.451 113.247H197.49C197.626 113.065 197.787 112.851 197.975 112.606C198.167 112.362 198.35 112.148 198.521 111.966L201.162 109.122H203.271L199.811 112.841L203.498 117.771H201.342L198.576 113.974L197.545 114.856V117.771H195.709V105.614H197.545ZM208.326 108.958C209.097 108.958 209.758 109.117 210.311 109.435C210.863 109.752 211.287 110.203 211.584 110.786C211.881 111.369 212.029 112.067 212.029 112.88V113.864H206.256C206.277 114.703 206.501 115.349 206.928 115.802C207.36 116.255 207.964 116.481 208.74 116.481C209.292 116.481 209.787 116.429 210.225 116.325C210.667 116.216 211.123 116.057 211.592 115.849V117.341C211.16 117.544 210.719 117.692 210.271 117.786C209.824 117.88 209.287 117.927 208.662 117.927C207.813 117.927 207.066 117.763 206.42 117.435C205.779 117.101 205.277 116.606 204.912 115.95C204.553 115.294 204.373 114.479 204.373 113.505C204.373 112.536 204.537 111.713 204.865 111.036C205.193 110.359 205.654 109.843 206.248 109.489C206.842 109.135 207.535 108.958 208.326 108.958ZM208.326 110.341C207.748 110.341 207.279 110.528 206.92 110.903C206.566 111.278 206.357 111.828 206.295 112.552H210.232C210.227 112.119 210.154 111.737 210.014 111.403C209.878 111.07 209.67 110.81 209.389 110.622C209.113 110.435 208.758 110.341 208.326 110.341ZM217.318 116.442C217.558 116.442 217.795 116.422 218.029 116.38C218.264 116.333 218.477 116.278 218.67 116.216V117.606C218.467 117.695 218.204 117.771 217.881 117.833C217.558 117.896 217.222 117.927 216.873 117.927C216.383 117.927 215.943 117.846 215.553 117.685C215.162 117.518 214.852 117.234 214.623 116.833C214.394 116.432 214.279 115.877 214.279 115.169V110.521H213.1V109.7L214.365 109.052L214.967 107.2H216.123V109.122H218.6V110.521H216.123V115.146C216.123 115.583 216.232 115.909 216.451 116.122C216.67 116.336 216.959 116.442 217.318 116.442ZM222.264 109.122V117.771H220.428V109.122H222.264ZM221.357 105.81C221.639 105.81 221.881 105.885 222.084 106.036C222.292 106.187 222.396 106.448 222.396 106.817C222.396 107.182 222.292 107.442 222.084 107.599C221.881 107.75 221.639 107.825 221.357 107.825C221.066 107.825 220.818 107.75 220.615 107.599C220.417 107.442 220.318 107.182 220.318 106.817C220.318 106.448 220.417 106.187 220.615 106.036C220.818 105.885 221.066 105.81 221.357 105.81ZM229.404 108.958C230.378 108.958 231.136 109.211 231.678 109.716C232.225 110.216 232.498 111.021 232.498 112.13V117.771H230.662V112.474C230.662 111.802 230.524 111.299 230.248 110.966C229.972 110.627 229.545 110.458 228.967 110.458C228.128 110.458 227.545 110.716 227.217 111.231C226.894 111.747 226.732 112.494 226.732 113.474V117.771H224.896V109.122H226.326L226.584 110.294H226.686C226.873 109.992 227.105 109.744 227.381 109.552C227.662 109.354 227.975 109.205 228.318 109.106C228.667 109.007 229.029 108.958 229.404 108.958ZM237.537 121.614C236.365 121.614 235.467 121.403 234.842 120.981C234.217 120.56 233.904 119.968 233.904 119.208C233.904 118.677 234.071 118.226 234.404 117.856C234.738 117.492 235.214 117.239 235.834 117.099C235.6 116.994 235.396 116.833 235.225 116.614C235.058 116.39 234.975 116.143 234.975 115.872C234.975 115.549 235.066 115.273 235.248 115.044C235.43 114.815 235.704 114.593 236.068 114.38C235.615 114.187 235.251 113.875 234.975 113.442C234.704 113.005 234.568 112.492 234.568 111.903C234.568 111.278 234.701 110.747 234.967 110.31C235.232 109.867 235.62 109.531 236.131 109.302C236.641 109.067 237.258 108.95 237.982 108.95C238.139 108.95 238.308 108.961 238.49 108.981C238.678 108.997 238.85 109.018 239.006 109.044C239.167 109.065 239.29 109.088 239.373 109.114H242.365V110.138L240.896 110.411C241.037 110.609 241.149 110.836 241.232 111.091C241.316 111.341 241.357 111.614 241.357 111.911C241.357 112.807 241.048 113.513 240.428 114.028C239.813 114.539 238.964 114.794 237.881 114.794C237.62 114.784 237.368 114.763 237.123 114.731C236.936 114.846 236.792 114.974 236.693 115.114C236.594 115.25 236.545 115.403 236.545 115.575C236.545 115.716 236.594 115.83 236.693 115.919C236.792 116.002 236.938 116.065 237.131 116.106C237.329 116.148 237.568 116.169 237.85 116.169H239.342C240.29 116.169 241.014 116.369 241.514 116.771C242.014 117.172 242.264 117.76 242.264 118.536C242.264 119.521 241.857 120.278 241.045 120.81C240.232 121.346 239.063 121.614 237.537 121.614ZM237.607 120.325C238.248 120.325 238.787 120.263 239.225 120.138C239.662 120.013 239.993 119.833 240.217 119.599C240.441 119.369 240.553 119.096 240.553 118.778C240.553 118.497 240.482 118.281 240.342 118.13C240.201 117.979 239.99 117.875 239.709 117.817C239.428 117.76 239.079 117.731 238.662 117.731H237.303C236.964 117.731 236.665 117.784 236.404 117.888C236.144 117.997 235.941 118.153 235.795 118.356C235.654 118.56 235.584 118.804 235.584 119.091C235.584 119.487 235.758 119.791 236.107 120.005C236.462 120.218 236.962 120.325 237.607 120.325ZM237.967 113.591C238.503 113.591 238.902 113.445 239.162 113.153C239.423 112.856 239.553 112.44 239.553 111.903C239.553 111.32 239.417 110.882 239.146 110.591C238.881 110.299 238.485 110.153 237.959 110.153C237.443 110.153 237.05 110.302 236.779 110.599C236.514 110.896 236.381 111.336 236.381 111.919C236.381 112.445 236.514 112.856 236.779 113.153C237.05 113.445 237.446 113.591 237.967 113.591Z" fill="white"/>
<path d="M146 0.5C146 33 100.5 20 77.5 18.5C54.5 17 20.5225 8.42827 6.50005 25C0.99999 31.5 1 41.5 1 41.5V58M1 58V110.5M1 58H22.0001M22.0001 275H1V221.5M1 221.5H22.0001M1 221.5V166.5M1 166.5H22.0001M1 166.5V110.5M1 110.5H22.0001" stroke="#C2C2C2" stroke-width="1.53" stroke-dasharray="1.53 1.53"/>
<path d="M143.5 57.5H157" stroke="white" stroke-width="1.53" stroke-dasharray="1.53 1.53"/>
<path d="M127 111H140.5" stroke="white" stroke-width="1.53" stroke-dasharray="1.53 1.53"/>
<path d="M149 166H162.5" stroke="white" stroke-width="1.53" stroke-dasharray="1.53 1.53"/>
<path d="M263.5 57.5H284V111M284 111H266.5M284 111V166M284 166H268M284 166L257.5 221.5M257.5 221.5H189.5M257.5 221.5L231 275.5H146" stroke="white" stroke-width="1.53" stroke-dasharray="1.53 1.53"/>
<path d="M86.4991 302.5C77.9991 345.5 124.499 337.5 144.499 335.5C164.499 333.5 174.999 345 169.499 353.5" stroke="white" stroke-width="1.53" stroke-dasharray="1.53 1.53"/>
</g>
<defs>
<clipPath id="clip0_444_1907">
<rect width="285" height="354" fill="white"/>
</clipPath>
</defs>
</svg>
